<svg width="1140" height="491" viewBox="0 0 1140 491" fill="none" xmlns="http://www.w3.org/2000/svg">
<path d="M222.643 0C214.053 0.0248539 205.659 2.57154 198.5 7.32472C191.341 12.0779 185.732 18.8289 182.367 26.7417C76.4493 32.8022 -0.329536 42.9944 0.00106353 50.961C0.308863 58.8705 76.5177 62.3402 181.58 59.2243C185.228 69.0627 192.25 77.2575 201.393 82.3593H184.339V113.655H163.477C162.167 113.653 160.871 113.91 159.66 114.411C158.45 114.912 157.35 115.646 156.424 116.573C155.498 117.499 154.763 118.599 154.261 119.81C153.76 121.021 153.502 122.319 153.502 123.63V145.932C153.502 151.445 157.959 155.907 163.465 155.907H303.868C339.242 164.239 343.197 176.942 369.691 200.192C365.359 224.308 358.975 250.639 353.982 273.397V467.117C353.982 473.451 356.495 479.526 360.969 484.005C365.442 488.484 371.51 491 377.836 491C384.163 491 390.23 488.484 394.704 484.005C399.177 479.526 401.691 473.451 401.691 467.117V373.447C401.144 294.695 413.843 262.851 457.608 201.892L468.609 196.779C468.609 244.099 501.281 246.941 547.36 257.498H512.749C502.216 257.498 493.666 266.058 493.666 276.616V390.75C493.666 401.296 502.216 409.856 512.749 409.856H627.251C637.784 409.856 646.334 401.296 646.334 390.75V276.616C646.334 266.058 637.784 257.51 627.251 257.51H592.675C638.742 246.918 671.391 244.088 671.391 196.779L682.392 201.892C737.762 259.256 738.309 298.301 738.309 373.436V467.106C738.309 473.44 740.823 479.515 745.296 483.994C749.77 488.472 755.837 490.989 762.164 490.989C768.49 490.989 774.558 488.472 779.031 483.994C783.505 479.515 786.018 473.44 786.018 467.106V273.397C780.17 248.39 773.911 222.185 768.006 196.22C793.075 171.624 803.358 166.088 835.905 155.907H976.535C979.177 155.907 981.712 154.856 983.58 152.986C985.449 151.115 986.498 148.578 986.498 145.932V123.63C986.498 120.985 985.449 118.447 983.58 116.577C981.712 114.706 979.177 113.655 976.535 113.655H955.661V82.3593H938.607C947.755 77.2592 954.782 69.0543 958.42 59.2243C1063.48 62.3402 1139.69 58.8705 1140 50.961C1140.33 42.9944 1063.55 32.8136 957.634 26.7417C954.386 19.1107 949.049 12.5552 942.238 7.83243C935.427 3.10963 927.42 0.412202 919.143 0.0517458C910.866 -0.30871 902.656 1.6825 895.461 5.79538C888.266 9.90826 882.381 15.975 878.483 23.2948C772.384 20.0648 694.91 23.5002 694.465 31.4668C694.134 39.3763 769.876 49.5001 874.893 55.572C876.434 61.2078 879.081 66.4794 882.681 71.0789C886.281 75.6783 890.76 79.5132 895.857 82.3593H878.803V113.655C771.255 113.404 688.013 59.2928 570 57.0672C455.966 59.4868 360.468 113.655 261.197 113.655V82.3593H244.143C249.24 79.5132 253.719 75.6783 257.319 71.0789C260.919 66.4794 263.566 61.2078 265.108 55.572C370.124 49.5001 445.866 39.3649 445.535 31.4668C445.09 23.5002 367.616 20.0534 261.517 23.2948C257.762 16.2433 252.159 10.3496 245.31 6.24725C238.461 2.14489 230.624 -0.0109804 222.643 0.0114072V0ZM570 285.484C596.756 285.484 618.746 307.501 618.746 334.288C618.746 361.075 596.756 383.103 570 383.103C543.244 383.103 521.231 361.075 521.231 334.288C521.231 307.501 543.233 285.484 570 285.484ZM570 314.132C558.714 314.132 549.856 322.989 549.856 334.288C549.856 345.587 558.714 354.444 570 354.444C581.286 354.444 590.121 345.587 590.121 334.288C590.121 322.989 581.286 314.132 570 314.132Z" fill="black"/>
</svg>
