<svg width="130" height="24" viewBox="0 0 130 24" fill="none" xmlns="http://www.w3.org/2000/svg">
<g clip-path="url(#clip0_1153_122)">
<path d="M13.9066 24L13.9139 23.9746C9.28271 23.6274 5.63308 19.7532 5.63308 15.0251C5.63308 13.2881 6.12561 11.6664 6.97852 10.2924H6.84135C3.07861 10.2924 0 13.3767 0 17.1462C0 20.9159 3.07861 24 6.8416 24H14.5923H14.592H13.9066Z" fill="#F15824"/>
<path d="M30.7855 2.54546H29.2761C29.0268 2.54546 28.779 2.553 28.5328 2.56807C26.9842 0.983314 24.8252 0 22.4367 0C18.5902 0 15.3383 2.55074 14.2743 6.05565C11.1927 6.16317 8.50678 7.82983 6.97826 10.2924C6.12535 11.6664 5.63281 13.2881 5.63281 15.0251C5.63281 19.7532 9.28245 23.6274 13.9137 23.9746L13.9064 24H14.5915H14.5918H17.8707C17.5931 23.8442 17.322 23.6759 17.0575 23.495C16.1228 22.8567 15.3007 22.1027 14.5915 21.2337C13.8821 20.3647 13.3263 19.3492 12.9236 18.1873C12.5211 17.0256 12.3197 15.7963 12.3197 14.5C12.3197 13.0295 12.5935 11.6272 13.1407 10.2924C13.1475 10.2761 13.154 10.2597 13.1608 10.2434C13.7216 8.8943 14.4882 7.72758 15.4612 6.74326C16.434 5.7592 17.6129 4.97661 18.9983 4.39552C20.3833 3.81468 21.8572 3.524 23.4196 3.524C25.0105 3.524 26.5059 3.79307 27.9056 4.3307C29.3049 4.86859 30.5127 5.61524 31.5289 6.57042C32.5448 7.5261 33.3453 8.69984 33.9301 10.0922C34.0384 10.3502 34.1368 10.6127 34.225 10.8793C34.613 12.0513 34.8071 13.3059 34.8071 14.6437V23.1189V23.2172C38.7278 21.6241 41.4932 17.7718 41.4932 13.2725C41.4937 7.34823 36.6995 2.54546 30.7855 2.54546Z" fill="#F4763C"/>
<path d="M32.9474 10.4562C32.7896 10.0917 32.6093 9.73744 32.4062 9.39376C31.4953 7.85246 30.2542 6.66188 28.6823 5.82152C27.1101 4.9814 25.3559 4.5611 23.4199 4.5611C21.5601 4.5611 19.8588 5.00753 18.3157 5.90065C16.7724 6.79378 15.5598 8.00144 14.6781 9.52314C14.5316 9.77563 14.3977 10.0321 14.2758 10.2922C13.6622 11.5996 13.3555 13.0019 13.3555 14.4998C13.3555 15.6808 13.5446 16.802 13.9235 17.863C14.3019 18.9242 14.8195 19.8507 15.4763 20.6428C16.1329 21.435 16.89 22.1193 17.7482 22.6954C18.5998 23.2674 19.5179 23.7023 20.502 23.9998H26.2658C26.4355 23.9405 26.6041 23.8754 26.7708 23.8046V23.9998H27.5615V14.644C27.5615 13.4149 27.1829 12.4643 26.4258 11.792C25.6684 11.12 24.6668 10.7838 23.4206 10.7838C22.3661 10.7838 21.4603 11.1488 20.7031 11.8784C19.9458 12.6082 19.5674 13.4823 19.5674 14.5C19.5674 15.0761 19.6438 15.5924 19.7973 16.0483C19.9505 16.5046 20.1589 16.8837 20.4228 17.1862C20.6863 17.4886 21.0001 17.7384 21.3645 17.9351C21.7286 18.132 22.1095 18.2735 22.5075 18.3599C22.9053 18.4463 23.3293 18.4895 23.78 18.4895C24.8727 18.4895 25.8695 18.2207 26.7706 17.6828V18.7199C25.8407 19.2096 24.839 19.4545 23.7654 19.4545C23.0753 19.4545 22.4258 19.3608 21.8171 19.1736C21.2082 18.9865 20.6547 18.7033 20.1564 18.3237C19.6579 17.9444 19.2624 17.4261 18.9702 16.7681C18.6778 16.1104 18.5316 15.3542 18.5316 14.4995C18.5316 13.1743 18.9963 12.0508 19.9262 11.129C20.2718 10.7863 20.65 10.5075 21.0608 10.2922C21.7544 9.92837 22.5409 9.74623 23.4201 9.74623C24.4185 9.74623 25.2932 9.92837 26.0448 10.2922C26.4551 10.4906 26.8288 10.7431 27.1656 11.0499C28.1193 11.9191 28.5963 13.1167 28.5963 14.6437V24H28.7139H29.6315H30.6667H31.463C31.543 24 31.6225 23.9985 31.702 23.9957V23.9611V14.644C31.702 13.0595 31.3401 11.6551 30.6163 10.4308C30.5887 10.3844 30.5607 10.3381 30.5323 10.2924C29.8166 9.13549 28.8551 8.24312 27.6471 7.6148C26.3911 6.96185 24.9822 6.63525 23.4199 6.63525C21.934 6.63525 20.5778 6.98823 19.3509 7.69393C18.2141 8.34789 17.306 9.21413 16.6259 10.2924C16.572 10.3781 16.5191 10.465 16.4679 10.5532C15.7728 11.7536 15.4254 13.0693 15.4254 14.4998C15.4254 15.729 15.6506 16.85 16.1013 17.863C16.5517 18.8762 17.1581 19.7093 17.9202 20.362C18.6823 21.0152 19.5495 21.5214 20.5226 21.8816C21.4954 22.2417 22.514 22.4218 23.5779 22.4218C24.661 22.4218 25.7251 22.1962 26.7698 21.7447V22.7961C25.6772 23.2091 24.6033 23.4154 23.549 23.4154C21.8906 23.4154 20.3666 23.0408 18.9768 22.2919C17.5867 21.543 16.475 20.482 15.6411 19.1086C14.8072 17.7356 14.3902 16.1991 14.3902 14.4993C14.3902 13.2893 14.6224 12.1369 15.0876 11.0423C15.1975 10.7838 15.3166 10.5336 15.4447 10.2917C15.8595 9.50932 16.3706 8.81341 16.9783 8.20468C17.7738 7.40778 18.7325 6.77393 19.854 6.30338C20.9755 5.83307 22.164 5.59767 23.4199 5.59767C25.1741 5.59767 26.7578 5.97225 28.1719 6.72117C29.5856 7.47009 30.7001 8.53606 31.5149 9.91883C31.5881 10.0432 31.6581 10.1693 31.7248 10.2967C32.3994 11.5865 32.7372 13.0353 32.7372 14.6432V23.8214V23.8792C33.0926 23.8113 33.4384 23.7159 33.7724 23.5948V23.5759V14.644C33.7722 13.122 33.4971 11.7262 32.9474 10.4562ZM23.6355 21.4282C22.6866 21.4282 21.7855 21.282 20.9324 20.9888C20.0792 20.6961 19.3171 20.2685 18.6462 19.7067C17.9751 19.145 17.4432 18.4154 17.0502 17.5173C16.657 16.6196 16.4607 15.6137 16.4607 14.4998C16.4607 12.8951 16.9419 11.4928 17.9039 10.2922C18.0759 10.0774 18.2635 9.86908 18.4664 9.66709C19.8036 8.33708 21.4547 7.67208 23.4196 7.67208C24.7999 7.67208 26.0365 7.95295 27.1292 8.5147C27.9826 8.95335 28.6956 9.54575 29.2684 10.2922C29.4291 10.5014 29.5786 10.7228 29.7173 10.9564C30.35 12.0224 30.6662 13.2516 30.6662 14.6437V24H29.631V14.644C29.631 12.8291 29.0509 11.3865 27.8913 10.3155C27.8828 10.3077 27.874 10.3002 27.8655 10.2924C26.7091 9.23749 25.2273 8.70941 23.4196 8.70941C21.7845 8.70941 20.4105 9.23699 19.298 10.2924C19.2627 10.3261 19.2275 10.3602 19.1924 10.3947C18.0612 11.5182 17.4959 12.8866 17.4959 14.4998C17.4959 15.4793 17.6659 16.3579 18.0062 17.1357C18.3463 17.9135 18.809 18.5378 19.3938 19.0081C19.9784 19.4786 20.6327 19.8364 21.3564 20.0811C22.0799 20.326 22.8446 20.4484 23.6498 20.4484C24.7425 20.4484 25.7825 20.1941 26.7698 19.6849V20.7795C25.7346 21.2121 24.6898 21.4282 23.6355 21.4282Z" fill="#F4763C"/>
</g>
<path d="M56.3263 8.52225H58.5296V21.6371H56.3132L56.2345 19.4207C55.8236 20.1813 55.2553 20.7977 54.5296 21.2698C53.8126 21.742 52.9602 21.978 51.9722 21.978C51.0017 21.978 50.0968 21.7988 49.2574 21.4403C48.4181 21.0731 47.6749 20.5704 47.0279 19.9321C46.3897 19.2851 45.8913 18.542 45.5328 17.7026C45.1744 16.8633 44.9951 15.9583 44.9951 14.9879C44.9951 14.0523 45.17 13.1693 45.5197 12.3387C45.8694 11.5081 46.3547 10.7824 46.9755 10.1616C47.605 9.53209 48.3307 9.04247 49.1525 8.69274C49.9744 8.33427 50.8531 8.15504 51.7886 8.15504C52.829 8.15504 53.7383 8.39985 54.5165 8.88946C55.3034 9.37034 55.9329 9.99548 56.405 10.7649L56.3263 8.52225ZM52.0247 19.8403C52.899 19.8403 53.6509 19.6218 54.2804 19.1846C54.9099 18.7474 55.3864 18.1616 55.7099 17.4272C56.0422 16.6928 56.1908 15.8797 56.1558 14.9879C56.1208 14.1135 55.9154 13.3223 55.5394 12.6141C55.1635 11.9059 54.6564 11.3463 54.0181 10.9354C53.3799 10.5157 52.6367 10.3059 51.7886 10.3059C50.923 10.3059 50.1361 10.5244 49.4279 10.9616C48.7197 11.3988 48.1645 11.9846 47.7623 12.719C47.3689 13.4534 47.1897 14.2709 47.2246 15.1715C47.2684 16.037 47.5132 16.8239 47.9591 17.5321C48.405 18.2403 48.982 18.8043 49.6902 19.2239C50.4072 19.6349 51.1853 19.8403 52.0247 19.8403Z" fill="#6F6E73"/>
<path d="M71.977 8.52225H74.1803V21.6371H71.9639L71.8852 19.4207C71.4743 20.1813 70.906 20.7977 70.1803 21.2698C69.4633 21.742 68.6109 21.978 67.6229 21.978C66.6524 21.978 65.7475 21.7988 64.9081 21.4403C64.0688 21.0731 63.3256 20.5704 62.6786 19.9321C62.0403 19.2851 61.542 18.542 61.1835 17.7026C60.825 16.8633 60.6458 15.9583 60.6458 14.9879C60.6458 14.0523 60.8207 13.1693 61.1704 12.3387C61.5201 11.5081 62.0054 10.7824 62.6261 10.1616C63.2556 9.53209 63.9813 9.04247 64.8032 8.69274C65.6251 8.33427 66.5037 8.15504 67.4393 8.15504C68.4797 8.15504 69.389 8.39985 70.1672 8.88946C70.954 9.37034 71.5836 9.99548 72.0557 10.7649L71.977 8.52225ZM67.6753 19.8403C68.5497 19.8403 69.3016 19.6218 69.9311 19.1846C70.5606 18.7474 71.0371 18.1616 71.3606 17.4272C71.6928 16.6928 71.8415 15.8797 71.8065 14.9879C71.7715 14.1135 71.5661 13.3223 71.1901 12.6141C70.8141 11.9059 70.307 11.3463 69.6688 10.9354C69.0305 10.5157 68.2874 10.3059 67.4393 10.3059C66.5737 10.3059 65.7868 10.5244 65.0786 10.9616C64.3704 11.3988 63.8152 11.9846 63.413 12.719C63.0196 13.4534 62.8403 14.2709 62.8753 15.1715C62.919 16.037 63.1638 16.8239 63.6097 17.5321C64.0557 18.2403 64.6327 18.8043 65.3409 19.2239C66.0578 19.6349 66.836 19.8403 67.6753 19.8403Z" fill="#6F6E73"/>
<path d="M88.1824 21.6371H85.6381L82.1496 15.6174L79.7365 18.5026V21.6371H77.5463V1.96484H79.7365V15.0797L85.2316 8.52225H88.1168L83.6578 13.8337L88.1824 21.6371Z" fill="#6F6E73"/>
<path d="M100.512 8.52225H102.715V21.6371H100.499L100.42 19.4207C100.009 20.1813 99.4409 20.7977 98.7152 21.2698C97.9983 21.742 97.1458 21.978 96.1578 21.978C95.1873 21.978 94.2824 21.7988 93.4431 21.4403C92.6037 21.0731 91.8606 20.5704 91.2136 19.9321C90.5753 19.2851 90.0769 18.542 89.7185 17.7026C89.36 16.8633 89.1808 15.9583 89.1808 14.9879C89.1808 14.0523 89.3556 13.1693 89.7054 12.3387C90.0551 11.5081 90.5403 10.7824 91.1611 10.1616C91.7906 9.53209 92.5163 9.04247 93.3382 8.69274C94.16 8.33427 95.0387 8.15504 95.9742 8.15504C97.0147 8.15504 97.924 8.39985 98.7021 8.88946C99.489 9.37034 100.119 9.99548 100.591 10.7649L100.512 8.52225ZM96.2103 19.8403C97.0846 19.8403 97.8365 19.6218 98.466 19.1846C99.0956 18.7474 99.5721 18.1616 99.8956 17.4272C100.228 16.6928 100.376 15.8797 100.341 14.9879C100.306 14.1135 100.101 13.3223 99.7251 12.6141C99.3491 11.9059 98.842 11.3463 98.2038 10.9354C97.5655 10.5157 96.8223 10.3059 95.9742 10.3059C95.1087 10.3059 94.3218 10.5244 93.6136 10.9616C92.9054 11.3988 92.3502 11.9846 91.948 12.719C91.5545 13.4534 91.3753 14.2709 91.4103 15.1715C91.454 16.037 91.6988 16.8239 92.1447 17.5321C92.5906 18.2403 93.1677 18.8043 93.8759 19.2239C94.5928 19.6349 95.3709 19.8403 96.2103 19.8403Z" fill="#6F6E73"/>
<path d="M109.989 21.8862C109.281 21.86 108.591 21.7289 107.917 21.4928C107.253 21.248 106.667 20.9201 106.16 20.5092C105.662 20.0895 105.299 19.6086 105.071 19.0666L106.96 18.2534C107.091 18.5507 107.327 18.8305 107.668 19.0928C108.009 19.3551 108.403 19.5649 108.848 19.7223C109.294 19.8797 109.745 19.9584 110.199 19.9584C110.68 19.9584 111.13 19.884 111.55 19.7354C111.97 19.5868 112.311 19.3682 112.573 19.0797C112.844 18.7824 112.98 18.4283 112.98 18.0174C112.98 17.5802 112.831 17.2392 112.534 16.9944C112.245 16.7409 111.878 16.5441 111.432 16.4043C110.995 16.2556 110.549 16.1157 110.094 15.9846C109.194 15.7573 108.389 15.4862 107.681 15.1715C106.973 14.848 106.413 14.4414 106.003 13.9518C105.6 13.4534 105.399 12.8195 105.399 12.0501C105.399 11.237 105.622 10.5332 106.068 9.93865C106.523 9.34411 107.117 8.88509 107.852 8.56159C108.586 8.2381 109.373 8.07635 110.212 8.07635C111.27 8.07635 112.236 8.30367 113.111 8.75832C113.985 9.21296 114.636 9.82936 115.065 10.6075L113.294 11.6436C113.146 11.3288 112.918 11.0534 112.612 10.8173C112.306 10.5725 111.957 10.3802 111.563 10.2403C111.17 10.1004 110.768 10.0261 110.357 10.0173C109.85 9.99985 109.373 10.0654 108.927 10.2141C108.49 10.3627 108.136 10.59 107.865 10.896C107.603 11.1933 107.471 11.5649 107.471 12.0108C107.471 12.448 107.611 12.7802 107.891 13.0075C108.18 13.2348 108.551 13.4184 109.006 13.5583C109.469 13.6895 109.972 13.8425 110.514 14.0174C111.31 14.2709 112.053 14.5638 112.744 14.896C113.434 15.2283 113.989 15.6436 114.409 16.142C114.838 16.6403 115.047 17.2567 115.039 17.9911C115.039 18.7955 114.798 19.4993 114.317 20.1026C113.836 20.6972 113.211 21.1518 112.442 21.4666C111.681 21.7813 110.864 21.9212 109.989 21.8862Z" fill="#6F6E73"/>
<path d="M129.253 14.6731V21.6371H127.049V14.7256C127.049 13.9124 126.879 13.1693 126.538 12.496C126.206 11.8228 125.751 11.2895 125.174 10.896C124.606 10.5026 123.976 10.3059 123.285 10.3059C122.56 10.3059 121.921 10.5026 121.371 10.896C120.829 11.2895 120.405 11.8228 120.099 12.496C119.801 13.1693 119.653 13.9124 119.653 14.7256V21.6371H117.436V1.96484H119.639V10.3583C120.05 9.58892 120.584 9.03373 121.24 8.69274C121.895 8.34301 122.638 8.16815 123.469 8.16815C124.614 8.16815 125.615 8.46542 126.472 9.05996C127.338 9.6545 128.011 10.4458 128.492 11.4337C128.982 12.4217 129.235 13.5015 129.253 14.6731Z" fill="#6F6E73"/>
<defs>
<clipPath id="clip0_1153_122">
<rect width="41.494" height="24" fill="white"/>
</clipPath>
</defs>
</svg>
