<svg width="173" height="32" viewBox="0 0 173 32" fill="none" xmlns="http://www.w3.org/2000/svg">
<g clip-path="url(#clip0_311_3608)">
<path d="M18.5422 32L18.5519 31.9661C12.377 31.5032 7.51077 26.3376 7.51077 20.0334C7.51077 17.7174 8.16749 15.5551 9.3047 13.7231H9.1218C4.10481 13.7231 0 17.8356 0 22.8616C0 27.8878 4.10481 32 9.12213 32H19.4564H19.456H18.5422Z" fill="#E3E3E3"/>
<path d="M41.0477 3.39395H39.0351C38.7027 3.39395 38.3724 3.404 38.044 3.4241C35.9792 1.31109 33.1006 0 29.916 0C24.7873 0 20.4515 3.40098 19.0327 8.0742C14.9239 8.21756 11.3427 10.4398 9.30467 13.7232C8.16746 15.5552 7.51074 17.7174 7.51074 20.0334C7.51074 26.3376 12.3769 31.5032 18.5519 31.9662L18.5422 32H19.4557H19.456H23.828C23.4578 31.7923 23.0964 31.5679 22.7436 31.3267C21.4974 30.4755 20.4013 29.4703 19.4557 28.3116C18.5097 27.1529 17.7688 25.799 17.2317 24.2497C16.6951 22.7008 16.4266 21.0618 16.4266 19.3333C16.4266 17.3727 16.7917 15.5029 17.5213 13.7232C17.5303 13.7014 17.539 13.6796 17.5481 13.6579C18.2957 11.8591 19.3179 10.3034 20.6153 8.99102C21.9123 7.67893 23.4843 6.63549 25.3313 5.86069C27.1781 5.08623 29.1432 4.69867 31.2264 4.69867C33.3477 4.69867 35.3416 5.05743 37.2077 5.77427C39.0736 6.49145 40.6839 7.48699 42.0388 8.76056C43.3934 10.0348 44.4607 11.5998 45.2405 13.4562C45.3849 13.8002 45.516 14.1503 45.6337 14.5057C46.151 16.0683 46.4098 17.7412 46.4098 19.5249V30.8252V30.9562C51.6374 28.8322 55.3246 23.6957 55.3246 17.6966C55.3253 9.79763 48.933 3.39395 41.0477 3.39395Z" fill="white"/>
<path d="M43.9304 13.9417C43.7201 13.4556 43.4797 12.9833 43.2088 12.5251C41.9944 10.47 40.3396 8.88259 38.2437 7.7621C36.1475 6.64195 33.8085 6.08154 31.2271 6.08154C28.7474 6.08154 26.479 6.67679 24.4216 7.86762C22.3638 9.05845 20.7471 10.6687 19.5714 12.6976C19.3761 13.0343 19.1976 13.3763 19.0351 13.723C18.2169 15.4662 17.8079 17.336 17.8079 19.3331C17.8079 20.9078 18.06 22.4028 18.5653 23.8174C19.0699 25.2323 19.76 26.4677 20.6357 27.5239C21.5111 28.58 22.5206 29.4925 23.6649 30.2606C24.8004 31.0233 26.0246 31.6032 27.3367 31.9998H35.0216C35.248 31.9207 35.4727 31.834 35.6951 31.7395V31.9998H36.7494V19.5254C36.7494 17.8867 36.2444 16.6191 35.235 15.7227C34.2251 14.8267 32.8896 14.3785 31.2281 14.3785C29.8221 14.3785 28.6143 14.8652 27.6048 15.838C26.595 16.8111 26.0904 17.9764 26.0904 19.3334C26.0904 20.1015 26.1924 20.7899 26.3971 21.3979C26.6014 22.0062 26.8792 22.5117 27.231 22.915C27.5824 23.3183 28.0007 23.6512 28.4866 23.9135C28.9721 24.1761 29.48 24.3647 30.0107 24.48C30.541 24.5952 31.1064 24.6528 31.7073 24.6528C33.1642 24.6528 34.4933 24.2944 35.6947 23.5772V24.96C34.4549 25.6128 33.1194 25.9394 31.6879 25.9394C30.7677 25.9394 29.9017 25.8145 29.0901 25.5649C28.2783 25.3154 27.5403 24.9379 26.8759 24.4317C26.2111 23.9259 25.6838 23.2349 25.2943 22.3576C24.9044 21.4806 24.7095 20.4723 24.7095 19.3328C24.7095 17.5658 25.3291 16.0678 26.5689 14.8388C27.0297 14.3818 27.5339 14.01 28.0816 13.723C29.0065 13.2379 30.0551 12.9951 31.2275 12.9951C32.5586 12.9951 33.7249 13.2379 34.727 13.723C35.2741 13.9876 35.7723 14.3242 36.2214 14.7332C37.493 15.8922 38.129 17.4891 38.129 19.525V32.0001H38.2858H39.5093H40.8896H41.9513C42.0579 32.0001 42.1639 31.9981 42.2699 31.9944V31.9482V19.5254C42.2699 17.4127 41.7874 15.5402 40.8224 13.9079C40.7856 13.8459 40.7482 13.7843 40.7104 13.7233C39.7561 12.1807 38.4741 10.9909 36.8634 10.1531C35.1888 9.28255 33.3103 8.84708 31.2271 8.84708C29.2459 8.84708 27.4376 9.31772 25.8019 10.2587C24.2861 11.1306 23.0754 12.2856 22.1685 13.7233C22.0966 13.8375 22.0261 13.9534 21.9579 14.071C21.031 15.6715 20.5679 17.4258 20.5679 19.3331C20.5679 20.9721 20.8681 22.4668 21.469 23.8174C22.0696 25.1683 22.8781 26.2791 23.8942 27.1494C24.9104 28.0203 26.0667 28.6953 27.3641 29.1756C28.6611 29.6556 30.0194 29.8958 31.4378 29.8958C32.882 29.8958 34.3007 29.595 35.6937 28.9931V30.3949C34.2368 30.9456 32.805 31.2206 31.3993 31.2206C29.1881 31.2206 27.1561 30.7212 25.303 29.7226C23.4495 28.7241 21.9672 27.3095 20.8554 25.4782C19.7436 23.6475 19.1876 21.5989 19.1876 19.3324C19.1876 17.7192 19.4972 16.1827 20.1175 14.7232C20.2639 14.3785 20.4227 14.0449 20.5936 13.7223C21.1467 12.6792 21.8281 11.7513 22.6383 10.9397C23.699 9.87713 24.9773 9.03199 26.4726 8.40458C27.968 7.77751 29.5526 7.46364 31.2271 7.46364C33.5661 7.46364 35.6777 7.96309 37.5632 8.96164C39.4481 9.9602 40.9341 11.3815 42.0205 13.2252C42.1181 13.391 42.2114 13.5592 42.3003 13.729C43.1998 15.4487 43.6502 17.3805 43.6502 19.5244V31.7619V31.839C44.124 31.7485 44.5851 31.6213 45.0305 31.4598V31.4347V19.5254C45.0302 17.4961 44.6634 15.635 43.9304 13.9417ZM31.5147 28.571C30.2494 28.571 29.048 28.376 27.9104 27.9851C26.7729 27.5949 25.7567 27.0247 24.8623 26.2757C23.9675 25.5267 23.2583 24.554 22.7343 23.3565C22.21 22.1596 21.9482 20.8184 21.9482 19.3331C21.9482 17.1936 22.5898 15.3238 23.8725 13.723C24.1019 13.4366 24.352 13.1589 24.6225 12.8895C26.4054 11.1162 28.6069 10.2295 31.2268 10.2295C33.0672 10.2295 34.716 10.604 36.1729 11.353C37.3108 11.9379 38.2614 12.7277 39.0251 13.723C39.2395 14.002 39.4387 14.2971 39.6237 14.6086C40.4673 16.0299 40.8889 17.6689 40.8889 19.525V32.0001H39.5086V19.5254C39.5086 17.1055 38.7352 15.1821 37.1891 13.7541C37.1777 13.7437 37.166 13.7337 37.1546 13.7233C35.6128 12.3167 33.637 11.6126 31.2268 11.6126C29.0467 11.6126 27.2146 12.3161 25.7313 13.7233C25.6842 13.7682 25.6374 13.8137 25.5905 13.8596C24.0822 15.3576 23.3285 17.1822 23.3285 19.3331C23.3285 20.6392 23.5552 21.8106 24.0089 22.8476C24.4624 23.8847 25.0793 24.7171 25.859 25.3442C26.6385 25.9716 27.5109 26.4486 28.4759 26.7749C29.4405 27.1015 30.4601 27.2646 31.5337 27.2646C32.9906 27.2646 34.3773 26.9256 35.6937 26.2466V27.7061C34.3134 28.2829 32.9204 28.571 31.5147 28.571Z" fill="white"/>
</g>
<path d="M75.1022 11.4361H78.0399V28.9225H75.0847L74.9798 25.9673C74.4319 26.9815 73.6742 27.8034 72.7066 28.4329C71.7507 29.0624 70.614 29.3771 69.2967 29.3771C68.0027 29.3771 66.7962 29.1382 65.677 28.6602C64.5579 28.1706 63.567 27.5003 62.7044 26.6493C61.8533 25.7866 61.1889 24.7957 60.7109 23.6766C60.2329 22.5574 59.994 21.3509 59.994 20.0569C59.994 18.8095 60.2271 17.6321 60.6934 16.5246C61.1597 15.4172 61.8067 14.4496 62.6344 13.6219C63.4738 12.7825 64.4413 12.1297 65.5372 11.6634C66.633 11.1854 67.8046 10.9465 69.0519 10.9465C70.4392 10.9465 71.6516 11.2729 72.6891 11.9257C73.7383 12.5669 74.5776 13.4004 75.2071 14.4263L75.1022 11.4361ZM69.3667 26.5269C70.5324 26.5269 71.535 26.2354 72.3743 25.6525C73.2137 25.0697 73.849 24.2886 74.2804 23.3094C74.7233 22.3301 74.9215 21.246 74.8749 20.0569C74.8283 18.8911 74.5543 17.8361 74.053 16.8918C73.5518 15.9476 72.8756 15.2015 72.0246 14.6536C71.1736 14.094 70.1827 13.8142 69.0519 13.8142C67.8978 13.8142 66.8486 14.1057 65.9044 14.6886C64.9601 15.2714 64.2198 16.0525 63.6836 17.0317C63.159 18.011 62.92 19.101 62.9666 20.3017C63.0249 21.4558 63.3513 22.505 63.9459 23.4492C64.5404 24.3935 65.3098 25.1454 66.2541 25.705C67.21 26.2529 68.2475 26.5269 69.3667 26.5269Z" fill="white"/>
<path d="M95.9698 11.4361H98.9075V28.9225H95.9523L95.8474 25.9673C95.2995 26.9815 94.5417 27.8034 93.5742 28.4329C92.6182 29.0624 91.4816 29.3771 90.1643 29.3771C88.8703 29.3771 87.6637 29.1382 86.5446 28.6602C85.4255 28.1706 84.4346 27.5003 83.5719 26.6493C82.7209 25.7866 82.0564 24.7957 81.5785 23.6766C81.1005 22.5574 80.8615 21.3509 80.8615 20.0569C80.8615 18.8095 81.0947 17.6321 81.561 16.5246C82.0273 15.4172 82.6743 14.4496 83.502 13.6219C84.3413 12.7825 85.3089 12.1297 86.4047 11.6634C87.5005 11.1854 88.6721 10.9465 89.9195 10.9465C91.3068 10.9465 92.5191 11.2729 93.5567 11.9257C94.6059 12.5669 95.4452 13.4004 96.0747 14.4263L95.9698 11.4361ZM90.2343 26.5269C91.4 26.5269 92.4026 26.2354 93.2419 25.6525C94.0813 25.0697 94.7166 24.2886 95.1479 23.3094C95.5909 22.3301 95.7891 21.246 95.7425 20.0569C95.6958 18.8911 95.4219 17.8361 94.9206 16.8918C94.4193 15.9476 93.7432 15.2015 92.8922 14.6536C92.0412 14.094 91.0503 13.8142 89.9195 13.8142C88.7654 13.8142 87.7162 14.1057 86.7719 14.6886C85.8277 15.2714 85.0874 16.0525 84.5512 17.0317C84.0266 18.011 83.7876 19.101 83.8342 20.3017C83.8925 21.4558 84.2189 22.505 84.8135 23.4492C85.408 24.3935 86.1774 25.1454 87.1217 25.705C88.0776 26.2529 89.1151 26.5269 90.2343 26.5269Z" fill="white"/>
<path d="M117.577 28.9225H114.185L109.533 20.8962L106.316 24.7432V28.9225H103.396V2.69287H106.316V20.1793L113.643 11.4361H117.49L111.544 18.5181L117.577 28.9225Z" fill="white"/>
<path d="M134.016 11.4361H136.954V28.9225H133.999L133.894 25.9673C133.346 26.9815 132.588 27.8034 131.621 28.4329C130.665 29.0624 129.528 29.3771 128.211 29.3771C126.917 29.3771 125.71 29.1382 124.591 28.6602C123.472 28.1706 122.481 27.5003 121.619 26.6493C120.768 25.7866 120.103 24.7957 119.625 23.6766C119.147 22.5574 118.908 21.3509 118.908 20.0569C118.908 18.8095 119.141 17.6321 119.608 16.5246C120.074 15.4172 120.721 14.4496 121.549 13.6219C122.388 12.7825 123.356 12.1297 124.451 11.6634C125.547 11.1854 126.719 10.9465 127.966 10.9465C129.353 10.9465 130.566 11.2729 131.603 11.9257C132.652 12.5669 133.492 13.4004 134.121 14.4263L134.016 11.4361ZM128.281 26.5269C129.447 26.5269 130.449 26.2354 131.289 25.6525C132.128 25.0697 132.763 24.2886 133.195 23.3094C133.638 22.3301 133.836 21.246 133.789 20.0569C133.742 18.8911 133.468 17.8361 132.967 16.8918C132.466 15.9476 131.79 15.2015 130.939 14.6536C130.088 14.094 129.097 13.8142 127.966 13.8142C126.812 13.8142 125.763 14.1057 124.819 14.6886C123.874 15.2714 123.134 16.0525 122.598 17.0317C122.073 18.011 121.834 19.101 121.881 20.3017C121.939 21.4558 122.266 22.505 122.86 23.4492C123.455 24.3935 124.224 25.1454 125.168 25.705C126.124 26.2529 127.162 26.5269 128.281 26.5269Z" fill="white"/>
<path d="M146.653 29.2547C145.709 29.2198 144.788 29.0449 143.89 28.7301C143.004 28.4037 142.223 27.9666 141.547 27.4187C140.883 26.8591 140.399 26.2179 140.096 25.4952L142.614 24.411C142.789 24.8074 143.103 25.1804 143.558 25.5301C144.013 25.8799 144.537 26.1596 145.132 26.3695C145.726 26.5793 146.327 26.6842 146.933 26.6842C147.574 26.6842 148.174 26.5851 148.734 26.387C149.294 26.1888 149.748 25.8973 150.098 25.5126C150.459 25.1163 150.64 24.6442 150.64 24.0962C150.64 23.5134 150.442 23.0587 150.045 22.7323C149.661 22.3942 149.171 22.1319 148.577 21.9454C147.994 21.7472 147.399 21.5607 146.793 21.3858C145.592 21.0828 144.52 20.7214 143.575 20.3017C142.631 19.8704 141.885 19.3283 141.337 18.6755C140.801 18.011 140.533 17.1658 140.533 16.1399C140.533 15.0558 140.83 14.1173 141.425 13.3246C142.031 12.5319 142.824 11.9199 143.803 11.4885C144.782 11.0572 145.831 10.8415 146.95 10.8415C148.361 10.8415 149.649 11.1446 150.815 11.7508C151.981 12.357 152.849 13.1789 153.42 14.2164L151.06 15.5978C150.861 15.1782 150.558 14.811 150.15 14.4962C149.742 14.1698 149.276 13.9133 148.751 13.7268C148.227 13.5403 147.691 13.4412 147.143 13.4295C146.467 13.4062 145.831 13.4936 145.237 13.6918C144.654 13.89 144.182 14.1931 143.82 14.6011C143.471 14.9975 143.296 15.4929 143.296 16.0875C143.296 16.6703 143.482 17.1133 143.855 17.4164C144.24 17.7195 144.735 17.9643 145.342 18.1509C145.959 18.3257 146.63 18.5297 147.353 18.7629C148.413 19.101 149.404 19.4915 150.325 19.9345C151.246 20.3775 151.986 20.9312 152.546 21.5957C153.117 22.2602 153.397 23.082 153.385 24.0613C153.385 25.1338 153.065 26.0722 152.424 26.8766C151.782 27.6693 150.949 28.2755 149.923 28.6952C148.909 29.1148 147.819 29.3014 146.653 29.2547Z" fill="white"/>
<path d="M172.337 19.6372V28.9225H169.4V19.7072C169.4 18.623 169.172 17.6321 168.718 16.7345C168.275 15.8368 167.668 15.1257 166.899 14.6011C166.141 14.0765 165.302 13.8142 164.381 13.8142C163.413 13.8142 162.562 14.0765 161.828 14.6011C161.105 15.1257 160.54 15.8368 160.132 16.7345C159.735 17.6321 159.537 18.623 159.537 19.7072V28.9225H156.582V2.69287H159.52V13.8842C160.068 12.8583 160.779 12.118 161.653 11.6634C162.527 11.1971 163.518 10.9639 164.626 10.9639C166.153 10.9639 167.488 11.3603 168.63 12.153C169.784 12.9457 170.682 14.0008 171.323 15.3181C171.976 16.6354 172.314 18.0751 172.337 19.6372Z" fill="white"/>
<defs>
<clipPath id="clip0_311_3608">
<rect width="55.3253" height="32" fill="white"/>
</clipPath>
</defs>
</svg>
