<svg width="255" height="1024" viewBox="0 0 255 1024" fill="none" xmlns="http://www.w3.org/2000/svg">
<g clip-path="url(#clip0_1244_150)">
<rect width="255" height="1024" fill="white"/>
<rect x="-154" width="475" height="1024" fill="#F97738"/>
<g style="mix-blend-mode:multiply" opacity="0.6">
<path d="M307.079 269.498V326.438H195C197.48 310.556 206.451 298.78 217.136 298.78C222.296 298.78 227.056 301.533 230.884 306.148C235.477 292.287 244.582 282.85 255.067 282.85C260.576 282.85 265.686 285.46 269.98 289.932C275.872 276.087 285.791 267 297.042 267C300.538 267 303.916 267.875 307.079 269.498Z" fill="#F5F5F5"/>
</g>
<g style="mix-blend-mode:multiply" opacity="0.6">
<path d="M307.079 711.498V768.438H195C197.48 752.556 206.451 740.78 217.136 740.78C222.296 740.78 227.056 743.533 230.884 748.148C235.477 734.287 244.582 724.85 255.067 724.85C260.576 724.85 265.686 727.46 269.98 731.932C275.872 718.087 285.791 709 297.042 709C300.538 709 303.916 709.875 307.079 711.498Z" fill="#F5F5F5"/>
</g>
<g style="mix-blend-mode:multiply" opacity="0.6">
<path d="M-40 187.186V237H58C55.8316 223.105 47.9875 212.803 38.6445 212.803C34.1331 212.803 29.9709 215.212 26.6237 219.249C22.6071 207.123 14.6466 198.867 5.47817 198.867C0.661125 198.867 -3.80664 201.15 -7.56131 205.062C-12.7131 192.95 -21.3867 185 -31.2245 185C-34.2807 185 -37.2349 185.766 -40 187.186Z" fill="#F5F5F5"/>
</g>
<g style="mix-blend-mode:multiply" opacity="0.6">
<path d="M-40 653.186V703H58C55.8316 689.105 47.9875 678.803 38.6445 678.803C34.1331 678.803 29.9709 681.212 26.6237 685.249C22.6071 673.123 14.6466 664.867 5.47817 664.867C0.661125 664.867 -3.80664 667.15 -7.56131 671.062C-12.7131 658.95 -21.3867 651 -31.2245 651C-34.2807 651 -37.2349 651.766 -40 653.186Z" fill="#F5F5F5"/>
</g>
<g style="mix-blend-mode:multiply">
<path d="M222.685 469.925C221.233 467.477 218.6 466.316 216.802 467.308L222.067 476.157C223.864 475.164 224.137 472.373 222.685 469.925Z" fill="#D8D8D8"/>
<path d="M227.021 471.967C229.953 471.549 232.526 472.769 232.761 474.68L222.134 476.198C221.892 474.277 224.088 472.385 227.021 471.967Z" fill="#D8D8D8"/>
</g>
<g style="mix-blend-mode:multiply" opacity="0.6">
<path d="M318.2 618.446V651.411H254C255.421 642.217 260.559 635.399 266.68 635.399C269.635 635.399 272.362 636.993 274.555 639.665C277.186 631.64 282.401 626.176 288.407 626.176C291.563 626.176 294.49 627.687 296.95 630.276C300.325 622.261 306.007 617 312.451 617C314.454 617 316.389 617.507 318.2 618.446Z" fill="#F5F5F5"/>
</g>
<g style="mix-blend-mode:multiply" opacity="0.51">
<path opacity="0.7" d="M173.613 525.996C180.761 525.996 186.556 525.188 186.556 524.192C186.556 523.196 180.761 522.389 173.613 522.389C166.465 522.389 160.67 523.196 160.67 524.192C160.67 525.188 166.465 525.996 173.613 525.996Z" fill="#787878"/>
<path d="M169.122 527.149H178.104C178.75 527.149 179.278 526.625 179.284 525.98C179.284 525.33 178.755 524.802 178.104 524.802H169.122C168.472 524.802 167.943 525.33 167.943 525.98C167.948 526.625 168.477 527.149 169.122 527.149Z" fill="#181818"/>
<path d="M175.225 526.478L174.401 528.363C174.218 528.81 173.709 529.023 173.267 528.84C173.048 528.754 172.88 528.581 172.789 528.363L171.996 526.483L175.225 526.478Z" fill="#181818"/>
<path opacity="0.7" d="M79.8752 525.996C87.0234 525.996 92.8181 525.188 92.8181 524.192C92.8181 523.196 87.0234 522.389 79.8752 522.389C72.7271 522.389 66.9324 523.196 66.9324 524.192C66.9324 525.188 72.7271 525.996 79.8752 525.996Z" fill="#787878"/>
<path d="M75.3844 527.149H84.3656C85.0115 527.149 85.5404 526.625 85.5455 525.98C85.5455 525.33 85.0166 524.802 84.3656 524.802H75.3844C74.7335 524.802 74.2046 525.33 74.2046 525.98C74.2097 526.625 74.7386 527.149 75.3844 527.149Z" fill="#181818"/>
<path d="M81.4872 526.478L80.6633 528.363C80.4802 528.81 79.9717 529.023 79.5292 528.84C79.3105 528.754 79.1427 528.581 79.0512 528.363L78.2578 526.483L81.4872 526.478Z" fill="#181818"/>
<path d="M79.092 566.887C78.5173 566.887 77.9427 566.76 77.4138 566.511L75.7609 565.743C75.0642 565.418 74.4489 564.89 73.981 564.214L63.703 549.36C63.0469 548.41 62.7113 547.216 62.7571 545.996L63.0673 537.756C63.108 536.628 63.4843 535.536 64.1251 534.683C64.5777 534.078 65.1626 533.601 65.8084 533.301L79.1378 527.143C79.6667 526.9 80.2261 526.778 80.7957 526.778H81.3551C81.5941 526.778 81.8332 526.798 82.0722 526.844L108.568 531.777L107.902 535.338L81.406 530.405L80.7957 530.4C80.7499 530.4 80.7041 530.41 80.6584 530.436L67.329 536.593C67.2273 536.639 67.1205 536.735 67.029 536.857C66.8306 537.121 66.7086 537.497 66.6933 537.893L66.378 546.134C66.3628 546.57 66.4746 546.992 66.6831 547.297L76.9662 562.157C77.0629 562.299 77.1798 562.406 77.2968 562.462L78.9496 563.229C79.0056 563.254 79.0564 563.264 79.1022 563.264L90.2956 562.66C90.3159 562.66 90.3363 562.655 90.3566 562.65L90.4583 562.624C90.5956 562.589 90.738 562.462 90.8601 562.284L91.7857 560.917C91.8721 560.79 91.9382 560.643 91.9891 560.48L97.0798 544.096C97.5426 542.608 98.6105 541.439 99.9328 540.977L107.643 538.285L108.838 541.704L101.128 544.396C100.95 544.457 100.691 544.696 100.543 545.168L95.4524 561.552C95.2947 562.055 95.071 562.523 94.7913 562.944L93.8657 564.311C93.2554 565.21 92.3858 565.855 91.4144 566.119L91.3127 566.145C91.0432 566.221 90.7685 566.262 90.4888 566.277L79.2954 566.881C79.2293 566.887 79.1581 566.887 79.092 566.887Z" fill="#BFBFBF"/>
<path d="M173.837 566.887C173.771 566.887 173.699 566.887 173.633 566.882L162.44 566.277C162.165 566.262 161.886 566.216 161.616 566.145L161.514 566.12C160.543 565.855 159.668 565.21 159.063 564.311L158.137 562.944C157.853 562.523 157.629 562.055 157.476 561.558L152.386 545.174C152.238 544.706 151.979 544.462 151.801 544.401L144.091 541.709L145.286 538.29L152.996 540.982C154.318 541.445 155.381 542.608 155.844 544.102L160.935 560.486C160.985 560.648 161.057 560.795 161.138 560.922L162.064 562.289C162.186 562.467 162.333 562.594 162.465 562.629L162.567 562.655C162.587 562.66 162.608 562.665 162.628 562.665L173.821 563.27C173.867 563.27 173.918 563.259 173.974 563.234L175.627 562.467C175.739 562.416 175.856 562.304 175.957 562.162L186.241 547.302C186.454 546.997 186.561 546.571 186.546 546.139L186.235 537.894C186.22 537.497 186.098 537.121 185.9 536.857C185.808 536.735 185.701 536.639 185.6 536.593L172.27 530.436C172.22 530.415 172.174 530.4 172.133 530.4H171.574L145.027 535.333L144.361 531.772L170.857 526.839C171.091 526.793 171.33 526.773 171.569 526.773H172.128C172.703 526.773 173.257 526.895 173.786 527.144L187.115 533.301C187.761 533.601 188.346 534.078 188.799 534.683C189.439 535.536 189.811 536.623 189.856 537.756L190.167 545.997C190.212 547.216 189.877 548.41 189.221 549.36L178.938 564.22C178.47 564.895 177.854 565.424 177.158 565.749L175.505 566.516C174.981 566.76 174.406 566.887 173.837 566.887Z" fill="#BFBFBF"/>
<path d="M60.9872 567.73C60.3464 567.73 59.7209 567.618 59.1157 567.389L56.6746 566.48C55.8355 566.165 55.0828 565.642 54.4929 564.966L39.3022 547.373C38.4021 546.332 37.9444 545.001 38.0054 543.624L38.4682 533.87C38.5292 532.605 39.0378 531.396 39.9074 530.466C40.4719 529.861 41.1839 529.389 41.9569 529.104L61.6636 521.819C62.2586 521.601 62.8842 521.489 63.5249 521.489H64.3539C64.6183 521.489 64.8828 521.509 65.1422 521.545L104.311 527.382L103.859 530.395L64.6895 524.563C64.5777 524.547 64.4658 524.537 64.3488 524.537H63.5199C63.2452 524.537 62.9757 524.583 62.7214 524.68L43.0147 531.97C42.6791 532.092 42.3739 532.295 42.1349 532.554C41.7637 532.95 41.5399 533.474 41.5145 534.017L41.0517 543.771C41.0262 544.361 41.2195 544.935 41.6111 545.382L56.8069 562.97C57.0611 563.259 57.3815 563.488 57.7426 563.62L60.1837 564.529C60.4736 564.636 60.7787 564.687 61.0889 564.672L77.6375 563.955C77.7697 563.95 77.9019 563.935 78.0291 563.904L78.1816 563.874C78.6749 563.767 79.1276 563.493 79.453 563.107L80.8211 561.486C80.9838 561.293 81.116 561.075 81.2076 560.836L88.7241 541.45C89.3293 539.885 90.6566 538.681 92.2738 538.234L103.671 535.048L104.495 537.985L93.0977 541.17C92.401 541.363 91.8314 541.881 91.572 542.557L84.0504 561.943C83.8368 562.492 83.5368 563.005 83.1554 563.457L81.7873 565.078C81.0296 565.977 79.9819 566.607 78.8377 566.856L78.6851 566.892C78.3851 566.958 78.0799 566.998 77.7748 567.008L61.2262 567.725C61.1449 567.725 61.0686 567.73 60.9872 567.73Z" fill="#D1D1D1"/>
<path d="M156.495 524.034C147.575 522.536 138.522 521.982 129.485 522.388C120.453 521.982 111.401 522.536 102.486 524.034C100.955 524.349 99.8414 525.675 99.7905 527.235V536.811C99.8414 538.371 100.955 539.697 102.486 540.012C111.401 541.511 120.453 542.059 129.485 541.648C138.522 542.059 147.575 541.516 156.495 540.012C158.021 539.692 159.134 538.371 159.19 536.811V527.255C159.139 525.691 158.026 524.36 156.495 524.034Z" fill="#ECECEC"/>
<path opacity="0.2" d="M156.495 524.034C147.575 522.536 138.522 521.982 129.485 522.388C120.453 521.982 111.401 522.536 102.486 524.034C100.955 524.349 99.8414 525.675 99.7905 527.235V536.811C99.8414 538.371 100.955 539.697 102.486 540.012C111.401 541.511 120.453 542.059 129.485 541.648C138.522 542.059 147.575 541.516 156.495 540.012C158.021 539.692 159.134 538.371 159.19 536.811V527.255C159.139 525.691 158.026 524.36 156.495 524.034Z" fill="#787878"/>
<path d="M157.242 534.835C156.998 534.835 156.8 534.637 156.8 534.393V528.785C156.8 528.541 156.998 528.343 157.242 528.343C157.487 528.343 157.685 528.541 157.685 528.785V534.393C157.675 534.637 157.482 534.83 157.242 534.835Z" fill="#D8D8D8"/>
<path d="M155.798 534.835C155.554 534.835 155.355 534.637 155.355 534.393V528.785C155.355 528.541 155.554 528.343 155.798 528.343C156.042 528.343 156.24 528.541 156.24 528.785V534.393C156.23 534.637 156.037 534.83 155.798 534.835Z" fill="#D8D8D8"/>
<path d="M154.354 534.835C154.11 534.835 153.911 534.637 153.911 534.393V528.785C153.911 528.541 154.11 528.343 154.354 528.343C154.598 528.343 154.796 528.541 154.796 528.785V534.393C154.796 534.637 154.598 534.835 154.354 534.835Z" fill="#D8D8D8"/>
<path opacity="0.2" d="M110.725 529.699C110.918 530.187 111.381 530.507 111.905 530.507H129.979C130.426 530.507 130.843 530.268 131.072 529.882L135.202 522.795C126.226 521.987 117.188 522.129 108.238 523.217L110.725 529.699Z" fill="#787878"/>
<path opacity="0.2" d="M144.945 524.034C142.499 523.623 140.033 523.288 137.566 523.013L132.938 530.928C132.328 531.985 131.199 532.635 129.979 532.635H111.904C110.485 532.63 109.219 531.756 108.711 530.435L106.025 523.47C104.846 523.638 103.666 523.816 102.506 524.014C100.975 524.329 99.8616 525.655 99.8108 527.215V536.791C99.8616 538.351 100.975 539.677 102.506 539.991C116.558 542.359 130.909 542.359 144.961 539.991C146.492 539.677 147.61 538.351 147.661 536.791V527.255C147.615 525.68 146.492 524.344 144.945 524.034ZM135.746 537.228C135.054 537.228 134.495 536.669 134.495 535.978C134.495 535.287 135.054 534.728 135.746 534.728C136.437 534.728 136.997 535.287 136.997 535.978C136.997 536.669 136.437 537.228 135.746 537.228ZM140.597 537.228C139.906 537.228 139.346 536.669 139.346 535.978C139.346 535.287 139.906 534.728 140.597 534.728C141.289 534.728 141.848 535.287 141.848 535.978C141.853 536.664 141.299 537.223 140.618 537.228C140.607 537.228 140.602 537.228 140.597 537.228Z" fill="#787878"/>
<path d="M197.007 567.73C196.931 567.73 196.849 567.73 196.773 567.725L180.224 567.008C179.919 566.993 179.609 566.957 179.309 566.891L179.161 566.861C178.012 566.612 176.965 565.977 176.212 565.083L174.844 563.462C174.462 563.01 174.162 562.502 173.949 561.948L166.427 542.557C166.168 541.886 165.598 541.368 164.901 541.175L153.505 537.99L154.329 535.053L165.725 538.239C167.343 538.691 168.67 539.895 169.275 541.454L176.797 560.846C176.888 561.085 177.02 561.303 177.183 561.496L178.551 563.117C178.877 563.503 179.329 563.772 179.823 563.884L179.97 563.914C180.097 563.945 180.229 563.96 180.362 563.965L196.91 564.682C197.22 564.697 197.526 564.646 197.815 564.539L200.257 563.63C200.618 563.493 200.943 563.269 201.192 562.98L216.388 545.392C216.775 544.945 216.973 544.371 216.947 543.781L216.485 534.027C216.459 533.484 216.241 532.96 215.864 532.564C215.62 532.305 215.315 532.102 214.984 531.98L195.278 524.684C195.023 524.588 194.754 524.542 194.479 524.542H193.65C193.538 524.542 193.422 524.552 193.31 524.568L154.14 530.405L153.688 527.392L192.857 521.555C193.116 521.514 193.386 521.499 193.645 521.499H194.474C195.11 521.499 195.735 521.611 196.336 521.829L216.042 529.114C216.82 529.404 217.527 529.871 218.092 530.476C218.961 531.401 219.47 532.61 219.531 533.88L219.994 543.634C220.06 545.011 219.597 546.337 218.697 547.383L203.501 564.971C202.916 565.652 202.159 566.175 201.319 566.485L198.878 567.394C198.273 567.613 197.648 567.73 197.007 567.73Z" fill="#D1D1D1"/>
<path opacity="0.7" d="M63.3267 518.913C75.0333 518.913 84.5234 517.59 84.5234 515.957C84.5234 514.324 75.0333 513 63.3267 513C51.62 513 42.1299 514.324 42.1299 515.957C42.1299 517.59 51.62 518.913 63.3267 518.913Z" fill="#BBBBBB"/>
<path d="M55.978 520.798H70.6855C71.7484 520.798 72.6079 519.939 72.613 518.883C72.613 517.821 71.7484 516.957 70.6855 516.957H55.978C54.9151 516.957 54.0505 517.821 54.0505 518.883C54.0556 519.944 54.9151 520.798 55.978 520.798Z" fill="#A3A2A5"/>
<path d="M65.9711 519.701L64.6234 522.79C64.3285 523.516 63.4944 523.867 62.7621 523.572C62.4061 523.43 62.1264 523.145 61.9789 522.79L60.677 519.711L65.9711 519.701Z" fill="#A3A2A5"/>
<path opacity="0.7" d="M193.909 518.913C205.616 518.913 215.106 517.59 215.106 515.957C215.106 514.324 205.616 513 193.909 513C182.203 513 172.713 514.324 172.713 515.957C172.713 517.59 182.203 518.913 193.909 518.913Z" fill="#CECFCF"/>
<path d="M186.556 520.798H201.263C202.326 520.798 203.186 519.939 203.191 518.883C203.191 517.821 202.326 516.957 201.263 516.957H186.556C185.493 516.957 184.628 517.821 184.628 518.883C184.634 519.944 185.498 520.798 186.556 520.798Z" fill="#A3A2A5"/>
<path d="M196.549 519.701L195.201 522.79C194.906 523.516 194.072 523.867 193.34 523.572C192.984 523.43 192.704 523.145 192.557 522.79L191.255 519.711L196.549 519.701Z" fill="#A3A2A5"/>
<g clip-path="url(#clip1_1244_150)">
<path d="M112.535 524.869L110.864 527.768H111.891L112.535 526.651C112.449 526.651 112.378 526.591 112.359 526.512H111.767C111.744 526.512 111.725 526.493 111.725 526.469C111.725 526.446 111.744 526.427 111.767 526.427H112.359C112.378 526.348 112.45 526.288 112.535 526.288C112.62 526.288 112.692 526.348 112.711 526.427H113.303C113.326 526.427 113.345 526.446 113.345 526.469C113.345 526.493 113.326 526.512 113.303 526.512H112.71C112.691 526.591 112.62 526.651 112.535 526.651L113.178 527.768H114.206L112.535 524.869Z" fill="#F75506"/>
</g>
<path d="M116.302 525.84H116.629V527.785H116.3L116.288 527.456C116.227 527.569 116.142 527.66 116.035 527.73C115.928 527.8 115.8 527.835 115.654 527.835C115.509 527.835 115.375 527.809 115.25 527.755C115.125 527.701 115.015 527.627 114.919 527.531C114.824 527.436 114.749 527.326 114.695 527.202C114.642 527.077 114.615 526.943 114.615 526.799C114.615 526.66 114.642 526.53 114.694 526.406C114.745 526.283 114.818 526.175 114.911 526.083C115.004 525.99 115.112 525.917 115.234 525.865C115.356 525.812 115.487 525.786 115.626 525.786C115.781 525.786 115.917 525.822 116.033 525.894C116.149 525.966 116.243 526.059 116.313 526.173L116.302 525.84ZM115.661 527.519C115.791 527.519 115.903 527.486 115.997 527.421C116.091 527.356 116.162 527.27 116.211 527.161C116.259 527.052 116.281 526.931 116.276 526.799C116.271 526.67 116.24 526.552 116.184 526.447C116.129 526.342 116.053 526.259 115.958 526.197C115.863 526.136 115.752 526.104 115.626 526.104C115.498 526.104 115.38 526.137 115.275 526.202C115.17 526.267 115.087 526.353 115.028 526.462C114.969 526.571 114.942 526.693 114.947 526.826C114.953 526.954 114.99 527.071 115.056 527.176C115.122 527.281 115.209 527.364 115.315 527.426C115.421 527.488 115.537 527.519 115.661 527.519Z" fill="white"/>
<path d="M116.993 527.785L117.707 526.809L116.997 525.837H117.401L117.91 526.529L118.417 525.837H118.821L118.111 526.809L118.825 527.785H118.421L117.91 527.085L117.397 527.785H116.993Z" fill="white"/>
<path d="M119.25 527.785V524.868H119.575V527.785H119.25Z" fill="white"/>
<path d="M121.648 524.868H121.975V527.785H121.648V527.455C121.581 527.568 121.492 527.661 121.38 527.731C121.268 527.801 121.137 527.836 120.986 527.836C120.844 527.836 120.712 527.809 120.588 527.756C120.464 527.703 120.355 527.629 120.261 527.535C120.166 527.441 120.093 527.333 120.039 527.21C119.986 527.086 119.959 526.954 119.959 526.813C119.959 526.672 119.986 526.539 120.039 526.415C120.093 526.291 120.167 526.182 120.261 526.088C120.355 525.994 120.464 525.921 120.588 525.868C120.712 525.815 120.844 525.788 120.986 525.788C121.137 525.788 121.268 525.823 121.38 525.893C121.492 525.963 121.581 526.055 121.648 526.169V524.868ZM120.99 527.519C121.119 527.519 121.23 527.487 121.324 527.425C121.419 527.362 121.491 527.276 121.543 527.169C121.594 527.061 121.62 526.942 121.62 526.813C121.62 526.681 121.594 526.561 121.542 526.454C121.49 526.347 121.416 526.262 121.322 526.199C121.228 526.136 121.117 526.105 120.989 526.105C120.861 526.105 120.744 526.137 120.639 526.2C120.534 526.263 120.45 526.349 120.388 526.456C120.326 526.563 120.295 526.682 120.295 526.812C120.295 526.944 120.327 527.062 120.39 527.169C120.454 527.276 120.539 527.361 120.644 527.424C120.75 527.487 120.865 527.519 120.99 527.519Z" fill="white"/>
<path d="M123.574 526.163C123.542 526.145 123.507 526.131 123.469 526.121C123.431 526.11 123.39 526.105 123.346 526.105C123.238 526.105 123.142 526.134 123.058 526.193C122.973 526.251 122.908 526.33 122.86 526.43C122.812 526.53 122.787 526.64 122.787 526.76V527.785H122.458V525.841H122.785V526.14C122.856 526.031 122.943 525.945 123.047 525.882C123.151 525.819 123.266 525.788 123.392 525.788C123.435 525.788 123.476 525.79 123.515 525.794C123.554 525.797 123.591 525.805 123.626 525.817L123.574 526.163Z" fill="white"/>
<path d="M124.639 527.836C124.459 527.836 124.296 527.79 124.148 527.698C124 527.606 123.883 527.482 123.795 527.327C123.707 527.173 123.663 527.001 123.663 526.813C123.663 526.67 123.688 526.537 123.739 526.414C123.79 526.29 123.86 526.181 123.949 526.087C124.038 525.993 124.142 525.919 124.26 525.866C124.378 525.813 124.505 525.786 124.639 525.786C124.818 525.786 124.982 525.832 125.13 525.924C125.277 526.016 125.395 526.14 125.483 526.296C125.571 526.451 125.615 526.624 125.615 526.813C125.615 526.954 125.589 527.086 125.539 527.21C125.488 527.333 125.418 527.441 125.329 527.536C125.24 527.63 125.136 527.703 125.018 527.756C124.9 527.809 124.774 527.836 124.639 527.836ZM124.639 527.509C124.761 527.509 124.872 527.477 124.97 527.413C125.068 527.348 125.145 527.264 125.202 527.158C125.258 527.052 125.286 526.937 125.286 526.813C125.286 526.685 125.258 526.569 125.2 526.463C125.142 526.356 125.064 526.271 124.967 526.208C124.869 526.144 124.76 526.113 124.639 526.113C124.517 526.113 124.407 526.145 124.309 526.209C124.212 526.273 124.134 526.358 124.077 526.464C124.02 526.571 123.991 526.687 123.991 526.813C123.991 526.942 124.02 527.06 124.079 527.166C124.137 527.271 124.216 527.355 124.315 527.416C124.414 527.478 124.522 527.509 124.639 527.509Z" fill="white"/>
<path d="M127.695 526.751V527.785H127.367V526.758C127.367 526.638 127.342 526.528 127.291 526.429C127.24 526.33 127.171 526.251 127.084 526.191C126.997 526.132 126.899 526.103 126.789 526.103C126.681 526.103 126.585 526.133 126.501 526.191C126.417 526.251 126.352 526.33 126.303 526.429C126.255 526.528 126.231 526.638 126.231 526.758V527.785H125.903V525.841H126.231V526.14C126.301 526.03 126.388 525.943 126.491 525.88C126.595 525.817 126.71 525.786 126.838 525.786C127.007 525.786 127.156 525.83 127.284 525.918C127.412 526.007 127.512 526.123 127.584 526.269C127.657 526.415 127.693 526.576 127.695 526.751Z" fill="white"/>
<path d="M128.925 527.836C128.746 527.836 128.582 527.79 128.434 527.698C128.286 527.606 128.169 527.482 128.081 527.327C127.993 527.173 127.949 527.001 127.949 526.813C127.949 526.67 127.975 526.537 128.025 526.414C128.076 526.29 128.146 526.181 128.235 526.087C128.324 525.993 128.428 525.919 128.546 525.866C128.665 525.813 128.791 525.786 128.925 525.786C129.072 525.786 129.207 525.816 129.33 525.875C129.453 525.934 129.558 526.016 129.646 526.121C129.734 526.226 129.8 526.347 129.843 526.486C129.887 526.625 129.903 526.773 129.891 526.932H128.299C128.314 527.042 128.35 527.14 128.408 527.226C128.465 527.313 128.538 527.381 128.628 527.431C128.717 527.482 128.816 527.508 128.925 527.509C129.042 527.509 129.149 527.479 129.243 527.419C129.338 527.359 129.415 527.276 129.474 527.171L129.807 527.248C129.729 527.421 129.612 527.562 129.454 527.672C129.297 527.781 129.121 527.836 128.925 527.836ZM128.289 526.675H129.562C129.551 526.566 129.516 526.466 129.456 526.376C129.396 526.286 129.32 526.214 129.228 526.16C129.135 526.105 129.035 526.078 128.925 526.078C128.816 526.078 128.716 526.104 128.625 526.158C128.534 526.211 128.459 526.282 128.4 526.372C128.34 526.463 128.303 526.563 128.289 526.675Z" fill="white"/>
</g>
<g style="mix-blend-mode:multiply" opacity="0.63">
<path fill-rule="evenodd" clip-rule="evenodd" d="M320.996 863.867C318.928 862.467 314.061 851.764 308.798 851.145C299.656 850.054 297.9 855.437 288.183 856.089C278.466 856.742 271.262 866.175 261.553 865.518C251.843 864.861 255.84 864.647 248.98 863.99C242.12 863.333 243.84 862.467 238.125 862.028C232.411 861.59 229.552 862.467 229.552 862.467C227.077 862.029 224.554 862.246 222.081 861.813C222.081 861.813 218.696 861.81 212.988 862.682C211.685 862.882 210.757 862.41 210.08 862.287C207.297 861.773 203.115 861.393 197.106 862.059C133.59 863.637 87.2777 863.388 85.0194 862.899C81.5303 862.144 79.9194 861.697 79.9194 861.697C78.5024 861.326 79.4561 861.511 75.3099 860.934C69.0236 860.06 23.8295 843.468 -23.0744 862.987C-25.6312 864.523 -42.9451 863.995 -49.2275 862.899C-55.5099 861.803 -62.3525 859.851 -62.3525 859.851C-62.3525 859.851 -68.0689 859.411 -76.6386 858.32C-85.2083 857.229 -108.661 859.371 -114.946 858.93C-116.659 858.814 -114.946 858.93 -123.657 859.283C-128.879 859.493 -135.572 859.189 -140.971 859.937C-143.921 860.349 -149.659 859.166 -152.512 859.601C-152.952 859.667 -153.38 859.725 -153.813 859.783V897.318C-64.4692 892.329 307.177 927.706 319.161 927.889C319.779 927.886 320.395 927.83 321 927.721L320.996 863.867Z" fill="#F8F8F8"/>
<path fill-rule="evenodd" clip-rule="evenodd" d="M321 904.351C292.484 899.751 260.042 895.506 224.824 892.591C113.552 883.381 49.718 884.703 -30.6705 888.06C-73.1042 889.832 -114.893 892.86 -153.8 896.406V921.146C-104.519 921.099 -52.8306 921.398 -6.1771 922.321C6.77963 922.257 87.5232 921.518 100.85 921.636C198.795 922.527 266.072 941.428 321 949.282V904.351Z" fill="#ECECEC"/>
<path d="M178.173 891.525C190.976 892.222 207.807 893.182 226.847 894.909C208.707 892.965 193.808 891.953 186.438 891.707L178.173 891.525Z" fill="#BFBFBF"/>
<path d="M110.445 890.343C109.21 890.273 108.158 890.219 107.3 890.176C107.062 890.208 108.158 890.249 110.445 890.343Z" fill="#D1D1D1"/>
<path d="M124.561 925.616C111.748 922.654 134.54 929.211 124.561 925.616V925.616Z" fill="#D1D1D1"/>
<path d="M90.3712 924.709C76.7313 921.97 101.351 928.134 90.3712 924.709V924.709Z" fill="#D1D1D1"/>
<path d="M56.0028 924.375C41.6203 921.857 67.9291 927.612 56.0028 924.375V924.375Z" fill="#D1D1D1"/>
<g opacity="0.5">
<path d="M321 906.662C272.673 898.217 219.128 893.464 212.003 892.749C221.909 893.924 277.791 900.184 321 908.179V906.662Z" fill="#D8D8D8"/>
<path d="M321 911.984V909.596C288.737 901.829 255.32 897.512 226.847 894.909C255.652 898.006 292.638 903.443 320.656 911.878L321 911.984Z" fill="#D8D8D8"/>
<path d="M321 919.132V915.157C317.467 914.15 313.791 913.163 309.974 912.195C252.948 898.064 193.012 893.669 180.253 892.727C195.221 894.051 248.594 899.407 281.736 907.664C289.664 909.414 305.28 913.582 321 919.132Z" fill="#D8D8D8"/>
<path d="M321 922.028C319.1 921.379 317.162 920.722 315.207 920.073C302.532 915.84 288.056 911.873 271.205 908.137C212.426 895.494 166.97 892.462 155.048 891.735C168.989 892.789 206.7 896.525 241.667 904.069C252.808 906.235 278.589 912.323 300.84 920.348C308.061 922.908 314.913 925.67 321 928.532V922.028Z" fill="#D8D8D8"/>
<path d="M321 931.113C319.733 930.433 318.421 929.76 317.026 929.099C307.174 924.411 293.484 920.167 278.839 915.939C264.913 911.925 249.275 908.203 231.329 904.749C168.881 893.118 122.619 890.869 110.436 890.344C124.691 891.156 163.454 894.247 200.626 901.189C225.703 904.881 306.989 924.464 317.041 942.603C318.274 943.324 319.598 943.918 320.988 944.371L321 931.113Z" fill="#D8D8D8"/>
<path d="M48.5535 888.88C59.3322 889.166 116.216 892.158 158.853 899.007C185.021 902.261 272.149 920.489 287.259 938.466C291.673 942.626 279.288 934.666 287.259 938.466C296.819 943.212 308.738 940.924 319.183 945.243C308.924 938.682 299.335 931.412 283.358 924.955C272.143 920.424 257.231 916.408 241.356 912.435C226.258 908.647 209.519 905.182 190.554 902.038C112.299 889.495 47.1085 889.078 48.5516 888.88H48.5535Z" fill="#D8D8D8"/>
<path d="M17.2745 889.829C28.1165 889.928 71.8628 891.426 116.528 897.549C143.653 900.346 236.209 917.087 256.348 934.835C261.933 938.915 247.329 931.165 256.348 934.835C267.223 939.424 278.485 936.937 290.122 941.087C278.058 934.688 266.402 927.577 248.559 921.377C236.042 917.034 219.958 913.271 202.927 909.559C186.723 906.034 168.961 902.857 149.079 900.041C67.1306 888.838 15.8852 890.055 17.2764 889.834L17.2745 889.829Z" fill="#D8D8D8"/>
<path d="M-27.5711 890.817C-16.7329 890.73 27.4068 891.467 73.8799 896.805C101.822 899.13 199.358 914.29 224.473 931.714C231.201 935.705 214.433 928.19 224.473 931.714C236.62 936.126 247.159 933.441 259.943 937.397C246.111 931.204 232.433 924.279 212.8 918.378C199.03 914.246 181.859 910.757 163.748 907.34C146.506 904.091 127.823 901.216 107.112 898.74C21.8744 888.954 -28.9105 891.072 -27.5711 890.821V890.817Z" fill="#D8D8D8"/>
<path d="M-72.0046 892.579C-61.2144 892.304 -16.9136 892.274 31.1253 896.8C59.7368 898.646 161.781 912.118 191.778 929.129C199.626 933.004 180.759 925.773 191.778 929.129C205.143 933.337 214.905 930.472 228.783 934.221C213.239 928.25 197.594 921.56 176.257 915.993C161.289 912.09 143.119 908.887 124.016 905.784C105.83 902.829 86.3085 900.281 64.872 898.158C-23.2173 889.852 -73.2635 892.86 -72.0046 892.579V892.579Z" fill="#D8D8D8"/>
<path d="M-115.774 895.102C-105.091 894.641 -60.8725 893.838 -11.5114 897.531C2.54677 898.398 37.0053 901.391 71.4274 906.593C105.999 911.721 140.527 919.05 158.419 927.104C167.356 930.845 146.474 923.932 158.419 927.104C172.957 931.085 181.88 928.059 196.798 931.571C179.604 925.865 162.065 919.431 139.12 914.231C123.037 910.586 103.942 907.686 83.9332 904.913C64.8914 902.273 44.6293 900.061 22.5825 898.318C-67.9093 891.537 -116.946 895.413 -115.774 895.109V895.102Z" fill="#D8D8D8"/>
<path d="M101.547 913.09C84.4145 909.716 64.492 907.153 43.6887 904.725C23.8813 902.406 2.97819 900.551 -19.5637 899.187C-94.038 895.003 -139.517 897.257 -153.8 898.116C-138.041 897.445 -98.4823 896.495 -53.8112 899C-39.5112 899.621 -4.18141 902.021 31.7374 906.621C67.7887 911.153 104.421 917.878 124.561 925.628C140.2 929.362 148.25 926.195 164.108 929.456C145.358 924.024 125.977 917.896 101.547 913.09Z" fill="#D8D8D8"/>
<path d="M63.7459 912.586C45.6502 909.507 25.0004 907.288 3.49095 905.222C-16.9708 903.25 -38.4131 901.744 -61.3311 900.773C-100.395 899.281 -131.206 899.368 -153.805 899.96V900.556C-136.989 900.299 -116.961 900.363 -95.567 901.177C-81.0886 901.551 -45.0795 903.33 -7.84811 907.306C29.4965 911.21 68.0712 917.316 90.3655 924.714C107.02 928.186 114.16 924.881 130.903 927.876C110.666 922.772 89.5577 916.97 63.7459 912.586Z" fill="#D8D8D8"/>
<path d="M25.8923 912.72C6.92351 909.953 -14.3461 908.09 -36.437 906.388C-57.461 904.772 -79.314 903.654 -102.503 903.074C-121.64 902.682 -138.725 902.624 -153.8 902.782V903.859C-148.191 903.876 -142.428 903.946 -136.552 904.064C-121.968 904.186 -85.468 905.334 -47.1083 908.664C-8.6564 911.925 31.6511 917.363 56.0025 924.374C73.605 927.563 79.7744 924.146 97.3386 926.857C75.7005 922.099 52.9552 916.659 25.8923 912.72Z" fill="#D8D8D8"/>
<path d="M-13.0248 914.089C-32.7765 911.649 -54.5623 910.155 -77.1176 908.838C-98.5926 907.586 -120.756 906.847 -144.074 906.673C-147.803 906.662 -151.445 906.662 -155 906.673V908.41C-136.989 908.746 -112.561 909.558 -87.0693 911.285C-47.7117 913.878 -5.85944 918.619 20.4263 925.215C38.8885 928.1 44.0735 924.589 62.363 926.994C39.422 922.612 15.1473 917.565 -13.0248 914.089Z" fill="#D8D8D8"/>
</g>
<path d="M21.6249 924.621C6.5592 922.355 34.4473 927.654 21.6249 924.621V924.621Z" fill="#D1D1D1"/>
<path d="M-49.1961 914.911C-69.629 912.81 -91.8236 911.697 -114.74 910.766C-127.543 910.262 -140.54 909.927 -153.8 909.777V912.236C-144.263 912.5 -134.2 912.867 -123.929 913.377C-83.8619 915.279 -40.6932 919.3 -12.5902 925.441C6.64337 928.01 10.8209 924.422 29.7398 926.513C5.63208 922.521 -20.0549 917.897 -49.1961 914.911Z" fill="#BFBFBF"/>
<path d="M-12.59 925.44C-28.2639 923.426 1.05757 928.245 -12.59 925.44V925.44Z" fill="#D1D1D1"/>
<path fill-rule="evenodd" clip-rule="evenodd" d="M15.6087 923.562C-37.8244 911.714 -81.419 904.43 -153.8 911.076V974.967C-135.019 976.524 -113.939 978.298 -89.682 980.223C-79.8954 981.009 -21.0566 988.637 -11.6 989.759C100.735 995.338 250.593 1018.63 250.593 1018.63C250.593 1018.63 139.703 951.061 15.6087 923.562Z" fill="#E3E3E3"/>
<path d="M12.5998 928.789C11.957 928.706 11.1472 928.621 10.1992 928.532C11.9301 928.76 12.7476 928.888 12.5998 928.789Z" fill="#D8D8D8"/>
<path d="M-88.049 934.236C-103.867 937.573 -118.307 941.853 -131.801 946.992C-139.412 949.895 -146.83 952.866 -153.802 956.1V966.102C-122.064 947.067 -78.4428 934.733 -63.2274 932.937C-30.6456 926.451 -0.58917 927.54 10.1972 928.535C1.10526 927.344 -33.4358 923.369 -88.049 934.236Z" fill="#D8D8D8"/>
<path d="M-56.9968 936.312C-73.2542 938.888 -88.2219 942.457 -102.322 946.942C-117.133 951.655 -131.298 956.624 -143.298 963.221C-146.967 965.247 -150.446 967.395 -153.8 969.619V983.457C-123.889 954.758 -52.2877 937.577 -31.9584 936.184C1.4447 931.29 31.4762 933.808 42.2089 935.306C33.1726 933.688 -1.02689 928.111 -56.9968 936.312Z" fill="#D8D8D8"/>
<path d="M44.6142 935.678C43.9733 935.567 43.1615 935.444 42.2117 935.31C43.9387 935.621 44.7504 935.783 44.6142 935.678Z" fill="#D8D8D8"/>
<path d="M75.9407 944.037C75.3094 943.898 74.4919 943.733 73.5439 943.55C75.2595 943.95 76.0674 944.148 75.9407 944.037Z" fill="#D8D8D8"/>
<path d="M-26.1092 939.835C-41.9005 941.51 -57.5053 944.329 -72.7627 948.263C-88.1488 952.256 -102.89 956.536 -115.649 962.552C-130.128 969.383 -142.311 978.011 -153.8 986.307V990.063C-147.032 989.432 -141.71 991.545 -133.267 986.639C-117.998 972.011 -90.7605 960.1 -64.0833 952.555C-37.5058 944.868 -11.4945 941.55 -0.976762 940.894C33.0673 937.628 62.9242 941.55 73.5379 943.551C64.6186 941.508 30.9334 934.35 -26.1092 939.835Z" fill="#D8D8D8"/>
<path d="M106.419 953.819C98.8972 951.734 67.2153 945.26 29.5694 947.028C18.9385 947.169 -7.54686 949.235 -35.0569 955.621C-62.6552 961.868 -91.2705 972.445 -108.104 986.294C-116.38 992.671 -97.9331 981.383 -108.104 986.294C-120.544 992.517 -125.576 985.609 -138.056 990.872C-122.872 981.541 -107.042 970.847 -87.8702 963.162C-74.4279 957.765 -59.1589 954.205 -43.2872 950.962C-27.588 947.769 -11.6165 945.703 4.46768 944.786C73.4749 941.52 107.131 954.546 106.419 953.819V953.819Z" fill="#D8D8D8"/>
<path d="M135.892 964.964C128.581 962.541 97.5135 954.592 59.5183 954.559C48.8298 954.196 22.0106 954.975 -6.30154 960.032C-34.6751 964.937 -64.5358 974.116 -82.8484 987.111C-91.8022 993.076 -72.1291 982.702 -82.8484 987.111C-95.9682 992.735 -100.292 985.629 -113.346 990.3C-97.1599 981.712 -80.1484 971.808 -60.0839 965.06C-46.0161 960.33 -30.3153 957.497 -14.0291 955.02C2.03127 952.601 18.2875 951.31 34.5835 951.16C104.205 951.207 136.526 965.746 135.892 964.986V964.964Z" fill="#D8D8D8"/>
<path d="M164.203 977.409C157.147 974.663 126.837 965.28 88.7017 963.424C78.0055 962.553 51.0002 962.042 22.0432 965.736C-6.95972 969.261 -37.9124 976.981 -57.6257 989.065C-67.2204 994.58 -46.421 985.173 -57.6257 989.065C-71.3596 994.053 -74.95 986.789 -88.5208 990.827C-71.4095 983.036 -53.2985 973.975 -32.4376 968.21C-17.8171 964.159 -1.74979 962.086 14.8645 960.401C31.1952 958.75 47.6498 958.233 64.0739 958.855C133.96 962.227 164.773 978.201 164.208 977.406L164.203 977.409Z" fill="#D8D8D8"/>
<path d="M191.221 991.094C184.44 988.039 155.062 977.28 116.99 973.609C106.352 972.228 79.2946 970.431 49.8388 972.727C20.3503 974.856 -11.533 981.085 -32.5493 992.176C-42.7523 997.211 -20.9166 988.83 -32.5493 992.176C-46.8339 996.498 -49.6721 989.122 -63.7053 992.512C-45.7478 985.551 -26.6236 977.386 -5.07956 972.633C10.0302 969.296 26.3681 967.991 43.2242 967.094C59.7411 966.227 76.3105 966.497 92.7791 967.902C162.558 974.581 191.691 991.901 191.221 991.087V991.094Z" fill="#D8D8D8"/>
<path d="M216.789 1005.93C210.328 1002.58 182.037 990.493 144.226 985.035C133.699 983.157 106.745 980.077 76.9346 980.962C47.1276 981.682 14.4652 986.359 -7.75431 996.421C-18.5004 1000.95 4.25638 993.628 -7.75431 996.421C-22.511 1000.06 -24.5969 992.599 -39.0024 995.32C-20.2869 989.221 -0.239705 982.004 21.8742 978.292C37.3909 975.687 53.9207 975.167 70.9264 975.08C87.5428 974.999 104.141 976.054 120.57 978.235C189.867 988.204 217.177 1006.77 216.789 1005.93V1005.93Z" fill="#D8D8D8"/>
<path d="M240.792 1021.84C234.68 1018.22 207.629 1004.89 170.284 997.651C159.922 995.286 133.208 990.937 103.219 990.397C73.2274 989.701 39.9644 992.809 16.6626 1001.77C5.4214 1005.77 28.9842 999.552 16.6626 1001.77C1.48948 1004.7 0.180764 997.206 -14.5356 999.242C4.84572 994.051 25.7008 987.811 48.2888 985.164C64.122 983.318 80.7631 983.566 97.8399 984.286C114.466 984.991 131.004 986.83 147.303 989.788C215.746 1002.99 241.087 1022.7 240.792 1021.84Z" fill="#D8D8D8"/>
<path fill-rule="evenodd" clip-rule="evenodd" d="M321 946.339C308.415 941.525 295.516 937.364 282.372 933.876C169.843 904.081 105.412 909.097 24.3134 921.121C-38.9466 930.497 -100.762 948.98 -153.807 968.715V1023.99H321V946.339Z" fill="#E5E5E5"/>
<path d="M321 957.096C258.559 926.201 207.488 924.626 183.302 924.626C198.062 926.12 251.672 921.876 321 961.609V957.096Z" fill="#D1D1D1"/>
<path d="M321 968.939C283.026 947.121 251.427 938.939 241.707 936.504C254.51 940.304 290.585 952.951 321 972.849V968.939Z" fill="#D1D1D1"/>
<path d="M321 982.268C265.076 944.238 222.281 935.188 210.816 932.986C224.596 936.304 261.904 948.188 296.568 972.55C301.954 975.957 310.795 982.385 321 991.094V982.268Z" fill="#D1D1D1"/>
<path d="M321 999.945C310.163 990.868 298.592 982.485 286.378 974.863C224.486 937.37 178.765 930.44 166.739 928.847C180.828 931.376 219.163 941.117 256.003 963.489C268.703 969.553 295.988 989.081 321 1014.64V999.945Z" fill="#D1D1D1"/>
<path d="M321 1021.43C313.387 1014.04 305.052 1006.95 296.424 999.903C281.447 987.664 264.848 976.496 246.067 966.374C181.765 932.916 126.516 926.694 110.363 925.166C127.825 927.53 176.875 937.008 214.711 956.734C231.366 963.437 273.047 990.158 304.723 1023.99H321V1021.43Z" fill="#D1D1D1"/>
<path d="M278.675 1023.99H298.974C287.339 1012.01 273.245 1001.36 258.432 990.854C241.857 979.109 223.987 968.837 205.086 960.188C136.915 930.031 90.3442 928.362 78.0034 928.151C92.4991 929.064 132.275 934.339 172.897 952.332C191.828 958.625 243.042 987.313 278.675 1023.99Z" fill="#D1D1D1"/>
<path d="M251.492 1023.99H272.623C271.23 1022.52 269.812 1021.06 268.352 1019.63C254.673 1006.22 237.649 994.957 219.706 983.946C202.098 973.149 183.314 963.898 163.627 956.328C89.2487 928.787 41.5168 931.281 32.1792 931.679C51.0885 932.041 86.1439 933.775 130.784 950.308C151.755 955.903 212.462 985.312 251.492 1023.99Z" fill="#D1D1D1"/>
<path d="M88.573 950.694C111.307 955.312 181.003 984.11 223.043 1023.99H244.904C240.893 1019.92 236.687 1015.95 232.225 1012.15C217.38 999.524 199.373 989.227 180.446 979.235C161.895 969.448 142.292 961.275 121.919 954.831C48.8508 932.718 2.36807 936.381 -10.0149 937.593C4.58446 936.844 44.9822 937.504 88.573 950.694Z" fill="#D1D1D1"/>
<path d="M46.4881 953.474C60.389 956.184 94.4618 965.678 128.548 982.349C151.614 993.442 174.672 1007.8 192.714 1023.99H215.993C209.606 1017.95 202.84 1012.12 195.521 1006.71C179.569 994.916 160.662 985.645 140.858 976.741C121.452 968.021 101.123 960.973 80.156 955.697C5.20196 937.822 -40.8739 944.13 -53.1743 946.057C-38.6306 944.475 1.76321 942.815 46.4881 953.474Z" fill="#D1D1D1"/>
<path d="M4.75921 958.637C18.8942 960.539 53.8209 968.054 89.3637 982.776C115.11 993.232 141.175 1007.44 161.226 1023.99H185.789C177.282 1016.68 168.265 1009.64 158.405 1003.33C141.425 992.451 121.711 984.258 101.123 976.489C80.9647 968.892 60.015 963.016 38.5653 958.941C-37.9124 945.407 -83.3435 954.334 -95.4885 956.967C-81.0772 954.555 -40.8964 950.576 4.75921 958.637Z" fill="#D1D1D1"/>
<path d="M-36.4193 966.158C-22.1136 967.247 13.4733 972.738 50.3037 985.399C77.8252 994.665 106.026 1007.91 127.787 1024H154.032C143.791 1016.14 132.935 1008.59 121.084 1002.04C103.157 992.136 82.732 985.067 61.4566 978.483C40.6581 972.047 19.1993 967.378 -2.62285 964.54C-80.2097 955.437 -124.766 966.933 -136.686 970.269C-122.509 967.025 -82.7504 960.754 -36.4193 966.158Z" fill="#D1D1D1"/>
<path d="M-76.8268 975.999C-62.4347 976.261 -26.37 979.691 11.5656 990.228C39.6552 997.837 68.7503 1009.33 91.7949 1023.99H120.195C108.797 1016.32 96.7611 1008.99 83.7161 1002.83C64.9296 993.945 43.8903 988.056 22.0508 982.685C0.713375 977.458 -21.1473 974.03 -43.2318 972.448C-95.0856 969.398 -131.638 974.509 -153.805 979.473V980.69C-134.677 977.244 -107.38 974.213 -76.8268 975.999Z" fill="#D1D1D1"/>
<path d="M-26.6579 997.216C0.347437 1002.85 28.5541 1011.86 52.0189 1023.99H83.4398C71.7956 1017.27 59.5777 1010.92 46.5154 1005.71C26.9652 997.913 5.42881 993.219 -16.8751 989.122C-38.6376 985.125 -60.7869 982.955 -83.0212 982.642C-111.23 982.607 -134.723 984.703 -153.792 987.618V990.303C-141.347 988.835 -128.804 988.096 -116.246 988.09C-101.842 987.529 -65.5032 988.863 -26.6579 997.216Z" fill="#D1D1D1"/>
<path d="M-64.1754 1006.34C-40.793 1009.81 -16.3207 1015.68 5.53229 1023.99H42.2706C31.8411 1019.02 21.0029 1014.43 9.62734 1010.67C-10.583 1004 -32.5166 1000.55 -55.1602 997.726C-77.2332 994.989 -99.5539 994.095 -121.821 995.057C-133.286 995.707 -143.934 996.66 -153.8 997.837V1002.33C-139.005 1000.97 -103.107 1000.32 -64.1754 1006.34Z" fill="#D8D8D8"/>
<path d="M1.00208 949.92C2.03064 949.447 2.64853 948.597 2.93829 947.496C-1.7094 949.148 -7.30311 950.219 -11.5286 951.905C-11.5286 950.167 -8.61761 949.294 -7.16113 947.555C-11.5287 947.555 -14.4531 949.294 -15.8981 951.038C-15.8981 949.294 -14.4435 947.555 -12.9832 946.689C-17.3546 946.689 -18.8072 947.555 -18.8072 950.167V944.944C-23.1747 945.816 -20.2618 949.294 -23.1747 949.294C-26.0877 949.294 -23.1747 946.689 -24.6331 944.944C-23.1747 946.689 -27.5442 949.294 -26.0877 951.038C-30.4552 946.689 -26.0877 943.207 -26.0877 938.863C-26.0877 941.468 -29.0007 943.207 -29.0007 945.816C-30.4552 940.602 -27.5442 936.25 -26.0877 931.037C-27.5442 933.642 -30.4552 936.252 -30.4552 939.729C-31.8407 933.916 -27.928 928.901 -26.3064 923.913C-27.17 925.423 -30.2556 926.922 -28.993 928.426C-32.6601 926.231 -30.1712 924.042 -29.2808 921.847C-29.9294 920.271 -27.667 918.697 -28.993 917.123C-30.4475 918.856 -31.9002 920.6 -33.3624 922.325C-33.3624 916.787 -31.5049 911.807 -29.2808 906.925C-32.7733 912.516 -36.4347 921.023 -39.1788 929.582V945.816C-39.1788 944.71 -39.6642 945.56 -39.1788 944.71C-39.3073 944.183 -36.141 934.305 -36.141 933.741C-34.7978 929.814 -36.2773 944.851 -36.5555 945.336C-35.3006 950.529 -29.1158 951.734 -20.6072 953.416C-12.6359 953.55 -4.31916 952.39 1.00208 949.92Z" fill="#D7D7D7"/>
<path d="M-29.0007 922.332C-29.1238 922.184 -29.2208 922.021 -29.2886 921.847C-30.179 924.042 -32.6678 926.231 -29.0007 928.426C-30.2557 926.916 -27.1701 925.417 -26.3142 923.913C-26.2375 923.678 -26.1607 923.44 -26.0954 923.205C-26.1047 923.453 -26.1796 923.695 -26.3142 923.913C-27.9357 928.901 -31.8485 933.916 -30.463 939.729C-30.463 936.252 -27.5519 933.642 -26.0954 931.038C-27.5519 936.252 -30.463 940.604 -29.0084 945.817C-29.0084 943.207 -26.0954 941.468 -26.0954 938.863C-26.0954 943.207 -30.463 946.689 -26.0954 951.038C-27.5519 949.294 -23.1825 946.689 -24.6409 944.944C-23.1825 946.689 -26.0955 949.294 -23.1825 949.294C-20.2695 949.294 -23.1825 945.817 -18.815 944.944V950.167C-18.815 947.555 -17.3623 946.689 -12.9909 946.689C-14.4513 947.555 -15.9058 949.294 -15.9058 951.038C-14.4513 949.294 -11.5364 947.555 -7.16886 947.555C-8.62534 949.294 -11.5364 950.167 -11.5364 951.905C-7.05565 952.338 -3.02393 951.905 2.93056 947.497C3.2184 946.407 3.17425 945.033 2.91327 943.487C2.04352 944.321 1.1066 945.1 0.109691 945.817V944.08C-1.34487 944.944 1.56618 946.689 -1.34486 946.689C-2.80518 946.689 0.109703 944.08 -2.80518 944.08C-2.80518 944.944 -2.80517 945.817 -4.25973 946.689V945.572C-5.1482 945.739 -8.28953 944.694 -7.16886 946.689C-10.0799 946.689 -7.16886 944.944 -8.62534 944.08C-11.5364 943.207 -8.62535 945.817 -10.0799 945.817C-11.5498 945.379 -11.9048 944.722 -11.901 944.061C-14.173 943.908 -11.6074 942.299 -12.9909 941.468C-12.9909 942.341 -15.9058 943.207 -15.9058 944.08V941.468C-15.9058 942.059 -17.2222 942.643 -17.6329 943.23C-17.6007 943.526 -17.5078 943.813 -17.3585 944.08C-17.8267 943.791 -17.8363 943.511 -17.6329 943.23C-17.89 941.075 -14.6105 939.538 -15.9058 937.991C-16.9659 938.655 -17.8409 939.519 -18.4657 940.52C-18.577 940.835 -18.6883 941.153 -18.815 941.468C-18.7798 941.133 -18.6605 940.81 -18.4657 940.52C-17.3719 937.36 -17.3623 934.191 -17.3623 931.038C-20.2695 932.77 -18.815 936.252 -21.726 937.991C-21.726 933.642 -18.815 930.165 -20.2695 925.815C-21.726 927.553 -23.1825 929.292 -23.1825 931.038C-23.1825 926.927 -19.2966 922.814 -22.5416 918.715C-22.5426 918.917 -22.602 919.115 -22.714 919.291C-22.8261 919.467 -22.9873 919.615 -23.1825 919.722C-23.1825 918.464 -24.6946 916.755 -24.9882 915.251C-27.2775 914.344 -21.7951 907.214 -23.1825 906.383C-26.0955 905.516 -29.0084 912.761 -29.0084 914.506C-30.4707 913.331 -30.9389 912.078 -30.9274 910.784C-32.3551 914.449 -33.374 918.235 -33.374 922.327C-31.9118 920.595 -30.4591 918.851 -29.0046 917.124C-27.6786 918.699 -29.941 920.273 -29.2924 921.849C-29.1178 921.438 -29.0007 921.466 -29.0007 922.332Z" fill="#DEDEDE"/>
<path d="M-24.6333 915.379C-24.7517 915.344 -24.8677 915.303 -24.9806 915.256C-24.687 916.767 -23.1749 918.468 -23.1749 919.727C-22.9796 919.62 -22.8185 919.472 -22.7064 919.296C-22.5944 919.12 -22.535 918.922 -22.534 918.72C-22.7306 918.467 -22.9446 918.224 -23.1749 917.994C-23.1749 917.408 -22.5148 918.012 -22.534 918.72C-19.289 922.824 -23.1749 926.932 -23.1749 931.042C-23.1749 929.297 -21.7184 927.558 -20.2619 925.819C-18.8073 930.17 -21.7184 933.647 -21.7184 937.995C-18.8074 936.257 -20.2619 932.774 -17.3547 931.042C-17.3547 934.196 -17.3547 937.364 -18.4581 940.525C-17.8333 939.524 -16.9583 938.659 -15.8982 937.995C-14.6068 939.534 -17.8862 941.08 -17.6253 943.235C-17.2108 942.649 -15.8982 942.06 -15.8982 941.473V944.084C-15.8982 943.212 -12.9833 942.346 -12.9833 941.473C-11.5998 942.312 -14.1654 943.913 -11.8934 944.066C-11.8819 943.416 -11.5288 942.772 -11.5288 942.346V944.084C-11.6506 944.085 -11.7724 944.078 -11.8934 944.066C-11.8934 944.727 -11.5422 945.383 -10.0723 945.821C-8.61773 945.821 -11.5288 943.212 -8.61774 944.084C-7.16126 944.949 -10.0723 946.694 -7.16127 946.694C-8.27618 944.699 -5.14061 945.746 -4.25214 945.576V944.949C-3.91248 945.36 -3.97581 945.524 -4.25214 945.576V946.694C-2.79758 945.821 -2.79756 944.949 -2.79756 944.084C0.11732 944.084 -2.79756 946.694 -1.33724 946.694C1.5738 946.694 -1.33725 944.949 0.117309 944.084V945.816C1.11421 945.099 2.05114 944.321 2.92089 943.487C1.94414 937.781 -2.17199 929.52 -5.00627 922.654C-8.74246 913.591 -13.3115 897.52 -22.7028 900.516C-24.4836 901.085 -26.9015 903.115 -29.2886 906.932C-29.8643 908.207 -30.4189 909.49 -30.9236 910.792C-30.9236 912.086 -30.463 913.345 -29.0046 914.514C-29.0046 912.771 -26.0917 911.905 -24.0941 907.497C-24.0941 909.785 -27.2737 914.352 -24.9844 915.26C-25.0957 914.67 -24.6333 914.511 -24.6333 915.379Z" fill="#EBEBEB"/>
<path d="M44.1665 910.83C44.2444 910.697 44.2889 910.552 44.297 910.402C44.2567 910.543 44.2106 910.683 44.1665 910.83Z" fill="#D1D1D1"/>
<path d="M37.2796 921.403C37.2782 921.738 37.3194 922.071 37.4024 922.398C37.5014 922.241 37.5427 922.062 37.5208 921.883C37.4988 921.705 37.4146 921.538 37.2796 921.403Z" fill="#D1D1D1"/>
<path d="M53.0689 927.691C53.0689 926.644 54.8248 926.122 55.6979 925.074C53.0689 925.074 51.315 926.122 50.4381 927.171C50.4381 926.122 51.315 925.074 52.192 924.547C49.5573 924.547 48.6841 925.074 48.6841 926.644V923.5C46.0513 924.02 47.8072 926.122 46.0513 926.122C44.2955 926.122 46.0513 924.547 45.1705 923.5C45.8537 924.307 44.4433 925.432 44.1669 926.385C43.8084 925.989 43.4734 925.578 43.1633 925.152C42.8927 923.383 44.2974 921.745 44.2974 919.83C44.2974 921.399 42.5397 922.451 42.5397 924.025C41.6665 920.882 43.4205 918.265 44.2974 915.122C43.4205 916.691 41.6665 918.265 41.6665 920.362C40.8318 916.861 43.1825 913.835 44.1612 910.832C43.6411 911.739 41.7798 912.647 42.5339 913.548C40.329 912.225 41.8258 910.908 42.3612 909.585C41.9659 908.637 43.3207 907.682 42.5339 906.741L39.9049 909.877C39.9049 906.541 41.0256 903.538 42.3612 900.595C40.2504 903.966 38.0532 909.094 36.3971 914.251C35.5272 916.913 34.827 919.615 34.2997 922.345C32.8989 926.39 39.9875 928.48 47.5884 928.604C52.3858 928.691 57.4077 927.988 60.6123 926.503C61.2341 926.216 61.6025 925.705 61.779 925.044C58.9889 926.033 55.6154 926.684 53.0689 927.691Z" fill="#D1D1D1"/>
<path d="M60.0846 924.024V922.981C59.2058 923.503 60.9616 924.551 59.2057 924.551C58.3326 924.551 60.0846 922.981 58.3326 922.981C58.3326 923.503 58.3326 924.024 57.4556 924.551V923.879C56.9164 923.985 55.0282 923.352 55.6979 924.551C53.944 924.551 55.6979 923.503 54.8248 922.981C53.0689 922.454 54.8248 924.024 53.944 924.024C53.0613 923.76 52.8444 923.362 52.8482 922.965C51.48 922.877 53.0248 921.911 52.192 921.402C52.192 921.929 50.4381 922.454 50.4381 922.981V921.402C50.4381 921.758 49.6436 922.11 49.3903 922.468C49.4137 922.646 49.4701 922.819 49.5573 922.981C49.2771 922.814 49.2694 922.636 49.3903 922.468C49.2406 921.174 51.2152 920.237 50.4381 919.313C49.8005 919.71 49.2754 920.231 48.9029 920.833C48.8338 921.028 48.7686 921.214 48.6918 921.402C48.7124 921.201 48.7845 921.007 48.9029 920.833C49.563 918.927 49.565 917.023 49.565 915.127C47.8149 916.169 48.6918 918.27 46.936 919.323C46.936 916.7 48.6918 914.605 47.8149 911.982C46.936 913.029 46.059 914.083 46.059 915.13C46.059 912.655 48.4021 910.179 46.4428 907.704C46.4428 907.826 46.4076 907.947 46.3406 908.054C46.2735 908.161 46.1767 908.252 46.059 908.318C46.059 907.556 45.1475 906.526 44.971 905.618C43.5893 905.074 46.8899 900.778 46.059 900.281C44.3051 899.754 42.5473 904.121 42.5473 905.175C42.1781 904.898 41.8833 904.554 41.6842 904.166C41.4852 903.779 41.3867 903.357 41.396 902.932C40.5363 905.144 39.928 907.422 39.928 909.886L42.557 906.749C43.3533 907.69 41.9813 908.645 42.3842 909.594C42.4937 909.353 42.5523 909.097 42.557 908.838V909.886C42.484 909.796 42.4259 909.698 42.3842 909.594C41.8489 910.916 40.3521 912.234 42.557 913.556C41.8028 912.655 43.6642 911.747 44.1842 910.841C44.2283 910.693 44.2744 910.554 44.3147 910.413C44.3066 910.562 44.2622 910.708 44.1842 910.841C43.1998 913.843 40.8491 916.869 41.6896 920.37C41.6896 918.274 43.4435 916.7 44.3205 915.13C43.4435 918.274 41.6896 920.89 42.5627 924.034C42.5627 922.464 44.3205 921.412 44.3205 919.838C44.3205 922.459 41.6896 924.556 44.3205 927.179C43.4435 926.13 46.0744 924.556 45.1936 923.508C46.0744 924.556 44.3205 926.13 46.0744 926.13C47.8283 926.13 46.0744 924.029 48.7072 923.508V926.652C48.7072 925.083 49.5803 924.556 52.215 924.556C51.3381 925.083 50.4611 926.13 50.4611 927.179C51.338 926.13 53.0919 925.083 55.7209 925.083C54.8478 926.13 53.092 926.652 53.092 927.699C55.6384 926.68 59.0119 926.038 61.8078 925.047C61.9825 924.386 61.9556 923.56 61.7944 922.624C61.2656 923.127 60.694 923.595 60.0846 924.024Z" fill="#D7D7D7"/>
<path d="M45.1705 905.685C45.0991 905.664 45.0298 905.638 44.9632 905.608C45.1398 906.516 46.0513 907.546 46.0513 908.308C46.169 908.242 46.2658 908.151 46.3328 908.044C46.3999 907.936 46.435 907.816 46.4351 907.694C46.3185 907.542 46.1903 907.396 46.0513 907.259C46.0513 906.903 46.4466 907.259 46.4351 907.694C48.3943 910.169 46.0513 912.645 46.0513 915.12C46.0513 914.073 46.9282 913.019 47.8071 911.972C48.6841 914.595 46.9282 916.689 46.9282 919.313C48.6841 918.264 47.8071 916.163 49.5572 915.117C49.5572 917.02 49.5572 918.923 48.8952 920.823C49.2677 920.221 49.7928 919.7 50.4303 919.303C51.2075 920.227 49.2329 921.164 49.3826 922.458C49.6359 922.1 50.4303 921.748 50.4303 921.392V922.971C50.4303 922.444 52.1842 921.919 52.1842 921.392C53.017 921.896 51.4723 922.867 52.8405 922.955C52.8405 922.574 53.0612 922.183 53.0612 921.919V922.971C52.9872 922.973 52.9132 922.967 52.8405 922.955C52.8405 923.352 53.0535 923.75 53.9362 924.014C54.817 924.014 53.0612 922.444 54.817 922.971C55.6901 923.493 53.9362 924.541 55.6901 924.541C55.0204 923.341 56.9087 923.973 57.4479 923.869V923.495C57.6513 923.74 57.6129 923.841 57.4479 923.869V924.541C58.3248 924.014 58.3249 923.493 58.3249 922.971C60.0769 922.971 58.3249 924.541 59.198 924.541C60.9538 924.541 59.198 923.493 60.0769 922.971V924.014C60.6786 923.583 61.2424 923.113 61.7636 922.609C61.188 919.168 58.7029 914.197 56.9912 910.059C54.7364 904.597 51.9866 894.91 46.3276 896.719C45.253 897.055 43.7965 898.282 42.3592 900.58C42.01 901.352 41.6742 902.124 41.371 902.909C41.3617 903.334 41.4602 903.755 41.6592 904.143C41.8583 904.531 42.153 904.875 42.5223 905.151C42.5223 904.097 44.2801 903.575 45.4794 900.924C45.4794 902.3 43.5605 905.051 44.946 905.594C44.8922 905.259 45.1705 905.165 45.1705 905.685Z" fill="#E7E7E7"/>
</g>
</g>
<defs>
<clipPath id="clip0_1244_150">
<rect width="255" height="1024" fill="white"/>
</clipPath>
<clipPath id="clip1_1244_150">
<rect width="3.34243" height="2.89905" fill="white" transform="translate(110.864 524.869)"/>
</clipPath>
</defs>
</svg>
