<svg width="273" height="1080" viewBox="0 0 273 1080" fill="none" xmlns="http://www.w3.org/2000/svg">
<g clip-path="url(#clip0_1244_2)">
<rect width="273" height="1080" fill="white"/>
<rect x="-154" width="475" height="1180" fill="#F97738"/>
<g style="mix-blend-mode:multiply" opacity="0.6">
<path d="M307.079 310.555V376.169H195C197.48 357.867 206.451 344.297 217.136 344.297C222.296 344.297 227.056 347.469 230.884 352.788C235.477 336.815 244.582 325.941 255.067 325.941C260.576 325.941 265.686 328.948 269.98 334.101C275.872 318.147 285.791 307.676 297.042 307.676C300.538 307.676 303.916 308.684 307.079 310.555Z" fill="#F5F5F5"/>
</g>
<g style="mix-blend-mode:multiply" opacity="0.6">
<path d="M316.079 617.879V683.493H204C206.48 665.191 215.451 651.621 226.136 651.621C231.296 651.621 236.056 654.794 239.884 660.112C244.477 644.139 253.582 633.265 264.067 633.265C269.576 633.265 274.686 636.272 278.98 641.425C284.872 625.471 294.791 615 306.042 615C309.538 615 312.916 616.009 316.079 617.879Z" fill="#F5F5F5"/>
</g>
<g style="mix-blend-mode:multiply" opacity="0.6">
<path d="M-40 215.702V273.105H58C55.8316 257.094 47.9875 245.222 38.6445 245.222C34.1331 245.222 29.9709 247.998 26.6237 252.65C22.6071 238.676 14.6466 229.163 5.47817 229.163C0.661125 229.163 -3.80664 231.794 -7.56131 236.302C-12.7131 222.344 -21.3867 213.184 -31.2245 213.184C-34.2807 213.184 -37.2349 214.066 -40 215.702Z" fill="#F5F5F5"/>
</g>
<g style="mix-blend-mode:multiply" opacity="0.6">
<path d="M-40 752.695V810.098H58C55.8316 794.086 47.9875 782.214 38.6445 782.214C34.1331 782.214 29.9709 784.99 26.6237 789.642C22.6071 775.669 14.6466 766.155 5.47817 766.155C0.661125 766.155 -3.80664 768.786 -7.56131 773.294C-12.7131 759.337 -21.3867 750.176 -31.2245 750.176C-34.2807 750.176 -37.2349 751.058 -40 752.695Z" fill="#F5F5F5"/>
</g>
<g style="mix-blend-mode:multiply">
<path d="M222.658 541.557C221.182 538.722 218.55 537.343 216.779 538.451L222.13 548.696C223.902 547.588 224.134 544.391 222.658 541.557Z" fill="#D8D8D8"/>
<path d="M226.98 543.851C229.909 543.419 232.502 544.877 232.764 547.093L222.148 548.661C221.879 546.434 224.051 544.282 226.98 543.851Z" fill="#D8D8D8"/>
</g>
<g style="mix-blend-mode:multiply" opacity="0.51">
<path opacity="0.7" d="M173.613 525.996C180.761 525.996 186.556 525.188 186.556 524.192C186.556 523.196 180.761 522.389 173.613 522.389C166.465 522.389 160.67 523.196 160.67 524.192C160.67 525.188 166.465 525.996 173.613 525.996Z" fill="#787878"/>
<path d="M169.122 527.149H178.104C178.75 527.149 179.278 526.625 179.284 525.98C179.284 525.33 178.755 524.802 178.104 524.802H169.122C168.472 524.802 167.943 525.33 167.943 525.98C167.948 526.625 168.477 527.149 169.122 527.149Z" fill="#181818"/>
<path d="M175.225 526.478L174.401 528.363C174.218 528.81 173.709 529.023 173.267 528.84C173.048 528.754 172.88 528.581 172.789 528.363L171.996 526.483L175.225 526.478Z" fill="#181818"/>
<path opacity="0.7" d="M79.8752 525.996C87.0234 525.996 92.8181 525.188 92.8181 524.192C92.8181 523.196 87.0234 522.389 79.8752 522.389C72.7271 522.389 66.9324 523.196 66.9324 524.192C66.9324 525.188 72.7271 525.996 79.8752 525.996Z" fill="#787878"/>
<path d="M75.3844 527.149H84.3656C85.0115 527.149 85.5404 526.625 85.5455 525.98C85.5455 525.33 85.0166 524.802 84.3656 524.802H75.3844C74.7335 524.802 74.2046 525.33 74.2046 525.98C74.2097 526.625 74.7386 527.149 75.3844 527.149Z" fill="#181818"/>
<path d="M81.4872 526.478L80.6633 528.363C80.4802 528.81 79.9717 529.023 79.5292 528.84C79.3105 528.754 79.1427 528.581 79.0512 528.363L78.2578 526.483L81.4872 526.478Z" fill="#181818"/>
<path d="M79.092 566.887C78.5173 566.887 77.9427 566.76 77.4138 566.511L75.7609 565.743C75.0642 565.418 74.4489 564.89 73.981 564.214L63.703 549.36C63.0469 548.41 62.7113 547.216 62.7571 545.996L63.0673 537.756C63.108 536.628 63.4843 535.536 64.1251 534.683C64.5777 534.078 65.1626 533.601 65.8084 533.301L79.1378 527.143C79.6667 526.9 80.2261 526.778 80.7957 526.778H81.3551C81.5941 526.778 81.8332 526.798 82.0722 526.844L108.568 531.777L107.902 535.338L81.406 530.405L80.7957 530.4C80.7499 530.4 80.7041 530.41 80.6584 530.436L67.329 536.593C67.2273 536.639 67.1205 536.735 67.029 536.857C66.8306 537.121 66.7086 537.497 66.6933 537.893L66.378 546.134C66.3628 546.57 66.4746 546.992 66.6831 547.297L76.9662 562.157C77.0629 562.299 77.1798 562.406 77.2968 562.462L78.9496 563.229C79.0056 563.254 79.0564 563.264 79.1022 563.264L90.2956 562.66C90.3159 562.66 90.3363 562.655 90.3566 562.65L90.4583 562.624C90.5956 562.589 90.738 562.462 90.8601 562.284L91.7857 560.917C91.8721 560.79 91.9382 560.643 91.9891 560.48L97.0798 544.096C97.5426 542.608 98.6105 541.439 99.9328 540.977L107.643 538.285L108.838 541.704L101.128 544.396C100.95 544.457 100.691 544.696 100.543 545.168L95.4524 561.552C95.2947 562.055 95.071 562.523 94.7913 562.944L93.8657 564.311C93.2554 565.21 92.3858 565.855 91.4144 566.119L91.3127 566.145C91.0432 566.221 90.7685 566.262 90.4888 566.277L79.2954 566.881C79.2293 566.887 79.1581 566.887 79.092 566.887Z" fill="#BFBFBF"/>
<path d="M173.837 566.887C173.771 566.887 173.699 566.887 173.633 566.882L162.44 566.277C162.165 566.262 161.886 566.216 161.616 566.145L161.514 566.12C160.543 565.855 159.668 565.21 159.063 564.311L158.137 562.944C157.853 562.523 157.629 562.055 157.476 561.558L152.386 545.174C152.238 544.706 151.979 544.462 151.801 544.401L144.091 541.709L145.286 538.29L152.996 540.982C154.318 541.445 155.381 542.608 155.844 544.102L160.935 560.486C160.985 560.648 161.057 560.795 161.138 560.922L162.064 562.289C162.186 562.467 162.333 562.594 162.465 562.629L162.567 562.655C162.587 562.66 162.608 562.665 162.628 562.665L173.821 563.27C173.867 563.27 173.918 563.259 173.974 563.234L175.627 562.467C175.739 562.416 175.856 562.304 175.957 562.162L186.241 547.302C186.454 546.997 186.561 546.571 186.546 546.139L186.235 537.894C186.22 537.497 186.098 537.121 185.9 536.857C185.808 536.735 185.701 536.639 185.6 536.593L172.27 530.436C172.22 530.415 172.174 530.4 172.133 530.4H171.574L145.027 535.333L144.361 531.772L170.857 526.839C171.091 526.793 171.33 526.773 171.569 526.773H172.128C172.703 526.773 173.257 526.895 173.786 527.144L187.115 533.301C187.761 533.601 188.346 534.078 188.799 534.683C189.439 535.536 189.811 536.623 189.856 537.756L190.167 545.997C190.212 547.216 189.877 548.41 189.221 549.36L178.938 564.22C178.47 564.895 177.854 565.424 177.158 565.749L175.505 566.516C174.981 566.76 174.406 566.887 173.837 566.887Z" fill="#BFBFBF"/>
<path d="M60.9872 567.73C60.3464 567.73 59.7209 567.618 59.1157 567.389L56.6746 566.48C55.8355 566.165 55.0828 565.642 54.4929 564.966L39.3022 547.373C38.4021 546.332 37.9444 545.001 38.0054 543.624L38.4682 533.87C38.5292 532.605 39.0378 531.396 39.9074 530.466C40.4719 529.861 41.1839 529.389 41.9569 529.104L61.6636 521.819C62.2586 521.601 62.8842 521.489 63.5249 521.489H64.3539C64.6183 521.489 64.8828 521.509 65.1422 521.545L104.311 527.382L103.859 530.395L64.6895 524.563C64.5777 524.547 64.4658 524.537 64.3488 524.537H63.5199C63.2452 524.537 62.9757 524.583 62.7214 524.68L43.0147 531.97C42.6791 532.092 42.3739 532.295 42.1349 532.554C41.7637 532.95 41.5399 533.474 41.5145 534.017L41.0517 543.771C41.0262 544.361 41.2195 544.935 41.6111 545.382L56.8069 562.97C57.0611 563.259 57.3815 563.488 57.7426 563.62L60.1837 564.529C60.4736 564.636 60.7787 564.687 61.0889 564.672L77.6375 563.955C77.7697 563.95 77.9019 563.935 78.0291 563.904L78.1816 563.874C78.6749 563.767 79.1276 563.493 79.453 563.107L80.8211 561.486C80.9838 561.293 81.116 561.075 81.2076 560.836L88.7241 541.45C89.3293 539.885 90.6566 538.681 92.2738 538.234L103.671 535.048L104.495 537.985L93.0977 541.17C92.401 541.363 91.8314 541.881 91.572 542.557L84.0504 561.943C83.8368 562.492 83.5368 563.005 83.1554 563.457L81.7873 565.078C81.0296 565.977 79.9819 566.607 78.8377 566.856L78.6851 566.892C78.3851 566.958 78.0799 566.998 77.7748 567.008L61.2262 567.725C61.1449 567.725 61.0686 567.73 60.9872 567.73Z" fill="#D1D1D1"/>
<path d="M156.495 524.034C147.575 522.536 138.522 521.982 129.485 522.388C120.453 521.982 111.401 522.536 102.486 524.034C100.955 524.349 99.8414 525.675 99.7905 527.235V536.811C99.8414 538.371 100.955 539.697 102.486 540.012C111.401 541.511 120.453 542.059 129.485 541.648C138.522 542.059 147.575 541.516 156.495 540.012C158.021 539.692 159.134 538.371 159.19 536.811V527.255C159.139 525.691 158.026 524.36 156.495 524.034Z" fill="#ECECEC"/>
<path opacity="0.2" d="M156.495 524.034C147.575 522.536 138.522 521.982 129.485 522.388C120.453 521.982 111.401 522.536 102.486 524.034C100.955 524.349 99.8414 525.675 99.7905 527.235V536.811C99.8414 538.371 100.955 539.697 102.486 540.012C111.401 541.511 120.453 542.059 129.485 541.648C138.522 542.059 147.575 541.516 156.495 540.012C158.021 539.692 159.134 538.371 159.19 536.811V527.255C159.139 525.691 158.026 524.36 156.495 524.034Z" fill="#787878"/>
<path d="M157.242 534.835C156.998 534.835 156.8 534.637 156.8 534.393V528.785C156.8 528.541 156.998 528.343 157.242 528.343C157.487 528.343 157.685 528.541 157.685 528.785V534.393C157.675 534.637 157.482 534.83 157.242 534.835Z" fill="#D8D8D8"/>
<path d="M155.798 534.835C155.554 534.835 155.355 534.637 155.355 534.393V528.785C155.355 528.541 155.554 528.343 155.798 528.343C156.042 528.343 156.24 528.541 156.24 528.785V534.393C156.23 534.637 156.037 534.83 155.798 534.835Z" fill="#D8D8D8"/>
<path d="M154.354 534.835C154.11 534.835 153.911 534.637 153.911 534.393V528.785C153.911 528.541 154.11 528.343 154.354 528.343C154.598 528.343 154.796 528.541 154.796 528.785V534.393C154.796 534.637 154.598 534.835 154.354 534.835Z" fill="#D8D8D8"/>
<path opacity="0.2" d="M110.725 529.699C110.918 530.187 111.381 530.507 111.905 530.507H129.979C130.426 530.507 130.843 530.268 131.072 529.882L135.202 522.795C126.226 521.987 117.188 522.129 108.238 523.217L110.725 529.699Z" fill="#787878"/>
<path opacity="0.2" d="M144.945 524.034C142.499 523.623 140.033 523.288 137.566 523.013L132.938 530.928C132.328 531.985 131.199 532.635 129.979 532.635H111.904C110.485 532.63 109.219 531.756 108.711 530.435L106.025 523.47C104.846 523.638 103.666 523.816 102.506 524.014C100.975 524.329 99.8616 525.655 99.8108 527.215V536.791C99.8616 538.351 100.975 539.677 102.506 539.991C116.558 542.359 130.909 542.359 144.961 539.991C146.492 539.677 147.61 538.351 147.661 536.791V527.255C147.615 525.68 146.492 524.344 144.945 524.034ZM135.746 537.228C135.054 537.228 134.495 536.669 134.495 535.978C134.495 535.287 135.054 534.728 135.746 534.728C136.437 534.728 136.997 535.287 136.997 535.978C136.997 536.669 136.437 537.228 135.746 537.228ZM140.597 537.228C139.906 537.228 139.346 536.669 139.346 535.978C139.346 535.287 139.906 534.728 140.597 534.728C141.289 534.728 141.848 535.287 141.848 535.978C141.853 536.664 141.299 537.223 140.618 537.228C140.607 537.228 140.602 537.228 140.597 537.228Z" fill="#787878"/>
<path d="M197.007 567.73C196.931 567.73 196.849 567.73 196.773 567.725L180.224 567.008C179.919 566.993 179.609 566.957 179.309 566.891L179.161 566.861C178.012 566.612 176.965 565.977 176.212 565.083L174.844 563.462C174.462 563.01 174.162 562.502 173.949 561.948L166.427 542.557C166.168 541.886 165.598 541.368 164.901 541.175L153.505 537.99L154.329 535.053L165.725 538.239C167.343 538.691 168.67 539.895 169.275 541.454L176.797 560.846C176.888 561.085 177.02 561.303 177.183 561.496L178.551 563.117C178.877 563.503 179.329 563.772 179.823 563.884L179.97 563.914C180.097 563.945 180.229 563.96 180.362 563.965L196.91 564.682C197.22 564.697 197.526 564.646 197.815 564.539L200.257 563.63C200.618 563.493 200.943 563.269 201.192 562.98L216.388 545.392C216.775 544.945 216.973 544.371 216.947 543.781L216.485 534.027C216.459 533.484 216.241 532.96 215.864 532.564C215.62 532.305 215.315 532.102 214.984 531.98L195.278 524.684C195.023 524.588 194.754 524.542 194.479 524.542H193.65C193.538 524.542 193.422 524.552 193.31 524.568L154.14 530.405L153.688 527.392L192.857 521.555C193.116 521.514 193.386 521.499 193.645 521.499H194.474C195.11 521.499 195.735 521.611 196.336 521.829L216.042 529.114C216.82 529.404 217.527 529.871 218.092 530.476C218.961 531.401 219.47 532.61 219.531 533.88L219.994 543.634C220.06 545.011 219.597 546.337 218.697 547.383L203.501 564.971C202.916 565.652 202.159 566.175 201.319 566.485L198.878 567.394C198.273 567.613 197.648 567.73 197.007 567.73Z" fill="#D1D1D1"/>
<path opacity="0.7" d="M63.3267 518.913C75.0333 518.913 84.5234 517.59 84.5234 515.957C84.5234 514.324 75.0333 513 63.3267 513C51.62 513 42.1299 514.324 42.1299 515.957C42.1299 517.59 51.62 518.913 63.3267 518.913Z" fill="#BBBBBB"/>
<path d="M55.978 520.798H70.6855C71.7484 520.798 72.6079 519.939 72.613 518.883C72.613 517.821 71.7484 516.957 70.6855 516.957H55.978C54.9151 516.957 54.0505 517.821 54.0505 518.883C54.0556 519.944 54.9151 520.798 55.978 520.798Z" fill="#A3A2A5"/>
<path d="M65.9711 519.701L64.6234 522.79C64.3285 523.516 63.4944 523.867 62.7621 523.572C62.4061 523.43 62.1264 523.145 61.9789 522.79L60.677 519.711L65.9711 519.701Z" fill="#A3A2A5"/>
<path opacity="0.7" d="M193.909 518.913C205.616 518.913 215.106 517.59 215.106 515.957C215.106 514.324 205.616 513 193.909 513C182.203 513 172.713 514.324 172.713 515.957C172.713 517.59 182.203 518.913 193.909 518.913Z" fill="#CECFCF"/>
<path d="M186.556 520.798H201.263C202.326 520.798 203.186 519.939 203.191 518.883C203.191 517.821 202.326 516.957 201.263 516.957H186.556C185.493 516.957 184.628 517.821 184.628 518.883C184.634 519.944 185.498 520.798 186.556 520.798Z" fill="#A3A2A5"/>
<path d="M196.549 519.701L195.201 522.79C194.906 523.516 194.072 523.867 193.34 523.572C192.984 523.43 192.704 523.145 192.557 522.79L191.255 519.711L196.549 519.701Z" fill="#A3A2A5"/>
<g clip-path="url(#clip1_1244_2)">
<path d="M112.535 524.869L110.864 527.768H111.891L112.535 526.651C112.449 526.651 112.378 526.591 112.359 526.512H111.767C111.744 526.512 111.725 526.493 111.725 526.469C111.725 526.446 111.744 526.427 111.767 526.427H112.359C112.378 526.348 112.45 526.288 112.535 526.288C112.62 526.288 112.692 526.348 112.711 526.427H113.303C113.326 526.427 113.345 526.446 113.345 526.469C113.345 526.493 113.326 526.512 113.303 526.512H112.71C112.691 526.591 112.62 526.651 112.535 526.651L113.178 527.768H114.206L112.535 524.869Z" fill="#F75506"/>
</g>
<path d="M116.302 525.84H116.629V527.785H116.3L116.288 527.456C116.227 527.569 116.142 527.66 116.035 527.73C115.928 527.8 115.8 527.835 115.654 527.835C115.509 527.835 115.375 527.809 115.25 527.755C115.125 527.701 115.015 527.627 114.919 527.531C114.824 527.436 114.749 527.326 114.695 527.202C114.642 527.077 114.615 526.943 114.615 526.799C114.615 526.66 114.642 526.53 114.694 526.406C114.745 526.283 114.818 526.175 114.911 526.083C115.004 525.99 115.112 525.917 115.234 525.865C115.356 525.812 115.487 525.786 115.626 525.786C115.781 525.786 115.917 525.822 116.033 525.894C116.149 525.966 116.243 526.059 116.313 526.173L116.302 525.84ZM115.661 527.519C115.791 527.519 115.903 527.486 115.997 527.421C116.091 527.356 116.162 527.27 116.211 527.161C116.259 527.052 116.281 526.931 116.276 526.799C116.271 526.67 116.24 526.552 116.184 526.447C116.129 526.342 116.053 526.259 115.958 526.197C115.863 526.136 115.752 526.104 115.626 526.104C115.498 526.104 115.38 526.137 115.275 526.202C115.17 526.267 115.087 526.353 115.028 526.462C114.969 526.571 114.942 526.693 114.947 526.826C114.953 526.954 114.99 527.071 115.056 527.176C115.122 527.281 115.209 527.364 115.315 527.426C115.421 527.488 115.537 527.519 115.661 527.519Z" fill="white"/>
<path d="M116.993 527.785L117.707 526.809L116.997 525.837H117.401L117.91 526.529L118.417 525.837H118.821L118.111 526.809L118.825 527.785H118.421L117.91 527.085L117.397 527.785H116.993Z" fill="white"/>
<path d="M119.25 527.785V524.868H119.575V527.785H119.25Z" fill="white"/>
<path d="M121.648 524.868H121.975V527.785H121.648V527.455C121.581 527.568 121.492 527.661 121.38 527.731C121.268 527.801 121.137 527.836 120.986 527.836C120.844 527.836 120.712 527.809 120.588 527.756C120.464 527.703 120.355 527.629 120.261 527.535C120.166 527.441 120.093 527.333 120.039 527.21C119.986 527.086 119.959 526.954 119.959 526.813C119.959 526.672 119.986 526.539 120.039 526.415C120.093 526.291 120.167 526.182 120.261 526.088C120.355 525.994 120.464 525.921 120.588 525.868C120.712 525.815 120.844 525.788 120.986 525.788C121.137 525.788 121.268 525.823 121.38 525.893C121.492 525.963 121.581 526.055 121.648 526.169V524.868ZM120.99 527.519C121.119 527.519 121.23 527.487 121.324 527.425C121.419 527.362 121.491 527.276 121.543 527.169C121.594 527.061 121.62 526.942 121.62 526.813C121.62 526.681 121.594 526.561 121.542 526.454C121.49 526.347 121.416 526.262 121.322 526.199C121.228 526.136 121.117 526.105 120.989 526.105C120.861 526.105 120.744 526.137 120.639 526.2C120.534 526.263 120.45 526.349 120.388 526.456C120.326 526.563 120.295 526.682 120.295 526.812C120.295 526.944 120.327 527.062 120.39 527.169C120.454 527.276 120.539 527.361 120.644 527.424C120.75 527.487 120.865 527.519 120.99 527.519Z" fill="white"/>
<path d="M123.574 526.163C123.542 526.145 123.507 526.131 123.469 526.121C123.431 526.11 123.39 526.105 123.346 526.105C123.238 526.105 123.142 526.134 123.058 526.193C122.973 526.251 122.908 526.33 122.86 526.43C122.812 526.53 122.787 526.64 122.787 526.76V527.785H122.458V525.841H122.785V526.14C122.856 526.031 122.943 525.945 123.047 525.882C123.151 525.819 123.266 525.788 123.392 525.788C123.435 525.788 123.476 525.79 123.515 525.794C123.554 525.797 123.591 525.805 123.626 525.817L123.574 526.163Z" fill="white"/>
<path d="M124.639 527.836C124.459 527.836 124.296 527.79 124.148 527.698C124 527.606 123.883 527.482 123.795 527.327C123.707 527.173 123.663 527.001 123.663 526.813C123.663 526.67 123.688 526.537 123.739 526.414C123.79 526.29 123.86 526.181 123.949 526.087C124.038 525.993 124.142 525.919 124.26 525.866C124.378 525.813 124.505 525.786 124.639 525.786C124.818 525.786 124.982 525.832 125.13 525.924C125.277 526.016 125.395 526.14 125.483 526.296C125.571 526.451 125.615 526.624 125.615 526.813C125.615 526.954 125.589 527.086 125.539 527.21C125.488 527.333 125.418 527.441 125.329 527.536C125.24 527.63 125.136 527.703 125.018 527.756C124.9 527.809 124.774 527.836 124.639 527.836ZM124.639 527.509C124.761 527.509 124.872 527.477 124.97 527.413C125.068 527.348 125.145 527.264 125.202 527.158C125.258 527.052 125.286 526.937 125.286 526.813C125.286 526.685 125.258 526.569 125.2 526.463C125.142 526.356 125.064 526.271 124.967 526.208C124.869 526.144 124.76 526.113 124.639 526.113C124.517 526.113 124.407 526.145 124.309 526.209C124.212 526.273 124.134 526.358 124.077 526.464C124.02 526.571 123.991 526.687 123.991 526.813C123.991 526.942 124.02 527.06 124.079 527.166C124.137 527.271 124.216 527.355 124.315 527.416C124.414 527.478 124.522 527.509 124.639 527.509Z" fill="white"/>
<path d="M127.695 526.751V527.785H127.367V526.758C127.367 526.638 127.342 526.528 127.291 526.429C127.24 526.33 127.171 526.251 127.084 526.191C126.997 526.132 126.899 526.103 126.789 526.103C126.681 526.103 126.585 526.133 126.501 526.191C126.417 526.251 126.352 526.33 126.303 526.429C126.255 526.528 126.231 526.638 126.231 526.758V527.785H125.903V525.841H126.231V526.14C126.301 526.03 126.388 525.943 126.491 525.88C126.595 525.817 126.71 525.786 126.838 525.786C127.007 525.786 127.156 525.83 127.284 525.918C127.412 526.007 127.512 526.123 127.584 526.269C127.657 526.415 127.693 526.576 127.695 526.751Z" fill="white"/>
<path d="M128.925 527.836C128.746 527.836 128.582 527.79 128.434 527.698C128.286 527.606 128.169 527.482 128.081 527.327C127.993 527.173 127.949 527.001 127.949 526.813C127.949 526.67 127.975 526.537 128.025 526.414C128.076 526.29 128.146 526.181 128.235 526.087C128.324 525.993 128.428 525.919 128.546 525.866C128.665 525.813 128.791 525.786 128.925 525.786C129.072 525.786 129.207 525.816 129.33 525.875C129.453 525.934 129.558 526.016 129.646 526.121C129.734 526.226 129.8 526.347 129.843 526.486C129.887 526.625 129.903 526.773 129.891 526.932H128.299C128.314 527.042 128.35 527.14 128.408 527.226C128.465 527.313 128.538 527.381 128.628 527.431C128.717 527.482 128.816 527.508 128.925 527.509C129.042 527.509 129.149 527.479 129.243 527.419C129.338 527.359 129.415 527.276 129.474 527.171L129.807 527.248C129.729 527.421 129.612 527.562 129.454 527.672C129.297 527.781 129.121 527.836 128.925 527.836ZM128.289 526.675H129.562C129.551 526.566 129.516 526.466 129.456 526.376C129.396 526.286 129.32 526.214 129.228 526.16C129.135 526.105 129.035 526.078 128.925 526.078C128.816 526.078 128.716 526.104 128.625 526.158C128.534 526.211 128.459 526.282 128.4 526.372C128.34 526.463 128.303 526.563 128.289 526.675Z" fill="white"/>
</g>
<g style="mix-blend-mode:multiply" opacity="0.63">
<path fill-rule="evenodd" clip-rule="evenodd" d="M320.996 919.867C318.928 918.467 314.061 907.764 308.798 907.145C299.656 906.054 297.9 911.437 288.183 912.089C278.466 912.742 271.262 922.175 261.553 921.518C251.843 920.861 255.84 920.647 248.98 919.99C242.12 919.333 243.84 918.467 238.125 918.028C232.411 917.59 229.552 918.467 229.552 918.467C227.077 918.029 224.554 918.246 222.081 917.813C222.081 917.813 218.696 917.81 212.988 918.682C211.685 918.882 210.757 918.41 210.08 918.287C207.297 917.773 203.115 917.393 197.106 918.059C133.59 919.637 87.2777 919.388 85.0194 918.899C81.5303 918.144 79.9194 917.697 79.9194 917.697C78.5024 917.326 79.4561 917.511 75.3099 916.934C69.0236 916.06 23.8295 899.468 -23.0744 918.987C-25.6312 920.523 -42.9451 919.995 -49.2275 918.899C-55.5099 917.803 -62.3525 915.851 -62.3525 915.851C-62.3525 915.851 -68.0689 915.411 -76.6386 914.32C-85.2083 913.229 -108.661 915.371 -114.946 914.93C-116.659 914.814 -114.946 914.93 -123.657 915.283C-128.879 915.493 -135.572 915.189 -140.971 915.937C-143.921 916.349 -149.659 915.166 -152.512 915.601C-152.952 915.667 -153.38 915.725 -153.813 915.783V953.318C-64.4692 948.329 307.177 983.706 319.161 983.889C319.779 983.886 320.395 983.83 321 983.721L320.996 919.867Z" fill="#F8F8F8"/>
<path fill-rule="evenodd" clip-rule="evenodd" d="M321 960.351C292.484 955.751 260.042 951.506 224.824 948.591C113.552 939.381 49.718 940.703 -30.6705 944.06C-73.1042 945.832 -114.893 948.86 -153.8 952.406V977.146C-104.519 977.099 -52.8306 977.398 -6.1771 978.321C6.77963 978.257 87.5232 977.518 100.85 977.636C198.795 978.527 266.072 997.428 321 1005.28V960.351Z" fill="#ECECEC"/>
<path d="M178.173 947.525C190.976 948.222 207.807 949.182 226.847 950.909C208.707 948.965 193.808 947.953 186.438 947.707L178.173 947.525Z" fill="#BFBFBF"/>
<path d="M110.445 946.343C109.21 946.273 108.158 946.219 107.3 946.176C107.062 946.208 108.158 946.249 110.445 946.343Z" fill="#D1D1D1"/>
<path d="M124.561 981.616C111.748 978.654 134.54 985.211 124.561 981.616V981.616Z" fill="#D1D1D1"/>
<path d="M90.3712 980.709C76.7313 977.97 101.351 984.134 90.3712 980.709V980.709Z" fill="#D1D1D1"/>
<path d="M56.0028 980.375C41.6203 977.857 67.9291 983.612 56.0028 980.375V980.375Z" fill="#D1D1D1"/>
<g opacity="0.5">
<path d="M321 962.662C272.673 954.217 219.128 949.464 212.003 948.749C221.909 949.924 277.791 956.184 321 964.179V962.662Z" fill="#D8D8D8"/>
<path d="M321 967.984V965.596C288.737 957.829 255.32 953.512 226.847 950.909C255.652 954.006 292.638 959.443 320.656 967.878L321 967.984Z" fill="#D8D8D8"/>
<path d="M321 975.132V971.157C317.467 970.15 313.791 969.163 309.974 968.195C252.948 954.064 193.012 949.669 180.253 948.727C195.221 950.051 248.594 955.407 281.736 963.664C289.664 965.414 305.28 969.582 321 975.132Z" fill="#D8D8D8"/>
<path d="M321 978.028C319.1 977.379 317.162 976.722 315.207 976.073C302.532 971.84 288.056 967.873 271.205 964.137C212.426 951.494 166.97 948.462 155.048 947.735C168.989 948.789 206.7 952.525 241.667 960.069C252.808 962.235 278.589 968.323 300.84 976.348C308.061 978.908 314.913 981.67 321 984.532V978.028Z" fill="#D8D8D8"/>
<path d="M321 987.113C319.733 986.433 318.421 985.76 317.026 985.099C307.174 980.411 293.484 976.167 278.839 971.939C264.913 967.925 249.275 964.203 231.329 960.749C168.881 949.118 122.619 946.869 110.436 946.344C124.691 947.156 163.454 950.247 200.626 957.189C225.703 960.881 306.989 980.464 317.041 998.603C318.274 999.324 319.598 999.918 320.988 1000.37L321 987.113Z" fill="#D8D8D8"/>
<path d="M48.5535 944.88C59.3322 945.166 116.216 948.158 158.853 955.007C185.021 958.261 272.149 976.489 287.259 994.466C291.673 998.626 279.288 990.666 287.259 994.466C296.819 999.212 308.738 996.924 319.183 1001.24C308.924 994.682 299.335 987.412 283.358 980.955C272.143 976.424 257.231 972.408 241.356 968.435C226.258 964.647 209.519 961.182 190.554 958.038C112.299 945.495 47.1085 945.078 48.5516 944.88H48.5535Z" fill="#D8D8D8"/>
<path d="M17.2745 945.829C28.1165 945.928 71.8628 947.426 116.528 953.549C143.653 956.346 236.209 973.087 256.348 990.835C261.933 994.915 247.329 987.165 256.348 990.835C267.223 995.424 278.485 992.937 290.122 997.087C278.058 990.688 266.402 983.577 248.559 977.377C236.042 973.034 219.958 969.271 202.927 965.559C186.723 962.034 168.961 958.857 149.079 956.041C67.1306 944.838 15.8852 946.055 17.2764 945.834L17.2745 945.829Z" fill="#D8D8D8"/>
<path d="M-27.5711 946.817C-16.7329 946.73 27.4068 947.467 73.8799 952.805C101.822 955.13 199.358 970.29 224.473 987.714C231.201 991.705 214.433 984.19 224.473 987.714C236.62 992.126 247.159 989.441 259.943 993.397C246.111 987.204 232.433 980.279 212.8 974.378C199.03 970.246 181.859 966.757 163.748 963.34C146.506 960.091 127.823 957.216 107.112 954.74C21.8744 944.954 -28.9105 947.072 -27.5711 946.821V946.817Z" fill="#D8D8D8"/>
<path d="M-72.0046 948.579C-61.2144 948.304 -16.9136 948.274 31.1253 952.8C59.7368 954.646 161.781 968.118 191.778 985.129C199.626 989.004 180.759 981.773 191.778 985.129C205.143 989.337 214.905 986.472 228.783 990.221C213.239 984.25 197.594 977.56 176.257 971.993C161.289 968.09 143.119 964.887 124.016 961.784C105.83 958.829 86.3085 956.281 64.872 954.158C-23.2173 945.852 -73.2635 948.86 -72.0046 948.579V948.579Z" fill="#D8D8D8"/>
<path d="M-115.774 951.102C-105.091 950.641 -60.8725 949.838 -11.5114 953.531C2.54677 954.398 37.0053 957.391 71.4274 962.593C105.999 967.721 140.527 975.05 158.419 983.104C167.356 986.845 146.474 979.932 158.419 983.104C172.957 987.085 181.88 984.059 196.798 987.571C179.604 981.865 162.065 975.431 139.12 970.231C123.037 966.586 103.942 963.686 83.9332 960.913C64.8914 958.273 44.6293 956.061 22.5825 954.318C-67.9093 947.537 -116.946 951.413 -115.774 951.109V951.102Z" fill="#D8D8D8"/>
<path d="M101.547 969.09C84.4145 965.716 64.492 963.153 43.6887 960.725C23.8813 958.406 2.97819 956.551 -19.5637 955.187C-94.038 951.003 -139.517 953.257 -153.8 954.116C-138.041 953.445 -98.4823 952.495 -53.8112 955C-39.5112 955.621 -4.18141 958.021 31.7374 962.621C67.7887 967.153 104.421 973.878 124.561 981.628C140.2 985.362 148.25 982.195 164.108 985.456C145.358 980.024 125.977 973.896 101.547 969.09Z" fill="#D8D8D8"/>
<path d="M63.7459 968.586C45.6502 965.507 25.0004 963.288 3.49095 961.222C-16.9708 959.25 -38.4131 957.744 -61.3311 956.773C-100.395 955.281 -131.206 955.368 -153.805 955.96V956.556C-136.989 956.299 -116.961 956.363 -95.567 957.177C-81.0886 957.551 -45.0795 959.33 -7.84811 963.306C29.4965 967.21 68.0712 973.316 90.3655 980.714C107.02 984.186 114.16 980.881 130.903 983.876C110.666 978.772 89.5577 972.97 63.7459 968.586Z" fill="#D8D8D8"/>
<path d="M25.8923 968.72C6.92351 965.953 -14.3461 964.09 -36.437 962.388C-57.461 960.772 -79.314 959.654 -102.503 959.074C-121.64 958.682 -138.725 958.624 -153.8 958.782V959.859C-148.191 959.876 -142.428 959.946 -136.552 960.064C-121.968 960.186 -85.468 961.334 -47.1083 964.664C-8.6564 967.925 31.6511 973.363 56.0025 980.374C73.605 983.563 79.7744 980.146 97.3386 982.857C75.7005 978.099 52.9552 972.659 25.8923 968.72Z" fill="#D8D8D8"/>
<path d="M-13.0248 970.089C-32.7765 967.649 -54.5623 966.155 -77.1176 964.838C-98.5926 963.586 -120.756 962.847 -144.074 962.673C-147.803 962.662 -151.445 962.662 -155 962.673V964.41C-136.989 964.746 -112.561 965.558 -87.0693 967.285C-47.7117 969.878 -5.85944 974.619 20.4263 981.215C38.8885 984.1 44.0735 980.589 62.363 982.994C39.422 978.612 15.1473 973.565 -13.0248 970.089Z" fill="#D8D8D8"/>
</g>
<path d="M21.6249 980.621C6.5592 978.355 34.4473 983.654 21.6249 980.621V980.621Z" fill="#D1D1D1"/>
<path d="M-49.1961 970.911C-69.629 968.81 -91.8236 967.697 -114.74 966.766C-127.543 966.262 -140.54 965.927 -153.8 965.777V968.236C-144.263 968.5 -134.2 968.867 -123.929 969.377C-83.8619 971.279 -40.6932 975.3 -12.5902 981.441C6.64337 984.01 10.8209 980.422 29.7398 982.513C5.63208 978.521 -20.0549 973.897 -49.1961 970.911Z" fill="#BFBFBF"/>
<path d="M-12.59 981.44C-28.2639 979.426 1.05757 984.245 -12.59 981.44V981.44Z" fill="#D1D1D1"/>
<path fill-rule="evenodd" clip-rule="evenodd" d="M15.6087 979.562C-37.8244 967.714 -81.419 960.43 -153.8 967.076V1030.97C-135.019 1032.52 -113.939 1034.3 -89.682 1036.22C-79.8954 1037.01 -21.0566 1044.64 -11.6 1045.76C100.735 1051.34 250.593 1074.63 250.593 1074.63C250.593 1074.63 139.703 1007.06 15.6087 979.562Z" fill="#E3E3E3"/>
<path d="M12.5998 984.789C11.957 984.706 11.1472 984.621 10.1992 984.532C11.9301 984.76 12.7476 984.888 12.5998 984.789Z" fill="#D8D8D8"/>
<path d="M-88.049 990.236C-103.867 993.573 -118.307 997.853 -131.801 1002.99C-139.412 1005.89 -146.83 1008.87 -153.802 1012.1V1022.1C-122.064 1003.07 -78.4428 990.733 -63.2274 988.937C-30.6456 982.451 -0.58917 983.54 10.1972 984.535C1.10526 983.344 -33.4358 979.369 -88.049 990.236Z" fill="#D8D8D8"/>
<path d="M-56.9968 992.312C-73.2542 994.888 -88.2219 998.457 -102.322 1002.94C-117.133 1007.65 -131.298 1012.62 -143.298 1019.22C-146.967 1021.25 -150.446 1023.4 -153.8 1025.62V1039.46C-123.889 1010.76 -52.2877 993.577 -31.9584 992.184C1.4447 987.29 31.4762 989.808 42.2089 991.306C33.1726 989.688 -1.02689 984.111 -56.9968 992.312Z" fill="#D8D8D8"/>
<path d="M44.6142 991.678C43.9733 991.567 43.1615 991.444 42.2117 991.31C43.9387 991.621 44.7504 991.783 44.6142 991.678Z" fill="#D8D8D8"/>
<path d="M75.9407 1000.04C75.3094 999.898 74.4919 999.733 73.5439 999.55C75.2595 999.95 76.0674 1000.15 75.9407 1000.04Z" fill="#D8D8D8"/>
<path d="M-26.1092 995.835C-41.9005 997.51 -57.5053 1000.33 -72.7627 1004.26C-88.1488 1008.26 -102.89 1012.54 -115.649 1018.55C-130.128 1025.38 -142.311 1034.01 -153.8 1042.31V1046.06C-147.032 1045.43 -141.71 1047.54 -133.267 1042.64C-117.998 1028.01 -90.7605 1016.1 -64.0833 1008.55C-37.5058 1000.87 -11.4945 997.55 -0.976762 996.894C33.0673 993.628 62.9242 997.55 73.5379 999.551C64.6186 997.508 30.9334 990.35 -26.1092 995.835Z" fill="#D8D8D8"/>
<path d="M106.419 1009.82C98.8972 1007.73 67.2153 1001.26 29.5694 1003.03C18.9385 1003.17 -7.54686 1005.24 -35.0569 1011.62C-62.6552 1017.87 -91.2705 1028.44 -108.104 1042.29C-116.38 1048.67 -97.9331 1037.38 -108.104 1042.29C-120.544 1048.52 -125.576 1041.61 -138.056 1046.87C-122.872 1037.54 -107.042 1026.85 -87.8702 1019.16C-74.4279 1013.76 -59.1589 1010.2 -43.2872 1006.96C-27.588 1003.77 -11.6165 1001.7 4.46768 1000.79C73.4749 997.52 107.131 1010.55 106.419 1009.82V1009.82Z" fill="#D8D8D8"/>
<path d="M135.892 1020.96C128.581 1018.54 97.5135 1010.59 59.5183 1010.56C48.8298 1010.2 22.0106 1010.97 -6.30154 1016.03C-34.6751 1020.94 -64.5358 1030.12 -82.8484 1043.11C-91.8022 1049.08 -72.1291 1038.7 -82.8484 1043.11C-95.9682 1048.73 -100.292 1041.63 -113.346 1046.3C-97.1599 1037.71 -80.1484 1027.81 -60.0839 1021.06C-46.0161 1016.33 -30.3153 1013.5 -14.0291 1011.02C2.03127 1008.6 18.2875 1007.31 34.5835 1007.16C104.205 1007.21 136.526 1021.75 135.892 1020.99V1020.96Z" fill="#D8D8D8"/>
<path d="M164.203 1033.41C157.147 1030.66 126.837 1021.28 88.7017 1019.42C78.0055 1018.55 51.0002 1018.04 22.0432 1021.74C-6.95972 1025.26 -37.9124 1032.98 -57.6257 1045.06C-67.2204 1050.58 -46.421 1041.17 -57.6257 1045.06C-71.3596 1050.05 -74.95 1042.79 -88.5208 1046.83C-71.4095 1039.04 -53.2985 1029.98 -32.4376 1024.21C-17.8171 1020.16 -1.74979 1018.09 14.8645 1016.4C31.1952 1014.75 47.6498 1014.23 64.0739 1014.86C133.96 1018.23 164.773 1034.2 164.208 1033.41L164.203 1033.41Z" fill="#D8D8D8"/>
<path d="M191.221 1047.09C184.44 1044.04 155.062 1033.28 116.99 1029.61C106.352 1028.23 79.2946 1026.43 49.8388 1028.73C20.3503 1030.86 -11.533 1037.08 -32.5493 1048.18C-42.7523 1053.21 -20.9166 1044.83 -32.5493 1048.18C-46.8339 1052.5 -49.6721 1045.12 -63.7053 1048.51C-45.7478 1041.55 -26.6236 1033.39 -5.07956 1028.63C10.0302 1025.3 26.3681 1023.99 43.2242 1023.09C59.7411 1022.23 76.3105 1022.5 92.7791 1023.9C162.558 1030.58 191.691 1047.9 191.221 1047.09V1047.09Z" fill="#D8D8D8"/>
<path d="M216.789 1061.93C210.328 1058.58 182.037 1046.49 144.226 1041.04C133.699 1039.16 106.745 1036.08 76.9346 1036.96C47.1276 1037.68 14.4652 1042.36 -7.75431 1052.42C-18.5004 1056.95 4.25638 1049.63 -7.75431 1052.42C-22.511 1056.06 -24.5969 1048.6 -39.0024 1051.32C-20.2869 1045.22 -0.239705 1038 21.8742 1034.29C37.3909 1031.69 53.9207 1031.17 70.9264 1031.08C87.5428 1031 104.141 1032.05 120.57 1034.23C189.867 1044.2 217.177 1062.77 216.789 1061.93V1061.93Z" fill="#D8D8D8"/>
<path d="M240.792 1077.84C234.68 1074.22 207.629 1060.89 170.284 1053.65C159.922 1051.29 133.208 1046.94 103.219 1046.4C73.2274 1045.7 39.9644 1048.81 16.6626 1057.77C5.4214 1061.77 28.9842 1055.55 16.6626 1057.77C1.48948 1060.7 0.180764 1053.21 -14.5356 1055.24C4.84572 1050.05 25.7008 1043.81 48.2888 1041.16C64.122 1039.32 80.7631 1039.57 97.8399 1040.29C114.466 1040.99 131.004 1042.83 147.303 1045.79C215.746 1058.99 241.087 1078.7 240.792 1077.84Z" fill="#D8D8D8"/>
<path fill-rule="evenodd" clip-rule="evenodd" d="M321 1002.34C308.415 997.525 295.516 993.364 282.372 989.876C169.843 960.081 105.412 965.097 24.3134 977.121C-38.9466 986.497 -100.762 1004.98 -153.807 1024.72V1079.99H321V1002.34Z" fill="#E5E5E5"/>
<path d="M321 1013.1C258.559 982.201 207.488 980.626 183.302 980.626C198.062 982.12 251.672 977.876 321 1017.61V1013.1Z" fill="#D1D1D1"/>
<path d="M321 1024.94C283.026 1003.12 251.426 994.939 241.707 992.504C254.51 996.304 290.585 1008.95 321 1028.85V1024.94Z" fill="#D1D1D1"/>
<path d="M321 1038.27C265.076 1000.24 222.281 991.188 210.816 988.986C224.596 992.304 261.904 1004.19 296.568 1028.55C301.954 1031.96 310.795 1038.39 321 1047.09V1038.27Z" fill="#D1D1D1"/>
<path d="M321 1055.94C310.163 1046.87 298.592 1038.49 286.378 1030.86C224.486 993.37 178.765 986.44 166.739 984.847C180.828 987.376 219.163 997.117 256.003 1019.49C268.703 1025.55 295.988 1045.08 321 1070.64V1055.94Z" fill="#D1D1D1"/>
<path d="M321 1077.43C313.387 1070.04 305.052 1062.95 296.424 1055.9C281.447 1043.66 264.848 1032.5 246.067 1022.37C181.765 988.916 126.516 982.694 110.363 981.166C127.825 983.53 176.875 993.008 214.711 1012.73C231.366 1019.44 273.047 1046.16 304.723 1079.99H321V1077.43Z" fill="#D1D1D1"/>
<path d="M278.675 1079.99H298.974C287.339 1068.01 273.245 1057.36 258.432 1046.85C241.857 1035.11 223.987 1024.84 205.086 1016.19C136.915 986.031 90.3442 984.362 78.0034 984.151C92.4991 985.064 132.275 990.339 172.897 1008.33C191.828 1014.63 243.042 1043.31 278.675 1079.99Z" fill="#D1D1D1"/>
<path d="M251.492 1079.99H272.623C271.23 1078.52 269.812 1077.06 268.352 1075.63C254.673 1062.22 237.649 1050.96 219.706 1039.95C202.098 1029.15 183.314 1019.9 163.627 1012.33C89.2487 984.787 41.5168 987.281 32.1792 987.679C51.0885 988.041 86.1439 989.775 130.784 1006.31C151.755 1011.9 212.462 1041.31 251.492 1079.99Z" fill="#D1D1D1"/>
<path d="M88.573 1006.69C111.307 1011.31 181.003 1040.11 223.043 1079.99H244.904C240.893 1075.92 236.687 1071.95 232.225 1068.15C217.38 1055.52 199.373 1045.23 180.446 1035.23C161.895 1025.45 142.292 1017.27 121.919 1010.83C48.8508 988.718 2.36807 992.381 -10.0149 993.593C4.58446 992.844 44.9822 993.504 88.573 1006.69Z" fill="#D1D1D1"/>
<path d="M46.4881 1009.47C60.389 1012.18 94.4618 1021.68 128.548 1038.35C151.614 1049.44 174.672 1063.8 192.714 1079.99H215.993C209.606 1073.95 202.84 1068.12 195.521 1062.71C179.569 1050.92 160.662 1041.64 140.858 1032.74C121.452 1024.02 101.123 1016.97 80.156 1011.7C5.20196 993.822 -40.8739 1000.13 -53.1743 1002.06C-38.6306 1000.47 1.76321 998.815 46.4881 1009.47Z" fill="#D1D1D1"/>
<path d="M4.75921 1014.64C18.8942 1016.54 53.8209 1024.05 89.3637 1038.78C115.11 1049.23 141.175 1063.44 161.226 1079.99H185.789C177.282 1072.68 168.265 1065.64 158.405 1059.33C141.425 1048.45 121.711 1040.26 101.123 1032.49C80.9647 1024.89 60.015 1019.02 38.5653 1014.94C-37.9124 1001.41 -83.3435 1010.33 -95.4885 1012.97C-81.0772 1010.56 -40.8964 1006.58 4.75921 1014.64Z" fill="#D1D1D1"/>
<path d="M-36.4193 1022.16C-22.1136 1023.25 13.4733 1028.74 50.3037 1041.4C77.8252 1050.67 106.026 1063.91 127.787 1080H154.032C143.791 1072.14 132.935 1064.59 121.084 1058.04C103.157 1048.14 82.732 1041.07 61.4566 1034.48C40.6581 1028.05 19.1993 1023.38 -2.62285 1020.54C-80.2097 1011.44 -124.766 1022.93 -136.686 1026.27C-122.509 1023.03 -82.7504 1016.75 -36.4193 1022.16Z" fill="#D1D1D1"/>
<path d="M-76.8268 1032C-62.4347 1032.26 -26.37 1035.69 11.5656 1046.23C39.6552 1053.84 68.7503 1065.33 91.7949 1079.99H120.195C108.797 1072.32 96.7611 1064.99 83.7161 1058.83C64.9296 1049.95 43.8903 1044.06 22.0508 1038.69C0.713375 1033.46 -21.1473 1030.03 -43.2318 1028.45C-95.0856 1025.4 -131.638 1030.51 -153.805 1035.47V1036.69C-134.677 1033.24 -107.38 1030.21 -76.8268 1032Z" fill="#D1D1D1"/>
<path d="M-26.6579 1053.22C0.347437 1058.85 28.5541 1067.86 52.0189 1079.99H83.4398C71.7956 1073.27 59.5777 1066.92 46.5154 1061.71C26.9652 1053.91 5.42881 1049.22 -16.8751 1045.12C-38.6376 1041.12 -60.7869 1038.95 -83.0212 1038.64C-111.23 1038.61 -134.723 1040.7 -153.792 1043.62V1046.3C-141.347 1044.84 -128.804 1044.1 -116.246 1044.09C-101.842 1043.53 -65.5032 1044.86 -26.6579 1053.22Z" fill="#D1D1D1"/>
<path d="M-64.1754 1062.34C-40.793 1065.81 -16.3207 1071.68 5.53229 1079.99H42.2706C31.8411 1075.02 21.0029 1070.43 9.62734 1066.67C-10.583 1060 -32.5166 1056.55 -55.1602 1053.73C-77.2332 1050.99 -99.5539 1050.1 -121.821 1051.06C-133.286 1051.71 -143.934 1052.66 -153.8 1053.84V1058.33C-139.005 1056.97 -103.107 1056.32 -64.1754 1062.34Z" fill="#D8D8D8"/>
<path d="M1.00208 1005.92C2.03064 1005.45 2.64853 1004.6 2.93829 1003.5C-1.7094 1005.15 -7.30311 1006.22 -11.5286 1007.91C-11.5286 1006.17 -8.61761 1005.29 -7.16113 1003.56C-11.5287 1003.56 -14.4531 1005.29 -15.8981 1007.04C-15.8981 1005.29 -14.4435 1003.56 -12.9832 1002.69C-17.3546 1002.69 -18.8072 1003.56 -18.8072 1006.17V1000.94C-23.1747 1001.82 -20.2618 1005.29 -23.1747 1005.29C-26.0877 1005.29 -23.1747 1002.69 -24.6331 1000.94C-23.1747 1002.69 -27.5442 1005.29 -26.0877 1007.04C-30.4552 1002.69 -26.0877 999.207 -26.0877 994.863C-26.0877 997.468 -29.0007 999.207 -29.0007 1001.82C-30.4552 996.602 -27.5442 992.25 -26.0877 987.037C-27.5442 989.642 -30.4552 992.252 -30.4552 995.729C-31.8407 989.916 -27.928 984.901 -26.3064 979.913C-27.17 981.423 -30.2556 982.922 -28.993 984.426C-32.6601 982.231 -30.1712 980.042 -29.2808 977.847C-29.9294 976.271 -27.667 974.697 -28.993 973.123C-30.4475 974.856 -31.9002 976.6 -33.3624 978.325C-33.3624 972.787 -31.5049 967.807 -29.2808 962.925C-32.7733 968.516 -36.4347 977.023 -39.1788 985.582V1001.82C-39.1788 1000.71 -39.6642 1001.56 -39.1788 1000.71C-39.3073 1000.18 -36.141 990.305 -36.141 989.741C-34.7978 985.814 -36.2773 1000.85 -36.5555 1001.34C-35.3006 1006.53 -29.1158 1007.73 -20.6072 1009.42C-12.6359 1009.55 -4.31916 1008.39 1.00208 1005.92Z" fill="#D7D7D7"/>
<path d="M-29.0007 978.332C-29.1238 978.184 -29.2208 978.021 -29.2886 977.847C-30.179 980.042 -32.6678 982.231 -29.0007 984.426C-30.2557 982.916 -27.1701 981.417 -26.3142 979.913C-26.2375 979.678 -26.1607 979.44 -26.0954 979.205C-26.1047 979.453 -26.1796 979.695 -26.3142 979.913C-27.9357 984.901 -31.8485 989.916 -30.463 995.729C-30.463 992.252 -27.5519 989.642 -26.0954 987.038C-27.5519 992.252 -30.463 996.604 -29.0084 1001.82C-29.0084 999.207 -26.0954 997.468 -26.0954 994.863C-26.0954 999.207 -30.463 1002.69 -26.0954 1007.04C-27.5519 1005.29 -23.1825 1002.69 -24.6409 1000.94C-23.1825 1002.69 -26.0955 1005.29 -23.1825 1005.29C-20.2695 1005.29 -23.1825 1001.82 -18.815 1000.94V1006.17C-18.815 1003.56 -17.3623 1002.69 -12.9909 1002.69C-14.4513 1003.56 -15.9058 1005.29 -15.9058 1007.04C-14.4513 1005.29 -11.5364 1003.56 -7.16886 1003.56C-8.62534 1005.29 -11.5364 1006.17 -11.5364 1007.91C-7.05565 1008.34 -3.02393 1007.91 2.93056 1003.5C3.2184 1002.41 3.17425 1001.03 2.91327 999.487C2.04352 1000.32 1.1066 1001.1 0.109691 1001.82V1000.08C-1.34487 1000.94 1.56618 1002.69 -1.34486 1002.69C-2.80518 1002.69 0.109703 1000.08 -2.80518 1000.08C-2.80518 1000.94 -2.80517 1001.82 -4.25973 1002.69V1001.57C-5.1482 1001.74 -8.28953 1000.69 -7.16886 1002.69C-10.0799 1002.69 -7.16886 1000.94 -8.62534 1000.08C-11.5364 999.207 -8.62535 1001.82 -10.0799 1001.82C-11.5498 1001.38 -11.9048 1000.72 -11.901 1000.06C-14.173 999.908 -11.6074 998.299 -12.9909 997.468C-12.9909 998.341 -15.9058 999.207 -15.9058 1000.08V997.468C-15.9058 998.059 -17.2222 998.643 -17.6329 999.23C-17.6007 999.526 -17.5078 999.813 -17.3585 1000.08C-17.8267 999.791 -17.8363 999.511 -17.6329 999.23C-17.89 997.075 -14.6105 995.538 -15.9058 993.991C-16.9659 994.655 -17.8409 995.519 -18.4657 996.52C-18.577 996.835 -18.6883 997.153 -18.815 997.468C-18.7798 997.133 -18.6605 996.81 -18.4657 996.52C-17.3719 993.36 -17.3623 990.191 -17.3623 987.038C-20.2695 988.77 -18.815 992.252 -21.726 993.991C-21.726 989.642 -18.815 986.165 -20.2695 981.815C-21.726 983.553 -23.1825 985.292 -23.1825 987.038C-23.1825 982.927 -19.2966 978.814 -22.5416 974.715C-22.5426 974.917 -22.602 975.115 -22.714 975.291C-22.8261 975.467 -22.9873 975.615 -23.1825 975.722C-23.1825 974.464 -24.6946 972.755 -24.9882 971.251C-27.2775 970.344 -21.7951 963.214 -23.1825 962.383C-26.0955 961.516 -29.0084 968.761 -29.0084 970.506C-30.4707 969.331 -30.9389 968.078 -30.9274 966.784C-32.3551 970.449 -33.374 974.235 -33.374 978.327C-31.9118 976.595 -30.4591 974.851 -29.0046 973.124C-27.6786 974.699 -29.941 976.273 -29.2924 977.849C-29.1178 977.438 -29.0007 977.466 -29.0007 978.332Z" fill="#DEDEDE"/>
<path d="M-24.6333 971.379C-24.7517 971.344 -24.8677 971.303 -24.9806 971.256C-24.687 972.767 -23.1749 974.468 -23.1749 975.727C-22.9796 975.62 -22.8185 975.472 -22.7064 975.296C-22.5944 975.12 -22.535 974.922 -22.534 974.72C-22.7306 974.467 -22.9446 974.224 -23.1749 973.994C-23.1749 973.408 -22.5148 974.012 -22.534 974.72C-19.289 978.824 -23.1749 982.932 -23.1749 987.042C-23.1749 985.297 -21.7184 983.558 -20.2619 981.819C-18.8073 986.17 -21.7184 989.647 -21.7184 993.995C-18.8074 992.257 -20.2619 988.774 -17.3547 987.042C-17.3547 990.196 -17.3547 993.364 -18.4581 996.525C-17.8333 995.524 -16.9583 994.659 -15.8982 993.995C-14.6068 995.534 -17.8862 997.08 -17.6253 999.235C-17.2108 998.649 -15.8982 998.06 -15.8982 997.473V1000.08C-15.8982 999.212 -12.9833 998.346 -12.9833 997.473C-11.5998 998.312 -14.1654 999.913 -11.8934 1000.07C-11.8819 999.416 -11.5288 998.772 -11.5288 998.346V1000.08C-11.6506 1000.08 -11.7724 1000.08 -11.8934 1000.07C-11.8934 1000.73 -11.5422 1001.38 -10.0723 1001.82C-8.61773 1001.82 -11.5288 999.212 -8.61774 1000.08C-7.16126 1000.95 -10.0723 1002.69 -7.16127 1002.69C-8.27618 1000.7 -5.14061 1001.75 -4.25214 1001.58V1000.95C-3.91248 1001.36 -3.97581 1001.52 -4.25214 1001.58V1002.69C-2.79758 1001.82 -2.79756 1000.95 -2.79756 1000.08C0.11732 1000.08 -2.79756 1002.69 -1.33724 1002.69C1.5738 1002.69 -1.33725 1000.95 0.117309 1000.08V1001.82C1.11421 1001.1 2.05114 1000.32 2.92089 999.487C1.94414 993.781 -2.17199 985.52 -5.00627 978.654C-8.74246 969.591 -13.3115 953.52 -22.7028 956.516C-24.4836 957.085 -26.9015 959.115 -29.2886 962.932C-29.8643 964.207 -30.4189 965.49 -30.9236 966.792C-30.9236 968.086 -30.463 969.345 -29.0046 970.514C-29.0046 968.771 -26.0917 967.905 -24.0941 963.497C-24.0941 965.785 -27.2737 970.352 -24.9844 971.26C-25.0957 970.67 -24.6333 970.511 -24.6333 971.379Z" fill="#EBEBEB"/>
<path d="M44.1665 966.83C44.2444 966.697 44.2889 966.552 44.297 966.402C44.2567 966.543 44.2106 966.683 44.1665 966.83Z" fill="#D1D1D1"/>
<path d="M37.2796 977.403C37.2782 977.738 37.3194 978.071 37.4024 978.398C37.5014 978.241 37.5427 978.062 37.5208 977.883C37.4988 977.705 37.4146 977.538 37.2796 977.403Z" fill="#D1D1D1"/>
<path d="M53.0689 983.691C53.0689 982.644 54.8248 982.122 55.6979 981.074C53.0689 981.074 51.315 982.122 50.4381 983.171C50.4381 982.122 51.315 981.074 52.192 980.547C49.5573 980.547 48.6841 981.074 48.6841 982.644V979.5C46.0513 980.02 47.8072 982.122 46.0513 982.122C44.2955 982.122 46.0513 980.547 45.1705 979.5C45.8537 980.307 44.4433 981.432 44.1669 982.385C43.8084 981.989 43.4734 981.578 43.1633 981.152C42.8927 979.383 44.2974 977.745 44.2974 975.83C44.2974 977.399 42.5397 978.451 42.5397 980.025C41.6665 976.882 43.4205 974.265 44.2974 971.122C43.4205 972.691 41.6665 974.265 41.6665 976.362C40.8318 972.861 43.1825 969.835 44.1612 966.832C43.6411 967.739 41.7798 968.647 42.5339 969.548C40.329 968.225 41.8258 966.908 42.3612 965.585C41.9659 964.637 43.3207 963.682 42.5339 962.741L39.9049 965.877C39.9049 962.541 41.0256 959.538 42.3612 956.595C40.2504 959.966 38.0532 965.094 36.3971 970.251C35.5272 972.913 34.827 975.615 34.2997 978.345C32.8989 982.39 39.9875 984.48 47.5884 984.604C52.3858 984.691 57.4077 983.988 60.6123 982.503C61.2341 982.216 61.6025 981.705 61.779 981.044C58.9889 982.033 55.6154 982.684 53.0689 983.691Z" fill="#D1D1D1"/>
<path d="M60.0846 980.024V978.981C59.2058 979.503 60.9616 980.551 59.2057 980.551C58.3326 980.551 60.0846 978.981 58.3326 978.981C58.3326 979.503 58.3326 980.024 57.4556 980.551V979.879C56.9164 979.985 55.0282 979.352 55.6979 980.551C53.944 980.551 55.6979 979.503 54.8248 978.981C53.0689 978.454 54.8248 980.024 53.944 980.024C53.0613 979.76 52.8444 979.362 52.8482 978.965C51.48 978.877 53.0248 977.911 52.192 977.402C52.192 977.929 50.4381 978.454 50.4381 978.981V977.402C50.4381 977.758 49.6436 978.11 49.3903 978.468C49.4137 978.646 49.4701 978.819 49.5573 978.981C49.2771 978.814 49.2694 978.636 49.3903 978.468C49.2406 977.174 51.2152 976.237 50.4381 975.313C49.8005 975.71 49.2754 976.231 48.9029 976.833C48.8338 977.028 48.7686 977.214 48.6918 977.402C48.7124 977.201 48.7845 977.007 48.9029 976.833C49.563 974.927 49.565 973.023 49.565 971.127C47.8149 972.169 48.6918 974.27 46.936 975.323C46.936 972.7 48.6918 970.605 47.8149 967.982C46.936 969.029 46.059 970.083 46.059 971.13C46.059 968.655 48.4021 966.179 46.4428 963.704C46.4428 963.826 46.4076 963.947 46.3406 964.054C46.2735 964.161 46.1767 964.252 46.059 964.318C46.059 963.556 45.1475 962.526 44.971 961.618C43.5893 961.074 46.8899 956.778 46.059 956.281C44.3051 955.754 42.5473 960.121 42.5473 961.175C42.1781 960.898 41.8833 960.554 41.6842 960.166C41.4852 959.779 41.3867 959.357 41.396 958.932C40.5363 961.144 39.928 963.422 39.928 965.886L42.557 962.749C43.3533 963.69 41.9813 964.645 42.3842 965.594C42.4937 965.353 42.5523 965.097 42.557 964.838V965.886C42.484 965.796 42.4259 965.698 42.3842 965.594C41.8489 966.916 40.3521 968.234 42.557 969.556C41.8028 968.655 43.6642 967.747 44.1842 966.841C44.2283 966.693 44.2744 966.554 44.3147 966.413C44.3066 966.562 44.2622 966.708 44.1842 966.841C43.1998 969.843 40.8491 972.869 41.6896 976.37C41.6896 974.274 43.4435 972.7 44.3205 971.13C43.4435 974.274 41.6896 976.89 42.5627 980.034C42.5627 978.464 44.3205 977.412 44.3205 975.838C44.3205 978.459 41.6896 980.556 44.3205 983.179C43.4435 982.13 46.0744 980.556 45.1936 979.508C46.0744 980.556 44.3205 982.13 46.0744 982.13C47.8283 982.13 46.0744 980.029 48.7072 979.508V982.652C48.7072 981.083 49.5803 980.556 52.215 980.556C51.3381 981.083 50.4611 982.13 50.4611 983.179C51.338 982.13 53.0919 981.083 55.7209 981.083C54.8478 982.13 53.092 982.652 53.092 983.699C55.6384 982.68 59.0119 982.038 61.8078 981.047C61.9825 980.386 61.9556 979.56 61.7944 978.624C61.2656 979.127 60.694 979.595 60.0846 980.024Z" fill="#D7D7D7"/>
<path d="M45.1705 961.685C45.0991 961.664 45.0298 961.638 44.9632 961.608C45.1398 962.516 46.0513 963.546 46.0513 964.308C46.169 964.242 46.2658 964.151 46.3328 964.044C46.3999 963.936 46.435 963.816 46.4351 963.694C46.3185 963.542 46.1903 963.396 46.0513 963.259C46.0513 962.903 46.4466 963.259 46.4351 963.694C48.3943 966.169 46.0513 968.645 46.0513 971.12C46.0513 970.073 46.9282 969.019 47.8071 967.972C48.6841 970.595 46.9282 972.689 46.9282 975.313C48.6841 974.264 47.8071 972.163 49.5572 971.117C49.5572 973.02 49.5572 974.923 48.8952 976.823C49.2677 976.221 49.7928 975.7 50.4303 975.303C51.2075 976.227 49.2329 977.164 49.3826 978.458C49.6359 978.1 50.4303 977.748 50.4303 977.392V978.971C50.4303 978.444 52.1842 977.919 52.1842 977.392C53.017 977.896 51.4723 978.867 52.8405 978.955C52.8405 978.574 53.0612 978.183 53.0612 977.919V978.971C52.9872 978.973 52.9132 978.967 52.8405 978.955C52.8405 979.352 53.0535 979.75 53.9362 980.014C54.817 980.014 53.0612 978.444 54.817 978.971C55.6901 979.493 53.9362 980.541 55.6901 980.541C55.0204 979.341 56.9087 979.973 57.4479 979.869V979.495C57.6513 979.74 57.6129 979.841 57.4479 979.869V980.541C58.3248 980.014 58.3249 979.493 58.3249 978.971C60.0769 978.971 58.3249 980.541 59.198 980.541C60.9538 980.541 59.198 979.493 60.0769 978.971V980.014C60.6786 979.583 61.2424 979.113 61.7636 978.609C61.188 975.168 58.7029 970.197 56.9912 966.059C54.7364 960.597 51.9866 950.91 46.3276 952.719C45.253 953.055 43.7965 954.282 42.3592 956.58C42.01 957.352 41.6742 958.124 41.371 958.909C41.3617 959.334 41.4602 959.755 41.6592 960.143C41.8583 960.531 42.153 960.875 42.5223 961.151C42.5223 960.097 44.2801 959.575 45.4794 956.924C45.4794 958.3 43.5605 961.051 44.946 961.594C44.8922 961.259 45.1705 961.165 45.1705 961.685Z" fill="#E7E7E7"/>
</g>
</g>
<defs>
<clipPath id="clip0_1244_2">
<rect width="273" height="1080" fill="white"/>
</clipPath>
<clipPath id="clip1_1244_2">
<rect width="3.34243" height="2.89905" fill="white" transform="translate(110.864 524.869)"/>
</clipPath>
</defs>
</svg>
