<svg width="639" height="1080" viewBox="0 0 639 1080" fill="none" xmlns="http://www.w3.org/2000/svg">
<g clip-path="url(#clip0_1244_531)">
<rect width="639" height="1080" fill="white"/>
<rect width="639" height="1092.83" fill="#F97738"/>
<g style="mix-blend-mode:multiply" opacity="0.6">
<path d="M638.848 445.868V506.635H506.95C509.869 489.685 520.426 477.118 533.001 477.118C539.073 477.118 544.674 480.056 549.179 484.981C554.585 470.188 565.299 460.117 577.639 460.117C584.122 460.117 590.135 462.903 595.189 467.675C602.123 452.899 613.796 443.202 627.037 443.202C631.15 443.202 635.126 444.136 638.848 445.868Z" fill="#F5F5F5"/>
</g>
<g style="mix-blend-mode:multiply" opacity="0.6">
<path d="M638.662 787.772V822.952H563.109C564.781 813.14 570.828 805.863 578.031 805.863C581.51 805.863 584.718 807.565 587.299 810.416C590.396 801.852 596.533 796.021 603.601 796.021C607.315 796.021 610.759 797.634 613.654 800.397C617.626 791.842 624.313 786.228 631.897 786.228C634.253 786.228 636.531 786.769 638.662 787.772Z" fill="#F5F5F5"/>
</g>
<g style="mix-blend-mode:multiply" opacity="0.6">
<path d="M124.214 719.433C124.214 720.989 124.085 722.513 123.863 723.988H0V700.329C4.03558 699.061 8.47842 698.372 13.1249 698.372C20.0668 698.372 26.5089 699.928 31.9144 702.574C34.3765 686.229 45.4651 673.91 58.7751 673.91C72.2702 673.91 83.4698 686.566 85.7468 703.232C89.7268 697.489 95.7617 693.832 102.537 693.832C114.514 693.832 124.214 705.301 124.214 719.433Z" fill="#F7F7F7"/>
</g>
<g style="mix-blend-mode:multiply" opacity="0.6">
<path d="M167.753 395.628C167.753 397.737 167.579 399.803 167.278 401.804H0V369.731C5.45011 368.014 11.4502 367.079 17.7254 367.079C27.1006 367.079 35.8007 369.188 43.1009 372.776C46.426 350.619 61.4013 333.919 79.3767 333.919C97.602 333.919 112.727 351.075 115.802 373.667C121.178 365.883 129.328 360.925 138.478 360.925C154.653 360.925 167.753 376.472 167.753 395.628Z" fill="#F7F7F7"/>
</g>
<g style="mix-blend-mode:multiply">
<path d="M107.715 483.252C104.462 484.383 102.553 486.893 103.424 488.856L115.185 484.751C114.314 482.788 110.968 482.121 107.715 483.252Z" fill="#D8D8D8"/>
<path d="M101.54 481.92C103.865 484.098 104.38 487.091 102.695 488.589L94.2655 480.697C95.9538 479.186 99.2151 479.741 101.54 481.92Z" fill="#D8D8D8"/>
</g>
<g style="mix-blend-mode:multiply">
<path d="M531.027 701.72C529.254 699.07 526.159 697.714 524.113 698.67L530.542 708.252C532.588 707.296 532.8 704.371 531.027 701.72Z" fill="#D8D8D8"/>
<path d="M536.094 703.732C539.536 703.431 542.617 704.883 542.965 706.963L530.491 708.058C530.134 705.968 532.652 704.032 536.094 703.732Z" fill="#D8D8D8"/>
</g>
<g style="mix-blend-mode:multiply" opacity="0.51">
<path opacity="0.7" d="M415.323 582.312C430.895 582.312 443.518 580.553 443.518 578.383C443.518 576.213 430.895 574.454 415.323 574.454C399.752 574.454 387.129 576.213 387.129 578.383C387.129 580.553 399.752 582.312 415.323 582.312Z" fill="#787878"/>
<path d="M405.541 584.824H425.105C426.512 584.824 427.664 583.684 427.675 582.278C427.675 580.862 426.523 579.711 425.105 579.711H405.541C404.123 579.711 402.971 580.862 402.971 582.278C402.982 583.684 404.134 584.824 405.541 584.824Z" fill="#181818"/>
<path d="M418.835 583.363L417.04 587.469C416.641 588.442 415.533 588.907 414.57 588.509C414.093 588.321 413.728 587.944 413.528 587.469L411.8 583.374L418.835 583.363Z" fill="#181818"/>
<path opacity="0.7" d="M211.127 582.312C226.698 582.312 239.321 580.553 239.321 578.383C239.321 576.213 226.698 574.454 211.127 574.454C195.556 574.454 182.933 576.213 182.933 578.383C182.933 580.553 195.556 582.312 211.127 582.312Z" fill="#787878"/>
<path d="M201.345 584.824H220.909C222.316 584.824 223.468 583.684 223.479 582.278C223.479 580.862 222.327 579.711 220.909 579.711H201.345C199.927 579.711 198.774 580.862 198.774 582.278C198.785 583.684 199.938 584.824 201.345 584.824Z" fill="#181818"/>
<path d="M214.639 583.363L212.844 587.469C212.445 588.442 211.337 588.907 210.373 588.509C209.897 588.321 209.531 587.944 209.332 587.469L207.604 583.374L214.639 583.363Z" fill="#181818"/>
<path d="M209.421 671.387C208.169 671.387 206.917 671.111 205.765 670.568L202.165 668.897C200.647 668.189 199.306 667.038 198.287 665.566L175.898 633.207C174.469 631.138 173.738 628.537 173.837 625.881L174.513 607.931C174.602 605.474 175.422 603.094 176.817 601.235C177.803 599.918 179.077 598.878 180.484 598.225L209.521 584.812C210.673 584.281 211.891 584.015 213.132 584.015H214.351C214.872 584.015 215.392 584.06 215.913 584.159L273.631 594.905L272.18 602.663L214.462 591.917L213.132 591.906C213.033 591.906 212.933 591.928 212.833 591.983L183.797 605.396C183.575 605.496 183.343 605.706 183.143 605.972C182.711 606.547 182.445 607.366 182.412 608.229L181.725 626.18C181.692 627.131 181.936 628.05 182.39 628.714L204.79 661.084C205.001 661.394 205.256 661.626 205.51 661.748L209.111 663.419C209.233 663.475 209.343 663.497 209.443 663.497L233.827 662.18C233.871 662.18 233.915 662.169 233.959 662.158L234.181 662.102C234.48 662.025 234.79 661.748 235.056 661.361L237.072 658.384C237.261 658.107 237.405 657.786 237.516 657.432L248.605 621.742C249.613 618.499 251.94 615.954 254.82 614.947L271.615 609.082L274.218 616.529L257.423 622.395C257.036 622.528 256.471 623.048 256.149 624.077L245.06 659.767C244.717 660.863 244.229 661.881 243.62 662.8L241.604 665.776C240.274 667.735 238.38 669.141 236.264 669.716L236.042 669.772C235.455 669.938 234.857 670.026 234.248 670.059L209.864 671.376C209.72 671.387 209.565 671.387 209.421 671.387Z" fill="#BFBFBF"/>
<path d="M415.81 671.388C415.666 671.388 415.511 671.388 415.367 671.377L390.984 670.06C390.386 670.027 389.776 669.927 389.189 669.772L388.968 669.717C386.852 669.141 384.946 667.736 383.628 665.777L381.612 662.8C380.991 661.881 380.504 660.863 380.171 659.779L369.082 624.088C368.761 623.07 368.196 622.539 367.808 622.406L351.013 616.541L353.617 609.093L370.411 614.958C373.292 615.966 375.607 618.5 376.615 621.753L387.705 657.444C387.815 657.798 387.971 658.119 388.148 658.395L390.164 661.372C390.43 661.76 390.751 662.036 391.039 662.114L391.261 662.169C391.305 662.18 391.349 662.191 391.394 662.191L415.777 663.508C415.877 663.508 415.988 663.486 416.109 663.431L419.71 661.76C419.954 661.649 420.208 661.406 420.43 661.096L442.83 628.725C443.296 628.061 443.528 627.132 443.495 626.191L442.819 608.23C442.786 607.367 442.52 606.548 442.088 605.972C441.889 605.707 441.656 605.496 441.435 605.397L412.398 591.984C412.287 591.94 412.188 591.906 412.099 591.906H410.88L353.052 602.652L351.6 594.894L409.318 584.149C409.828 584.049 410.349 584.005 410.869 584.005H412.088C413.34 584.005 414.547 584.27 415.7 584.813L444.736 598.226C446.143 598.878 447.417 599.919 448.403 601.236C449.799 603.095 450.607 605.463 450.707 607.931L451.383 625.881C451.483 628.537 450.751 631.138 449.322 633.207L426.922 665.578C425.903 667.05 424.562 668.201 423.045 668.909L419.444 670.58C418.303 671.111 417.051 671.388 415.81 671.388Z" fill="#BFBFBF"/>
<path d="M169.982 673.224C168.586 673.224 167.224 672.981 165.905 672.483L160.588 670.502C158.76 669.816 157.12 668.676 155.835 667.204L122.744 628.88C120.783 626.611 119.786 623.712 119.919 620.713L120.927 599.464C121.06 596.709 122.168 594.075 124.063 592.05C125.292 590.733 126.843 589.704 128.527 589.084L171.456 573.214C172.752 572.738 174.114 572.495 175.51 572.495H177.316C177.892 572.495 178.468 572.539 179.033 572.616L264.358 585.332L263.373 591.895L178.047 579.19C177.804 579.157 177.56 579.135 177.305 579.135H175.499C174.901 579.135 174.314 579.234 173.76 579.445L130.831 595.325C130.1 595.591 129.436 596.034 128.915 596.598C128.106 597.461 127.619 598.601 127.563 599.785L126.555 621.033C126.5 622.317 126.921 623.568 127.774 624.542L160.876 662.855C161.43 663.486 162.128 663.984 162.914 664.271L168.232 666.252C168.863 666.485 169.528 666.595 170.204 666.562L206.253 665.002C206.541 664.991 206.829 664.957 207.106 664.891L207.438 664.825C208.513 664.592 209.499 663.995 210.208 663.153L213.188 659.623C213.542 659.203 213.83 658.727 214.03 658.207L230.403 615.976C231.722 612.567 234.613 609.945 238.136 608.971L262.963 602.032L264.757 608.428L239.931 615.367C238.413 615.788 237.172 616.917 236.607 618.389L220.222 660.619C219.757 661.814 219.104 662.932 218.273 663.917L215.293 667.447C213.642 669.406 211.36 670.778 208.867 671.321L208.535 671.398C207.881 671.542 207.216 671.631 206.552 671.653L170.503 673.213C170.326 673.213 170.159 673.224 169.982 673.224Z" fill="#D1D1D1"/>
<path d="M378.034 578.04C358.602 574.775 338.883 573.569 319.197 574.454C299.522 573.569 279.802 574.775 260.382 578.04C257.047 578.726 254.621 581.614 254.51 585.012V605.872C254.621 609.27 257.047 612.158 260.382 612.844C279.802 616.109 299.522 617.304 319.197 616.408C338.883 617.304 358.602 616.12 378.034 612.844C381.357 612.147 383.783 609.27 383.905 605.872V585.056C383.794 581.647 381.368 578.748 378.034 578.04Z" fill="#ECECEC"/>
<path opacity="0.2" d="M378.034 578.04C358.602 574.775 338.883 573.569 319.197 574.454C299.522 573.569 279.802 574.775 260.382 578.04C257.047 578.726 254.621 581.614 254.51 585.012V605.872C254.621 609.27 257.047 612.158 260.382 612.844C279.802 616.109 299.522 617.304 319.197 616.408C338.883 617.304 358.602 616.12 378.034 612.844C381.357 612.147 383.783 609.27 383.905 605.872V585.056C383.794 581.647 381.368 578.748 378.034 578.04Z" fill="#787878"/>
<path d="M379.662 601.568C379.13 601.568 378.698 601.136 378.698 600.605V588.387C378.698 587.856 379.13 587.425 379.662 587.425C380.194 587.425 380.626 587.856 380.626 588.387V600.605C380.604 601.136 380.183 601.557 379.662 601.568Z" fill="#D8D8D8"/>
<path d="M376.515 601.568C375.984 601.568 375.552 601.136 375.552 600.605V588.387C375.552 587.856 375.984 587.425 376.515 587.425C377.047 587.425 377.479 587.856 377.479 588.387V600.605C377.457 601.136 377.036 601.557 376.515 601.568Z" fill="#D8D8D8"/>
<path d="M373.369 601.568C372.838 601.568 372.406 601.136 372.406 600.605V588.387C372.406 587.856 372.838 587.425 373.369 587.425C373.901 587.425 374.333 587.856 374.333 588.387V600.605C374.333 601.136 373.901 601.568 373.369 601.568Z" fill="#D8D8D8"/>
<path opacity="0.2" d="M278.329 590.379C278.75 591.442 279.758 592.139 280.899 592.139H320.272C321.246 592.139 322.155 591.619 322.653 590.778L331.649 575.339C312.096 573.58 292.409 573.89 272.912 576.258L278.329 590.379Z" fill="#787878"/>
<path opacity="0.2" d="M352.875 578.039C347.546 577.143 342.173 576.412 336.8 575.815L326.719 593.057C325.389 595.359 322.93 596.775 320.271 596.775H280.899C277.808 596.764 275.049 594.861 273.942 591.983L268.092 576.811C265.522 577.176 262.952 577.563 260.426 577.995C257.091 578.681 254.665 581.57 254.554 584.967V605.828C254.665 609.225 257.091 612.114 260.426 612.8C291.035 617.957 322.298 617.957 352.908 612.8C356.242 612.114 358.68 609.225 358.79 605.828V585.056C358.691 581.625 356.242 578.714 352.875 578.039ZM332.834 606.78C331.327 606.78 330.109 605.562 330.109 604.057C330.109 602.552 331.327 601.335 332.834 601.335C334.341 601.335 335.559 602.552 335.559 604.057C335.559 605.562 334.341 606.78 332.834 606.78ZM343.403 606.78C341.896 606.78 340.677 605.562 340.677 604.057C340.677 602.552 341.896 601.335 343.403 601.335C344.909 601.335 346.128 602.552 346.128 604.057C346.139 605.551 344.931 606.769 343.447 606.78C343.425 606.78 343.414 606.78 343.403 606.78Z" fill="#787878"/>
<path d="M466.284 673.224C466.118 673.224 465.94 673.224 465.774 673.213L429.725 671.653C429.061 671.619 428.385 671.542 427.731 671.398L427.41 671.332C424.906 670.789 422.624 669.406 420.985 667.458L418.004 663.928C417.174 662.943 416.52 661.836 416.055 660.63L399.67 618.388C399.105 616.927 397.864 615.799 396.346 615.378L371.52 608.439L373.314 602.043L398.141 608.982C401.664 609.967 404.555 612.589 405.874 615.987L422.259 658.229C422.458 658.749 422.746 659.225 423.1 659.645L426.081 663.175C426.79 664.016 427.776 664.603 428.85 664.846L429.171 664.913C429.448 664.979 429.736 665.012 430.024 665.024L466.073 666.584C466.749 666.617 467.414 666.507 468.045 666.274L473.363 664.293C474.149 663.994 474.858 663.507 475.401 662.877L508.503 624.564C509.345 623.59 509.777 622.339 509.722 621.055L508.714 599.807C508.658 598.623 508.182 597.483 507.362 596.62C506.83 596.056 506.166 595.613 505.446 595.347L462.517 579.456C461.963 579.245 461.376 579.146 460.778 579.146H458.972C458.728 579.146 458.474 579.168 458.23 579.201L372.905 591.917L371.919 585.354L457.244 572.638C457.809 572.55 458.396 572.517 458.961 572.517H460.767C462.152 572.517 463.514 572.76 464.821 573.236L507.75 589.106C509.445 589.737 510.985 590.755 512.215 592.072C514.109 594.086 515.217 596.72 515.35 599.486L516.358 620.734C516.502 623.734 515.494 626.622 513.533 628.902L480.431 667.215C479.157 668.698 477.506 669.838 475.678 670.513L470.361 672.494C469.042 672.969 467.68 673.224 466.284 673.224Z" fill="#D1D1D1"/>
<path opacity="0.7" d="M175.079 566.884C200.58 566.884 221.253 564 221.253 560.443C221.253 556.886 200.58 554.002 175.079 554.002C149.577 554.002 128.904 556.886 128.904 560.443C128.904 564 149.577 566.884 175.079 566.884Z" fill="#BBBBBB"/>
<path d="M159.071 570.989H191.109C193.424 570.989 195.297 569.119 195.308 566.817C195.308 564.504 193.424 562.623 191.109 562.623H159.071C156.755 562.623 154.872 564.504 154.872 566.817C154.883 569.13 156.755 570.989 159.071 570.989Z" fill="#A3A2A5"/>
<path d="M180.839 568.6L177.903 575.328C177.261 576.911 175.444 577.674 173.849 577.033C173.073 576.723 172.464 576.103 172.143 575.328L169.307 568.622L180.839 568.6Z" fill="#A3A2A5"/>
<path opacity="0.7" d="M459.536 566.884C485.038 566.884 505.711 564 505.711 560.443C505.711 556.886 485.038 554.002 459.536 554.002C434.035 554.002 413.362 556.886 413.362 560.443C413.362 564 434.035 566.884 459.536 566.884Z" fill="#CECFCF"/>
<path d="M443.517 570.989H475.556C477.871 570.989 479.743 569.119 479.754 566.817C479.754 564.504 477.871 562.623 475.556 562.623H443.517C441.202 562.623 439.318 564.504 439.318 566.817C439.329 569.13 441.213 570.989 443.517 570.989Z" fill="#A3A2A5"/>
<path d="M465.286 568.6L462.35 575.328C461.708 576.911 459.891 577.674 458.296 577.033C457.52 576.723 456.911 576.103 456.59 575.328L453.754 568.622L465.286 568.6Z" fill="#A3A2A5"/>
<g clip-path="url(#clip1_1244_531)">
<path d="M282.271 579.856L278.631 586.171H280.869L282.271 583.739C282.086 583.739 281.93 583.609 281.889 583.436H280.6C280.55 583.436 280.508 583.394 280.508 583.344C280.508 583.293 280.55 583.251 280.6 583.251H281.89C281.931 583.078 282.086 582.949 282.272 582.949C282.458 582.949 282.613 583.078 282.655 583.251H283.944C283.995 583.251 284.036 583.293 284.036 583.344C284.036 583.394 283.995 583.436 283.944 583.436H282.654C282.613 583.609 282.457 583.739 282.271 583.739L283.674 586.171H285.912L282.271 579.856Z" fill="#F75506"/>
</g>
<path d="M290.477 581.974H291.192V586.209H290.473L290.448 585.494C290.314 585.739 290.13 585.938 289.897 586.091C289.663 586.243 289.386 586.32 289.066 586.32C288.751 586.32 288.458 586.261 288.186 586.144C287.914 586.027 287.674 585.865 287.466 585.657C287.258 585.449 287.095 585.211 286.979 584.939C286.862 584.668 286.804 584.375 286.804 584.062C286.804 583.759 286.861 583.475 286.974 583.206C287.088 582.938 287.246 582.703 287.449 582.501C287.651 582.3 287.886 582.141 288.152 582.027C288.418 581.913 288.703 581.856 289.007 581.856C289.344 581.856 289.639 581.934 289.892 582.09C290.146 582.247 290.35 582.45 290.502 582.698L290.477 581.974ZM289.083 585.629C289.366 585.629 289.61 585.559 289.814 585.417C290.018 585.276 290.173 585.087 290.279 584.85C290.386 584.612 290.433 584.35 290.422 584.062C290.411 583.78 290.344 583.524 290.222 583.295C290.101 583.066 289.936 582.885 289.729 582.75C289.523 582.617 289.281 582.549 289.007 582.549C288.726 582.549 288.471 582.619 288.241 582.761C288.012 582.902 287.832 583.091 287.703 583.328C287.574 583.565 287.515 583.83 287.526 584.12C287.541 584.4 287.62 584.654 287.764 584.883C287.909 585.111 288.097 585.293 288.328 585.427C288.559 585.562 288.811 585.629 289.083 585.629Z" fill="white"/>
<path d="M291.983 586.21L293.539 584.083L291.991 581.966H292.871L293.981 583.473L295.086 581.966H295.966L294.419 584.083L295.975 586.21H295.095L293.981 584.685L292.863 586.21H291.983Z" fill="white"/>
<path d="M296.899 586.21V579.856H297.609V586.21H296.899Z" fill="white"/>
<path d="M302.123 579.856H302.837V586.21H302.123V585.49C301.978 585.738 301.784 585.939 301.54 586.091C301.296 586.244 301.011 586.32 300.682 586.32C300.373 586.32 300.084 586.262 299.814 586.146C299.545 586.03 299.308 585.87 299.102 585.666C298.896 585.461 298.735 585.225 298.62 584.956C298.503 584.687 298.446 584.399 298.446 584.092C298.446 583.784 298.503 583.495 298.62 583.225C298.736 582.956 298.897 582.719 299.102 582.514C299.308 582.309 299.545 582.148 299.814 582.033C300.084 581.917 300.373 581.86 300.682 581.86C301.011 581.86 301.296 581.936 301.54 582.088C301.784 582.241 301.978 582.442 302.123 582.69V579.856ZM300.69 585.629C300.971 585.629 301.214 585.561 301.419 585.424C301.625 585.287 301.783 585.102 301.895 584.867C302.007 584.632 302.062 584.374 302.062 584.092C302.062 583.804 302.005 583.543 301.892 583.31C301.779 583.077 301.619 582.892 301.414 582.755C301.208 582.618 300.966 582.549 300.689 582.549C300.409 582.549 300.154 582.619 299.926 582.757C299.698 582.895 299.515 583.081 299.38 583.314C299.245 583.547 299.176 583.806 299.176 584.091C299.176 584.377 299.246 584.635 299.384 584.868C299.523 585.101 299.707 585.286 299.937 585.423C300.167 585.561 300.418 585.629 300.69 585.629Z" fill="white"/>
<path d="M306.32 582.677C306.249 582.637 306.173 582.607 306.09 582.584C306.008 582.561 305.918 582.55 305.822 582.55C305.587 582.55 305.378 582.614 305.195 582.741C305.011 582.868 304.868 583.04 304.763 583.257C304.658 583.475 304.606 583.715 304.606 583.978V586.21H303.887V581.974H304.601V582.626C304.754 582.389 304.944 582.202 305.171 582.065C305.398 581.927 305.649 581.859 305.923 581.859C306.017 581.859 306.106 581.863 306.191 581.871C306.276 581.88 306.357 581.897 306.434 581.922L306.32 582.677Z" fill="white"/>
<path d="M308.639 586.32C308.248 586.32 307.892 586.22 307.57 586.019C307.248 585.818 306.992 585.55 306.8 585.213C306.609 584.876 306.513 584.502 306.513 584.092C306.513 583.781 306.568 583.491 306.679 583.222C306.789 582.953 306.941 582.715 307.136 582.51C307.33 582.305 307.556 582.145 307.814 582.029C308.071 581.913 308.347 581.855 308.638 581.855C309.03 581.855 309.386 581.955 309.708 582.156C310.029 582.357 310.286 582.626 310.478 582.965C310.669 583.304 310.765 583.679 310.765 584.092C310.765 584.399 310.71 584.688 310.599 584.956C310.489 585.225 310.336 585.461 310.142 585.666C309.948 585.871 309.723 586.031 309.466 586.146C309.209 586.262 308.934 586.32 308.639 586.32ZM308.639 585.608C308.905 585.608 309.146 585.539 309.359 585.398C309.574 585.258 309.742 585.074 309.865 584.843C309.989 584.613 310.05 584.363 310.05 584.091C310.05 583.814 309.987 583.56 309.861 583.329C309.735 583.097 309.566 582.912 309.354 582.774C309.141 582.636 308.903 582.566 308.639 582.566C308.373 582.566 308.133 582.637 307.921 582.776C307.708 582.916 307.54 583.102 307.415 583.333C307.29 583.564 307.228 583.817 307.228 584.091C307.228 584.373 307.292 584.63 307.419 584.86C307.547 585.091 307.719 585.273 307.934 585.407C308.149 585.541 308.384 585.608 308.639 585.608Z" fill="white"/>
<path d="M315.296 583.956V586.21H314.582V583.973C314.582 583.711 314.527 583.471 314.416 583.255C314.306 583.039 314.155 582.867 313.966 582.738C313.776 582.609 313.562 582.546 313.324 582.546C313.088 582.546 312.879 582.61 312.696 582.738C312.513 582.867 312.37 583.039 312.264 583.255C312.16 583.471 312.107 583.711 312.107 583.973V586.21H311.393V581.974H312.107V582.626C312.26 582.387 312.449 582.198 312.674 582.06C312.899 581.923 313.151 581.855 313.429 581.855C313.797 581.855 314.121 581.951 314.4 582.144C314.679 582.336 314.897 582.59 315.055 582.908C315.213 583.225 315.293 583.575 315.296 583.956Z" fill="white"/>
<path d="M317.976 586.32C317.585 586.32 317.229 586.22 316.907 586.019C316.585 585.818 316.329 585.55 316.137 585.213C315.946 584.876 315.85 584.502 315.85 584.092C315.85 583.781 315.905 583.491 316.016 583.222C316.126 582.953 316.279 582.715 316.473 582.51C316.667 582.305 316.893 582.145 317.151 582.029C317.409 581.913 317.684 581.855 317.976 581.855C318.296 581.855 318.59 581.92 318.858 582.048C319.126 582.177 319.356 582.355 319.547 582.584C319.738 582.813 319.881 583.078 319.976 583.38C320.071 583.683 320.105 584.006 320.08 584.35H316.611C316.645 584.59 316.724 584.804 316.849 584.992C316.974 585.181 317.133 585.33 317.328 585.439C317.522 585.549 317.738 585.606 317.976 585.608C318.232 585.608 318.463 585.543 318.669 585.412C318.876 585.281 319.044 585.1 319.171 584.871L319.898 585.041C319.728 585.416 319.471 585.724 319.129 585.962C318.785 586.201 318.402 586.32 317.976 586.32ZM316.591 583.791H319.362C319.339 583.554 319.263 583.337 319.133 583.141C319.003 582.944 318.837 582.787 318.635 582.669C318.434 582.55 318.215 582.491 317.976 582.491C317.738 582.491 317.52 582.548 317.322 582.665C317.124 582.781 316.96 582.936 316.831 583.132C316.701 583.329 316.621 583.548 316.591 583.791Z" fill="white"/>
</g>
<g style="mix-blend-mode:multiply" opacity="0.63">
<path fill-rule="evenodd" clip-rule="evenodd" d="M638.994 855.063C636.218 853.097 629.684 838.073 622.619 837.204C610.347 835.673 607.989 843.229 594.944 844.144C581.899 845.06 572.23 858.303 559.195 857.38C546.161 856.457 551.527 856.158 542.317 855.235C533.108 854.312 535.416 853.097 527.745 852.481C520.074 851.865 516.236 853.097 516.236 853.097C512.913 852.482 509.527 852.787 506.207 852.178C506.207 852.178 501.663 852.174 494 853.399C492.251 853.68 491.005 853.017 490.096 852.845C486.36 852.123 480.747 851.589 472.68 852.524C387.414 854.739 325.242 854.39 322.21 853.704C317.526 852.644 315.364 852.016 315.364 852.016C313.462 851.495 314.742 851.754 309.176 850.945C300.737 849.718 240.067 826.427 177.101 853.826C173.669 855.983 150.426 855.242 141.993 853.704C133.559 852.165 124.373 849.425 124.373 849.425C124.373 849.425 116.699 848.807 105.195 847.276C93.6905 845.744 62.2065 848.75 53.7702 848.132C51.4699 847.969 53.7702 848.132 42.0759 848.628C35.0656 848.923 26.0802 848.496 18.8331 849.546C14.8725 850.124 7.17002 848.463 3.33959 849.074C2.74889 849.166 2.1738 849.248 1.59351 849.329V902.019C121.531 895.016 620.443 944.676 636.53 944.934C637.36 944.929 638.187 944.85 638.999 944.698L638.994 855.063Z" fill="#F8F8F8"/>
<path fill-rule="evenodd" clip-rule="evenodd" d="M638.999 911.892C600.719 905.434 557.168 899.476 509.889 895.384C360.514 882.454 274.821 884.311 166.904 889.023C109.94 891.511 53.8408 895.761 1.61108 900.739V935.467C67.767 935.401 137.156 935.821 199.785 937.117C217.179 937.027 325.572 935.99 343.463 936.155C474.947 937.406 565.262 963.939 638.999 974.964V911.892Z" fill="#ECECEC"/>
<path d="M447.263 893.888C464.451 894.865 487.045 896.213 512.605 898.637C488.253 895.909 468.253 894.488 458.358 894.142L447.263 893.888Z" fill="#BFBFBF"/>
<path d="M356.343 892.228C354.684 892.13 353.273 892.055 352.121 891.993C351.802 892.038 353.273 892.097 356.343 892.228Z" fill="#D1D1D1"/>
<path d="M375.293 941.743C358.092 937.585 388.688 946.789 375.293 941.743V941.743Z" fill="#D1D1D1"/>
<path d="M329.395 940.469C311.085 936.625 344.136 945.278 329.395 940.469V940.469Z" fill="#D1D1D1"/>
<path d="M283.258 940C263.95 936.467 299.268 944.545 283.258 940V940Z" fill="#D1D1D1"/>
<g opacity="0.5">
<path d="M638.999 915.137C574.124 903.282 502.244 896.61 492.679 895.606C505.976 897.255 580.994 906.043 638.999 917.267V915.137Z" fill="#D8D8D8"/>
<path d="M639 922.607V919.255C595.688 908.352 550.829 902.292 512.605 898.638C551.274 902.985 600.925 910.618 638.538 922.459L639 922.607Z" fill="#D8D8D8"/>
<path d="M638.999 932.641V927.062C634.256 925.649 629.322 924.262 624.197 922.904C547.644 903.067 467.184 896.897 450.055 895.575C470.149 897.434 541.799 904.952 586.291 916.543C596.932 919 617.896 924.85 638.999 932.641Z" fill="#D8D8D8"/>
<path d="M639 936.707C636.45 935.795 633.848 934.874 631.223 933.962C614.208 928.021 594.774 922.451 572.154 917.207C493.246 899.46 432.224 895.203 416.219 894.183C434.934 895.662 485.559 900.907 532.5 911.496C547.457 914.538 582.066 923.083 611.936 934.349C621.629 937.942 630.829 941.819 639 945.836V936.707Z" fill="#D8D8D8"/>
<path d="M638.999 949.46C637.299 948.506 635.537 947.561 633.664 946.633C620.439 940.053 602.061 934.095 582.4 928.16C563.706 922.525 542.713 917.299 518.622 912.451C434.789 896.124 372.686 892.967 356.33 892.23C375.468 893.37 427.504 897.71 477.405 907.454C511.069 912.637 620.191 940.126 633.685 965.589C635.339 966.602 637.118 967.435 638.984 968.072L638.999 949.46Z" fill="#D8D8D8"/>
<path d="M273.258 890.175C287.727 890.576 364.09 894.777 421.327 904.391C456.457 908.959 573.421 934.547 593.704 959.781C599.629 965.621 583.003 954.447 593.704 959.781C606.538 966.444 622.538 963.233 636.56 969.294C622.788 960.085 609.916 949.879 588.467 940.816C573.413 934.455 553.394 928.817 532.082 923.241C511.814 917.923 489.343 913.058 463.884 908.646C358.832 891.038 271.318 890.453 273.255 890.175H273.258Z" fill="#D8D8D8"/>
<path d="M231.267 891.506C245.822 891.645 304.549 893.749 364.509 902.344C400.922 906.271 525.173 929.771 552.209 954.685C559.705 960.412 540.101 949.533 552.209 954.685C566.807 961.126 581.926 957.635 597.548 963.461C581.352 954.478 565.705 944.496 541.753 935.793C524.949 929.696 503.356 924.414 480.494 919.203C458.742 914.255 434.898 909.795 408.207 905.842C298.196 890.116 229.402 891.825 231.27 891.514L231.267 891.506Z" fill="#D8D8D8"/>
<path d="M171.065 892.895C185.615 892.772 244.869 893.806 307.257 901.301C344.767 904.564 475.703 925.845 509.418 950.304C518.45 955.906 495.94 945.356 509.418 950.304C525.725 956.498 539.873 952.728 557.034 958.281C538.466 949.588 520.104 939.867 493.748 931.584C475.262 925.783 452.212 920.885 427.899 916.089C404.753 911.528 379.672 907.492 351.869 904.017C237.443 890.28 169.267 893.253 171.065 892.899V892.895Z" fill="#D8D8D8"/>
<path d="M111.416 895.368C125.902 894.982 185.373 894.939 249.862 901.293C288.271 903.885 425.258 922.796 465.527 946.675C476.063 952.115 450.736 941.963 465.527 946.675C483.47 952.581 496.574 948.56 515.204 953.823C494.338 945.441 473.335 936.05 444.692 928.235C424.599 922.755 400.206 918.26 374.561 913.904C350.148 909.755 323.942 906.179 295.164 903.199C176.91 891.54 109.726 895.761 111.416 895.368V895.368Z" fill="#D8D8D8"/>
<path d="M52.6589 898.909C66.9999 898.261 126.36 897.135 192.624 902.318C211.497 903.536 257.755 907.737 303.964 915.04C350.375 922.237 396.726 932.526 420.745 943.832C432.742 949.083 404.709 939.379 420.745 943.832C440.261 949.42 452.24 945.172 472.266 950.103C449.185 942.093 425.64 933.06 394.838 925.762C373.248 920.645 347.613 916.574 320.753 912.682C295.19 908.976 267.99 905.871 238.393 903.423C116.914 893.905 51.085 899.345 52.6589 898.918V898.909Z" fill="#D8D8D8"/>
<path d="M344.398 924.159C321.399 919.424 294.654 915.826 266.727 912.417C240.137 909.161 212.076 906.558 181.815 904.643C81.8375 898.769 20.7847 901.933 1.61108 903.14C22.7657 902.197 75.8713 900.864 135.839 904.381C155.036 905.253 202.464 908.622 250.683 915.079C299.08 921.44 348.257 930.881 375.292 941.76C396.287 947.002 407.094 942.557 428.382 947.134C403.212 939.508 377.193 930.907 344.398 924.159Z" fill="#D8D8D8"/>
<path d="M293.652 923.453C269.36 919.129 241.639 916.015 212.764 913.115C185.295 910.347 156.51 908.233 125.744 906.869C73.3034 904.775 31.9421 904.897 1.60376 905.729V906.565C24.1778 906.205 51.0642 906.294 79.7847 907.437C99.2211 907.962 147.561 910.46 197.542 916.041C247.675 921.521 299.459 930.092 329.387 940.476C351.745 945.351 361.33 940.712 383.807 944.915C356.639 937.751 328.303 929.606 293.652 923.453Z" fill="#D8D8D8"/>
<path d="M242.836 923.641C217.372 919.756 188.819 917.141 159.163 914.752C130.94 912.483 101.604 910.914 70.4744 910.099C44.7833 909.55 21.8486 909.468 1.61108 909.689V911.202C9.14092 911.225 16.8768 911.324 24.7647 911.489C44.3428 911.661 93.3421 913.273 144.838 917.947C196.457 922.524 250.567 930.157 283.257 940.001C306.888 944.477 315.17 939.68 338.748 943.485C309.701 936.806 279.166 929.17 242.836 923.641Z" fill="#D8D8D8"/>
<path d="M190.593 925.563C164.077 922.137 134.831 920.04 104.552 918.191C75.7234 916.434 45.9699 915.397 14.6681 915.152C9.66196 915.136 4.77259 915.136 0 915.152V917.59C24.1789 918.061 56.9722 919.202 91.1927 921.626C144.028 925.266 200.212 931.921 235.499 941.18C260.283 945.23 267.243 940.301 291.796 943.677C260.999 937.526 228.412 930.442 190.593 925.563Z" fill="#D8D8D8"/>
</g>
<path d="M237.107 940.346C216.883 937.165 254.321 944.603 237.107 940.346V940.346Z" fill="#D1D1D1"/>
<path d="M142.035 926.716C114.605 923.766 84.8102 922.204 54.0469 920.897C36.8594 920.19 19.4117 919.719 1.61108 919.509V922.96C14.4141 923.33 27.923 923.846 41.7101 924.562C95.4983 927.232 153.449 932.876 191.176 941.497C216.996 945.104 222.604 940.067 248.001 943.002C215.638 937.397 181.155 930.907 142.035 926.716Z" fill="#BFBFBF"/>
<path d="M191.177 941.496C170.135 938.669 209.497 945.433 191.177 941.496V941.496Z" fill="#D1D1D1"/>
<path d="M145.673 943.451C123.918 941.011 165.019 947.051 145.673 943.451V943.451Z" fill="#D1D1D1"/>
<path d="M92.5388 929.578C64.3412 927.137 34.1601 926.1 3.07726 925.361L1.60376 925.337V929.578C53.2796 931.491 108.083 935.995 145.665 943.464C172.397 946.611 176.619 941.475 202.758 943.972C168.971 938.933 132.767 933.067 92.5388 929.578Z" fill="#D1D1D1"/>
<path fill-rule="evenodd" clip-rule="evenodd" d="M229.031 938.86C157.301 922.227 98.7776 912.003 1.61108 921.332V1011.02C26.823 1013.21 55.1211 1015.7 87.6851 1018.4C100.823 1019.5 179.81 1030.21 192.505 1031.78C343.308 1039.62 544.483 1072.31 544.483 1072.31C544.483 1072.31 395.62 977.462 229.031 938.86Z" fill="#E3E3E3"/>
<path d="M181.32 938.629C180.463 938.556 179.381 938.49 178.124 938.424C180.432 938.636 181.524 938.751 181.32 938.629Z" fill="#D8D8D8"/>
<path d="M224.992 946.196C224.129 946.081 223.042 945.961 221.77 945.836C224.093 946.156 225.191 946.335 224.992 946.196Z" fill="#D8D8D8"/>
<path d="M1.60332 927.324C9.46547 926.723 16.5677 926.382 22.727 926.116L14.5506 925.729C11.4722 925.68 7.04655 925.878 1.59302 926.363L1.60332 927.324Z" fill="#D8D8D8"/>
<path d="M1.60303 932.328C9.77173 930.782 16.3201 929.771 20.246 929.229C16.9306 929.55 10.457 930.172 1.60303 931.505V932.328Z" fill="#D8D8D8"/>
<path d="M1.60303 937.768C21.06 932.476 37.3099 929.993 45.3961 929.171C39.2136 929.56 23.7829 930.709 1.60303 935.829V937.768Z" fill="#D8D8D8"/>
<path d="M1.60303 948.934C39.1878 934.924 76.0023 930.782 89.7044 930.087C79.9721 930.202 48.0108 931.065 1.60303 944.885V948.934Z" fill="#D8D8D8"/>
<path d="M6.75516 954.104C5.01631 954.702 3.31353 955.31 1.60303 955.918V963.075C17.4175 955.812 31.0423 950.89 38.9791 949.041C78.7149 936.027 128.536 932.877 146.169 932.623C129.937 932.302 74.279 932.041 6.75516 954.104Z" fill="#D8D8D8"/>
<path d="M48.2066 952.952C32.2552 957.372 16.6791 962.854 1.60303 969.354V979.88C33.7059 963.153 66.7156 952.04 81.0643 949.489C123.451 938.216 163.627 937.737 178.115 938.416C165.871 937.372 119.298 934.078 48.2066 952.952Z" fill="#D8D8D8"/>
<path d="M89.8775 953.844C68.643 958.528 49.2581 964.536 31.1432 971.749C20.9266 975.825 10.9675 979.995 1.60864 984.535V998.576C44.2142 971.855 102.773 954.542 123.199 952.021C166.938 942.915 207.287 944.444 221.767 945.841C209.561 944.169 163.192 938.59 89.8775 953.844Z" fill="#D8D8D8"/>
<path d="M131.563 956.757C109.739 960.374 89.6455 965.385 70.7166 971.68C50.8345 978.295 31.818 985.271 15.7099 994.532C10.7844 997.376 6.11404 1000.39 1.61108 1003.51V1022.94C41.7642 982.651 137.885 958.534 165.176 956.578C210.017 949.708 250.333 953.242 264.741 955.346C252.61 953.075 206.699 945.246 131.563 956.757Z" fill="#D8D8D8"/>
<path d="M267.969 955.867C267.109 955.711 266.019 955.539 264.744 955.351C267.062 955.787 268.152 956.015 267.969 955.867Z" fill="#D8D8D8"/>
<path d="M29.183 1027.4C19.0385 1036.89 42.0633 1019.87 29.183 1027.4V1027.4Z" fill="#D8D8D8"/>
<path d="M310.023 967.602C309.175 967.406 308.078 967.175 306.805 966.918C309.108 967.479 310.193 967.757 310.023 967.602Z" fill="#D8D8D8"/>
<path d="M173.028 961.703C151.829 964.054 130.88 968.011 110.398 973.535C89.7434 979.139 69.954 985.147 52.8258 993.593C33.3894 1003.18 17.034 1015.29 1.61108 1026.94V1032.21C10.6969 1031.33 17.8403 1034.29 29.175 1027.41C49.6727 1006.87 86.2374 990.151 122.05 979.559C157.728 968.769 192.647 964.111 206.766 963.19C252.468 958.605 292.549 964.111 306.797 966.919C294.824 964.052 249.604 954.004 173.028 961.703Z" fill="#D8D8D8"/>
<path d="M350.939 981.333C340.84 978.407 298.31 969.318 247.772 971.801C233.501 971.999 197.946 974.899 161.016 983.863C123.967 992.632 85.5524 1007.48 62.9552 1026.92C51.8446 1035.87 76.6083 1020.03 62.9552 1026.92C46.2545 1035.66 39.5001 1025.96 22.7454 1033.35C43.1298 1020.25 64.3797 1005.24 90.1172 994.449C108.163 986.872 128.66 981.875 149.967 977.323C171.042 972.841 192.483 969.941 214.075 968.654C306.713 964.069 351.894 982.353 350.939 981.333V981.333Z" fill="#D8D8D8"/>
<path d="M390.504 996.978C380.69 993.576 338.983 982.419 287.977 982.372C273.628 981.863 237.625 982.956 199.618 990.054C161.528 996.941 121.442 1009.83 96.8589 1028.07C84.839 1036.44 111.249 1021.88 96.8589 1028.07C79.2463 1035.96 73.4424 1025.99 55.9175 1032.54C77.6466 1020.49 100.483 1006.59 127.419 997.113C146.304 990.474 167.381 986.497 189.244 983.02C210.804 979.623 232.627 977.811 254.504 977.601C347.966 977.667 391.355 998.076 390.504 997.009V996.978Z" fill="#D8D8D8"/>
<path d="M428.509 1014.45C419.037 1010.59 378.348 997.422 327.154 994.816C312.795 993.593 276.542 992.877 237.669 998.062C198.735 1003.01 157.183 1013.85 130.719 1030.81C117.838 1038.55 145.76 1025.35 130.719 1030.81C112.282 1037.81 107.462 1027.62 89.2441 1033.28C112.215 1022.35 136.528 1009.63 164.532 1001.54C184.159 995.848 205.729 992.938 228.032 990.573C249.955 988.255 272.044 987.529 294.093 988.403C387.91 993.136 429.274 1015.56 428.517 1014.44L428.509 1014.45Z" fill="#D8D8D8"/>
<path d="M464.78 1033.66C455.676 1029.37 416.239 1014.27 365.13 1009.11C350.848 1007.18 314.525 1004.65 274.983 1007.87C235.396 1010.86 192.595 1019.61 164.382 1035.18C150.685 1042.25 179.998 1030.48 164.382 1035.18C145.206 1041.24 141.396 1030.89 122.557 1035.65C146.664 1025.88 172.337 1014.42 201.258 1007.74C221.542 1003.06 243.475 1001.23 266.103 999.968C288.276 998.751 310.519 999.13 332.627 1001.1C426.301 1010.48 465.411 1034.79 464.78 1033.65V1033.66Z" fill="#D8D8D8"/>
<path d="M499.104 1054.49C490.43 1049.78 452.451 1032.81 401.693 1025.15C387.56 1022.52 351.377 1018.19 311.358 1019.44C271.344 1020.45 227.497 1027.01 197.668 1041.14C183.242 1047.5 213.792 1037.22 197.668 1041.14C177.858 1046.24 175.058 1035.77 155.72 1039.59C180.844 1031.03 207.756 1020.9 237.443 1015.69C258.273 1012.03 280.463 1011.3 303.292 1011.18C325.599 1011.06 347.881 1012.55 369.935 1015.61C462.962 1029.6 499.624 1055.66 499.104 1054.48V1054.49Z" fill="#D8D8D8"/>
<path d="M531.325 1076.82C523.12 1071.74 486.805 1053.03 436.672 1042.86C422.762 1039.54 386.9 1033.44 346.642 1032.68C306.38 1031.7 261.727 1036.06 230.446 1048.65C215.355 1054.26 246.987 1045.53 230.446 1048.65C210.077 1052.75 208.32 1042.24 188.564 1045.1C214.582 1037.81 242.579 1029.05 272.902 1025.33C294.157 1022.74 316.496 1023.09 339.421 1024.1C361.741 1025.09 383.942 1027.67 405.821 1031.82C497.702 1050.36 531.721 1078.02 531.325 1076.82Z" fill="#D8D8D8"/>
<path fill-rule="evenodd" clip-rule="evenodd" d="M639 970.833C622.105 964.076 604.789 958.234 587.144 953.338C436.081 911.513 349.587 918.555 240.717 935.433C155.794 948.595 72.8117 974.541 1.60156 1002.24V1079.84H639V970.833Z" fill="#E5E5E5"/>
<path d="M194.628 958.556C192.861 958.655 191.364 958.77 190.179 958.876C189.914 959.09 191.429 958.885 194.628 958.556Z" fill="#D8D8D8"/>
<path d="M639 972.713C616.001 963.428 595.604 956.838 581.296 952.515C601.033 958.904 620.307 966.432 639 975.054V972.713Z" fill="#D1D1D1"/>
<path d="M639 985.934C555.177 942.563 486.618 940.354 454.149 940.354C473.964 942.45 545.932 936.492 639 992.269V985.934Z" fill="#D1D1D1"/>
<path d="M639 1002.56C588.022 971.93 545.602 960.445 532.554 957.027C549.742 962.36 598.169 980.115 639 1008.05V1002.56Z" fill="#D1D1D1"/>
<path d="M638.999 1021.27C563.925 967.883 506.476 955.179 491.084 952.089C509.583 956.746 559.667 973.428 606.201 1007.63C613.432 1012.41 625.3 1021.43 638.999 1033.66V1021.27Z" fill="#D1D1D1"/>
<path d="M638.999 1046.08C624.451 1033.34 608.919 1021.57 592.522 1010.87C509.436 958.242 448.059 948.514 431.915 946.278C450.828 949.829 502.29 963.502 551.745 994.907C568.794 1003.42 605.423 1030.83 638.999 1066.71V1046.08Z" fill="#D1D1D1"/>
<path d="M639 1076.24C628.781 1065.87 617.591 1055.92 606.009 1046.02C585.902 1028.84 563.619 1013.17 538.408 998.958C452.086 951.99 377.919 943.257 356.233 941.11C379.676 944.43 445.522 957.734 496.315 985.425C518.672 994.835 574.627 1032.34 617.15 1079.84H639V1076.24Z" fill="#D1D1D1"/>
<path d="M582.182 1079.84H609.431C593.813 1063.02 574.892 1048.06 555.007 1033.32C532.756 1016.83 508.766 1002.41 483.392 990.274C391.878 947.94 329.359 945.598 312.792 945.301C332.252 946.583 385.649 953.988 440.181 979.246C465.594 988.08 534.347 1028.35 582.182 1079.84Z" fill="#D1D1D1"/>
<path d="M545.689 1079.84H574.057C572.187 1077.78 570.283 1075.73 568.323 1073.71C549.96 1054.9 527.106 1039.08 503.019 1023.62C479.381 1008.47 454.165 995.481 427.737 984.855C327.888 946.195 263.811 949.695 251.276 950.254C276.661 950.763 323.72 953.196 383.647 976.405C411.798 984.259 493.295 1025.54 545.689 1079.84Z" fill="#D1D1D1"/>
<path d="M326.982 976.946C357.5 983.429 451.063 1023.85 507.499 1079.84H536.846C531.462 1074.12 525.815 1068.56 519.826 1063.22C499.897 1045.49 475.724 1031.04 450.316 1017.01C425.412 1003.27 399.096 991.799 371.746 982.753C273.657 951.711 211.257 956.854 194.634 958.555C214.232 957.505 268.464 958.43 326.982 976.946Z" fill="#D1D1D1"/>
<path d="M270.486 980.848C289.147 984.652 334.887 997.98 380.646 1021.38C411.61 1036.95 442.564 1057.11 466.784 1079.84H498.035C489.462 1071.36 480.378 1063.17 470.553 1055.57C449.138 1039.02 423.756 1026.01 397.171 1013.51C371.121 1001.27 343.829 991.376 315.683 983.969C215.062 958.876 153.208 967.732 136.695 970.437C156.219 968.215 210.445 965.885 270.486 980.848Z" fill="#D1D1D1"/>
<path d="M214.468 988.096C233.443 990.766 280.33 1001.32 328.044 1021.98C362.607 1036.66 397.597 1056.6 424.515 1079.84H457.488C446.069 1069.57 433.964 1059.7 420.728 1050.83C397.932 1035.56 371.468 1024.06 343.83 1013.16C316.769 1002.49 288.645 994.243 259.85 988.523C157.184 969.525 96.1953 982.056 79.8914 985.752C99.2376 982.367 153.178 976.781 214.468 988.096Z" fill="#D1D1D1"/>
<path d="M159.187 998.653C178.392 1000.18 226.165 1007.89 275.607 1025.66C312.553 1038.67 350.411 1057.27 379.624 1079.85H414.857C401.108 1068.81 386.535 1058.21 370.626 1049.02C346.56 1035.12 319.14 1025.2 290.58 1015.96C262.659 1006.92 233.852 1000.37 204.557 996.382C100.402 983.604 40.588 999.742 24.5854 1004.43C43.6174 999.871 96.9909 991.067 159.187 998.653Z" fill="#D1D1D1"/>
<path d="M104.943 1012.47C124.264 1012.84 172.678 1017.65 223.604 1032.44C261.313 1043.12 300.371 1059.26 331.307 1079.84H369.433C354.131 1069.06 337.974 1058.78 320.462 1050.13C295.242 1037.66 266.998 1029.39 237.68 1021.85C209.036 1014.52 179.689 1009.7 150.042 1007.48C80.4318 1003.2 31.3629 1010.38 1.60425 1017.35V1019.05C27.2825 1014.22 63.927 1009.96 104.943 1012.47Z" fill="#D1D1D1"/>
<path d="M172.292 1042.25C208.545 1050.16 246.41 1062.81 277.91 1079.84H320.091C304.459 1070.4 288.057 1061.49 270.522 1054.18C244.277 1043.23 215.366 1036.64 185.424 1030.89C156.21 1025.28 126.476 1022.23 96.6276 1021.79C58.7594 1021.74 27.2207 1024.69 1.62231 1028.78V1032.55C18.329 1030.49 35.1676 1029.45 52.0256 1029.44C71.3615 1028.65 120.144 1030.53 172.292 1042.25Z" fill="#D1D1D1"/>
<path d="M121.926 1055.06C153.315 1059.93 186.168 1068.17 215.504 1079.84H264.823C250.822 1072.85 236.272 1066.41 221.002 1061.14C193.87 1051.78 164.426 1046.93 134.029 1042.97C104.397 1039.13 74.4327 1037.87 44.5412 1039.22C29.1492 1040.13 14.8546 1041.47 1.61108 1043.12V1049.42C21.4725 1047.52 69.6629 1046.61 121.926 1055.06Z" fill="#D8D8D8"/>
<path d="M72.7671 1070.81C92.3627 1072.63 111.804 1075.65 130.96 1079.84H199.329C190.48 1076.56 181.441 1073.55 172.188 1071C144.307 1063.26 114.484 1060.18 83.7875 1058.06C56.4192 1056.16 28.9218 1056.46 1.61108 1058.96V1068.42C22.3716 1067.81 46.9885 1068.23 72.7671 1070.81Z" fill="#D8D8D8"/>
<path d="M157.422 963.996C157.421 964.77 157.507 965.541 157.68 966.298C158.064 965.624 158.136 964.891 157.422 963.996Z" fill="#EBEBEB"/>
<path d="M158.975 945.362C158.328 946.54 155.472 968.549 155.472 970.099V947.322C153.535 953.528 151.973 959.826 150.793 966.189C147.671 975.612 163.462 980.47 180.403 980.767C168.98 978.406 160.655 952.647 158.975 945.362Z" fill="#D1D1D1"/>
<path d="M209.423 975.859C210.804 975.195 211.633 974.003 212.022 972.457C205.783 974.776 198.274 976.279 192.601 978.646C192.601 976.206 196.509 974.981 198.464 972.54C192.601 972.54 188.675 974.981 186.735 977.428C186.735 974.981 188.688 972.54 190.648 971.324C184.78 971.324 182.83 972.54 182.83 976.206V968.874C176.967 970.099 180.877 974.981 176.967 974.981C173.056 974.981 176.967 971.324 175.009 968.874C176.967 971.324 171.101 974.981 173.056 977.428C167.193 971.324 173.056 966.436 173.056 960.339C173.056 963.995 169.146 966.436 169.146 970.099C167.193 962.779 171.101 956.67 173.056 949.353C171.101 953.009 167.193 956.673 167.193 961.554C165.333 953.393 170.586 946.354 172.763 939.352C171.604 941.472 167.461 943.576 169.156 945.687C164.233 942.606 167.575 939.533 168.77 936.452C167.899 934.24 170.936 932.03 169.156 929.82C167.204 932.254 165.254 934.701 163.291 937.123C163.291 929.349 165.784 922.359 168.77 915.505C164.081 923.353 159.166 935.295 155.483 947.31V970.099C155.483 968.547 154.831 969.739 155.483 968.547C155.31 967.807 159.56 953.94 159.56 953.148C161.364 947.635 159.378 968.744 159.004 969.425C160.689 976.715 168.991 978.406 180.414 980.767C191.115 980.955 202.279 979.327 209.423 975.859Z" fill="#D7D7D7"/>
<path d="M169.146 937.133C168.981 936.925 168.851 936.696 168.76 936.453C167.565 939.534 164.223 942.606 169.146 945.688C167.462 943.567 171.604 941.464 172.753 939.353C172.856 939.023 172.959 938.688 173.046 938.359C173.034 938.706 172.933 939.047 172.753 939.353C170.576 946.355 165.323 953.394 167.183 961.555C167.183 956.673 171.091 953.01 173.046 949.354C171.091 956.673 167.183 962.782 169.136 970.1C169.136 966.436 173.046 963.996 173.046 960.339C173.046 966.436 167.183 971.325 173.046 977.429C171.091 974.981 176.957 971.325 174.999 968.875C176.957 971.325 173.046 974.981 176.957 974.981C180.867 974.981 176.957 970.1 182.82 968.875V976.206C182.82 972.541 184.77 971.325 190.638 971.325C188.678 972.541 186.725 974.981 186.725 977.429C188.678 974.981 192.591 972.541 198.454 972.541C196.499 974.981 192.591 976.206 192.591 978.647C198.606 979.255 204.018 978.647 212.012 972.458C212.398 970.929 212.339 969 211.989 966.83C210.821 968.001 209.563 969.093 208.225 970.1V967.661C206.272 968.875 210.18 971.325 206.272 971.325C204.312 971.325 208.225 967.661 204.312 967.661C204.312 968.875 204.312 970.1 202.359 971.325V969.756C201.167 969.991 196.95 968.524 198.454 971.325C194.546 971.325 198.454 968.875 196.499 967.661C192.591 966.436 196.499 970.1 194.546 970.1C192.573 969.485 192.096 968.564 192.102 967.636C189.051 967.421 192.496 965.162 190.638 963.996C190.638 965.221 186.725 966.436 186.725 967.661V963.996C186.725 964.825 184.958 965.645 184.407 966.469C184.45 966.884 184.575 967.288 184.775 967.661C184.147 967.256 184.134 966.863 184.407 966.469C184.062 963.444 188.464 961.286 186.725 959.114C185.302 960.046 184.128 961.26 183.289 962.665C183.139 963.107 182.99 963.553 182.82 963.996C182.867 963.526 183.027 963.071 183.289 962.665C184.757 958.228 184.77 953.78 184.77 949.354C180.867 951.785 182.82 956.673 178.912 959.114C178.912 953.01 182.82 948.129 180.867 942.022C178.912 944.463 176.957 946.903 176.957 949.354C176.957 943.584 182.173 937.81 177.817 932.056C177.816 932.339 177.736 932.617 177.586 932.864C177.435 933.111 177.219 933.32 176.957 933.47C176.957 931.703 174.927 929.305 174.533 927.194C171.46 925.919 178.819 915.911 176.957 914.745C173.046 913.527 169.136 923.698 169.136 926.148C167.173 924.499 166.544 922.739 166.56 920.922C164.643 926.068 163.275 931.383 163.275 937.126C165.238 934.695 167.188 932.247 169.141 929.823C170.921 932.033 167.884 934.243 168.755 936.455C168.989 935.878 169.146 935.918 169.146 937.133Z" fill="#DEDEDE"/>
<path d="M175.009 927.372C174.85 927.323 174.694 927.266 174.543 927.2C174.937 929.32 176.967 931.709 176.967 933.476C177.229 933.326 177.445 933.118 177.596 932.871C177.746 932.624 177.826 932.346 177.827 932.063C177.563 931.707 177.276 931.366 176.967 931.043C176.967 930.22 177.853 931.069 177.827 932.063C182.183 937.823 176.967 943.59 176.967 949.36C176.967 946.91 178.922 944.469 180.877 942.028C182.83 948.135 178.922 953.016 178.922 959.121C182.83 956.68 180.877 951.791 184.78 949.36C184.78 953.787 184.78 958.235 183.299 962.671C184.138 961.266 185.312 960.052 186.735 959.121C188.469 961.281 184.066 963.451 184.417 966.476C184.973 965.653 186.735 964.827 186.735 964.002V967.668C186.735 966.443 190.648 965.227 190.648 964.002C192.506 965.18 189.061 967.427 192.112 967.642C192.127 966.73 192.601 965.825 192.601 965.227V967.668C192.437 967.668 192.274 967.66 192.112 967.642C192.112 968.57 192.583 969.491 194.556 970.106C196.509 970.106 192.601 966.443 196.509 967.668C198.464 968.881 194.556 971.331 198.464 971.331C196.967 968.53 201.177 970 202.369 969.762V968.881C202.825 969.458 202.74 969.689 202.369 969.762V971.331C204.322 970.106 204.322 968.881 204.322 967.668C208.235 967.668 204.322 971.331 206.282 971.331C210.19 971.331 206.282 968.881 208.235 967.668V970.099C209.573 969.093 210.831 968 211.999 966.829C210.688 958.819 205.162 947.223 201.357 937.585C196.341 924.863 190.208 902.303 177.601 906.508C175.21 907.307 171.964 910.157 168.76 915.515C167.987 917.305 167.242 919.105 166.565 920.933C166.565 922.75 167.183 924.517 169.141 926.159C169.141 923.711 173.051 922.495 175.733 916.309C175.733 919.52 171.464 925.93 174.538 927.205C174.388 926.378 175.009 926.154 175.009 927.372Z" fill="#EBEBEB"/>
<path d="M2.81447 1052.3C2.8124 1054 3.00669 1055.69 3.39408 1057.35C4.21327 1055.85 4.37041 1054.25 2.81447 1052.3Z" fill="#ECECEC"/>
<path d="M112.843 1079.84C114.085 1079.32 115.288 1078.79 116.45 1078.24C119.492 1076.76 121.282 1074.18 122.14 1070.81C112.851 1074.25 102.281 1076.87 92.5515 1079.84H112.843Z" fill="#D1D1D1"/>
<path d="M68.5117 1079.84H81.9073C84.7409 1077.01 89.6045 1074.6 92.5052 1070.98C81.1396 1070.98 73.1589 1075.17 68.5117 1079.84Z" fill="#D1D1D1"/>
<path d="M36.1596 1079.84H67.0363C67.8451 1075.13 71.6294 1070.68 75.411 1068.32C62.5977 1068.32 58.3266 1070.98 58.3266 1078.98V1062.98C45.5132 1065.65 54.058 1076.31 45.5132 1076.31C36.9684 1076.31 45.5132 1068.32 41.2447 1062.98C45.0547 1067.73 35.2863 1074.62 36.1596 1079.84Z" fill="#D1D1D1"/>
<path d="M62.5996 1060.31C62.155 1059.49 61.8782 1058.6 61.783 1057.69C61.1905 1058.56 61.2085 1059.43 62.5996 1060.31Z" fill="#D1D1D1"/>
<path d="M59.3564 1049.4C58.7278 1050.5 58.3259 1051.52 58.3259 1052.3C58.7149 1051.33 59.0498 1050.36 59.3564 1049.4Z" fill="#FDE8DD"/>
<path d="M101.04 1062.98V1064.89C101.841 1064.73 102.045 1064.23 101.04 1062.98Z" fill="#FDE8DD"/>
<path d="M79.6791 1054.98C79.6791 1056.3 78.6487 1058.28 78.6204 1060.27C78.9475 1060.28 79.285 1060.31 79.6791 1060.31V1054.98Z" fill="#E1E1E1"/>
<path d="M267.368 920.987C267.473 920.801 267.533 920.596 267.544 920.386C267.489 920.584 267.428 920.78 267.368 920.987Z" fill="#D1D1D1"/>
<path d="M258.123 935.828C258.121 936.298 258.177 936.767 258.288 937.225C258.421 937.005 258.476 936.753 258.447 936.503C258.417 936.253 258.304 936.017 258.123 935.828Z" fill="#D1D1D1"/>
<path d="M279.319 944.655C279.319 943.185 281.676 942.452 282.848 940.982C279.319 940.982 276.964 942.452 275.787 943.925C275.787 942.452 276.964 940.982 278.142 940.242C274.605 940.242 273.433 940.982 273.433 943.185V938.772C269.898 939.503 272.255 942.452 269.898 942.452C267.541 942.452 269.898 940.242 268.716 938.772C269.633 939.905 267.74 941.484 267.369 942.822C266.887 942.266 266.437 941.688 266.021 941.09C265.658 938.607 267.544 936.308 267.544 933.62C267.544 935.823 265.184 937.3 265.184 939.51C264.012 935.097 266.366 931.424 267.544 927.011C266.366 929.214 264.012 931.424 264.012 934.367C262.891 929.452 266.047 925.205 267.361 920.99C266.663 922.262 264.164 923.537 265.176 924.802C262.216 922.945 264.226 921.096 264.944 919.239C264.414 917.908 266.233 916.568 265.176 915.246L261.647 919.649C261.647 914.966 263.152 910.751 264.944 906.619C262.111 911.352 259.161 918.549 256.938 925.789C255.77 929.526 254.83 933.319 254.122 937.151C252.242 942.829 261.758 945.762 271.962 945.937C278.402 946.059 285.143 945.072 289.445 942.987C290.28 942.584 290.775 941.868 291.012 940.94C287.266 942.327 282.737 943.241 279.319 944.655Z" fill="#D1D1D1"/>
<path d="M288.737 939.508V938.045C287.558 938.777 289.915 940.248 287.558 940.248C286.386 940.248 288.737 938.045 286.386 938.045C286.386 938.777 286.385 939.508 285.208 940.248V939.305C284.484 939.454 281.95 938.565 282.849 940.248C280.494 940.248 282.849 938.777 281.676 938.045C279.319 937.305 281.676 939.508 280.494 939.508C279.309 939.138 279.018 938.58 279.023 938.021C277.186 937.899 279.26 936.542 278.142 935.828C278.142 936.568 275.788 937.305 275.788 938.045V935.828C275.788 936.327 274.721 936.822 274.381 937.324C274.412 937.574 274.488 937.817 274.605 938.045C274.229 937.809 274.219 937.559 274.381 937.324C274.18 935.507 276.831 934.193 275.788 932.895C274.932 933.453 274.227 934.183 273.727 935.029C273.634 935.303 273.546 935.564 273.443 935.828C273.471 935.546 273.568 935.273 273.727 935.029C274.613 932.353 274.615 929.681 274.615 927.019C272.266 928.482 273.443 931.432 271.086 932.909C271.086 929.227 273.443 926.286 272.266 922.604C271.086 924.074 269.909 925.554 269.909 927.024C269.909 923.549 273.054 920.074 270.424 916.599C270.424 916.771 270.377 916.939 270.287 917.09C270.197 917.241 270.067 917.368 269.909 917.461C269.909 916.392 268.685 914.945 268.448 913.67C266.594 912.907 271.024 906.876 269.909 906.179C267.554 905.439 265.195 911.569 265.195 913.048C264.699 912.661 264.303 912.177 264.036 911.633C263.769 911.089 263.637 910.497 263.649 909.901C262.495 913.006 261.678 916.203 261.678 919.662L265.208 915.258C266.277 916.58 264.435 917.921 264.976 919.252C265.123 918.914 265.201 918.555 265.208 918.191V919.662C265.11 919.536 265.032 919.398 264.976 919.252C264.257 921.108 262.248 922.957 265.208 924.814C264.195 923.549 266.694 922.274 267.392 921.002C267.451 920.795 267.513 920.599 267.567 920.401C267.557 920.611 267.497 920.816 267.392 921.002C266.071 925.217 262.915 929.465 264.043 934.379C264.043 931.436 266.398 929.227 267.575 927.024C266.398 931.436 264.043 935.109 265.215 939.522C265.215 937.319 267.575 935.842 267.575 933.632C267.575 937.312 264.043 940.255 267.575 943.937C266.398 942.465 269.93 940.255 268.747 938.785C269.93 940.255 267.575 942.465 269.93 942.465C272.284 942.465 269.93 939.515 273.464 938.785V943.197C273.464 940.994 274.636 940.255 278.173 940.255C276.996 940.994 275.818 942.465 275.818 943.937C276.996 942.465 279.35 940.994 282.879 940.994C281.707 942.465 279.35 943.197 279.35 944.667C282.769 943.237 287.297 942.335 291.051 940.945C291.285 940.017 291.249 938.858 291.033 937.543C290.323 938.25 289.556 938.907 288.737 939.508Z" fill="#D7D7D7"/>
<path d="M268.716 913.764C268.62 913.735 268.527 913.699 268.438 913.656C268.675 914.931 269.899 916.377 269.899 917.447C270.057 917.354 270.187 917.226 270.277 917.076C270.367 916.925 270.414 916.756 270.414 916.584C270.257 916.371 270.085 916.167 269.899 915.974C269.899 915.475 270.429 915.974 270.414 916.584C273.044 920.059 269.899 923.534 269.899 927.009C269.899 925.539 271.076 924.06 272.256 922.59C273.433 926.272 271.076 929.212 271.076 932.894C273.433 931.422 272.256 928.472 274.605 927.005C274.605 929.676 274.605 932.348 273.716 935.015C274.216 934.169 274.921 933.439 275.777 932.88C276.82 934.178 274.17 935.493 274.371 937.309C274.711 936.808 275.777 936.313 275.777 935.813V938.03C275.777 937.291 278.132 936.553 278.132 935.813C279.25 936.52 277.176 937.884 279.013 938.007C279.013 937.472 279.309 936.923 279.309 936.553V938.03C279.21 938.032 279.11 938.024 279.013 938.007C279.013 938.565 279.299 939.124 280.484 939.493C281.666 939.493 279.309 937.291 281.666 938.03C282.838 938.763 280.484 940.233 282.838 940.233C281.939 938.549 284.474 939.437 285.198 939.291V938.765C285.471 939.109 285.419 939.251 285.198 939.291V940.233C286.375 939.493 286.375 938.763 286.375 938.03C288.727 938.03 286.375 940.233 287.547 940.233C289.904 940.233 287.547 938.763 288.727 938.03V939.493C289.535 938.889 290.292 938.23 290.991 937.521C290.219 932.692 286.883 925.714 284.585 919.904C281.558 912.238 277.866 898.639 270.27 901.179C268.827 901.65 266.872 903.372 264.942 906.598C264.473 907.681 264.023 908.765 263.616 909.868C263.603 910.464 263.735 911.056 264.003 911.6C264.27 912.144 264.665 912.627 265.161 913.015C265.161 911.536 267.521 910.803 269.131 907.081C269.131 909.012 266.555 912.874 268.415 913.637C268.343 913.166 268.716 913.034 268.716 913.764Z" fill="#E7E7E7"/>
</g>
</g>
<defs>
<clipPath id="clip0_1244_531">
<rect width="639" height="1080" fill="white"/>
</clipPath>
<clipPath id="clip1_1244_531">
<rect width="7.28106" height="6.31521" fill="white" transform="translate(278.631 579.856)"/>
</clipPath>
</defs>
</svg>
