<svg width="853" height="1440" viewBox="0 0 853 1440" fill="none" xmlns="http://www.w3.org/2000/svg">
<g clip-path="url(#clip0_1244_679)">
<rect width="853" height="1440" fill="white"/>
<rect x="1" y="1" width="849" height="1439" fill="#F97738"/>
<g style="mix-blend-mode:multiply" opacity="0.63">
<path fill-rule="evenodd" clip-rule="evenodd" d="M853.426 1166.9C849.735 1164.52 841.049 1146.3 831.658 1145.25C815.345 1143.39 812.211 1152.55 794.87 1153.66C777.529 1154.77 764.675 1170.83 747.348 1169.71C730.021 1168.6 737.154 1168.23 724.912 1167.11C712.67 1165.99 715.738 1164.52 705.541 1163.77C695.343 1163.03 690.241 1164.52 690.241 1164.52C685.825 1163.77 681.323 1164.14 676.909 1163.41C676.909 1163.41 670.87 1163.4 660.682 1164.89C658.358 1165.23 656.701 1164.42 655.494 1164.21C650.526 1163.34 643.065 1162.69 632.342 1163.82C518.996 1166.51 436.35 1166.09 432.32 1165.26C426.093 1163.97 423.219 1163.21 423.219 1163.21C420.69 1162.58 422.392 1162.89 414.993 1161.91C403.775 1160.42 323.125 1132.18 239.424 1165.4C234.861 1168.02 203.964 1167.12 192.753 1165.26C181.542 1163.39 169.331 1160.07 169.331 1160.07C169.331 1160.07 159.13 1159.32 143.837 1157.46C128.544 1155.6 86.6921 1159.25 75.4776 1158.5C72.4197 1158.3 75.4776 1158.5 59.9321 1159.1C50.6132 1159.46 38.6688 1158.94 29.035 1160.21C23.7702 1160.91 13.5311 1158.9 8.43926 1159.64C7.65403 1159.75 6.88955 1159.85 6.11816 1159.95V1223.85C165.554 1215.35 828.766 1275.57 850.15 1275.89C851.253 1275.88 852.353 1275.78 853.433 1275.6L853.426 1166.9Z" fill="#F8F8F8"/>
<path fill-rule="evenodd" clip-rule="evenodd" d="M853.433 1235.82C802.547 1227.99 744.654 1220.76 681.805 1215.8C483.238 1200.12 369.325 1202.37 225.869 1208.09C150.146 1211.1 75.5722 1216.26 6.14233 1222.29V1264.41C94.0846 1264.33 186.324 1264.84 269.579 1266.41C292.7 1266.3 436.789 1265.04 460.572 1265.24C635.357 1266.76 755.413 1298.93 853.433 1312.3V1235.82Z" fill="#ECECEC"/>
<path d="M598.555 1213.98C621.402 1215.17 651.438 1216.8 685.415 1219.74C653.044 1216.44 626.457 1214.71 613.304 1214.29L598.555 1213.98Z" fill="#BFBFBF"/>
<path d="M477.694 1211.97C475.489 1211.85 473.612 1211.76 472.081 1211.69C471.657 1211.74 473.612 1211.81 477.694 1211.97Z" fill="#D1D1D1"/>
<path d="M502.884 1272.02C480.019 1266.97 520.69 1278.14 502.884 1272.02V1272.02Z" fill="#D1D1D1"/>
<path d="M441.871 1270.47C417.53 1265.81 461.465 1276.3 441.871 1270.47V1270.47Z" fill="#D1D1D1"/>
<path d="M380.54 1269.9C354.874 1265.62 401.823 1275.41 380.54 1269.9V1269.9Z" fill="#D1D1D1"/>
<g opacity="0.5">
<path d="M853.433 1239.75C767.193 1225.38 671.642 1217.28 658.927 1216.07C676.604 1218.07 776.326 1228.72 853.433 1242.33V1239.75Z" fill="#D8D8D8"/>
<path d="M853.433 1248.81V1244.75C795.859 1231.52 736.226 1224.18 685.415 1219.74C736.818 1225.02 802.82 1234.27 852.82 1248.63L853.433 1248.81Z" fill="#D8D8D8"/>
<path d="M853.433 1260.98V1254.21C847.128 1252.5 840.569 1250.82 833.757 1249.17C731.993 1225.11 625.035 1217.63 602.267 1216.03C628.977 1218.28 724.223 1227.4 783.366 1241.46C797.513 1244.44 825.38 1251.53 853.433 1260.98Z" fill="#D8D8D8"/>
<path d="M853.433 1265.91C850.043 1264.8 846.584 1263.69 843.095 1262.58C820.477 1255.38 794.643 1248.62 764.573 1242.26C659.68 1220.74 578.563 1215.58 557.287 1214.34C582.165 1216.14 649.462 1222.5 711.861 1235.34C731.743 1239.03 777.75 1249.39 817.456 1263.05C830.342 1267.41 842.571 1272.11 853.433 1276.98V1265.91Z" fill="#D8D8D8"/>
<path d="M853.433 1281.37C851.173 1280.22 848.831 1279.07 846.341 1277.95C828.76 1269.97 804.331 1262.74 778.195 1255.54C753.345 1248.71 725.439 1242.37 693.414 1236.49C581.973 1216.7 499.418 1212.87 477.676 1211.97C503.116 1213.36 572.289 1218.62 638.623 1230.43C683.374 1236.72 828.431 1270.05 846.369 1300.93C848.568 1302.16 850.932 1303.17 853.413 1303.94L853.433 1281.37Z" fill="#D8D8D8"/>
<path d="M367.246 1209.48C386.481 1209.97 487.99 1215.06 564.077 1226.72C610.776 1232.26 766.258 1263.29 793.222 1293.89C801.098 1300.97 778.997 1287.42 793.222 1293.89C810.282 1301.97 831.551 1298.07 850.19 1305.43C831.883 1294.26 814.771 1281.88 786.26 1270.89C766.247 1263.18 739.636 1256.34 711.306 1249.58C684.363 1243.13 654.492 1237.23 620.649 1231.88C481.001 1210.53 364.667 1209.82 367.242 1209.48H367.246Z" fill="#D8D8D8"/>
<path d="M311.428 1211.1C330.776 1211.27 408.842 1213.82 488.549 1224.24C536.953 1229 702.122 1257.5 738.061 1287.71C748.026 1294.66 721.967 1281.46 738.061 1287.71C757.468 1295.52 777.565 1291.29 798.331 1298.35C776.802 1287.46 756.002 1275.35 724.162 1264.8C701.824 1257.41 673.121 1251 642.729 1244.68C613.814 1238.68 582.117 1233.28 546.637 1228.48C400.398 1209.41 308.949 1211.48 311.432 1211.11L311.428 1211.1Z" fill="#D8D8D8"/>
<path d="M231.4 1212.78C250.741 1212.63 329.509 1213.88 412.442 1222.97C462.304 1226.93 636.36 1252.74 681.179 1282.4C693.185 1289.19 663.262 1276.4 681.179 1282.4C702.855 1289.91 721.662 1285.34 744.476 1292.07C719.792 1281.53 695.383 1269.74 660.348 1259.7C635.775 1252.66 605.133 1246.72 572.813 1240.91C542.045 1235.37 508.705 1230.48 471.745 1226.27C319.637 1209.61 229.01 1213.21 231.4 1212.78V1212.78Z" fill="#D8D8D8"/>
<path d="M152.108 1215.78C171.363 1215.31 250.419 1215.26 336.145 1222.96C387.203 1226.11 569.303 1249.04 622.833 1278C636.839 1284.59 603.171 1272.28 622.833 1278C646.684 1285.16 664.104 1280.28 688.87 1286.67C661.132 1276.5 633.213 1265.11 595.137 1255.64C568.427 1248.99 536.001 1243.54 501.911 1238.26C469.458 1233.23 434.621 1228.89 396.367 1225.28C239.17 1211.14 149.861 1216.26 152.108 1215.78V1215.78Z" fill="#D8D8D8"/>
<path d="M74.0003 1220.07C93.064 1219.29 171.973 1217.92 260.059 1224.21C285.146 1225.68 346.638 1230.78 408.065 1239.63C469.759 1248.36 531.375 1260.84 563.304 1274.55C579.251 1280.92 541.987 1269.15 563.304 1274.55C589.247 1281.32 605.171 1276.17 631.792 1282.15C601.109 1272.44 569.81 1261.49 528.864 1252.64C500.165 1246.43 466.088 1241.49 430.382 1236.77C396.401 1232.28 360.243 1228.51 320.9 1225.55C159.415 1214 71.908 1220.6 74.0003 1220.08V1220.07Z" fill="#D8D8D8"/>
<path d="M461.815 1250.69C431.241 1244.95 395.689 1240.59 358.565 1236.45C323.219 1232.51 285.916 1229.35 245.69 1227.03C112.789 1219.9 31.6302 1223.74 6.14233 1225.2C34.2636 1224.06 104.858 1222.44 184.575 1226.71C210.093 1227.77 273.14 1231.85 337.238 1239.68C401.572 1247.4 466.944 1258.84 502.884 1272.04C530.792 1278.39 545.158 1273 573.457 1278.55C539.997 1269.31 505.411 1258.87 461.815 1250.69Z" fill="#D8D8D8"/>
<path d="M394.357 1249.84C362.065 1244.59 325.215 1240.82 286.831 1237.3C250.316 1233.94 212.052 1231.38 171.154 1229.73C101.444 1227.19 46.4613 1227.33 6.13208 1228.34V1229.36C36.1402 1228.92 71.8807 1229.03 110.059 1230.41C135.897 1231.05 200.156 1234.08 266.596 1240.85C333.238 1247.49 402.076 1257.89 441.861 1270.48C471.581 1276.39 484.323 1270.77 514.201 1275.86C478.087 1267.17 440.419 1257.3 394.357 1249.84Z" fill="#D8D8D8"/>
<path d="M326.807 1250.06C292.957 1245.35 255.001 1242.18 215.579 1239.28C178.061 1236.53 139.064 1234.63 97.6836 1233.64C63.532 1232.98 33.0445 1232.88 6.14233 1233.15V1234.98C16.1519 1235.01 26.4354 1235.13 36.9209 1235.33C62.9464 1235.54 128.082 1237.49 196.536 1243.16C265.154 1248.71 337.084 1257.97 380.54 1269.9C411.952 1275.33 422.961 1269.51 454.305 1274.13C415.691 1266.03 375.102 1256.77 326.807 1250.06Z" fill="#D8D8D8"/>
<path d="M257.358 1252.39C222.111 1248.24 183.233 1245.7 142.983 1243.46C104.66 1241.32 65.1085 1240.07 23.4986 1239.77C16.8438 1239.75 10.3443 1239.75 4 1239.77V1242.73C36.1415 1243.3 79.7342 1244.68 125.224 1247.62C195.459 1252.03 270.145 1260.11 317.052 1271.33C349.999 1276.24 359.251 1270.27 391.889 1274.36C350.951 1266.9 307.632 1258.31 257.358 1252.39Z" fill="#D8D8D8"/>
</g>
<path d="M319.191 1270.32C292.306 1266.47 342.073 1275.49 319.191 1270.32V1270.32Z" fill="#D1D1D1"/>
<path d="M192.81 1253.79C156.347 1250.22 116.74 1248.32 75.8461 1246.74C52.9985 1245.88 29.805 1245.31 6.14233 1245.05V1249.24C23.1616 1249.69 41.1192 1250.31 59.4466 1251.18C130.948 1254.42 207.984 1261.26 258.134 1271.72C292.457 1276.09 299.912 1269.98 333.673 1273.54C290.652 1266.75 244.813 1258.88 192.81 1253.79Z" fill="#BFBFBF"/>
<path d="M258.134 1271.72C230.164 1268.29 282.489 1276.49 258.134 1271.72V1271.72Z" fill="#D1D1D1"/>
<path d="M197.645 1274.09C168.726 1271.13 223.363 1278.45 197.645 1274.09V1274.09Z" fill="#D1D1D1"/>
<path d="M127.014 1257.26C89.5301 1254.3 49.4097 1253.05 8.09083 1252.15L6.13208 1252.12V1257.26C74.8257 1259.58 147.677 1265.05 197.635 1274.1C233.17 1277.92 238.783 1271.69 273.53 1274.72C228.616 1268.61 180.489 1261.5 127.014 1257.26Z" fill="#D1D1D1"/>
<path fill-rule="evenodd" clip-rule="evenodd" d="M308.456 1268.52C213.103 1248.35 135.308 1235.95 6.14233 1247.27V1356.03C39.657 1358.68 77.2741 1361.7 120.562 1364.97C138.027 1366.31 243.026 1379.29 259.901 1381.21C460.366 1390.7 727.792 1430.35 727.792 1430.35C727.792 1430.35 529.905 1315.33 308.456 1268.52Z" fill="#E3E3E3"/>
<path d="M245.032 1268.24C243.892 1268.15 242.454 1268.07 240.783 1267.99C243.851 1268.25 245.303 1268.39 245.032 1268.24Z" fill="#D8D8D8"/>
<path d="M303.086 1277.42C301.939 1277.28 300.494 1277.13 298.802 1276.98C301.891 1277.37 303.35 1277.59 303.086 1277.42Z" fill="#D8D8D8"/>
<path d="M6.13185 1254.53C16.5831 1253.8 26.0242 1253.39 34.212 1253.07L23.3429 1252.6C19.2508 1252.54 13.3676 1252.78 6.11816 1253.37L6.13185 1254.53Z" fill="#D8D8D8"/>
<path d="M6.13208 1260.6C16.9909 1258.72 25.6957 1257.5 30.9145 1256.84C26.5073 1257.23 17.9018 1257.98 6.13208 1259.6V1260.6Z" fill="#D8D8D8"/>
<path d="M6.13208 1267.19C31.9966 1260.78 53.5978 1257.77 64.347 1256.77C56.1284 1257.24 35.6162 1258.64 6.13208 1264.84V1267.19Z" fill="#D8D8D8"/>
<path d="M6.13208 1280.74C56.0942 1263.75 105.032 1258.72 123.247 1257.88C110.309 1258.02 67.8228 1259.07 6.13208 1275.83V1280.74Z" fill="#D8D8D8"/>
<path d="M12.9809 1287.01C10.6694 1287.73 8.40589 1288.47 6.13208 1289.21V1297.88C27.1545 1289.08 45.2662 1283.11 55.8168 1280.87C108.638 1265.08 174.866 1261.26 198.306 1260.96C176.729 1260.57 102.741 1260.25 12.9809 1287.01Z" fill="#D8D8D8"/>
<path d="M68.083 1285.61C46.8786 1290.97 26.1729 1297.62 6.13208 1305.5V1318.26C48.807 1297.98 92.6874 1284.5 111.761 1281.41C168.107 1267.74 221.514 1267.16 240.772 1267.98C224.496 1266.72 162.586 1262.72 68.083 1285.61Z" fill="#D8D8D8"/>
<path d="M123.476 1286.69C95.2486 1292.37 69.48 1299.66 45.3995 1308.4C31.8183 1313.35 18.5795 1318.4 6.13867 1323.91V1340.93C62.775 1308.53 140.619 1287.54 167.771 1284.48C225.914 1273.44 279.55 1275.29 298.799 1276.99C282.574 1274.96 220.935 1268.19 123.476 1286.69Z" fill="#D8D8D8"/>
<path d="M178.89 1290.22C149.878 1294.61 123.168 1300.68 98.0055 1308.32C71.5759 1316.34 46.2969 1324.8 24.8841 1336.03C18.3366 1339.48 12.1282 1343.14 6.14233 1346.92V1370.48C59.5186 1321.62 187.293 1292.38 223.572 1290.01C283.18 1281.67 336.772 1285.96 355.925 1288.51C339.799 1285.76 278.77 1276.26 178.89 1290.22Z" fill="#D8D8D8"/>
<path d="M360.216 1289.14C359.072 1288.96 357.624 1288.75 355.928 1288.52C359.01 1289.05 360.459 1289.32 360.216 1289.14Z" fill="#D8D8D8"/>
<path d="M42.7935 1375.9C29.3081 1387.39 59.9155 1366.75 42.7935 1375.9V1375.9Z" fill="#D8D8D8"/>
<path d="M416.119 1303.37C414.992 1303.14 413.534 1302.86 411.842 1302.55C414.903 1303.23 416.345 1303.56 416.119 1303.37Z" fill="#D8D8D8"/>
<path d="M234.009 1296.22C205.829 1299.07 177.982 1303.87 150.755 1310.57C123.298 1317.37 96.9919 1324.65 74.223 1334.89C48.3858 1346.52 26.6443 1361.21 6.14233 1375.33V1381.72C18.2202 1380.65 27.7161 1384.25 42.7835 1375.89C70.0315 1350.99 118.638 1330.72 166.244 1317.87C213.672 1304.79 260.09 1299.14 278.859 1298.02C339.611 1292.46 392.892 1299.14 411.832 1302.55C395.915 1299.07 335.803 1286.88 234.009 1296.22Z" fill="#D8D8D8"/>
<path d="M470.509 1320.02C457.085 1316.48 400.548 1305.45 333.368 1308.47C314.397 1308.71 267.133 1312.22 218.041 1323.09C168.791 1333.73 117.727 1351.73 87.6877 1375.31C72.9182 1386.16 105.837 1366.95 87.6877 1375.31C65.4873 1385.9 56.5084 1374.14 34.2361 1383.1C61.3334 1367.22 89.5814 1349.01 123.795 1335.93C147.783 1326.74 175.031 1320.68 203.354 1315.16C231.37 1309.73 259.871 1306.21 288.574 1304.65C411.719 1299.09 471.78 1321.26 470.509 1320.02V1320.02Z" fill="#D8D8D8"/>
<path d="M523.104 1339C510.057 1334.87 454.616 1321.34 386.813 1321.29C367.739 1320.67 319.879 1321.99 269.356 1330.6C218.722 1338.95 165.435 1354.58 132.756 1376.7C116.778 1386.85 151.885 1369.19 132.756 1376.7C109.343 1386.27 101.628 1374.18 78.332 1382.13C107.217 1367.51 137.574 1350.65 173.38 1339.16C198.484 1331.11 226.503 1326.29 255.566 1322.07C284.226 1317.95 313.235 1315.75 342.316 1315.5C466.557 1315.58 524.234 1340.33 523.104 1339.04V1339Z" fill="#D8D8D8"/>
<path d="M573.625 1360.18C561.033 1355.51 506.945 1339.53 438.891 1336.37C419.804 1334.89 371.612 1334.02 319.938 1340.31C268.181 1346.31 212.945 1359.45 177.767 1380.02C160.644 1389.41 197.762 1373.4 177.767 1380.02C153.258 1388.51 146.851 1376.15 122.634 1383.02C153.169 1369.76 185.489 1354.34 222.715 1344.52C248.806 1337.63 277.478 1334.1 307.127 1331.23C336.269 1328.42 365.633 1327.54 394.942 1328.6C519.656 1334.34 574.642 1361.53 573.635 1360.18L573.625 1360.18Z" fill="#D8D8D8"/>
<path d="M621.841 1383.48C609.739 1378.28 557.314 1359.96 489.374 1353.71C470.389 1351.36 422.105 1348.3 369.54 1352.21C316.918 1355.84 260.021 1366.44 222.517 1385.32C204.309 1393.89 243.276 1379.62 222.517 1385.32C197.026 1392.68 191.961 1380.12 166.918 1385.89C198.964 1374.04 233.091 1360.14 271.537 1352.05C298.501 1346.37 327.656 1344.15 357.736 1342.62C387.211 1341.15 416.78 1341.61 446.168 1344C570.69 1355.37 622.679 1384.85 621.841 1383.47V1383.48Z" fill="#D8D8D8"/>
<path d="M667.467 1408.74C655.937 1403.02 605.451 1382.45 537.977 1373.16C519.19 1369.97 471.091 1364.72 417.893 1366.23C364.702 1367.46 306.415 1375.42 266.764 1392.54C247.587 1400.26 288.197 1387.79 266.764 1392.54C240.43 1398.73 236.708 1386.04 211 1390.67C244.399 1380.29 280.174 1368 319.636 1361.68C347.326 1357.25 376.824 1356.36 407.171 1356.22C436.824 1356.08 466.444 1357.87 495.761 1361.59C619.423 1378.56 668.159 1410.15 667.467 1408.73V1408.74Z" fill="#D8D8D8"/>
<path d="M710.299 1435.82C699.393 1429.65 651.119 1406.97 584.476 1394.64C565.985 1390.61 518.313 1383.21 464.797 1382.29C411.277 1381.11 351.918 1386.4 310.335 1401.65C290.275 1408.46 332.324 1397.88 310.335 1401.65C283.259 1406.64 280.923 1393.88 254.661 1397.35C289.248 1388.51 326.464 1377.89 366.773 1373.38C395.028 1370.24 424.724 1370.66 455.198 1371.89C484.868 1373.09 514.38 1376.22 543.466 1381.25C665.604 1403.74 710.827 1437.28 710.299 1435.82Z" fill="#D8D8D8"/>
<path fill-rule="evenodd" clip-rule="evenodd" d="M853.433 1307.29C830.974 1299.1 807.957 1292.01 784.5 1286.08C583.689 1235.36 468.711 1243.9 323.989 1264.36C211.1 1280.33 100.79 1311.79 6.12866 1345.38V1439.48H853.433V1307.29Z" fill="#E5E5E5"/>
<path d="M262.723 1292.41C260.374 1292.53 258.384 1292.67 256.809 1292.79C256.456 1293.05 258.47 1292.8 262.723 1292.41Z" fill="#D8D8D8"/>
<path d="M853.433 1309.57C822.86 1298.31 795.746 1290.32 776.727 1285.08C802.963 1292.83 828.584 1301.96 853.433 1312.41V1309.57Z" fill="#D1D1D1"/>
<path d="M853.433 1325.6C742.006 1273.01 650.869 1270.33 607.708 1270.33C634.049 1272.87 729.716 1265.65 853.433 1333.29V1325.6Z" fill="#D1D1D1"/>
<path d="M853.434 1345.76C785.668 1308.62 729.278 1294.7 711.934 1290.55C734.781 1297.02 799.157 1318.55 853.434 1352.42V1345.76Z" fill="#D1D1D1"/>
<path d="M853.434 1368.45C753.636 1303.72 677.268 1288.31 656.808 1284.56C681.398 1290.21 747.976 1310.44 809.834 1351.91C819.446 1357.71 835.223 1368.65 853.434 1383.48V1368.45Z" fill="#D1D1D1"/>
<path d="M853.433 1398.54C834.095 1383.09 813.447 1368.82 791.65 1355.85C681.203 1292.02 599.613 1280.23 578.152 1277.52C603.294 1281.82 671.704 1298.4 737.445 1336.49C760.108 1346.81 808.8 1380.05 853.433 1423.55V1398.54Z" fill="#D1D1D1"/>
<path d="M853.433 1435.11C839.849 1422.54 824.973 1410.47 809.577 1398.47C782.849 1377.64 753.228 1358.63 719.714 1341.4C604.965 1284.44 506.373 1273.85 477.546 1271.25C508.708 1275.27 596.24 1291.41 663.759 1324.99C693.479 1336.4 767.861 1381.88 824.388 1439.48H853.433V1435.11Z" fill="#D1D1D1"/>
<path d="M777.904 1439.48H814.128C793.366 1419.08 768.213 1400.95 741.78 1383.07C712.202 1363.08 680.312 1345.59 646.582 1330.87C524.93 1279.53 441.823 1276.69 419.801 1276.33C445.669 1277.89 516.65 1286.86 589.141 1317.49C622.923 1328.21 714.317 1377.04 777.904 1439.48Z" fill="#D1D1D1"/>
<path d="M729.395 1439.48H767.104C764.618 1436.98 762.087 1434.5 759.481 1432.05C735.072 1409.23 704.691 1390.05 672.673 1371.31C641.25 1352.93 607.729 1337.18 572.598 1324.3C439.868 1277.41 354.689 1281.66 338.026 1282.34C371.77 1282.95 434.327 1285.91 513.989 1314.05C551.411 1323.57 659.746 1373.64 729.395 1439.48Z" fill="#D1D1D1"/>
<path d="M438.662 1314.71C479.231 1322.57 603.606 1371.59 678.628 1439.48H717.638C710.481 1432.54 702.975 1425.8 695.013 1419.33C668.522 1397.83 636.387 1380.3 602.613 1363.29C569.507 1346.63 534.525 1332.72 498.168 1321.75C367.777 1284.11 284.827 1290.34 262.73 1292.4C288.783 1291.13 360.873 1292.25 438.662 1314.71Z" fill="#D1D1D1"/>
<path d="M363.561 1319.44C388.368 1324.05 449.171 1340.21 509.999 1368.59C551.16 1387.47 592.308 1411.92 624.504 1439.48H666.046C654.65 1429.19 642.575 1419.27 629.514 1410.05C601.047 1389.98 567.307 1374.2 531.967 1359.05C497.337 1344.2 461.058 1332.2 423.642 1323.22C289.885 1292.79 207.662 1303.53 185.711 1306.81C211.665 1304.12 283.749 1301.29 363.561 1319.44Z" fill="#D1D1D1"/>
<path d="M289.094 1328.23C314.319 1331.46 376.646 1344.26 440.073 1369.32C486.018 1387.12 532.532 1411.3 568.314 1439.48H612.146C596.966 1427.03 580.875 1415.06 563.28 1404.3C532.977 1385.79 497.798 1371.84 461.058 1358.62C425.085 1345.69 387.7 1335.68 349.422 1328.74C212.946 1305.71 131.873 1320.9 110.2 1325.39C135.917 1321.28 207.621 1314.51 289.094 1328.23Z" fill="#D1D1D1"/>
<path d="M215.61 1341.03C241.139 1342.88 304.645 1352.23 370.369 1373.78C419.482 1389.56 469.807 1412.11 508.64 1439.49H555.476C537.199 1426.11 517.828 1413.26 496.678 1402.11C464.688 1385.25 428.238 1373.22 390.272 1362.01C353.157 1351.05 314.863 1343.11 275.921 1338.28C137.465 1322.78 57.9536 1342.35 36.6812 1348.03C61.9807 1342.51 132.931 1331.83 215.61 1341.03Z" fill="#D1D1D1"/>
<path d="M143.502 1357.78C169.185 1358.23 233.544 1364.07 301.241 1382C351.367 1394.96 403.288 1414.53 444.412 1439.48H495.093C474.752 1426.41 453.274 1413.94 429.995 1403.45C396.47 1388.33 358.925 1378.31 319.952 1369.16C281.875 1360.27 242.864 1354.43 203.453 1351.74C110.919 1346.55 45.6908 1355.25 6.13208 1363.7V1365.77C40.2666 1359.9 88.9788 1354.74 143.502 1357.78Z" fill="#D1D1D1"/>
<path d="M233.03 1393.9C281.222 1403.49 331.557 1418.83 373.431 1439.48H429.502C408.723 1428.03 386.92 1417.23 363.61 1408.36C328.722 1395.08 290.29 1387.09 250.488 1380.12C211.652 1373.32 172.126 1369.62 132.448 1369.09C82.1096 1369.03 40.1846 1372.6 6.15625 1377.56V1382.13C28.3648 1379.63 50.7486 1378.37 73.1582 1378.36C98.8618 1377.41 163.71 1379.68 233.03 1393.9Z" fill="#D1D1D1"/>
<path d="M166.079 1409.43C207.806 1415.34 251.477 1425.33 290.474 1439.48H356.035C337.423 1431.01 318.082 1423.19 297.782 1416.81C261.716 1405.45 222.575 1399.57 182.167 1394.77C142.777 1390.11 102.945 1388.59 63.2101 1390.22C42.7493 1391.33 23.7472 1392.95 6.14233 1394.96V1402.6C32.5445 1400.29 96.6049 1399.19 166.079 1409.43Z" fill="#D8D8D8"/>
<path d="M100.731 1428.53C126.78 1430.74 152.623 1434.4 178.089 1439.48H268.972C257.21 1435.5 245.193 1431.86 232.893 1428.76C195.831 1419.38 156.186 1415.64 115.381 1413.06C78.9997 1410.76 42.4469 1411.13 6.14233 1414.16V1425.63C33.7396 1424.89 66.4633 1425.4 100.731 1428.53Z" fill="#D8D8D8"/>
<path d="M213.264 1299C213.262 1299.94 213.377 1300.88 213.606 1301.79C214.117 1300.98 214.213 1300.09 213.264 1299Z" fill="#EBEBEB"/>
<path d="M215.329 1276.41C214.47 1277.83 210.672 1304.52 210.672 1306.4V1278.78C208.098 1286.31 206.022 1293.95 204.453 1301.66C200.303 1313.09 221.294 1318.98 243.813 1319.34C228.63 1316.48 217.562 1285.24 215.329 1276.41Z" fill="#D1D1D1"/>
<path d="M282.389 1313.39C284.225 1312.58 285.327 1311.14 285.844 1309.26C277.551 1312.07 267.568 1313.9 260.028 1316.77C260.028 1313.81 265.223 1312.32 267.822 1309.36C260.028 1309.36 254.809 1312.32 252.231 1315.29C252.231 1312.32 254.826 1309.36 257.432 1307.89C249.631 1307.89 247.039 1309.36 247.039 1313.81V1304.92C239.245 1306.4 244.443 1312.32 239.245 1312.32C234.047 1312.32 239.245 1307.89 236.643 1304.92C239.245 1307.89 231.448 1312.32 234.047 1315.29C226.253 1307.89 234.047 1301.96 234.047 1294.57C234.047 1299 228.849 1301.96 228.849 1306.4C226.253 1297.53 231.448 1290.12 234.047 1281.25C231.448 1285.68 226.253 1290.12 226.253 1296.04C223.781 1286.14 230.763 1277.61 233.657 1269.12C232.116 1271.69 226.609 1274.24 228.862 1276.8C222.318 1273.06 226.76 1269.34 228.349 1265.6C227.191 1262.92 231.229 1260.24 228.862 1257.56C226.267 1260.51 223.674 1263.48 221.065 1266.42C221.065 1256.99 224.38 1248.51 228.349 1240.2C222.116 1249.72 215.582 1264.2 210.686 1278.77V1306.4C210.686 1304.52 209.819 1305.97 210.686 1304.52C210.456 1303.62 216.106 1286.81 216.106 1285.85C218.504 1279.16 215.863 1304.76 215.367 1305.59C217.606 1314.43 228.643 1316.48 243.827 1319.34C258.052 1319.57 272.893 1317.59 282.389 1313.39Z" fill="#D7D7D7"/>
<path d="M228.849 1266.43C228.629 1266.17 228.456 1265.9 228.335 1265.6C226.746 1269.34 222.305 1273.06 228.849 1276.8C226.609 1274.23 232.116 1271.68 233.643 1269.12C233.78 1268.72 233.917 1268.31 234.033 1267.91C234.017 1268.33 233.883 1268.75 233.643 1269.12C230.749 1277.61 223.767 1286.15 226.24 1296.04C226.24 1290.12 231.434 1285.68 234.033 1281.25C231.434 1290.12 226.24 1297.53 228.835 1306.4C228.835 1301.96 234.033 1299 234.033 1294.57C234.033 1301.96 226.24 1307.89 234.033 1315.29C231.434 1312.32 239.232 1307.89 236.629 1304.92C239.232 1307.89 234.033 1312.32 239.232 1312.32C244.43 1312.32 239.232 1306.4 247.026 1304.92V1313.81C247.026 1309.36 249.618 1307.89 257.419 1307.89C254.813 1309.36 252.217 1312.32 252.217 1315.29C254.813 1312.32 260.014 1309.36 267.808 1309.36C265.209 1312.32 260.014 1313.81 260.014 1316.77C268.01 1317.51 275.205 1316.77 285.831 1309.26C286.345 1307.41 286.266 1305.07 285.8 1302.44C284.248 1303.86 282.576 1305.18 280.797 1306.4V1303.45C278.201 1304.92 283.396 1307.89 278.201 1307.89C275.596 1307.89 280.797 1303.45 275.596 1303.45C275.596 1304.92 275.596 1306.4 273 1307.89V1305.99C271.414 1306.27 265.809 1304.49 267.808 1307.89C262.614 1307.89 267.808 1304.92 265.209 1303.45C260.014 1301.96 265.209 1306.4 262.614 1306.4C259.99 1305.66 259.357 1304.54 259.364 1303.42C255.309 1303.16 259.888 1300.42 257.419 1299C257.419 1300.49 252.217 1301.96 252.217 1303.45V1299C252.217 1300.01 249.868 1301 249.135 1302C249.192 1302.5 249.358 1302.99 249.625 1303.45C248.789 1302.96 248.772 1302.48 249.135 1302C248.676 1298.33 254.529 1295.72 252.217 1293.08C250.325 1294.21 248.764 1295.68 247.649 1297.39C247.45 1297.92 247.252 1298.46 247.026 1299C247.088 1298.43 247.301 1297.88 247.649 1297.39C249.601 1292.01 249.618 1286.61 249.618 1281.25C244.43 1284.19 247.026 1290.12 241.831 1293.08C241.831 1285.68 247.026 1279.76 244.43 1272.36C241.831 1275.31 239.232 1278.27 239.232 1281.25C239.232 1274.25 246.166 1267.25 240.375 1260.27C240.374 1260.61 240.268 1260.95 240.068 1261.25C239.868 1261.55 239.58 1261.8 239.232 1261.98C239.232 1259.84 236.533 1256.93 236.009 1254.37C231.924 1252.83 241.708 1240.69 239.232 1239.28C234.033 1237.8 228.835 1250.13 228.835 1253.11C226.226 1251.11 225.39 1248.97 225.411 1246.77C222.863 1253.01 221.045 1259.45 221.045 1266.42C223.654 1263.47 226.246 1260.5 228.842 1257.56C231.208 1260.24 227.171 1262.92 228.328 1265.6C228.64 1264.9 228.849 1264.95 228.849 1266.43Z" fill="#DEDEDE"/>
<path d="M236.643 1254.59C236.431 1254.53 236.224 1254.46 236.023 1254.38C236.547 1256.95 239.245 1259.85 239.245 1261.99C239.594 1261.81 239.881 1261.56 240.081 1261.26C240.281 1260.96 240.387 1260.62 240.389 1260.28C240.038 1259.85 239.656 1259.43 239.245 1259.04C239.245 1258.04 240.423 1259.07 240.389 1260.28C246.18 1267.26 239.245 1274.26 239.245 1281.25C239.245 1278.28 241.844 1275.32 244.444 1272.36C247.039 1279.77 241.844 1285.69 241.844 1293.09C247.039 1290.13 244.443 1284.2 249.631 1281.25C249.631 1286.62 249.631 1292.02 247.662 1297.39C248.777 1295.69 250.339 1294.22 252.231 1293.09C254.535 1295.71 248.683 1298.34 249.149 1302.01C249.888 1301.01 252.231 1300.01 252.231 1299.01V1303.45C252.231 1301.97 257.432 1300.49 257.432 1299.01C259.901 1300.44 255.323 1303.16 259.377 1303.42C259.398 1302.32 260.028 1301.22 260.028 1300.49V1303.45C259.811 1303.46 259.593 1303.44 259.377 1303.42C259.377 1304.55 260.004 1305.67 262.627 1306.41C265.223 1306.41 260.028 1301.97 265.223 1303.45C267.822 1304.93 262.627 1307.9 267.822 1307.9C265.832 1304.5 271.428 1306.28 273.013 1305.99V1304.93C273.619 1305.63 273.506 1305.91 273.013 1305.99V1307.9C275.609 1306.41 275.609 1304.93 275.609 1303.45C280.811 1303.45 275.609 1307.9 278.215 1307.9C283.41 1307.9 278.215 1304.93 280.811 1303.45V1306.4C282.59 1305.18 284.262 1303.86 285.814 1302.44C284.071 1292.72 276.725 1278.66 271.668 1266.97C265 1251.55 256.847 1224.19 240.088 1229.29C236.91 1230.26 232.595 1233.71 228.335 1240.21C227.308 1242.38 226.318 1244.56 225.417 1246.78C225.417 1248.98 226.239 1251.13 228.842 1253.12C228.842 1250.15 234.04 1248.68 237.605 1241.17C237.605 1245.07 231.931 1252.84 236.016 1254.39C235.817 1253.38 236.643 1253.11 236.643 1254.59Z" fill="#EBEBEB"/>
<path d="M7.74172 1406.09C7.73897 1408.14 7.99724 1410.2 8.51221 1412.21C9.60117 1410.4 9.81006 1408.45 7.74172 1406.09Z" fill="#ECECEC"/>
<path d="M154.005 1439.48C155.655 1438.85 157.255 1438.21 158.799 1437.54C162.843 1435.75 165.223 1432.62 166.364 1428.53C154.015 1432.7 139.965 1435.88 127.031 1439.48H154.005Z" fill="#D1D1D1"/>
<path d="M95.0742 1439.48H112.881C116.648 1436.05 123.113 1433.13 126.969 1428.74C111.861 1428.74 101.252 1433.82 95.0742 1439.48Z" fill="#D1D1D1"/>
<path d="M52.067 1439.48H93.112C94.1872 1433.76 99.2177 1428.37 104.245 1425.51C87.2117 1425.51 81.534 1428.74 81.534 1438.44V1419.03C64.501 1422.27 75.8598 1435.2 64.501 1435.2C53.1423 1435.2 64.501 1425.51 58.8268 1419.03C63.8915 1424.8 50.9061 1433.15 52.067 1439.48Z" fill="#D1D1D1"/>
<path d="M87.215 1415.79C86.6241 1414.8 86.2561 1413.73 86.1295 1412.62C85.3419 1413.68 85.3658 1414.74 87.215 1415.79Z" fill="#D1D1D1"/>
<path d="M82.9039 1402.56C82.0684 1403.9 81.5342 1405.13 81.5342 1406.09C82.0513 1404.91 82.4964 1403.74 82.9039 1402.56Z" fill="#FDE8DD"/>
<path d="M138.314 1419.03V1421.35C139.379 1421.16 139.649 1420.55 138.314 1419.03Z" fill="#FDE8DD"/>
<path d="M109.919 1409.34C109.919 1410.93 108.549 1413.34 108.511 1415.74C108.946 1415.76 109.395 1415.79 109.919 1415.79V1409.34Z" fill="#E1E1E1"/>
<path d="M359.418 1246.85C359.557 1246.62 359.636 1246.37 359.651 1246.12C359.579 1246.36 359.496 1246.6 359.418 1246.85Z" fill="#D1D1D1"/>
<path d="M347.127 1264.84C347.125 1265.41 347.198 1265.98 347.346 1266.54C347.523 1266.27 347.597 1265.97 347.558 1265.66C347.518 1265.36 347.368 1265.07 347.127 1264.84Z" fill="#D1D1D1"/>
<path d="M375.304 1275.55C375.304 1273.77 378.437 1272.88 379.995 1271.09C375.304 1271.09 372.174 1272.88 370.609 1274.66C370.609 1272.88 372.174 1271.09 373.739 1270.2C369.037 1270.2 367.479 1271.09 367.479 1273.77V1268.41C362.781 1269.3 365.914 1272.88 362.781 1272.88C359.648 1272.88 362.781 1270.2 361.209 1268.41C362.428 1269.79 359.911 1271.7 359.418 1273.33C358.778 1272.65 358.18 1271.95 357.627 1271.23C357.144 1268.21 359.651 1265.43 359.651 1262.17C359.651 1264.84 356.514 1266.63 356.514 1269.31C354.956 1263.96 358.086 1259.5 359.651 1254.15C358.086 1256.82 354.956 1259.5 354.956 1263.07C353.467 1257.11 357.661 1251.96 359.408 1246.85C358.48 1248.39 355.158 1249.94 356.504 1251.47C352.569 1249.22 355.24 1246.98 356.196 1244.73C355.49 1243.11 357.908 1241.49 356.504 1239.89L351.812 1245.23C351.812 1239.55 353.812 1234.43 356.196 1229.42C352.429 1235.16 348.508 1243.89 345.553 1252.67C344 1257.2 342.751 1261.8 341.81 1266.45C339.31 1273.33 351.96 1276.89 365.524 1277.1C374.085 1277.25 383.047 1276.05 388.765 1273.53C389.875 1273.04 390.532 1272.17 390.847 1271.04C385.868 1272.73 379.848 1273.83 375.304 1275.55Z" fill="#D1D1D1"/>
<path d="M387.823 1269.31V1267.53C386.255 1268.42 389.388 1270.2 386.255 1270.2C384.697 1270.2 387.823 1267.53 384.697 1267.53C384.697 1268.42 384.697 1269.31 383.132 1270.2V1269.06C382.169 1269.24 378.8 1268.16 379.995 1270.2C376.865 1270.2 379.995 1268.42 378.437 1267.53C375.303 1266.63 378.437 1269.31 376.865 1269.31C375.29 1268.86 374.903 1268.18 374.91 1267.5C372.468 1267.35 375.225 1265.71 373.738 1264.84C373.738 1265.74 370.609 1266.63 370.609 1267.53V1264.84C370.609 1265.45 369.191 1266.05 368.739 1266.66C368.78 1266.96 368.881 1267.26 369.037 1267.53C368.537 1267.25 368.523 1266.94 368.739 1266.66C368.472 1264.45 371.995 1262.86 370.609 1261.29C369.471 1261.96 368.534 1262.85 367.869 1263.88C367.746 1264.21 367.629 1264.52 367.492 1264.84C367.529 1264.5 367.658 1264.17 367.869 1263.88C369.047 1260.63 369.05 1257.39 369.05 1254.16C365.927 1255.94 367.492 1259.51 364.359 1261.3C364.359 1256.84 367.492 1253.27 365.927 1248.81C364.359 1250.59 362.794 1252.38 362.794 1254.17C362.794 1249.95 366.975 1245.74 363.479 1241.53C363.479 1241.73 363.416 1241.94 363.296 1242.12C363.177 1242.3 363.004 1242.46 362.794 1242.57C362.794 1241.27 361.167 1239.52 360.852 1237.97C358.387 1237.05 364.277 1229.73 362.794 1228.89C359.664 1227.99 356.527 1235.43 356.527 1237.22C355.868 1236.75 355.342 1236.16 354.987 1235.5C354.632 1234.84 354.456 1234.13 354.473 1233.4C352.939 1237.17 351.853 1241.05 351.853 1245.24L356.544 1239.9C357.966 1241.5 355.517 1243.13 356.236 1244.74C356.432 1244.33 356.536 1243.9 356.544 1243.46V1245.24C356.414 1245.09 356.311 1244.92 356.236 1244.74C355.281 1246.99 352.61 1249.24 356.544 1251.49C355.199 1249.95 358.52 1248.41 359.448 1246.86C359.527 1246.61 359.609 1246.38 359.681 1246.14C359.667 1246.39 359.587 1246.64 359.448 1246.86C357.692 1251.98 353.497 1257.13 354.997 1263.09C354.997 1259.52 358.127 1256.84 359.692 1254.17C358.127 1259.52 354.997 1263.97 356.555 1269.32C356.555 1266.65 359.692 1264.86 359.692 1262.18C359.692 1266.64 354.997 1270.21 359.692 1274.68C358.127 1272.89 362.821 1270.21 361.25 1268.43C362.821 1270.21 359.692 1272.89 362.821 1272.89C365.951 1272.89 362.821 1269.31 367.52 1268.43V1273.78C367.52 1271.11 369.078 1270.21 373.78 1270.21C372.215 1271.11 370.65 1272.89 370.65 1274.68C372.215 1272.89 375.344 1271.11 380.036 1271.11C378.478 1272.89 375.344 1273.78 375.344 1275.56C379.889 1273.83 385.909 1272.73 390.898 1271.05C391.21 1269.92 391.162 1268.52 390.874 1266.92C389.931 1267.78 388.911 1268.58 387.823 1269.31Z" fill="#D7D7D7"/>
<path d="M361.209 1238.09C361.082 1238.05 360.958 1238.01 360.839 1237.96C361.154 1239.5 362.781 1241.26 362.781 1242.55C362.991 1242.44 363.163 1242.29 363.283 1242.1C363.403 1241.92 363.466 1241.72 363.466 1241.51C363.258 1241.25 363.029 1241 362.781 1240.77C362.781 1240.16 363.486 1240.77 363.466 1241.51C366.962 1245.72 362.781 1249.94 362.781 1254.15C362.781 1252.37 364.346 1250.57 365.914 1248.79C367.479 1253.26 364.346 1256.82 364.346 1261.29C367.479 1259.5 365.914 1255.92 369.037 1254.14C369.037 1257.38 369.037 1260.62 367.856 1263.86C368.52 1262.83 369.457 1261.95 370.595 1261.27C371.982 1262.84 368.458 1264.44 368.725 1266.64C369.177 1266.03 370.595 1265.43 370.595 1264.83V1267.51C370.595 1266.62 373.725 1265.72 373.725 1264.83C375.211 1265.68 372.455 1267.34 374.896 1267.49C374.896 1266.84 375.29 1266.17 375.29 1265.72V1267.51C375.158 1267.52 375.026 1267.51 374.896 1267.49C374.896 1268.16 375.276 1268.84 376.852 1269.29C378.423 1269.29 375.29 1266.62 378.423 1267.51C379.981 1268.4 376.852 1270.19 379.981 1270.19C378.786 1268.14 382.156 1269.22 383.118 1269.04V1268.41C383.481 1268.82 383.413 1268.99 383.118 1269.04V1270.19C384.683 1269.29 384.683 1268.4 384.683 1267.51C387.81 1267.51 384.683 1270.19 386.241 1270.19C389.375 1270.19 386.241 1268.4 387.81 1267.51V1269.29C388.883 1268.56 389.89 1267.76 390.82 1266.9C389.792 1261.04 385.358 1252.58 382.303 1245.53C378.28 1236.24 373.372 1219.75 363.274 1222.83C361.356 1223.4 358.757 1225.49 356.192 1229.4C355.569 1230.71 354.97 1232.03 354.429 1233.36C354.412 1234.09 354.588 1234.8 354.943 1235.46C355.298 1236.12 355.824 1236.71 356.483 1237.18C356.483 1235.39 359.62 1234.5 361.76 1229.98C361.76 1232.33 358.336 1237.01 360.808 1237.93C360.712 1237.36 361.209 1237.2 361.209 1238.09Z" fill="#E7E7E7"/>
</g>
<g style="mix-blend-mode:multiply" opacity="0.6">
<path d="M840.519 394.525V474.85H689C692.353 452.445 704.48 435.832 718.926 435.832C725.901 435.832 732.336 439.716 737.511 446.227C743.721 426.673 756.029 413.36 770.205 413.36C777.652 413.36 784.56 417.042 790.365 423.35C798.33 403.819 811.741 391 826.951 391C831.676 391 836.244 392.235 840.519 394.525Z" fill="#F5F5F5"/>
</g>
<g style="mix-blend-mode:multiply" opacity="0.6">
<path d="M869.792 992.041V1038.54H783C784.92 1025.57 791.867 1015.96 800.142 1015.96C804.137 1015.96 807.824 1018.2 810.788 1021.97C814.345 1010.65 821.395 1002.95 829.515 1002.95C833.781 1002.95 837.738 1005.08 841.064 1008.73C845.626 997.421 853.308 990 862.021 990C864.727 990 867.344 990.715 869.792 992.041Z" fill="#F5F5F5"/>
</g>
<g style="mix-blend-mode:multiply" opacity="0.6">
<path d="M143.693 927.629C143.693 929.686 143.544 931.7 143.289 933.651H1V902.375C5.63592 900.7 10.7397 899.789 16.0774 899.789C24.052 899.789 31.4524 901.845 37.662 905.344C40.4903 883.737 53.2285 867.453 68.5185 867.453C84.0212 867.453 96.8869 884.183 99.5026 906.213C104.075 898.622 111.007 893.788 118.791 893.788C132.549 893.788 143.693 908.949 143.693 927.629Z" fill="#F7F7F7"/>
</g>
<g style="mix-blend-mode:multiply" opacity="0.6">
<path d="M174.709 535.572C174.709 538.36 174.508 541.09 174.163 543.735H-18V501.339C-11.7391 499.068 -4.84642 497.833 2.3622 497.833C13.1321 497.833 23.1265 500.621 31.5126 505.363C35.3323 476.074 52.5354 454 73.1848 454C94.1214 454 111.497 476.678 115.029 506.542C121.204 496.252 130.567 489.698 141.078 489.698C159.66 489.698 174.709 510.249 174.709 535.572Z" fill="#F7F7F7"/>
</g>
<g style="mix-blend-mode:multiply">
<path d="M125.662 632.591C121.667 632.259 118.261 634.215 118.027 636.944L132.481 638.128C132.714 635.398 129.657 632.923 125.662 632.591Z" fill="#D8D8D8"/>
<path d="M131.332 629.442C133.148 625.884 136.61 624.006 139.045 625.247L132.465 638.145C130.014 636.905 129.515 633 131.332 629.442Z" fill="#D8D8D8"/>
</g>
<g style="mix-blend-mode:multiply">
<path d="M627.672 921.544C625.653 918.082 622.097 916.413 619.727 917.787L627.048 930.305C629.418 928.931 629.692 925.007 627.672 921.544Z" fill="#D8D8D8"/>
<path d="M633.504 924.382C637.46 923.829 640.984 925.588 641.364 928.294L627.025 930.303C626.635 927.584 629.547 924.935 633.504 924.382Z" fill="#D8D8D8"/>
</g>
<g style="mix-blend-mode:multiply" opacity="0.51">
<path opacity="0.7" d="M508.315 747.437C523.407 747.437 535.641 745.732 535.641 743.629C535.641 741.526 523.407 739.822 508.315 739.822C493.224 739.822 480.99 741.526 480.99 743.629C480.99 745.732 493.224 747.437 508.315 747.437Z" fill="#787878"/>
<path d="M498.834 749.871H517.796C519.159 749.871 520.276 748.767 520.287 747.404C520.287 746.032 519.17 744.916 517.796 744.916H498.834C497.46 744.916 496.343 746.032 496.343 747.404C496.354 748.767 497.471 749.871 498.834 749.871Z" fill="#181818"/>
<path d="M511.719 748.456L509.979 752.435C509.593 753.379 508.519 753.829 507.585 753.443C507.123 753.261 506.769 752.896 506.576 752.435L504.901 748.467L511.719 748.456Z" fill="#181818"/>
<path opacity="0.7" d="M310.41 747.437C325.501 747.437 337.735 745.732 337.735 743.629C337.735 741.526 325.501 739.822 310.41 739.822C295.318 739.822 283.084 741.526 283.084 743.629C283.084 745.732 295.318 747.437 310.41 747.437Z" fill="#787878"/>
<path d="M300.928 749.871H319.89C321.254 749.871 322.37 748.767 322.381 747.404C322.381 746.032 321.264 744.916 319.89 744.916H300.928C299.554 744.916 298.438 746.032 298.438 747.404C298.448 748.767 299.565 749.871 300.928 749.871Z" fill="#181818"/>
<path d="M313.813 748.456L312.074 752.435C311.687 753.379 310.613 753.829 309.679 753.443C309.217 753.261 308.863 752.896 308.67 752.435L306.995 748.467L313.813 748.456Z" fill="#181818"/>
<path d="M308.756 833.769C307.543 833.769 306.329 833.501 305.213 832.975L301.723 831.356C300.252 830.669 298.953 829.554 297.965 828.127L276.266 796.765C274.881 794.759 274.172 792.239 274.268 789.664L274.923 772.267C275.009 769.886 275.804 767.58 277.157 765.778C278.112 764.502 279.347 763.493 280.711 762.861L308.853 749.861C309.969 749.346 311.15 749.089 312.353 749.089H313.534C314.039 749.089 314.543 749.132 315.048 749.228L370.988 759.643L369.581 767.162L313.641 756.747L312.353 756.736C312.256 756.736 312.16 756.758 312.063 756.811L283.921 769.811C283.706 769.907 283.481 770.111 283.288 770.369C282.869 770.926 282.611 771.72 282.579 772.557L281.913 789.954C281.881 790.876 282.117 791.767 282.558 792.41L304.268 823.783C304.472 824.084 304.719 824.309 304.966 824.427L308.455 826.046C308.573 826.1 308.681 826.122 308.777 826.122L332.41 824.845C332.453 824.845 332.496 824.834 332.538 824.824L332.753 824.77C333.043 824.695 333.344 824.427 333.601 824.051L335.556 821.166C335.738 820.898 335.878 820.587 335.985 820.244L346.733 785.653C347.71 782.51 349.965 780.043 352.756 779.067L369.034 773.383L371.557 780.601L355.28 786.286C354.904 786.414 354.356 786.919 354.045 787.916L343.297 822.507C342.964 823.569 342.492 824.556 341.901 825.446L339.947 828.331C338.659 830.229 336.823 831.592 334.772 832.149L334.557 832.203C333.988 832.364 333.408 832.45 332.818 832.482L309.185 833.758C309.046 833.769 308.896 833.769 308.756 833.769Z" fill="#BFBFBF"/>
<path d="M508.788 833.769C508.648 833.769 508.498 833.769 508.358 833.759L484.726 832.482C484.146 832.45 483.556 832.353 482.986 832.203L482.772 832.15C480.721 831.592 478.874 830.23 477.596 828.331L475.642 825.446C475.041 824.556 474.569 823.569 474.247 822.518L463.499 787.927C463.187 786.94 462.64 786.425 462.264 786.297L445.987 780.612L448.51 773.394L464.787 779.078C467.579 780.054 469.823 782.511 470.8 785.664L481.548 820.255C481.655 820.598 481.805 820.909 481.977 821.177L483.931 824.062C484.189 824.438 484.5 824.706 484.78 824.781L484.994 824.835C485.037 824.845 485.08 824.856 485.123 824.856L508.755 826.132C508.852 826.132 508.959 826.111 509.078 826.057L512.567 824.438C512.803 824.331 513.05 824.095 513.265 823.794L534.975 792.421C535.426 791.778 535.652 790.877 535.62 789.965L534.965 772.557C534.932 771.72 534.675 770.927 534.256 770.369C534.063 770.111 533.837 769.908 533.622 769.811L505.481 756.811C505.373 756.769 505.277 756.736 505.191 756.736H504.01L447.962 767.151L446.556 759.632L502.496 749.218C502.99 749.121 503.494 749.078 503.999 749.078H505.18C506.393 749.078 507.564 749.336 508.68 749.861L536.822 762.861C538.186 763.494 539.42 764.502 540.376 765.778C541.729 767.58 542.513 769.875 542.609 772.267L543.264 789.665C543.361 792.239 542.652 794.759 541.267 796.765L519.557 828.138C518.569 829.565 517.27 830.68 515.799 831.367L512.309 832.986C511.203 833.501 509.99 833.769 508.788 833.769Z" fill="#BFBFBF"/>
<path d="M270.532 835.549C269.179 835.549 267.859 835.313 266.581 834.831L261.427 832.911C259.656 832.246 258.066 831.141 256.821 829.714L224.749 792.571C222.849 790.372 221.883 787.562 222.011 784.655L222.988 764.062C223.117 761.391 224.191 758.838 226.027 756.875C227.219 755.599 228.722 754.602 230.354 754.001L271.96 738.62C273.216 738.159 274.537 737.923 275.89 737.923H277.64C278.198 737.923 278.757 737.966 279.304 738.041L362.001 750.365L361.046 756.725L278.349 744.412C278.113 744.38 277.876 744.358 277.629 744.358H275.879C275.299 744.358 274.73 744.455 274.193 744.659L232.587 760.05C231.879 760.308 231.235 760.737 230.73 761.284C229.946 762.12 229.474 763.225 229.42 764.373L228.443 784.966C228.389 786.211 228.797 787.423 229.624 788.366L261.706 825.499C262.243 826.111 262.92 826.593 263.682 826.872L268.836 828.792C269.448 829.017 270.092 829.125 270.747 829.092L305.685 827.58C305.964 827.569 306.244 827.537 306.512 827.473L306.834 827.408C307.876 827.183 308.831 826.604 309.518 825.789L312.407 822.367C312.75 821.96 313.029 821.498 313.223 820.994L329.092 780.065C330.37 776.761 333.172 774.219 336.587 773.275L360.648 766.55L362.388 772.75L338.326 779.475C336.855 779.882 335.652 780.976 335.105 782.403L319.225 823.333C318.774 824.491 318.14 825.574 317.335 826.529L314.447 829.95C312.847 831.849 310.635 833.179 308.219 833.704L307.897 833.78C307.264 833.919 306.619 834.005 305.975 834.026L271.037 835.539C270.865 835.539 270.704 835.549 270.532 835.549Z" fill="#D1D1D1"/>
<path d="M472.174 743.296C453.341 740.132 434.229 738.963 415.15 739.821C396.081 738.963 376.969 740.132 358.147 743.296C354.915 743.961 352.563 746.761 352.456 750.054V770.272C352.563 773.565 354.915 776.364 358.147 777.029C376.969 780.193 396.081 781.352 415.15 780.483C434.229 781.352 453.341 780.204 472.174 777.029C475.395 776.353 477.747 773.565 477.865 770.272V750.097C477.758 746.793 475.406 743.983 472.174 743.296Z" fill="#ECECEC"/>
<path opacity="0.2" d="M472.174 743.296C453.341 740.132 434.229 738.963 415.15 739.821C396.081 738.963 376.969 740.132 358.147 743.296C354.915 743.961 352.563 746.761 352.456 750.054V770.272C352.563 773.565 354.915 776.364 358.147 777.029C376.969 780.193 396.081 781.352 415.15 780.483C434.229 781.352 453.341 780.204 472.174 777.029C475.395 776.353 477.747 773.565 477.865 770.272V750.097C477.758 746.793 475.406 743.983 472.174 743.296Z" fill="#787878"/>
<path d="M473.753 766.1C473.237 766.1 472.819 765.682 472.819 765.167V753.325C472.819 752.811 473.237 752.392 473.753 752.392C474.268 752.392 474.687 752.811 474.687 753.325V765.167C474.665 765.682 474.257 766.089 473.753 766.1Z" fill="#D8D8D8"/>
<path d="M470.703 766.1C470.188 766.1 469.769 765.682 469.769 765.167V753.325C469.769 752.811 470.188 752.392 470.703 752.392C471.218 752.392 471.637 752.811 471.637 753.325V765.167C471.616 765.682 471.208 766.089 470.703 766.1Z" fill="#D8D8D8"/>
<path d="M467.654 766.1C467.138 766.1 466.719 765.682 466.719 765.167V753.325C466.719 752.811 467.138 752.392 467.654 752.392C468.169 752.392 468.588 752.811 468.588 753.325V765.167C468.588 765.682 468.169 766.1 467.654 766.1Z" fill="#D8D8D8"/>
<path opacity="0.2" d="M375.541 755.256C375.949 756.286 376.926 756.961 378.032 756.961H416.191C417.136 756.961 418.017 756.457 418.5 755.642L427.218 740.679C408.268 738.974 389.188 739.274 370.291 741.57L375.541 755.256Z" fill="#787878"/>
<path opacity="0.2" d="M447.79 743.296C442.626 742.427 437.418 741.72 432.211 741.14L422.44 757.851C421.152 760.082 418.768 761.455 416.191 761.455H378.032C375.036 761.444 372.363 759.6 371.289 756.811L365.62 742.106C363.129 742.46 360.638 742.835 358.19 743.253C354.958 743.918 352.606 746.718 352.499 750.011V770.229C352.606 773.522 354.958 776.321 358.19 776.986C387.856 781.984 418.156 781.984 447.823 776.986C451.054 776.321 453.417 773.522 453.524 770.229V750.096C453.427 746.771 451.054 743.951 447.79 743.296ZM428.367 771.151C426.907 771.151 425.726 769.971 425.726 768.513C425.726 767.054 426.907 765.874 428.367 765.874C429.827 765.874 431.008 767.054 431.008 768.513C431.008 769.971 429.827 771.151 428.367 771.151ZM438.61 771.151C437.15 771.151 435.969 769.971 435.969 768.513C435.969 767.054 437.15 765.874 438.61 765.874C440.07 765.874 441.252 767.054 441.252 768.513C441.262 769.961 440.092 771.141 438.653 771.151C438.632 771.151 438.621 771.151 438.61 771.151Z" fill="#787878"/>
<path d="M557.706 835.549C557.545 835.549 557.373 835.549 557.212 835.538L522.274 834.026C521.63 833.994 520.975 833.919 520.341 833.779L520.03 833.715C517.603 833.189 515.391 831.848 513.802 829.961L510.914 826.539C510.109 825.585 509.475 824.512 509.024 823.343L493.144 782.402C492.597 780.987 491.394 779.893 489.923 779.485L465.861 772.76L467.601 766.56L491.662 773.285C495.077 774.24 497.879 776.782 499.157 780.075L515.037 821.015C515.23 821.519 515.509 821.981 515.853 822.388L518.741 825.81C519.428 826.625 520.384 827.193 521.426 827.429L521.737 827.494C522.005 827.558 522.285 827.59 522.564 827.601L557.502 829.113C558.157 829.146 558.801 829.038 559.413 828.813L564.567 826.893C565.329 826.604 566.017 826.132 566.543 825.52L598.625 788.387C599.441 787.444 599.86 786.232 599.806 784.987L598.829 764.394C598.775 763.246 598.314 762.141 597.519 761.305C597.004 760.758 596.36 760.329 595.662 760.071L554.056 744.669C553.519 744.465 552.95 744.369 552.37 744.369H550.62C550.383 744.369 550.136 744.39 549.9 744.422L467.203 756.746L466.248 750.386L548.945 738.062C549.492 737.976 550.061 737.944 550.609 737.944H552.359C553.701 737.944 555.022 738.18 556.289 738.641L597.895 754.022C599.538 754.633 601.03 755.62 602.222 756.896C604.058 758.848 605.132 761.401 605.261 764.083L606.238 784.676C606.377 787.583 605.4 790.382 603.5 792.592L571.417 829.725C570.183 831.162 568.583 832.267 566.811 832.921L561.657 834.841C560.38 835.302 559.059 835.549 557.706 835.549Z" fill="#D1D1D1"/>
<path opacity="0.7" d="M275.471 732.485C300.187 732.485 320.223 729.69 320.223 726.242C320.223 722.795 300.187 720 275.471 720C250.755 720 230.719 722.795 230.719 726.242C230.719 729.69 250.755 732.485 275.471 732.485Z" fill="#BBBBBB"/>
<path d="M259.957 736.463H291.008C293.252 736.463 295.067 734.651 295.077 732.42C295.077 730.178 293.252 728.355 291.008 728.355H259.957C257.713 728.355 255.887 730.178 255.887 732.42C255.898 734.662 257.713 736.463 259.957 736.463Z" fill="#A3A2A5"/>
<path d="M281.054 734.147L278.209 740.669C277.586 742.203 275.826 742.943 274.279 742.321C273.528 742.02 272.937 741.42 272.626 740.669L269.877 734.169L281.054 734.147Z" fill="#A3A2A5"/>
<path opacity="0.7" d="M551.167 732.485C575.882 732.485 595.919 729.69 595.919 726.242C595.919 722.795 575.882 720 551.167 720C526.451 720 506.415 722.795 506.415 726.242C506.415 729.69 526.451 732.485 551.167 732.485Z" fill="#CECFCF"/>
<path d="M535.641 736.463H566.692C568.936 736.463 570.751 734.651 570.762 732.42C570.762 730.178 568.936 728.355 566.692 728.355H535.641C533.397 728.355 531.572 730.178 531.572 732.42C531.582 734.662 533.408 736.463 535.641 736.463Z" fill="#A3A2A5"/>
<path d="M556.739 734.147L553.894 740.669C553.271 742.203 551.51 742.943 549.964 742.321C549.213 742.02 548.622 741.42 548.311 740.669L545.562 734.169L556.739 734.147Z" fill="#A3A2A5"/>
<g clip-path="url(#clip1_1244_679)">
<path d="M379.362 745.057L375.834 751.178H378.003L379.362 748.82C379.182 748.82 379.032 748.695 378.992 748.526H377.743C377.694 748.526 377.654 748.486 377.654 748.437C377.654 748.388 377.694 748.348 377.743 748.348H378.992C379.033 748.18 379.183 748.054 379.363 748.054C379.543 748.054 379.694 748.18 379.734 748.348H380.984C381.033 748.348 381.073 748.388 381.073 748.437C381.073 748.486 381.033 748.526 380.984 748.526H379.733C379.693 748.695 379.543 748.82 379.362 748.82L380.721 751.178H382.89L379.362 745.057Z" fill="#F75506"/>
</g>
<path d="M387.315 747.109H388.008V751.215H387.311L387.287 750.521C387.157 750.759 386.979 750.952 386.753 751.1C386.526 751.247 386.257 751.321 385.948 751.321C385.643 751.321 385.358 751.265 385.095 751.151C384.831 751.038 384.599 750.88 384.397 750.679C384.195 750.478 384.037 750.247 383.925 749.983C383.812 749.72 383.756 749.437 383.756 749.133C383.756 748.84 383.811 748.564 383.92 748.304C384.03 748.044 384.183 747.816 384.38 747.621C384.576 747.425 384.804 747.272 385.062 747.161C385.32 747.05 385.596 746.995 385.89 746.995C386.217 746.995 386.503 747.071 386.748 747.223C386.994 747.374 387.192 747.571 387.339 747.811L387.315 747.109ZM385.964 750.652C386.238 750.652 386.475 750.584 386.673 750.447C386.87 750.31 387.02 750.127 387.123 749.897C387.226 749.667 387.273 749.412 387.262 749.133C387.251 748.86 387.186 748.612 387.068 748.39C386.95 748.168 386.791 747.993 386.59 747.862C386.39 747.732 386.156 747.667 385.89 747.667C385.618 747.667 385.371 747.735 385.148 747.872C384.926 748.009 384.752 748.192 384.627 748.422C384.501 748.652 384.445 748.908 384.455 749.19C384.469 749.461 384.546 749.707 384.686 749.929C384.826 750.15 385.008 750.326 385.232 750.456C385.456 750.587 385.7 750.652 385.964 750.652Z" fill="white"/>
<path d="M388.775 751.215L390.283 749.154L388.783 747.102H389.636L390.711 748.563L391.782 747.102H392.635L391.135 749.154L392.643 751.215H391.791L390.711 749.737L389.628 751.215H388.775Z" fill="white"/>
<path d="M393.54 751.215V745.057H394.228V751.215H393.54Z" fill="white"/>
<path d="M398.602 745.057H399.294V751.215H398.602V750.517C398.462 750.758 398.274 750.952 398.038 751.1C397.801 751.248 397.524 751.322 397.205 751.322C396.906 751.322 396.626 751.266 396.365 751.153C396.104 751.041 395.874 750.886 395.674 750.688C395.475 750.489 395.319 750.26 395.207 750C395.094 749.74 395.038 749.46 395.038 749.162C395.038 748.864 395.094 748.584 395.207 748.322C395.32 748.061 395.476 747.831 395.674 747.633C395.874 747.434 396.104 747.279 396.365 747.167C396.626 747.055 396.906 746.999 397.205 746.999C397.524 746.999 397.801 747.073 398.038 747.221C398.274 747.368 398.462 747.563 398.602 747.804V745.057ZM397.214 750.653C397.485 750.653 397.721 750.586 397.92 750.454C398.119 750.321 398.272 750.141 398.381 749.914C398.49 749.686 398.543 749.436 398.543 749.162C398.543 748.883 398.488 748.63 398.379 748.405C398.269 748.179 398.114 748 397.915 747.867C397.715 747.734 397.481 747.667 397.213 747.667C396.941 747.667 396.694 747.735 396.473 747.868C396.252 748.002 396.075 748.183 395.944 748.409C395.813 748.634 395.746 748.886 395.746 749.162C395.746 749.438 395.813 749.689 395.948 749.915C396.082 750.14 396.261 750.319 396.483 750.452C396.707 750.586 396.95 750.653 397.214 750.653Z" fill="white"/>
<path d="M402.67 747.791C402.601 747.753 402.527 747.723 402.447 747.701C402.367 747.679 402.281 747.668 402.188 747.668C401.959 747.668 401.758 747.73 401.58 747.853C401.402 747.976 401.263 748.143 401.161 748.354C401.06 748.565 401.009 748.797 401.009 749.052V751.215H400.312V747.11H401.004V747.742C401.153 747.512 401.337 747.331 401.557 747.198C401.777 747.065 402.02 746.998 402.286 746.998C402.376 746.998 402.463 747.002 402.545 747.011C402.628 747.019 402.706 747.035 402.78 747.06L402.67 747.791Z" fill="white"/>
<path d="M404.918 751.322C404.539 751.322 404.194 751.225 403.881 751.03C403.569 750.836 403.321 750.575 403.136 750.248C402.95 749.922 402.857 749.56 402.857 749.162C402.857 748.861 402.911 748.58 403.018 748.319C403.125 748.058 403.272 747.828 403.461 747.629C403.649 747.431 403.868 747.275 404.118 747.163C404.368 747.05 404.635 746.995 404.917 746.995C405.296 746.995 405.642 747.092 405.954 747.286C406.265 747.481 406.514 747.742 406.7 748.07C406.885 748.399 406.978 748.762 406.978 749.162C406.978 749.46 406.925 749.739 406.817 750C406.71 750.26 406.563 750.489 406.374 750.688C406.186 750.886 405.968 751.042 405.719 751.153C405.47 751.265 405.203 751.322 404.918 751.322ZM404.918 750.632C405.176 750.632 405.409 750.565 405.616 750.428C405.824 750.293 405.987 750.114 406.106 749.891C406.226 749.667 406.285 749.425 406.285 749.161C406.285 748.893 406.224 748.647 406.102 748.422C405.98 748.198 405.816 748.018 405.61 747.885C405.404 747.751 405.174 747.683 404.918 747.683C404.66 747.683 404.428 747.752 404.222 747.887C404.016 748.023 403.853 748.202 403.731 748.427C403.61 748.651 403.55 748.896 403.55 749.161C403.55 749.435 403.612 749.684 403.736 749.907C403.859 750.13 404.026 750.307 404.234 750.437C404.443 750.567 404.671 750.632 404.918 750.632Z" fill="white"/>
<path d="M411.37 749.031V751.215H410.678V749.047C410.678 748.793 410.624 748.56 410.517 748.351C410.41 748.142 410.264 747.975 410.08 747.85C409.896 747.725 409.689 747.664 409.458 747.664C409.23 747.664 409.027 747.726 408.85 747.85C408.673 747.975 408.533 748.142 408.431 748.351C408.33 748.56 408.279 748.793 408.279 749.047V751.215H407.587V747.11H408.279V747.742C408.427 747.509 408.61 747.326 408.828 747.193C409.047 747.06 409.291 746.995 409.56 746.995C409.917 746.995 410.231 747.087 410.501 747.274C410.772 747.46 410.983 747.706 411.136 748.014C411.289 748.322 411.366 748.661 411.37 749.031Z" fill="white"/>
<path d="M413.967 751.322C413.588 751.322 413.243 751.225 412.931 751.03C412.618 750.836 412.37 750.575 412.185 750.248C412 749.922 411.906 749.56 411.906 749.162C411.906 748.861 411.96 748.58 412.067 748.319C412.174 748.058 412.322 747.828 412.511 747.629C412.698 747.431 412.918 747.275 413.167 747.163C413.417 747.05 413.684 746.995 413.967 746.995C414.277 746.995 414.562 747.057 414.822 747.181C415.081 747.306 415.304 747.479 415.489 747.701C415.675 747.922 415.813 748.179 415.905 748.473C415.998 748.766 416.031 749.078 416.006 749.413H412.644C412.677 749.645 412.754 749.853 412.875 750.035C412.996 750.217 413.15 750.362 413.339 750.468C413.527 750.574 413.737 750.629 413.967 750.632C414.215 750.632 414.439 750.569 414.639 750.441C414.839 750.314 415.002 750.139 415.125 749.918L415.83 750.082C415.665 750.446 415.416 750.744 415.084 750.975C414.751 751.206 414.379 751.322 413.967 751.322ZM412.624 748.871H415.311C415.288 748.641 415.214 748.431 415.088 748.24C414.962 748.05 414.801 747.898 414.606 747.783C414.411 747.668 414.198 747.61 413.967 747.61C413.737 747.61 413.525 747.666 413.333 747.779C413.141 747.891 412.982 748.042 412.857 748.232C412.731 748.422 412.654 748.635 412.624 748.871Z" fill="white"/>
</g>
</g>
<defs>
<clipPath id="clip0_1244_679">
<rect width="853" height="1440" fill="white"/>
</clipPath>
<clipPath id="clip1_1244_679">
<rect width="7.05677" height="6.12067" fill="white" transform="translate(375.834 745.057)"/>
</clipPath>
</defs>
</svg>
