<svg width="499" height="982" viewBox="0 0 499 982" fill="none" xmlns="http://www.w3.org/2000/svg">
<rect width="499" height="982" fill="#F97738"/>
<g style="mix-blend-mode:multiply" opacity="0.63">
<path fill-rule="evenodd" clip-rule="evenodd" d="M498.996 821.867C496.828 820.467 491.725 809.764 486.208 809.145C476.625 808.054 474.784 813.437 464.597 814.089C454.41 814.742 446.859 824.175 436.68 823.518C426.501 822.861 430.692 822.647 423.5 821.99C416.309 821.333 418.111 820.467 412.12 820.028C406.13 819.59 403.133 820.467 403.133 820.467C400.538 820.029 397.894 820.246 395.301 819.813C395.301 819.813 391.753 819.81 385.768 820.682C384.403 820.882 383.43 820.41 382.72 820.287C379.802 819.773 375.419 819.393 369.12 820.059C302.535 821.637 253.984 821.388 251.617 820.899C247.959 820.144 246.27 819.697 246.27 819.697C244.785 819.326 245.785 819.511 241.438 818.934C234.848 818.06 187.47 801.468 138.3 820.987C135.62 822.523 117.469 821.995 110.883 820.899C104.297 819.803 97.1239 817.851 97.1239 817.851C97.1239 817.851 91.1313 817.411 82.1475 816.32C73.1637 815.229 48.5776 817.371 41.9896 816.93C40.1932 816.814 41.9896 816.93 32.8574 817.283C27.383 817.493 20.3663 817.189 14.7069 817.937C11.6141 818.349 5.59913 817.166 2.60791 817.601C2.14663 817.667 1.69754 817.725 1.24438 817.783V855.318C94.9049 850.329 484.509 885.706 497.071 885.889C497.719 885.886 498.365 885.83 499 885.721L498.996 821.867Z" fill="#F8F8F8"/>
<path fill-rule="evenodd" clip-rule="evenodd" d="M499 862.351C469.107 857.751 435.097 853.506 398.177 850.591C281.528 841.38 214.61 842.703 130.337 846.06C85.8533 847.832 42.0451 850.86 1.25854 854.406V879.146C52.9202 879.099 107.107 879.397 156.014 880.32C169.597 880.257 254.242 879.518 268.213 879.636C370.891 880.527 441.418 899.428 499 907.282V862.351Z" fill="#ECECEC"/>
<path d="M349.271 849.525C362.693 850.222 380.337 851.182 400.297 852.909C381.281 850.965 365.662 849.953 357.936 849.707L349.271 849.525Z" fill="#BFBFBF"/>
<path d="M278.272 848.343C276.976 848.273 275.874 848.219 274.974 848.176C274.725 848.208 275.874 848.249 278.272 848.343Z" fill="#D1D1D1"/>
<path d="M293.069 883.616C279.637 880.654 303.53 887.211 293.069 883.616V883.616Z" fill="#D1D1D1"/>
<path d="M257.227 882.709C242.928 879.97 268.738 886.134 257.227 882.709V882.709Z" fill="#D1D1D1"/>
<path d="M221.198 882.375C206.121 879.857 233.701 885.612 221.198 882.375V882.375Z" fill="#D1D1D1"/>
<g opacity="0.5">
<path d="M499 864.662C448.338 856.217 392.206 851.464 384.737 850.749C395.121 851.924 453.703 858.184 499 866.179V864.662Z" fill="#D8D8D8"/>
<path d="M499 869.984V867.596C465.178 859.829 430.146 855.512 400.297 852.909C430.494 856.005 469.267 861.443 498.64 869.878L499 869.984Z" fill="#D8D8D8"/>
<path d="M499 877.131V873.157C495.296 872.15 491.443 871.163 487.441 870.195C427.66 856.064 364.827 851.668 351.452 850.727C367.143 852.051 423.095 857.406 457.839 865.664C466.149 867.414 482.52 871.581 499 877.131Z" fill="#D8D8D8"/>
<path d="M499 880.028C497.008 879.379 494.976 878.722 492.927 878.073C479.639 873.84 464.463 869.873 446.799 866.137C385.18 853.494 337.527 850.462 325.029 849.735C339.643 850.789 379.177 854.525 415.833 862.069C427.513 864.235 454.54 870.323 477.865 878.348C485.435 880.908 492.619 883.67 499 886.532V880.028Z" fill="#D8D8D8"/>
<path d="M499 889.113C497.672 888.433 496.296 887.76 494.834 887.099C484.506 882.411 470.154 878.167 454.801 873.939C440.203 869.925 423.81 866.202 404.996 862.748C339.531 851.118 291.033 848.869 278.261 848.344C293.206 849.156 333.842 852.247 372.81 859.189C399.098 862.881 484.312 882.463 494.85 900.602C496.142 901.324 497.531 901.918 498.988 902.371L499 889.113Z" fill="#D8D8D8"/>
<path d="M213.389 846.88C224.689 847.166 284.32 850.158 329.018 857.007C356.451 860.261 447.789 878.489 463.629 896.466C468.255 900.626 455.272 892.666 463.629 896.466C473.651 901.212 486.145 898.924 497.095 903.242C486.34 896.682 476.288 889.412 459.539 882.955C447.783 878.424 432.15 874.408 415.507 870.435C399.68 866.647 382.132 863.182 362.25 860.038C280.215 847.495 211.874 847.078 213.387 846.88H213.389Z" fill="#D8D8D8"/>
<path d="M180.599 847.829C191.965 847.928 237.825 849.426 284.648 855.549C313.083 858.347 410.112 875.088 431.225 892.836C437.079 896.916 421.77 889.165 431.225 892.836C442.625 897.424 454.431 894.937 466.63 899.087C453.983 892.688 441.764 885.577 423.059 879.377C409.937 875.034 393.075 871.271 375.222 867.559C358.235 864.034 339.615 860.857 318.772 858.041C232.864 846.839 179.142 848.055 180.601 847.834L180.599 847.829Z" fill="#D8D8D8"/>
<path d="M133.586 848.817C144.948 848.73 191.221 849.467 239.939 854.805C269.231 857.13 371.48 872.29 397.809 889.714C404.862 893.705 387.284 886.189 397.809 889.714C410.543 894.126 421.591 891.441 434.993 895.397C420.493 889.204 406.153 882.279 385.572 876.378C371.136 872.246 353.136 868.757 334.15 865.34C316.075 862.091 296.489 859.216 274.777 856.74C185.421 846.954 132.182 849.072 133.586 848.82V848.817Z" fill="#D8D8D8"/>
<path d="M87.0059 850.579C98.3175 850.304 144.759 850.274 195.119 854.8C225.113 856.646 332.088 870.118 363.534 887.129C371.762 891.004 351.983 883.773 363.534 887.129C377.545 891.337 387.779 888.472 402.327 892.221C386.033 886.25 369.631 879.56 347.264 873.993C331.573 870.09 312.524 866.887 292.498 863.784C273.433 860.829 252.969 858.281 230.496 856.158C138.151 847.852 85.6862 850.86 87.0059 850.579Z" fill="#D8D8D8"/>
<path d="M41.1216 853.102C52.3206 852.64 98.6755 851.838 150.422 855.53C165.159 856.398 201.283 859.39 237.368 864.593C273.61 869.72 309.806 877.049 328.563 885.104C337.931 888.844 316.04 881.932 328.563 885.104C343.804 889.084 353.158 886.059 368.797 889.571C350.772 883.865 332.385 877.43 308.332 872.231C291.472 868.586 271.454 865.686 250.478 862.913C230.516 860.273 209.275 858.061 186.163 856.317C91.2987 849.537 39.8925 853.412 41.1216 853.109V853.102Z" fill="#D8D8D8"/>
<path d="M268.943 871.09C250.983 867.716 230.098 865.153 208.29 862.725C187.525 860.406 165.612 858.551 141.981 857.187C63.908 853.003 16.2314 855.257 1.25854 856.116C17.7784 855.445 59.2489 854.495 106.079 857C121.07 857.621 158.106 860.021 195.761 864.621C233.554 869.153 271.957 875.878 293.069 883.628C309.464 887.362 317.903 884.195 334.528 887.456C314.872 882.024 294.554 875.896 268.943 871.09Z" fill="#D8D8D8"/>
<path d="M229.315 870.586C210.345 867.506 188.698 865.288 166.149 863.222C144.698 861.25 122.22 859.744 98.1947 858.773C57.2431 857.281 24.9438 857.368 1.25232 857.96V858.556C18.8806 858.299 39.8764 858.363 62.3045 859.177C77.4825 859.551 115.231 861.33 154.262 865.306C193.411 869.21 233.85 875.315 257.221 882.713C274.68 886.186 282.166 882.881 299.718 885.875C278.503 880.772 256.374 874.97 229.315 870.586Z" fill="#D8D8D8"/>
<path d="M189.633 870.72C169.748 867.953 147.451 866.09 124.292 864.388C102.252 862.772 79.3435 861.654 55.0345 861.074C34.9721 860.682 17.0622 860.624 1.25854 860.782V861.859C7.13865 861.876 13.1797 861.946 19.3394 862.064C34.6281 862.186 72.8921 863.334 113.105 866.664C153.415 869.925 195.67 875.363 221.198 882.374C239.651 885.563 246.119 882.146 264.532 884.857C241.848 880.099 218.004 874.659 189.633 870.72Z" fill="#D8D8D8"/>
<path d="M148.835 872.089C128.129 869.649 105.291 868.155 81.6456 866.838C59.133 865.586 35.8982 864.847 11.4544 864.673C7.5451 864.662 3.72695 864.662 0 864.673V866.41C18.8815 866.745 44.4901 867.558 71.2131 869.285C112.472 871.878 156.347 876.619 183.903 883.215C203.257 886.1 208.693 882.589 227.866 884.994C203.816 880.611 178.369 875.565 148.835 872.089Z" fill="#D8D8D8"/>
</g>
<path d="M185.159 882.621C169.366 880.355 198.601 885.654 185.159 882.621V882.621Z" fill="#D1D1D1"/>
<path d="M110.917 872.911C89.4964 870.81 66.2294 869.697 42.2061 868.766C28.7842 868.262 15.1592 867.927 1.25854 867.777V870.236C11.2565 870.499 21.8057 870.867 32.5722 871.377C74.5758 873.279 119.83 877.3 149.291 883.441C169.454 886.01 173.834 882.422 193.667 884.513C168.394 880.521 141.466 875.897 110.917 872.911Z" fill="#BFBFBF"/>
<path d="M149.291 883.44C132.86 881.426 163.598 886.245 149.291 883.44V883.44Z" fill="#D1D1D1"/>
<path d="M113.757 884.833C96.7685 883.095 128.865 887.398 113.757 884.833V884.833Z" fill="#D1D1D1"/>
<path d="M72.2643 874.95C50.2445 873.211 26.6758 872.473 2.40299 871.946L1.25232 871.929V874.95C41.6064 876.313 84.4027 879.522 113.751 884.842C134.626 887.084 137.923 883.426 158.336 885.205C131.951 881.615 103.678 877.436 72.2643 874.95Z" fill="#D1D1D1"/>
<path fill-rule="evenodd" clip-rule="evenodd" d="M178.853 881.562C122.838 869.714 77.1367 862.43 1.25854 869.076V932.967C20.9468 934.524 43.0449 936.298 68.4745 938.223C78.734 939.009 140.416 946.637 150.329 947.759C268.092 953.338 425.192 976.626 425.192 976.626C425.192 976.626 308.943 909.061 178.853 881.562Z" fill="#E3E3E3"/>
<path d="M141.595 881.398C140.925 881.346 140.08 881.299 139.098 881.252C140.9 881.403 141.753 881.485 141.595 881.398Z" fill="#D8D8D8"/>
<path d="M175.698 886.789C175.025 886.706 174.176 886.621 173.182 886.532C174.996 886.76 175.853 886.888 175.698 886.789Z" fill="#D8D8D8"/>
<path d="M1.25243 873.344C7.39204 872.916 12.9382 872.673 17.7481 872.483L11.3631 872.208C8.95914 872.172 5.50309 872.313 1.24438 872.659L1.25243 873.344Z" fill="#D8D8D8"/>
<path d="M1.25232 876.909C7.63132 875.808 12.745 875.088 15.8108 874.702C13.2218 874.93 8.16643 875.373 1.25232 876.323V876.909Z" fill="#D8D8D8"/>
<path d="M1.25232 880.784C16.4465 877.014 29.1361 875.245 35.4507 874.659C30.6227 874.936 18.5728 875.755 1.25232 879.402V880.784Z" fill="#D8D8D8"/>
<path d="M1.25232 888.739C30.6026 878.758 59.3513 875.807 70.0514 875.312C62.4513 875.394 37.4925 876.009 1.25232 885.854V888.739Z" fill="#D8D8D8"/>
<path d="M5.27566 892.421C3.91778 892.847 2.58807 893.28 1.25232 893.713V898.812C13.602 893.638 24.2417 890.132 30.4396 888.814C61.4696 879.544 100.375 877.3 114.145 877.118C101.47 876.89 58.0055 876.704 5.27566 892.421Z" fill="#D8D8D8"/>
<path d="M37.6454 891.6C25.1889 894.749 13.0253 898.654 1.25232 903.285V910.783C26.3217 898.867 52.0993 890.951 63.3043 889.133C96.4043 881.103 127.778 880.762 139.092 881.245C129.53 880.502 93.1615 878.156 37.6454 891.6Z" fill="#D8D8D8"/>
<path d="M70.1863 892.236C53.6041 895.573 38.4663 899.852 24.3203 904.991C16.342 907.895 8.56487 910.865 1.25647 914.099V924.102C34.5275 905.067 80.2567 892.733 96.2073 890.937C130.363 884.451 161.872 885.54 173.18 886.535C163.648 885.343 127.438 881.369 70.1863 892.236Z" fill="#D8D8D8"/>
<path d="M102.739 894.311C85.6964 896.887 70.0053 900.457 55.2236 904.941C39.6975 909.654 24.8474 914.624 12.2684 921.221C8.4221 923.247 4.77494 925.395 1.25854 927.619V941.456C32.6144 912.757 107.676 895.577 128.987 894.184C164.005 889.29 195.487 891.807 206.739 893.306C197.266 891.688 161.414 886.111 102.739 894.311Z" fill="#D8D8D8"/>
<path d="M209.259 893.678C208.587 893.567 207.736 893.445 206.74 893.31C208.551 893.621 209.402 893.784 209.259 893.678Z" fill="#D8D8D8"/>
<path d="M22.7894 944.64C14.8675 951.395 32.8478 939.269 22.7894 944.64V944.64Z" fill="#D8D8D8"/>
<path d="M242.099 902.037C241.438 901.898 240.581 901.733 239.587 901.55C241.385 901.95 242.232 902.148 242.099 902.037Z" fill="#D8D8D8"/>
<path d="M135.119 897.835C118.565 899.51 102.206 902.329 86.2113 906.263C70.0818 910.256 54.6281 914.536 41.2525 920.552C26.0745 927.383 13.3024 936.011 1.25854 944.307V948.063C8.3537 947.432 13.9321 949.545 22.7834 944.639C38.7903 930.011 67.3439 918.1 95.3101 910.555C123.172 902.868 150.44 899.55 161.466 898.894C197.155 895.628 228.454 899.55 239.581 901.551C230.231 899.508 194.918 892.35 135.119 897.835Z" fill="#D8D8D8"/>
<path d="M274.051 911.819C266.165 909.734 232.953 903.259 193.488 905.028C182.343 905.169 154.578 907.235 125.739 913.621C96.8067 919.868 66.8087 930.444 49.1624 944.294C40.486 950.671 59.8242 939.383 49.1624 944.294C36.1207 950.517 30.8461 943.609 17.7622 948.872C33.6805 939.541 50.2748 928.847 70.3734 921.162C84.4652 915.764 100.472 912.205 117.111 908.962C133.568 905.769 150.312 903.703 167.173 902.786C239.515 899.52 274.797 912.545 274.051 911.819Z" fill="#D8D8D8"/>
<path d="M304.948 922.964C297.284 920.541 264.715 912.593 224.884 912.559C213.679 912.196 185.564 912.975 155.883 918.032C126.139 922.938 94.8352 932.116 75.6379 945.111C66.2514 951.076 86.875 940.702 75.6379 945.111C61.8841 950.735 57.3518 943.629 43.6664 948.3C60.6348 939.712 78.4683 929.808 99.5023 923.06C114.25 918.331 130.709 915.498 147.782 913.02C164.619 910.601 181.66 909.31 198.744 909.16C271.729 909.207 305.612 923.746 304.948 922.986V922.964Z" fill="#D8D8D8"/>
<path d="M334.626 935.409C327.229 932.663 295.455 923.28 255.477 921.423C244.264 920.552 215.954 920.042 185.598 923.736C155.193 927.261 122.745 934.981 102.079 947.064C92.0209 952.579 113.825 943.172 102.079 947.064C87.6818 952.052 83.9179 944.789 69.6914 948.827C87.6295 941.036 106.616 931.975 128.484 926.21C143.811 922.159 160.655 920.086 178.072 918.401C195.192 916.749 212.442 916.232 229.659 916.855C302.922 920.227 335.224 936.201 334.632 935.405L334.626 935.409Z" fill="#D8D8D8"/>
<path d="M362.951 949.094C355.841 946.039 325.045 935.28 285.133 931.609C273.98 930.228 245.616 928.431 214.737 930.727C183.823 932.856 150.4 939.085 128.368 950.176C117.672 955.211 140.563 946.83 128.368 950.176C113.393 954.498 110.418 947.122 95.7063 950.512C114.532 943.551 134.58 935.386 157.165 930.633C173.005 927.296 190.132 925.991 207.803 925.094C225.118 924.227 242.488 924.497 259.752 925.902C332.902 932.581 363.443 949.901 362.951 949.087V949.094Z" fill="#D8D8D8"/>
<path d="M389.754 963.933C382.981 960.576 353.323 948.493 313.685 943.035C302.649 941.157 274.393 938.077 243.142 938.962C211.894 939.682 177.654 944.359 154.361 954.42C143.095 958.952 166.952 951.628 154.361 954.42C138.891 958.056 136.704 950.599 121.603 953.32C141.222 947.221 162.238 940.004 185.421 936.292C201.687 933.687 219.016 933.167 236.843 933.079C254.262 932.998 271.663 934.053 288.885 936.234C361.53 946.204 390.16 964.766 389.754 963.926V963.933Z" fill="#D8D8D8"/>
<path d="M414.916 979.843C408.509 976.22 380.15 962.893 341.001 955.651C330.138 953.286 302.134 948.938 270.695 948.397C239.255 947.701 204.385 950.809 179.957 959.771C168.173 963.769 192.874 957.552 179.957 959.771C164.051 962.698 162.679 955.206 147.251 957.242C167.569 952.051 189.432 945.811 213.111 943.164C229.71 941.318 247.155 941.567 265.057 942.287C282.486 942.991 299.823 944.831 316.909 947.788C388.66 960.995 415.226 980.698 414.916 979.843Z" fill="#D8D8D8"/>
<path fill-rule="evenodd" clip-rule="evenodd" d="M499 904.338C485.806 899.525 472.285 895.363 458.505 891.875C340.539 862.081 272.995 867.097 187.978 879.12C121.661 888.497 56.8589 906.98 1.25037 926.715V981.992H499V904.338Z" fill="#E5E5E5"/>
<path d="M151.987 895.593C150.607 895.664 149.438 895.746 148.513 895.821C148.305 895.974 149.488 895.828 151.987 895.593Z" fill="#D8D8D8"/>
<path d="M499 905.678C481.039 899.064 465.111 894.37 453.938 891.29C469.351 895.841 484.402 901.204 499 907.346V905.678Z" fill="#D1D1D1"/>
<path d="M499 915.096C433.542 884.201 380.003 882.626 354.648 882.626C370.122 884.12 426.322 879.876 499 919.609V915.096Z" fill="#D1D1D1"/>
<path d="M499 926.939C459.191 905.121 426.065 896.939 415.876 894.504C429.298 898.304 467.115 910.951 499 930.849V926.939Z" fill="#D1D1D1"/>
<path d="M499 940.268C440.374 902.238 395.511 893.188 383.492 890.987C397.937 894.305 437.048 906.189 473.387 930.551C479.034 933.958 488.302 940.386 499 949.094V940.268Z" fill="#D1D1D1"/>
<path d="M499 957.945C487.639 948.868 475.51 940.485 462.705 932.863C397.823 895.37 349.893 888.44 337.286 886.847C352.055 889.376 392.242 899.117 430.863 921.489C444.176 927.553 472.78 947.081 499 972.637V957.945Z" fill="#D1D1D1"/>
<path d="M499 979.428C491.019 972.043 482.281 964.952 473.236 957.903C457.535 945.664 440.134 934.496 420.446 924.374C353.037 890.916 295.119 884.694 278.185 883.166C296.491 885.53 347.911 895.008 387.575 914.734C405.035 921.437 448.73 948.158 481.937 981.992H499V979.428Z" fill="#D1D1D1"/>
<path d="M454.631 981.991H475.91C463.713 970.008 448.937 959.356 433.409 948.853C416.034 937.109 397.3 926.836 377.485 918.188C306.02 888.03 257.199 886.362 244.262 886.151C259.458 887.064 301.156 892.339 343.741 910.332C363.586 916.625 417.276 945.312 454.631 981.991Z" fill="#D1D1D1"/>
<path d="M426.133 981.992H448.286C446.825 980.521 445.338 979.065 443.808 977.628C429.468 964.224 411.621 952.957 392.812 941.946C374.352 931.148 354.661 921.898 334.023 914.328C256.05 886.787 206.012 889.281 196.223 889.679C216.046 890.041 252.796 891.775 299.593 908.308C321.577 913.903 385.218 943.312 426.133 981.992Z" fill="#D1D1D1"/>
<path d="M255.342 908.694C279.175 913.312 352.238 942.11 396.31 981.992H419.227C415.023 977.917 410.613 973.954 405.936 970.155C390.374 957.524 371.496 947.227 351.655 937.235C332.207 927.448 311.657 919.275 290.299 912.831C213.701 890.718 164.972 894.381 151.991 895.593C167.296 894.844 209.645 895.504 255.342 908.694Z" fill="#D1D1D1"/>
<path d="M211.224 911.473C225.797 914.184 261.516 923.678 297.249 940.348C321.43 951.442 345.602 965.801 364.515 981.992H388.919C382.224 975.95 375.131 970.12 367.458 964.705C350.736 952.915 330.915 943.645 310.154 934.741C289.811 926.021 268.499 918.973 246.519 913.697C167.943 895.821 119.641 902.13 106.746 904.057C121.993 902.474 164.338 900.814 211.224 911.473Z" fill="#D1D1D1"/>
<path d="M167.479 916.637C182.297 918.539 218.911 926.054 256.171 940.776C283.162 951.232 310.486 965.437 331.506 981.992H357.256C348.338 974.679 338.885 967.644 328.549 961.329C310.748 950.452 290.082 942.258 268.499 934.489C247.366 926.893 225.404 921.016 202.918 916.941C122.745 903.407 75.1189 912.334 62.3871 914.967C77.4947 912.556 119.617 908.576 167.479 916.637Z" fill="#D1D1D1"/>
<path d="M124.31 924.158C139.307 925.247 176.614 930.738 215.224 943.399C244.075 952.665 273.638 965.912 296.451 982H323.964C313.228 974.139 301.848 966.587 289.424 960.038C270.631 950.136 249.219 943.067 226.915 936.483C205.112 930.047 182.616 925.378 159.74 922.54C78.4039 913.437 31.695 924.933 19.1985 928.269C34.0607 925.025 75.7405 918.754 124.31 924.158Z" fill="#D1D1D1"/>
<path d="M81.9504 933.999C97.038 934.261 134.845 937.691 174.614 948.228C204.061 955.837 234.562 967.334 258.72 981.992H288.493C276.543 974.317 263.926 966.988 250.251 960.825C230.556 951.945 208.501 946.056 185.606 940.686C163.237 935.459 140.32 932.03 117.169 930.448C62.8094 927.399 24.4911 932.509 1.25232 937.473V938.69C21.3046 935.245 49.9206 932.214 81.9504 933.999Z" fill="#D1D1D1"/>
<path d="M134.544 955.216C162.854 960.849 192.423 969.863 217.022 981.992H249.961C237.754 975.265 224.946 968.92 211.253 963.71C190.758 955.913 168.181 951.219 144.799 947.122C121.985 943.125 98.7656 940.955 75.457 940.642C45.8854 940.607 21.2566 942.703 1.2666 945.618V948.303C14.313 946.835 27.4624 946.096 40.6269 946.09C55.7265 945.529 93.8215 946.863 134.544 955.216Z" fill="#D1D1D1"/>
<path d="M95.2135 964.342C119.726 967.813 145.381 973.679 168.289 981.991H206.803C195.869 977.015 184.508 972.425 172.582 968.674C151.395 962.001 128.402 958.547 104.664 955.726C81.5248 952.989 58.1255 952.095 34.783 953.058C22.7633 953.707 11.6005 954.66 1.25854 955.837V960.326C16.7685 958.969 54.4008 958.324 95.2135 964.342Z" fill="#D8D8D8"/>
<path d="M56.8249 975.558C72.1272 976.858 87.3087 979.007 102.268 981.991H155.658C148.748 979.655 141.689 977.514 134.463 975.693C112.691 970.185 89.4019 967.989 65.4308 966.474C44.0586 965.123 22.5857 965.339 1.25854 967.117V973.855C17.4706 973.422 36.6941 973.721 56.8249 975.558Z" fill="#D8D8D8"/>
<path d="M122.932 899.469C122.931 900.02 122.999 900.569 123.133 901.108C123.433 900.628 123.489 900.106 122.932 899.469Z" fill="#EBEBEB"/>
<path d="M124.145 886.194C123.64 887.033 121.409 902.712 121.409 903.816V887.591C119.897 892.011 118.678 896.498 117.756 901.03C115.318 907.744 127.65 911.204 140.878 911.416C131.959 909.734 125.457 891.384 124.145 886.194Z" fill="#D1D1D1"/>
<path d="M163.54 907.92C164.618 907.447 165.266 906.597 165.57 905.496C160.697 907.148 154.833 908.219 150.404 909.905C150.404 908.167 153.455 907.294 154.982 905.555C150.404 905.555 147.338 907.294 145.823 909.038C145.823 907.294 147.348 905.555 148.879 904.689C144.296 904.689 142.773 905.555 142.773 908.167V902.944C138.195 903.816 141.249 907.294 138.195 907.294C135.141 907.294 138.195 904.689 136.666 902.944C138.195 904.689 133.614 907.294 135.141 909.038C130.563 904.689 135.141 901.207 135.141 896.863C135.141 899.468 132.088 901.207 132.088 903.816C130.563 898.602 133.614 894.25 135.141 889.037C133.614 891.642 130.563 894.252 130.563 897.729C129.11 891.916 133.212 886.901 134.912 881.913C134.007 883.423 130.772 884.922 132.096 886.426C128.251 884.231 130.86 882.042 131.794 879.847C131.114 878.271 133.486 876.697 132.096 875.123C130.571 876.856 129.048 878.6 127.515 880.325C127.515 874.787 129.462 869.807 131.794 864.925C128.133 870.516 124.294 879.023 121.418 887.582V903.816C121.418 902.71 120.909 903.56 121.418 902.71C121.283 902.183 124.602 892.305 124.602 891.741C126.01 887.814 124.459 902.851 124.168 903.336C125.483 908.529 131.967 909.734 140.887 911.416C149.243 911.55 157.962 910.39 163.54 907.92Z" fill="#D7D7D7"/>
<path d="M132.087 880.332C131.958 880.184 131.857 880.021 131.786 879.847C130.852 882.043 128.243 884.231 132.087 886.426C130.772 884.916 134.007 883.417 134.904 881.913C134.984 881.678 135.065 881.44 135.133 881.205C135.123 881.453 135.045 881.695 134.904 881.913C133.204 886.901 129.102 891.916 130.555 897.73C130.555 894.252 133.606 891.642 135.133 889.038C133.606 894.252 130.555 898.604 132.079 903.817C132.079 901.207 135.133 899.468 135.133 896.864C135.133 901.207 130.555 904.689 135.133 909.038C133.606 907.294 138.187 904.689 136.658 902.944C138.187 904.689 135.133 907.294 138.187 907.294C141.24 907.294 138.187 903.817 142.765 902.944V908.167C142.765 905.555 144.288 904.689 148.871 904.689C147.34 905.555 145.815 907.294 145.815 909.038C147.34 907.294 150.396 905.555 154.974 905.555C153.447 907.294 150.396 908.167 150.396 909.906C155.093 910.339 159.319 909.906 165.562 905.497C165.863 904.407 165.817 903.033 165.543 901.487C164.632 902.321 163.65 903.1 162.604 903.817V902.08C161.08 902.944 164.131 904.689 161.08 904.689C159.549 904.689 162.604 902.08 159.549 902.08C159.549 902.944 159.549 903.817 158.024 904.689V903.572C157.092 903.74 153.799 902.694 154.974 904.689C151.922 904.689 154.974 902.944 153.447 902.08C150.396 901.207 153.447 903.817 151.922 903.817C150.382 903.379 150.009 902.722 150.013 902.061C147.632 901.909 150.321 900.299 148.871 899.468C148.871 900.341 145.815 901.207 145.815 902.08V899.468C145.815 900.059 144.435 900.643 144.005 901.23C144.038 901.526 144.136 901.813 144.292 902.08C143.801 901.791 143.791 901.511 144.005 901.23C143.735 899.076 147.173 897.538 145.815 895.991C144.704 896.655 143.786 897.519 143.131 898.52C143.015 898.836 142.898 899.153 142.765 899.468C142.802 899.134 142.927 898.81 143.131 898.52C144.278 895.36 144.288 892.191 144.288 889.038C141.241 890.77 142.765 894.252 139.714 895.991C139.714 891.642 142.765 888.165 141.241 883.815C139.714 885.553 138.187 887.292 138.187 889.038C138.187 884.927 142.26 880.814 138.859 876.716C138.858 876.917 138.795 877.115 138.678 877.291C138.56 877.467 138.391 877.616 138.187 877.723C138.187 876.464 136.602 874.755 136.294 873.252C133.894 872.344 139.641 865.214 138.187 864.383C135.133 863.516 132.079 870.761 132.079 872.506C130.546 871.332 130.056 870.078 130.068 868.784C128.571 872.449 127.503 876.236 127.503 880.327C129.036 878.595 130.559 876.852 132.083 875.125C133.473 876.699 131.102 878.273 131.782 879.849C131.965 879.438 132.087 879.466 132.087 880.332Z" fill="#DEDEDE"/>
<path d="M136.666 873.379C136.542 873.344 136.42 873.303 136.302 873.256C136.61 874.767 138.195 876.469 138.195 877.727C138.399 877.62 138.568 877.472 138.686 877.296C138.803 877.12 138.866 876.922 138.867 876.72C138.661 876.467 138.436 876.224 138.195 875.994C138.195 875.408 138.887 876.012 138.867 876.72C142.268 880.824 138.195 884.932 138.195 889.042C138.195 887.297 139.722 885.558 141.249 883.82C142.773 888.17 139.722 891.647 139.722 895.996C142.773 894.257 141.248 890.774 144.296 889.042C144.296 892.196 144.296 895.365 143.139 898.525C143.794 897.524 144.712 896.659 145.823 895.996C147.177 897.535 143.739 899.08 144.013 901.235C144.447 900.649 145.823 900.06 145.823 899.473V902.084C145.823 901.212 148.879 900.346 148.879 899.473C150.329 900.312 147.64 901.913 150.021 902.066C150.033 901.416 150.404 900.772 150.404 900.346V902.084C150.276 902.085 150.148 902.079 150.021 902.066C150.021 902.727 150.39 903.383 151.93 903.821C153.455 903.821 150.404 901.212 153.455 902.084C154.982 902.949 151.93 904.694 154.982 904.694C153.813 902.699 157.1 903.746 158.032 903.576V902.949C158.388 903.36 158.322 903.524 158.032 903.576V904.694C159.557 903.821 159.557 902.949 159.557 902.084C162.612 902.084 159.557 904.694 161.088 904.694C164.139 904.694 161.088 902.949 162.612 902.084V903.816C163.657 903.099 164.64 902.321 165.551 901.487C164.528 895.781 160.213 887.52 157.241 880.654C153.325 871.591 148.535 855.52 138.69 858.516C136.823 859.085 134.288 861.116 131.786 864.932C131.182 866.207 130.601 867.49 130.072 868.792C130.072 870.086 130.554 871.345 132.083 872.515C132.083 870.771 135.137 869.905 137.231 865.498C137.231 867.785 133.898 872.352 136.298 873.26C136.181 872.671 136.666 872.511 136.666 873.379Z" fill="#EBEBEB"/>
<path d="M2.19789 962.376C2.19627 963.584 2.34799 964.789 2.65051 965.971C3.29023 964.907 3.41294 963.762 2.19789 962.376Z" fill="#ECECEC"/>
<path d="M88.1203 981.992C89.0899 981.622 90.0294 981.248 90.9367 980.85C93.3124 979.801 94.7106 977.964 95.3804 975.559C88.1264 978.011 79.8725 979.879 72.2744 981.992H88.1203Z" fill="#D1D1D1"/>
<path d="M53.5015 981.992H63.9621C66.175 979.978 69.973 978.263 72.2382 975.681C63.3627 975.681 57.1305 978.669 53.5015 981.992Z" fill="#D1D1D1"/>
<path d="M28.237 981.991H52.3489C52.9805 978.635 55.9357 975.464 58.8888 973.784C48.8827 973.784 45.5474 975.681 45.5474 981.382V969.98C35.5413 971.881 42.2141 979.481 35.5413 979.481C28.8686 979.481 35.5414 973.784 32.208 969.98C35.1833 973.368 27.555 978.274 28.237 981.991Z" fill="#D1D1D1"/>
<path d="M48.8848 968.077C48.5376 967.494 48.3215 966.864 48.2471 966.216C47.7844 966.837 47.7985 967.456 48.8848 968.077Z" fill="#D1D1D1"/>
<path d="M46.352 960.305C45.8612 961.088 45.5474 961.815 45.5474 962.376C45.8511 961.686 46.1126 960.994 46.352 960.305Z" fill="#FDE8DD"/>
<path d="M78.9028 969.98V971.343C79.5285 971.232 79.6874 970.874 78.9028 969.98Z" fill="#FDE8DD"/>
<path d="M62.2221 964.284C62.2221 965.221 61.4174 966.634 61.3953 968.049C61.6507 968.06 61.9143 968.077 62.2221 968.077V964.284Z" fill="#E1E1E1"/>
<path d="M208.79 868.831C208.872 868.698 208.919 868.552 208.927 868.403C208.885 868.544 208.837 868.683 208.79 868.831Z" fill="#D1D1D1"/>
<path d="M201.57 879.403C201.569 879.737 201.612 880.071 201.699 880.398C201.803 880.241 201.846 880.061 201.823 879.883C201.8 879.705 201.712 879.537 201.57 879.403Z" fill="#D1D1D1"/>
<path d="M218.123 885.691C218.123 884.644 219.963 884.122 220.879 883.074C218.123 883.074 216.284 884.122 215.365 885.171C215.365 884.122 216.284 883.074 217.203 882.547C214.441 882.547 213.526 883.074 213.526 884.644V881.5C210.766 882.021 212.607 884.122 210.766 884.122C208.925 884.122 210.766 882.547 209.843 881.5C210.559 882.307 209.08 883.432 208.791 884.385C208.415 883.989 208.063 883.578 207.738 883.152C207.455 881.383 208.927 879.745 208.927 877.83C208.927 879.399 207.085 880.451 207.085 882.026C206.169 878.882 208.008 876.266 208.927 873.122C208.008 874.691 206.169 876.266 206.169 878.362C205.294 874.861 207.759 871.835 208.784 868.832C208.239 869.739 206.288 870.647 207.079 871.548C204.767 870.225 206.336 868.908 206.898 867.585C206.483 866.637 207.903 865.682 207.079 864.741L204.323 867.877C204.323 864.541 205.497 861.539 206.898 858.595C204.685 861.967 202.381 867.094 200.645 872.251C199.733 874.913 198.999 877.616 198.446 880.346C196.978 884.39 204.409 886.48 212.377 886.604C217.406 886.691 222.671 885.988 226.031 884.503C226.682 884.216 227.069 883.706 227.254 883.044C224.329 884.033 220.792 884.684 218.123 885.691Z" fill="#D1D1D1"/>
<path d="M225.477 882.024V880.981C224.556 881.503 226.396 882.551 224.556 882.551C223.64 882.551 225.477 880.981 223.64 880.981C223.64 881.503 223.64 882.024 222.721 882.551V881.879C222.156 881.985 220.176 881.352 220.878 882.551C219.04 882.551 220.878 881.503 219.963 880.981C218.122 880.454 219.963 882.024 219.04 882.024C218.114 881.76 217.887 881.362 217.891 880.965C216.457 880.877 218.076 879.911 217.203 879.402C217.203 879.929 215.364 880.454 215.364 880.981V879.402C215.364 879.758 214.532 880.11 214.266 880.468C214.29 880.646 214.35 880.819 214.441 880.981C214.147 880.814 214.139 880.636 214.266 880.468C214.109 879.174 216.179 878.237 215.364 877.313C214.696 877.71 214.146 878.231 213.755 878.833C213.683 879.028 213.614 879.214 213.534 879.402C213.555 879.201 213.631 879.007 213.755 878.833C214.447 876.927 214.449 875.023 214.449 873.127C212.614 874.169 213.534 876.27 211.693 877.323C211.693 874.7 213.534 872.605 212.614 869.982C211.693 871.029 210.774 872.083 210.774 873.13C210.774 870.655 213.23 868.179 211.176 865.704C211.176 865.826 211.139 865.947 211.069 866.054C210.999 866.161 210.897 866.252 210.774 866.318C210.774 865.556 209.818 864.526 209.633 863.618C208.185 863.074 211.645 858.778 210.774 858.281C208.935 857.754 207.092 862.121 207.092 863.175C206.705 862.898 206.396 862.554 206.188 862.166C205.979 861.779 205.876 861.357 205.885 860.932C204.984 863.144 204.346 865.422 204.346 867.886L207.102 864.749C207.937 865.69 206.499 866.645 206.921 867.594C207.036 867.353 207.098 867.097 207.102 866.838V867.886C207.026 867.796 206.965 867.698 206.921 867.594C206.36 868.916 204.791 870.234 207.102 871.556C206.312 870.655 208.263 869.747 208.808 868.841C208.855 868.693 208.903 868.554 208.945 868.413C208.937 868.562 208.89 868.708 208.808 868.841C207.776 871.843 205.312 874.869 206.193 878.37C206.193 876.274 208.032 874.7 208.951 873.13C208.032 876.274 206.193 878.89 207.108 882.034C207.108 880.464 208.951 879.412 208.951 877.838C208.951 880.459 206.193 882.556 208.951 885.179C208.032 884.13 210.79 882.556 209.866 881.508C210.79 882.556 208.951 884.13 210.79 884.13C212.628 884.13 210.79 882.029 213.55 881.508V884.652C213.55 883.083 214.465 882.556 217.227 882.556C216.308 883.083 215.388 884.13 215.388 885.179C216.308 884.13 218.146 883.083 220.902 883.083C219.987 884.13 218.146 884.652 218.146 885.699C220.816 884.68 224.353 884.038 227.284 883.047C227.467 882.386 227.438 881.56 227.269 880.624C226.715 881.127 226.116 881.595 225.477 882.024Z" fill="#D7D7D7"/>
<path d="M209.842 863.685C209.768 863.664 209.695 863.638 209.625 863.608C209.81 864.516 210.766 865.546 210.766 866.308C210.889 866.242 210.991 866.151 211.061 866.044C211.131 865.936 211.168 865.816 211.168 865.694C211.046 865.542 210.911 865.396 210.766 865.259C210.766 864.903 211.18 865.259 211.168 865.694C213.222 868.169 210.766 870.645 210.766 873.12C210.766 872.073 211.685 871.019 212.606 869.972C213.526 872.595 211.685 874.689 211.685 877.313C213.526 876.264 212.606 874.163 214.441 873.117C214.441 875.02 214.441 876.923 213.747 878.823C214.138 878.221 214.688 877.7 215.356 877.303C216.171 878.227 214.101 879.164 214.258 880.458C214.524 880.1 215.356 879.748 215.356 879.392V880.971C215.356 880.444 217.195 879.919 217.195 879.392C218.068 879.896 216.449 880.867 217.883 880.955C217.883 880.574 218.114 880.183 218.114 879.919V880.971C218.037 880.973 217.959 880.967 217.883 880.955C217.883 881.352 218.106 881.75 219.032 882.014C219.955 882.014 218.114 880.444 219.955 880.971C220.87 881.493 219.032 882.541 220.87 882.541C220.168 881.341 222.148 881.973 222.713 881.869V881.495C222.926 881.74 222.886 881.841 222.713 881.869V882.541C223.632 882.014 223.632 881.493 223.632 880.971C225.469 880.971 223.632 882.541 224.548 882.541C226.388 882.541 224.548 881.493 225.469 880.971V882.014C226.1 881.583 226.691 881.113 227.237 880.609C226.634 877.168 224.029 872.197 222.234 868.059C219.871 862.597 216.988 852.91 211.055 854.719C209.929 855.055 208.402 856.282 206.895 858.58C206.529 859.352 206.177 860.124 205.859 860.909C205.85 861.334 205.953 861.755 206.161 862.143C206.37 862.531 206.679 862.875 207.066 863.151C207.066 862.097 208.909 861.575 210.166 858.924C210.166 860.3 208.155 863.051 209.607 863.594C209.551 863.259 209.842 863.165 209.842 863.685Z" fill="#E7E7E7"/>
</g>
<g style="mix-blend-mode:multiply" opacity="0.6">
<path d="M501 193.396V248H398C400.279 232.769 408.523 221.476 418.343 221.476C423.085 221.476 427.459 224.116 430.977 228.542C435.199 215.25 443.565 206.2 453.202 206.2C458.264 206.2 462.96 208.703 466.906 212.991C472.321 199.714 481.437 191 491.777 191C494.989 191 498.094 191.839 501 193.396Z" fill="#F5F5F5"/>
</g>
<g style="mix-blend-mode:multiply" opacity="0.6">
<path d="M501 428.387V460H442C443.305 451.182 448.028 444.644 453.653 444.644C456.369 444.644 458.875 446.173 460.89 448.735C463.308 441.039 468.101 435.8 473.62 435.8C476.52 435.8 479.21 437.249 481.471 439.732C484.572 432.045 489.794 427 495.717 427C497.557 427 499.335 427.486 501 428.387Z" fill="#F5F5F5"/>
</g>
<g style="mix-blend-mode:multiply" opacity="0.6">
<path d="M97 568.906C97 570.305 96.8988 571.674 96.7253 573H0V551.74C3.15142 550.601 6.62086 549.981 10.2493 549.981C15.6703 549.981 20.701 551.379 24.9222 553.758C26.8449 539.07 35.504 528 45.8979 528C56.4364 528 65.1823 539.373 66.9604 554.348C70.0684 549.188 74.7811 545.902 80.072 545.902C89.425 545.902 97 556.208 97 568.906Z" fill="#F7F7F7"/>
</g>
<g style="mix-blend-mode:multiply" opacity="0.6">
<path d="M131 100.451C131 102.346 130.863 104.202 130.629 106H0V77.1803C4.25604 75.6368 8.94158 74.7966 13.8419 74.7966C21.163 74.7966 27.9571 76.6919 33.6578 79.9158C36.2544 60.0058 47.9487 45 61.9858 45C76.2182 45 88.0297 60.4161 90.431 80.7169C94.6285 73.722 100.993 69.2671 108.138 69.2671C120.77 69.2671 131 83.2374 131 100.451Z" fill="#F7F7F7"/>
</g>
<g style="mix-blend-mode:multiply">
<path d="M84.7435 337.345C82.0278 337.119 79.7122 338.449 79.5534 340.304L89.3784 341.108C89.5373 339.253 87.4592 337.571 84.7435 337.345Z" fill="#D8D8D8"/>
<path d="M88.5973 335.204C89.8323 332.785 92.1855 331.509 93.8405 332.352L89.3681 341.12C87.7019 340.277 87.3624 337.623 88.5973 335.204Z" fill="#D8D8D8"/>
</g>
<g style="mix-blend-mode:multiply">
<path d="M426.001 479.771C424.628 477.416 422.211 476.282 420.6 477.216L425.576 485.726C427.187 484.792 427.374 482.125 426.001 479.771Z" fill="#D8D8D8"/>
<path d="M429.965 481.699C432.655 481.324 435.05 482.519 435.308 484.359L425.561 485.724C425.295 483.876 427.275 482.075 429.965 481.699Z" fill="#D8D8D8"/>
</g>
<g style="mix-blend-mode:multiply" opacity="0.51">
<path opacity="0.7" d="M314.029 420.651C324.288 420.651 332.605 419.492 332.605 418.063C332.605 416.633 324.288 415.474 314.029 415.474C303.77 415.474 295.453 416.633 295.453 418.063C295.453 419.492 303.77 420.651 314.029 420.651Z" fill="#787878"/>
<path d="M307.584 422.306H320.474C321.401 422.306 322.16 421.555 322.167 420.629C322.167 419.696 321.408 418.938 320.474 418.938H307.584C306.65 418.938 305.891 419.696 305.891 420.629C305.898 421.555 306.657 422.306 307.584 422.306Z" fill="#181818"/>
<path d="M316.343 421.344L315.16 424.049C314.897 424.691 314.167 424.997 313.532 424.734C313.219 424.61 312.978 424.362 312.846 424.049L311.708 421.351L316.343 421.344Z" fill="#181818"/>
<path opacity="0.7" d="M179.496 420.651C189.755 420.651 198.072 419.492 198.072 418.063C198.072 416.633 189.755 415.474 179.496 415.474C169.237 415.474 160.92 416.633 160.92 418.063C160.92 419.492 169.237 420.651 179.496 420.651Z" fill="#787878"/>
<path d="M173.051 422.306H185.941C186.868 422.306 187.627 421.555 187.634 420.629C187.634 419.696 186.875 418.938 185.941 418.938H173.051C172.117 418.938 171.358 419.696 171.358 420.629C171.365 421.555 172.124 422.306 173.051 422.306Z" fill="#181818"/>
<path d="M181.81 421.344L180.627 424.049C180.364 424.691 179.635 424.997 179 424.734C178.686 424.61 178.445 424.362 178.313 424.049L177.175 421.351L181.81 421.344Z" fill="#181818"/>
<path d="M178.372 479.338C177.547 479.338 176.722 479.156 175.963 478.799L173.591 477.698C172.591 477.231 171.708 476.473 171.036 475.503L156.285 454.183C155.344 452.82 154.862 451.106 154.928 449.357L155.373 437.53C155.431 435.912 155.972 434.344 156.891 433.119C157.541 432.251 158.38 431.566 159.307 431.136L178.437 422.299C179.197 421.949 179.999 421.774 180.817 421.774H181.62C181.963 421.774 182.306 421.803 182.649 421.869L220.676 428.948L219.72 434.06L181.693 426.98L180.817 426.972C180.751 426.972 180.686 426.987 180.62 427.023L161.489 435.86C161.344 435.926 161.19 436.065 161.059 436.24C160.774 436.619 160.599 437.158 160.577 437.727L160.125 449.553C160.103 450.18 160.263 450.786 160.563 451.223L175.321 472.55C175.46 472.754 175.627 472.907 175.795 472.987L178.167 474.088C178.248 474.125 178.321 474.139 178.386 474.139L194.451 473.272C194.48 473.272 194.51 473.264 194.539 473.257L194.685 473.221C194.882 473.17 195.086 472.987 195.261 472.732L196.59 470.771C196.714 470.589 196.809 470.377 196.882 470.144L204.188 446.63C204.852 444.493 206.385 442.816 208.283 442.153L219.348 438.288L221.063 443.195L209.998 447.06C209.742 447.147 209.37 447.49 209.158 448.168L201.852 471.682C201.626 472.404 201.305 473.075 200.903 473.68L199.575 475.641C198.699 476.932 197.451 477.858 196.057 478.237L195.911 478.274C195.524 478.383 195.13 478.441 194.729 478.463L178.664 479.331C178.569 479.338 178.467 479.338 178.372 479.338Z" fill="#BFBFBF"/>
<path d="M314.35 479.338C314.255 479.338 314.153 479.338 314.058 479.331L297.993 478.463C297.599 478.442 297.198 478.376 296.811 478.274L296.665 478.237C295.271 477.858 294.015 476.932 293.147 475.642L291.818 473.68C291.41 473.075 291.089 472.404 290.87 471.69L283.563 448.176C283.352 447.505 282.979 447.155 282.724 447.067L271.659 443.203L273.374 438.296L284.439 442.16C286.337 442.824 287.862 444.494 288.527 446.637L295.833 470.151C295.906 470.385 296.008 470.596 296.125 470.779L297.453 472.74C297.628 472.995 297.84 473.177 298.03 473.228L298.176 473.265C298.205 473.272 298.234 473.279 298.263 473.279L314.328 474.147C314.394 474.147 314.467 474.132 314.547 474.096L316.919 472.995C317.08 472.922 317.248 472.762 317.394 472.558L332.152 451.231C332.459 450.793 332.612 450.181 332.59 449.561L332.145 437.727C332.123 437.159 331.948 436.619 331.663 436.24C331.532 436.065 331.378 435.926 331.232 435.861L312.102 427.024C312.029 426.995 311.963 426.973 311.905 426.973H311.102L273.002 434.053L272.046 428.941L310.073 421.862C310.409 421.796 310.752 421.767 311.095 421.767H311.898C312.722 421.767 313.518 421.942 314.277 422.299L333.407 431.136C334.334 431.566 335.174 432.252 335.823 433.119C336.743 434.344 337.276 435.905 337.341 437.53L337.787 449.357C337.852 451.107 337.371 452.82 336.429 454.184L321.671 475.511C320.999 476.48 320.116 477.239 319.116 477.705L316.744 478.806C315.992 479.156 315.168 479.338 314.35 479.338Z" fill="#BFBFBF"/>
<path d="M152.388 480.548C151.468 480.548 150.571 480.388 149.702 480.06L146.199 478.755C144.994 478.303 143.914 477.552 143.067 476.582L121.266 451.332C119.974 449.838 119.317 447.927 119.404 445.951L120.069 431.952C120.156 430.137 120.886 428.401 122.134 427.067C122.944 426.2 123.966 425.521 125.076 425.113L153.359 414.658C154.213 414.344 155.11 414.184 156.03 414.184H157.22C157.599 414.184 157.979 414.213 158.351 414.264L214.567 422.641L213.917 426.965L157.702 418.595C157.541 418.573 157.38 418.558 157.212 418.558H156.023C155.629 418.558 155.242 418.624 154.877 418.762L126.594 429.225C126.112 429.4 125.674 429.692 125.331 430.064C124.798 430.633 124.477 431.384 124.441 432.164L123.776 446.163C123.74 447.009 124.017 447.833 124.579 448.474L146.388 473.717C146.753 474.132 147.213 474.46 147.731 474.65L151.235 475.955C151.651 476.108 152.089 476.181 152.534 476.159L176.284 475.131C176.474 475.124 176.664 475.102 176.846 475.058L177.065 475.014C177.773 474.861 178.423 474.468 178.89 473.913L180.854 471.587C181.087 471.31 181.277 470.997 181.408 470.654L192.196 442.831C193.065 440.585 194.97 438.857 197.291 438.215L213.647 433.644L214.83 437.858L198.473 442.43C197.473 442.707 196.656 443.451 196.283 444.42L185.488 472.244C185.182 473.031 184.751 473.768 184.204 474.416L182.24 476.742C181.153 478.033 179.649 478.937 178.007 479.294L177.788 479.345C177.357 479.44 176.919 479.498 176.482 479.513L152.731 480.541C152.614 480.541 152.505 480.548 152.388 480.548Z" fill="#D1D1D1"/>
<path d="M289.461 417.837C276.659 415.686 263.667 414.891 250.696 415.474C237.734 414.891 224.742 415.686 211.947 417.837C209.75 418.289 208.151 420.192 208.078 422.43V436.174C208.151 438.413 209.75 440.316 211.947 440.768C224.742 442.919 237.734 443.706 250.696 443.115C263.667 443.706 276.659 442.926 289.461 440.768C291.65 440.308 293.249 438.413 293.329 436.174V422.459C293.256 420.214 291.658 418.303 289.461 417.837Z" fill="#ECECEC"/>
<path opacity="0.2" d="M289.461 417.837C276.659 415.686 263.667 414.891 250.696 415.474C237.734 414.891 224.742 415.686 211.947 417.837C209.75 418.289 208.151 420.192 208.078 422.43V436.174C208.151 438.413 209.75 440.316 211.947 440.768C224.742 442.919 237.734 443.706 250.696 443.115C263.667 443.706 276.659 442.926 289.461 440.768C291.65 440.308 293.249 438.413 293.329 436.174V422.459C293.256 420.214 291.658 418.303 289.461 417.837Z" fill="#787878"/>
<path d="M290.534 433.338C290.183 433.338 289.899 433.054 289.899 432.704V424.654C289.899 424.304 290.183 424.02 290.534 424.02C290.884 424.02 291.169 424.304 291.169 424.654V432.704C291.154 433.054 290.877 433.331 290.534 433.338Z" fill="#D8D8D8"/>
<path d="M288.46 433.338C288.11 433.338 287.825 433.054 287.825 432.704V424.654C287.825 424.304 288.11 424.02 288.46 424.02C288.811 424.02 289.095 424.304 289.095 424.654V432.704C289.081 433.054 288.803 433.331 288.46 433.338Z" fill="#D8D8D8"/>
<path d="M286.388 433.338C286.037 433.338 285.753 433.054 285.753 432.704V424.654C285.753 424.304 286.037 424.02 286.388 424.02C286.738 424.02 287.023 424.304 287.023 424.654V432.704C287.023 433.054 286.738 433.338 286.388 433.338Z" fill="#D8D8D8"/>
<path opacity="0.2" d="M223.771 425.967C224.048 426.666 224.713 427.126 225.464 427.126H251.405C252.047 427.126 252.645 426.783 252.974 426.229L258.901 416.058C246.018 414.898 233.048 415.103 220.202 416.663L223.771 425.967Z" fill="#787878"/>
<path opacity="0.2" d="M272.885 417.837C269.374 417.246 265.834 416.765 262.294 416.371L255.652 427.731C254.776 429.247 253.156 430.181 251.404 430.181H225.464C223.428 430.173 221.61 428.919 220.88 427.023L217.027 417.027C215.333 417.268 213.64 417.523 211.976 417.807C209.779 418.259 208.18 420.162 208.107 422.401V436.145C208.18 438.383 209.779 440.286 211.976 440.738C232.143 444.136 252.74 444.136 272.907 440.738C275.104 440.286 276.709 438.383 276.782 436.145V422.459C276.717 420.199 275.104 418.281 272.885 417.837ZM259.681 436.772C258.689 436.772 257.886 435.97 257.886 434.978C257.886 433.987 258.689 433.185 259.681 433.185C260.674 433.185 261.477 433.987 261.477 434.978C261.477 435.97 260.674 436.772 259.681 436.772ZM266.644 436.772C265.652 436.772 264.849 435.97 264.849 434.978C264.849 433.987 265.652 433.185 266.644 433.185C267.637 433.185 268.44 433.987 268.44 434.978C268.447 435.963 267.652 436.765 266.674 436.772C266.659 436.772 266.652 436.772 266.644 436.772Z" fill="#787878"/>
<path d="M347.604 480.548C347.494 480.548 347.377 480.548 347.268 480.541L323.517 479.513C323.08 479.491 322.634 479.44 322.204 479.345L321.992 479.301C320.342 478.944 318.839 478.033 317.759 476.749L315.795 474.424C315.248 473.775 314.817 473.046 314.511 472.251L303.716 444.42C303.343 443.458 302.526 442.714 301.526 442.437L285.169 437.865L286.352 433.651L302.708 438.223C305.029 438.872 306.934 440.6 307.803 442.838L318.598 470.669C318.729 471.011 318.919 471.325 319.153 471.602L321.116 473.928C321.583 474.482 322.233 474.868 322.941 475.029L323.153 475.073C323.335 475.116 323.525 475.138 323.715 475.145L347.465 476.173C347.91 476.195 348.348 476.122 348.764 475.969L352.268 474.664C352.786 474.467 353.253 474.147 353.611 473.731L375.42 448.489C375.974 447.847 376.259 447.023 376.223 446.177L375.558 432.178C375.522 431.398 375.208 430.647 374.668 430.078C374.318 429.706 373.88 429.415 373.405 429.24L345.122 418.77C344.757 418.631 344.37 418.565 343.976 418.565H342.786C342.626 418.565 342.458 418.58 342.297 418.602L286.082 426.98L285.432 422.656L341.648 414.278C342.02 414.22 342.407 414.198 342.779 414.198H343.969C344.881 414.198 345.779 414.358 346.64 414.672L374.923 425.128C376.04 425.543 377.055 426.214 377.865 427.082C379.113 428.409 379.843 430.144 379.93 431.967L380.595 445.966C380.689 447.942 380.025 449.845 378.733 451.347L356.924 476.589C356.085 477.566 354.997 478.317 353.793 478.762L350.29 480.067C349.421 480.381 348.523 480.548 347.604 480.548Z" fill="#D1D1D1"/>
<path opacity="0.7" d="M155.746 410.487C172.547 410.487 186.167 408.587 186.167 406.243C186.167 403.9 172.547 402 155.746 402C138.944 402 125.324 403.9 125.324 406.243C125.324 408.587 138.944 410.487 155.746 410.487Z" fill="#BBBBBB"/>
<path d="M145.199 413.192H166.307C167.833 413.192 169.066 411.959 169.073 410.443C169.073 408.919 167.833 407.679 166.307 407.679H145.199C143.673 407.679 142.432 408.919 142.432 410.443C142.44 411.967 143.673 413.192 145.199 413.192Z" fill="#A3A2A5"/>
<path d="M159.541 411.617L157.607 416.05C157.183 417.093 155.986 417.596 154.935 417.173C154.424 416.969 154.023 416.561 153.811 416.05L151.943 411.632L159.541 411.617Z" fill="#A3A2A5"/>
<path opacity="0.7" d="M343.159 410.487C359.96 410.487 373.58 408.587 373.58 406.243C373.58 403.9 359.96 402 343.159 402C326.357 402 312.737 403.9 312.737 406.243C312.737 408.587 326.357 410.487 343.159 410.487Z" fill="#CECFCF"/>
<path d="M332.604 413.192H353.713C355.238 413.192 356.472 411.959 356.479 410.443C356.479 408.919 355.238 407.679 353.713 407.679H332.604C331.079 407.679 329.838 408.919 329.838 410.443C329.845 411.967 331.086 413.192 332.604 413.192Z" fill="#A3A2A5"/>
<path d="M346.947 411.617L345.013 416.05C344.589 417.093 343.392 417.596 342.341 417.173C341.83 416.969 341.429 416.561 341.217 416.05L339.349 411.632L346.947 411.617Z" fill="#A3A2A5"/>
<g clip-path="url(#clip0_13_1080)">
<path d="M226.369 419.034L223.971 423.194H225.445L226.369 421.592C226.246 421.592 226.144 421.506 226.117 421.392H225.268C225.235 421.392 225.207 421.365 225.207 421.331C225.207 421.298 225.235 421.271 225.268 421.271H226.117C226.145 421.156 226.247 421.071 226.37 421.071C226.492 421.071 226.594 421.156 226.622 421.271H227.471C227.504 421.271 227.532 421.298 227.532 421.331C227.532 421.365 227.504 421.392 227.471 421.392H226.621C226.594 421.506 226.491 421.592 226.369 421.592L227.293 423.194H228.767L226.369 419.034Z" fill="#F75506"/>
</g>
<path d="M231.775 420.429H232.246V423.219H231.773L231.756 422.748C231.668 422.91 231.547 423.041 231.393 423.141C231.239 423.242 231.056 423.292 230.845 423.292C230.638 423.292 230.445 423.253 230.266 423.176C230.086 423.099 229.929 422.992 229.791 422.855C229.654 422.719 229.547 422.561 229.47 422.382C229.394 422.204 229.355 422.011 229.355 421.804C229.355 421.605 229.393 421.418 229.468 421.241C229.542 421.064 229.646 420.909 229.78 420.776C229.913 420.644 230.068 420.539 230.243 420.464C230.419 420.388 230.606 420.351 230.806 420.351C231.029 420.351 231.223 420.402 231.39 420.506C231.557 420.609 231.691 420.742 231.792 420.906L231.775 420.429ZM230.857 422.837C231.043 422.837 231.204 422.791 231.338 422.698C231.473 422.604 231.575 422.48 231.645 422.324C231.715 422.167 231.746 421.994 231.739 421.804C231.732 421.619 231.687 421.45 231.607 421.299C231.527 421.149 231.419 421.029 231.282 420.94C231.146 420.852 230.987 420.808 230.806 420.808C230.621 420.808 230.453 420.854 230.302 420.947C230.151 421.04 230.033 421.165 229.948 421.321C229.862 421.477 229.824 421.652 229.831 421.843C229.841 422.027 229.893 422.195 229.988 422.345C230.083 422.496 230.207 422.615 230.359 422.704C230.512 422.793 230.677 422.837 230.857 422.837Z" fill="white"/>
<path d="M232.767 423.22L233.792 421.819L232.773 420.423H233.353L234.084 421.417L234.812 420.423H235.392L234.372 421.819L235.397 423.22H234.818L234.084 422.215L233.347 423.22H232.767Z" fill="white"/>
<path d="M236.006 423.22V419.034H236.474V423.22H236.006Z" fill="white"/>
<path d="M239.448 419.034H239.918V423.22H239.448V422.745C239.353 422.909 239.225 423.041 239.064 423.141C238.903 423.242 238.715 423.292 238.498 423.292C238.295 423.292 238.105 423.254 237.927 423.178C237.749 423.101 237.593 422.996 237.458 422.861C237.322 422.726 237.216 422.571 237.14 422.394C237.063 422.217 237.025 422.027 237.025 421.824C237.025 421.622 237.063 421.431 237.14 421.253C237.217 421.076 237.323 420.92 237.458 420.784C237.593 420.649 237.749 420.544 237.927 420.468C238.105 420.392 238.295 420.354 238.498 420.354C238.715 420.354 238.903 420.404 239.064 420.504C239.225 420.605 239.353 420.737 239.448 420.901V419.034ZM238.504 422.837C238.689 422.837 238.849 422.792 238.984 422.702C239.12 422.612 239.224 422.49 239.298 422.335C239.372 422.18 239.408 422.01 239.408 421.824C239.408 421.635 239.371 421.463 239.296 421.309C239.222 421.156 239.116 421.034 238.981 420.944C238.845 420.853 238.686 420.808 238.503 420.808C238.319 420.808 238.151 420.854 238 420.945C237.85 421.036 237.73 421.158 237.641 421.312C237.552 421.465 237.506 421.636 237.506 421.824C237.506 422.012 237.552 422.182 237.644 422.336C237.735 422.489 237.856 422.611 238.008 422.701C238.159 422.792 238.325 422.837 238.504 422.837Z" fill="white"/>
<path d="M242.213 420.892C242.166 420.866 242.116 420.846 242.062 420.831C242.007 420.816 241.949 420.808 241.885 420.808C241.73 420.808 241.593 420.85 241.472 420.934C241.351 421.018 241.257 421.131 241.187 421.275C241.118 421.418 241.084 421.576 241.084 421.749V423.22H240.61V420.429H241.081V420.859C241.182 420.702 241.307 420.579 241.456 420.489C241.606 420.398 241.771 420.353 241.952 420.353C242.014 420.353 242.072 420.356 242.128 420.361C242.184 420.367 242.238 420.378 242.288 420.395L242.213 420.892Z" fill="white"/>
<path d="M243.741 423.292C243.484 423.292 243.249 423.226 243.037 423.094C242.824 422.962 242.656 422.785 242.53 422.563C242.404 422.341 242.34 422.094 242.34 421.824C242.34 421.619 242.377 421.429 242.45 421.251C242.522 421.074 242.623 420.917 242.751 420.782C242.879 420.647 243.028 420.542 243.197 420.465C243.367 420.389 243.549 420.351 243.741 420.351C243.998 420.351 244.233 420.417 244.445 420.549C244.657 420.681 244.826 420.859 244.952 421.082C245.078 421.305 245.142 421.553 245.142 421.824C245.142 422.027 245.105 422.217 245.032 422.394C244.96 422.571 244.859 422.726 244.731 422.861C244.603 422.996 244.455 423.102 244.286 423.178C244.117 423.254 243.935 423.292 243.741 423.292ZM243.741 422.823C243.917 422.823 244.075 422.778 244.216 422.685C244.357 422.593 244.468 422.471 244.549 422.319C244.63 422.168 244.671 422.003 244.671 421.824C244.671 421.641 244.629 421.474 244.546 421.321C244.463 421.169 244.352 421.047 244.212 420.956C244.072 420.865 243.915 420.819 243.741 420.819C243.566 420.819 243.408 420.865 243.268 420.958C243.128 421.05 243.017 421.172 242.935 421.324C242.852 421.477 242.811 421.643 242.811 421.824C242.811 422.01 242.853 422.179 242.937 422.331C243.021 422.482 243.135 422.602 243.276 422.691C243.418 422.779 243.573 422.823 243.741 422.823Z" fill="white"/>
<path d="M248.127 421.735V423.22H247.657V421.746C247.657 421.573 247.62 421.415 247.547 421.273C247.475 421.131 247.375 421.017 247.25 420.932C247.126 420.848 246.984 420.806 246.828 420.806C246.672 420.806 246.535 420.848 246.414 420.932C246.294 421.017 246.199 421.131 246.13 421.273C246.061 421.415 246.026 421.573 246.026 421.746V423.22H245.555V420.429H246.026V420.859C246.127 420.701 246.251 420.576 246.4 420.486C246.548 420.395 246.714 420.351 246.897 420.351C247.14 420.351 247.353 420.414 247.537 420.541C247.72 420.667 247.864 420.835 247.968 421.044C248.072 421.253 248.125 421.484 248.127 421.735Z" fill="white"/>
<path d="M249.893 423.292C249.635 423.292 249.401 423.226 249.188 423.094C248.976 422.962 248.807 422.785 248.681 422.563C248.555 422.341 248.492 422.094 248.492 421.824C248.492 421.619 248.528 421.429 248.601 421.251C248.674 421.074 248.774 420.917 248.903 420.782C249.03 420.647 249.179 420.542 249.349 420.465C249.519 420.389 249.7 420.351 249.892 420.351C250.104 420.351 250.297 420.393 250.474 420.478C250.65 420.562 250.801 420.68 250.928 420.831C251.054 420.982 251.148 421.156 251.21 421.355C251.273 421.555 251.296 421.767 251.279 421.995H248.993C249.016 422.153 249.068 422.294 249.15 422.418C249.232 422.542 249.337 422.64 249.466 422.712C249.593 422.784 249.736 422.822 249.893 422.823C250.061 422.823 250.213 422.78 250.349 422.694C250.486 422.607 250.596 422.489 250.68 422.338L251.159 422.449C251.047 422.697 250.878 422.899 250.652 423.057C250.426 423.214 250.173 423.292 249.893 423.292ZM248.98 421.626H250.806C250.791 421.47 250.74 421.327 250.655 421.198C250.569 421.068 250.46 420.965 250.327 420.887C250.194 420.809 250.05 420.769 249.893 420.769C249.736 420.769 249.592 420.807 249.462 420.884C249.331 420.96 249.223 421.063 249.138 421.192C249.053 421.321 249 421.466 248.98 421.626Z" fill="white"/>
</g>
<defs>
<clipPath id="clip0_13_1080">
<rect width="4.79707" height="4.16072" fill="white" transform="translate(223.971 419.034)"/>
</clipPath>
</defs>
</svg>
