<svg width="80" height="80" viewBox="0 0 80 80" fill="none" xmlns="http://www.w3.org/2000/svg">
<path d="M71.5328 80H8.83789V31.3155L40.1803 13.0462L71.5328 31.3155V80Z" fill="#ECECEC"/>
<path opacity="0.2" d="M71.5328 80H8.83789V31.3155L40.1803 13.0462L71.5328 31.3155V80Z" fill="#6F6E73"/>
<path d="M67.9997 10.731H12.376V76.2791H67.9997V10.731Z" fill="#FDD2BD"/>
<path d="M36.7977 49.9477L24.0615 38.1097L28.3403 34.2326L35.7818 41.1461L51.2403 18.9032L56.3097 21.8708L36.7977 49.9477Z" fill="#F75506"/>
<path d="M71.5328 43.5027V80H8.83789V43.5027C11.5302 44.9038 14.1776 46.3738 16.8399 47.8071C19.4972 49.2679 22.1495 50.7287 24.7868 52.2171C27.7244 53.857 30.662 55.5291 33.5896 57.2105C33.6196 57.1921 33.6546 57.1737 33.6846 57.1599C33.6546 57.1783 33.6396 57.2013 33.6096 57.2196C35.8015 58.4737 37.9984 59.737 40.1903 60.9957C42.3722 59.7324 44.5692 58.4645 46.7611 57.2196C46.731 57.2013 46.716 57.1783 46.686 57.1599C46.716 57.1783 46.7511 57.1967 46.7811 57.2013C49.7087 55.5245 52.6362 53.857 55.5838 52.2079C58.2211 50.7287 60.8634 49.2587 63.5207 47.8071C66.1981 46.3692 68.8404 44.9038 71.5328 43.5027Z" fill="#ECECEC"/>
<g opacity="0.2">
<path opacity="0.2" d="M71.5329 43.5027C69.0007 45.1381 66.4184 46.7 63.8712 48.3078C61.2989 49.8788 58.7217 51.4545 56.1294 53.0072C53.427 54.6334 50.7147 56.2412 48.0023 57.8398C47.9172 57.8903 47.8421 57.9455 47.7571 57.996C45.355 59.4063 42.9479 60.8119 40.5357 62.2222L40.1804 62.4198L39.8301 62.2222C37.418 60.8119 35.0209 59.4063 32.6188 57.9868C32.5337 57.9455 32.4487 57.8903 32.3636 57.8398C29.6412 56.2412 26.9288 54.6334 24.2265 52.998C21.6442 51.4499 19.067 49.8788 16.4947 48.3032C13.9425 46.6954 11.3652 45.1335 8.83301 43.4981C11.5254 44.8992 14.1727 46.3692 16.835 47.8025C19.4923 49.2633 22.1447 50.7241 24.782 52.2125C27.7195 53.8524 30.6571 55.5245 33.5847 57.2059C33.5947 57.2059 33.5947 57.2059 33.6047 57.215C35.7966 58.4691 37.9935 59.7324 40.1854 60.9911C42.3674 59.7278 44.5643 58.46 46.7562 57.215C46.7662 57.1967 46.7662 57.1967 46.7762 57.1967C49.7038 55.52 52.6313 53.8524 55.5789 52.2033C58.2162 50.7241 60.8585 49.2541 63.5159 47.8025C66.1982 46.3692 68.8405 44.9038 71.5329 43.5027Z" fill="#3C3C3C"/>
<path opacity="0.2" d="M33.6849 57.1599C33.6549 57.1783 33.6399 57.2013 33.6098 57.2196C33.2795 57.4769 32.9492 57.7387 32.619 57.9868C31.0476 59.2041 29.4362 60.3709 27.7997 61.5056C25.803 62.9067 23.7612 64.2435 21.7094 65.5757C19.6476 66.8803 17.5758 68.1757 15.4589 69.4206C13.3421 70.6655 11.2052 71.8829 8.98828 72.9991C10.8899 71.4694 12.8667 70.0454 14.8634 68.6535C16.8702 67.2524 18.912 65.9156 20.9538 64.5834C23.0256 63.2696 25.0974 61.9742 27.2142 60.7293C28.9007 59.737 30.6122 58.7585 32.3637 57.8444C32.7691 57.6285 33.1744 57.4218 33.5898 57.215C33.6198 57.1921 33.6549 57.1737 33.6849 57.1599Z" fill="#3C3C3C"/>
<path opacity="0.2" d="M71.3831 72.9991C69.1712 71.8829 67.0243 70.6655 64.9125 69.4206C62.7956 68.1757 60.7238 66.8803 58.652 65.5757C56.6002 64.2435 54.5584 62.9067 52.5617 61.5056C50.9352 60.3755 49.3238 59.2133 47.7575 57.996C47.4172 57.7387 47.0869 57.4769 46.7616 57.2196C46.7316 57.2013 46.7165 57.1783 46.6865 57.1599C46.7165 57.1783 46.7516 57.1967 46.7816 57.2013C47.197 57.4172 47.6023 57.6239 48.0077 57.8398C49.7592 58.754 51.4607 59.7324 53.1572 60.7247C55.274 61.9696 57.3458 63.265 59.4077 64.5788C61.4594 65.911 63.5012 67.2478 65.498 68.6489C67.5047 70.0454 69.4815 71.4694 71.3831 72.9991Z" fill="#3C3C3C"/>
</g>
<path d="M13.3617 7.6027C13.1615 6.33483 13.1165 5.06696 13.1064 3.79909C13.1114 2.53121 13.1565 1.26334 13.3517 -0.00453186C13.5518 1.26334 13.5969 2.53121 13.6069 3.79909C13.6019 5.06696 13.5568 6.33483 13.3617 7.6027Z" fill="#FA9260"/>
<path d="M9.84365 8.8108C8.72767 8.04364 7.71679 7.17542 6.73593 6.28883C5.76508 5.38846 4.81925 4.46512 3.97852 3.44071C5.09449 4.20787 6.10538 5.07149 7.08623 5.96268C8.05708 6.86305 9.00291 7.78639 9.84365 8.8108Z" fill="#FA9260"/>
<path d="M8.28237 11.9483C6.90116 12.1321 5.51995 12.1734 4.13874 12.1826C2.75753 12.178 1.37633 12.1367 -0.00488281 11.9575C1.37633 11.7738 2.75753 11.7324 4.13874 11.7232C5.51995 11.7278 6.90116 11.7692 8.28237 11.9483Z" fill="#FA9260"/>
<path d="M9.59817 15.1777C8.76243 16.2021 7.81661 17.1301 6.85076 18.0304C5.8699 18.9216 4.86402 19.7898 3.74805 20.5616C4.58378 19.5372 5.5246 18.6092 6.49545 17.7089C7.47631 16.8177 8.48219 15.9495 9.59817 15.1777Z" fill="#FA9260"/>
<path d="M66.6388 7.6027C66.4436 6.33483 66.3986 5.06696 66.3936 3.79909C66.4036 2.53121 66.4486 1.26334 66.6488 -0.00453186C66.8439 1.26334 66.889 2.53121 66.894 3.79909C66.879 5.07155 66.8339 6.33483 66.6388 7.6027Z" fill="#FA9260"/>
<path d="M70.1562 8.8108C70.992 7.78639 71.9378 6.86305 72.9137 5.96268C73.8945 5.07149 74.9054 4.20787 76.0214 3.44071C75.1857 4.46512 74.2398 5.38846 73.264 6.28883C72.2831 7.17542 71.2722 8.04364 70.1562 8.8108Z" fill="#FA9260"/>
<path d="M71.7129 11.9483C73.0941 11.7692 74.4753 11.7278 75.8565 11.7232C77.2377 11.7324 78.6189 11.7738 80.0001 11.9575C78.6189 12.1367 77.2377 12.178 75.8565 12.1826C74.4753 12.1734 73.0941 12.1321 71.7129 11.9483Z" fill="#FA9260"/>
<path d="M70.4014 15.1777C71.5173 15.9449 72.5232 16.8131 73.5041 17.7043C74.4749 18.6047 75.4158 19.5326 76.2515 20.557C75.1355 19.7898 74.1296 18.9216 73.1488 18.0258C72.1779 17.1301 71.2371 16.2021 70.4014 15.1777Z" fill="#FA9260"/>
</svg>
