<svg width="119" height="30" viewBox="0 0 119 30" fill="none" xmlns="http://www.w3.org/2000/svg">
<path d="M49.3579 29.6028H40.5221V3.3588H49.5361C52.1249 3.3588 54.3487 3.8842 56.2075 4.93498C58.0748 5.97722 59.5093 7.47651 60.5108 9.43284C61.5124 11.3892 62.0132 13.7299 62.0132 16.4552C62.0132 19.1889 61.5081 21.5382 60.4981 23.5031C59.4965 25.468 58.0494 26.9758 56.1566 28.0266C54.2723 29.0774 52.0061 29.6028 49.3579 29.6028ZM45.2455 25.4893H49.1287C50.9451 25.4893 52.4602 25.1561 53.6739 24.4898C54.8877 23.8149 55.8001 22.8111 56.4112 21.4784C57.0224 20.1372 57.3279 18.4627 57.3279 16.4552C57.3279 14.4476 57.0224 12.7817 56.4112 11.4575C55.8001 10.1248 54.8962 9.12957 53.6994 8.47176C52.5111 7.80541 51.0342 7.47224 49.2688 7.47224H45.2455V25.4893Z" fill="#4B4A50"/>
<path d="M66.5011 3.3588H72.2813L80.0221 22.3754H80.3277L88.0685 3.3588H93.8487V29.6028H89.3162V11.5729H89.0744L81.8682 29.5259H78.4816L71.2755 11.5344H71.0336V29.6028H66.5011V3.3588Z" fill="#4B4A50"/>
<path d="M113.163 10.5733C113.044 9.4542 112.543 8.58282 111.66 7.95918C110.786 7.33555 109.649 7.02373 108.248 7.02373C107.264 7.02373 106.419 7.17323 105.715 7.47224C105.01 7.77124 104.471 8.17703 104.098 8.68961C103.724 9.20218 103.533 9.78738 103.525 10.4452C103.525 10.9919 103.648 11.4661 103.894 11.8676C104.149 12.2691 104.492 12.6108 104.925 12.8927C105.358 13.1661 105.838 13.3968 106.364 13.5847C106.89 13.7727 107.421 13.9307 107.955 14.0589L110.4 14.6739C111.384 14.9046 112.331 15.2164 113.239 15.6094C114.156 16.0024 114.975 16.4979 115.696 17.0959C116.426 17.6939 117.003 18.4158 117.428 19.2615C117.852 20.1073 118.064 21.0982 118.064 22.2345C118.064 23.7722 117.674 25.1262 116.893 26.2966C116.112 27.4585 114.983 28.3683 113.506 29.0261C112.038 29.6754 110.26 30 108.172 30C106.143 30 104.382 29.6839 102.888 29.0517C101.403 28.4196 100.24 27.4969 99.3997 26.2838C98.5679 25.0707 98.1181 23.5928 98.0502 21.85H102.697C102.765 22.7641 103.045 23.5244 103.538 24.131C104.03 24.7375 104.671 25.1903 105.46 25.4893C106.258 25.7883 107.149 25.9378 108.134 25.9378C109.161 25.9378 110.06 25.7841 110.833 25.4765C111.614 25.1604 112.225 24.7247 112.666 24.1694C113.108 23.6056 113.332 22.9478 113.341 22.196C113.332 21.5126 113.133 20.9487 112.743 20.5045C112.352 20.0517 111.805 19.6758 111.1 19.3768C110.404 19.0693 109.589 18.7959 108.656 18.5567L105.689 17.7879C103.542 17.2326 101.844 16.3911 100.597 15.2634C99.3573 14.1272 98.7377 12.6194 98.7377 10.7399C98.7377 9.19364 99.1536 7.83958 99.9854 6.67774C100.826 5.5159 101.967 4.61462 103.41 3.9739C104.853 3.32463 106.487 3 108.312 3C110.162 3 111.783 3.32463 113.175 3.9739C114.576 4.61462 115.675 5.50736 116.473 6.65211C117.271 7.78833 117.682 9.0954 117.708 10.5733H113.163Z" fill="#4B4A50"/>
<g clip-path="url(#clip0_13_1776)">
<path d="M17.2573 0L0 30H10.6093L17.2573 18.443C16.376 18.443 15.6402 17.8291 15.4434 17.0049H9.3345C9.09493 17.0049 8.89815 16.8074 8.89815 16.567C8.89815 16.3266 9.09493 16.1291 9.3345 16.1291H15.4477C15.6445 15.3048 16.3803 14.6909 17.2616 14.6909C18.1428 14.6909 18.8786 15.3048 19.0754 16.1291H25.1886C25.4282 16.1291 25.625 16.3266 25.625 16.567C25.625 16.8074 25.4282 17.0049 25.1886 17.0049H19.0711C18.8743 17.8291 18.1385 18.443 17.2573 18.443L23.9052 30H34.5145L17.2573 0Z" fill="#F75506"/>
</g>
<defs>
<clipPath id="clip0_13_1776">
<rect width="34.5188" height="30" fill="white"/>
</clipPath>
</defs>
</svg>
