<?xml version="1.0" encoding="utf-8"?>
<!-- Generator: Adobe Illustrator 16.0.0, SVG Export Plug-In . SVG Version: 6.00 Build 0)  -->
<!DOCTYPE svg PUBLIC "-//W3C//DTD SVG 1.1//EN" "http://www.w3.org/Graphics/SVG/1.1/DTD/svg11.dtd">
<svg version="1.1" id="Layer_1" xmlns="http://www.w3.org/2000/svg" xmlns:xlink="http://www.w3.org/1999/xlink" x="0px" y="0px"
	 width="170px" height="45px" viewBox="0 0 170 45" enable-background="new 0 0 170 45" xml:space="preserve">
<g>
	<path fill="#0C5362" d="M18.648,20.94c0,0-6.096,0.167-10.766,5.221c0,0,11.213,14.761,26.678,12.408
		C34.561,38.569,23.996,38.521,18.648,20.94"/>
	<path fill="#0C5362" d="M30.809,18.115c0,0,2.873-5.377,0.797-11.939c0,0-18.377,2.429-23.998,17.024
		C7.607,23.2,12.883,14.052,30.809,18.115"/>
	<path fill="#0C5362" d="M27.082,30.135c0,0,3.189,5.196,9.9,6.712c0,0,7.184-17.086-2.584-29.302
		C34.398,7.545,39.635,16.715,27.082,30.135"/>
	<path fill="#0C5362" d="M55.988,11.657l-1.289,5.605h3.008l-0.762,3.252h-2.998l-1.637,6.829c-0.283,1.237-0.424,1.939-0.424,2.11
		c0,0.339,0.119,0.599,0.361,0.789c0.246,0.187,0.682,0.284,1.318,0.284c0.215,0,0.768-0.037,1.639-0.108l-0.762,3.258
		c-0.855,0.156-1.723,0.232-2.625,0.232c-1.748,0-3.014-0.299-3.809-0.901c-0.791-0.598-1.189-1.433-1.189-2.498
		c0-0.497,0.215-1.65,0.646-3.453l1.588-6.542h-3.662L55.988,11.657z"/>
	<path fill="#0C5362" d="M107.064,11.657l-1.293,5.605h3.01l-0.768,3.252h-2.99l-1.641,6.829c-0.281,1.237-0.424,1.939-0.424,2.11
		c0,0.339,0.121,0.599,0.363,0.789c0.244,0.187,0.682,0.284,1.314,0.284c0.221,0,0.771-0.037,1.645-0.108l-0.764,3.258
		c-0.854,0.156-1.729,0.232-2.625,0.232c-1.748,0-3.016-0.299-3.813-0.901c-0.791-0.598-1.188-1.433-1.188-2.498
		c0-0.497,0.215-1.65,0.643-3.453l1.594-6.542h-3.666L107.064,11.657z"/>
	<path fill="#0C5362" d="M69.807,20.967c-0.453-0.141-0.924-0.214-1.426-0.214c-0.852,0-1.713,0.288-2.59,0.857
		c-0.877,0.57-1.561,1.327-2.053,2.282c-0.496,0.951-0.98,2.457-1.465,4.521l-1.211,5.092H56.15l3.813-16.24h4.623l-0.752,3.177
		c1.721-2.363,3.578-3.545,5.586-3.545c0.408,0,0.834,0.051,1.281,0.156L69.807,20.967z"/>
	<path fill="#0C5362" d="M78.982,11.091l-0.93,3.966h-4.918L78.982,11.091z M72.613,17.263h4.922l-3.818,16.242h-4.918
		L72.613,17.263z"/>
	<path fill="#0C5362" d="M79.836,17.263h4.686l-0.471,2.121c1.182-0.893,2.283-1.533,3.305-1.916
		c1.021-0.38,2.094-0.573,3.225-0.573c1.512,0,2.707,0.387,3.574,1.154c0.873,0.765,1.307,1.78,1.307,3.05
		c-0.004,0.57-0.207,1.647-0.611,3.235l-2.217,9.171h-4.92l2.246-9.202c0.324-1.372,0.49-2.193,0.502-2.459
		c0-0.561-0.191-1.001-0.57-1.325c-0.377-0.319-0.904-0.481-1.58-0.481c-0.73,0-1.543,0.27-2.439,0.808
		c-0.893,0.536-1.6,1.25-2.113,2.137c-0.365,0.629-0.785,1.915-1.246,3.858l-1.576,6.665h-4.914L79.836,17.263z"/>
	<path fill="#0C5362" d="M120.471,24.079c0.016-0.192,0.021-0.338,0.021-0.441c0-1.197-0.305-2.102-0.912-2.702
		c-0.605-0.596-1.424-0.898-2.439-0.898c-1.021,0-1.939,0.341-2.746,1.022c-0.809,0.677-1.354,1.687-1.643,3.018H120.471z
		 M124.09,29.168c-0.861,1.58-2.012,2.764-3.449,3.555c-1.439,0.793-3.057,1.186-4.846,1.186c-2.453,0-4.451-0.691-5.992-2.076
		c-1.533-1.379-2.305-3.207-2.305-5.482c0-2.223,0.697-4.199,2.082-5.933c1.895-2.348,4.592-3.521,8.098-3.521
		c2.23,0,4.008,0.616,5.324,1.844c1.318,1.229,1.979,2.95,1.979,5.162c0,1.061-0.119,2.014-0.346,2.858H112.25
		c-0.012,0.176-0.018,0.308-0.018,0.398c0,1.083,0.354,1.954,1.045,2.613c0.695,0.663,1.545,0.997,2.545,0.997
		c1.375,0,2.48-0.551,3.348-1.604L124.09,29.168z"/>
	<path fill="#0C5362" d="M142.643,28.109c-0.795,1.891-1.963,3.332-3.516,4.317c-1.545,0.988-3.338,1.479-5.383,1.479
		c-2.328,0-4.18-0.612-5.543-1.849c-1.365-1.233-2.043-2.93-2.043-5.095c0-1.766,0.408-3.43,1.232-5
		c0.826-1.574,2.07-2.808,3.734-3.713c1.664-0.902,3.484-1.354,5.471-1.354c2.152,0,3.873,0.5,5.16,1.499
		c1.279,0.996,2.006,2.311,2.164,3.939l-4.752-0.001c-0.156-0.678-0.453-1.202-0.873-1.559c-0.512-0.429-1.182-0.643-2.008-0.643
		c-0.951,0-1.842,0.318-2.672,0.95c-0.826,0.634-1.463,1.584-1.9,2.842c-0.443,1.262-0.66,2.447-0.66,3.551
		c0,0.96,0.256,1.696,0.787,2.221c0.533,0.521,1.191,0.781,1.986,0.781c0.793,0,1.561-0.256,2.293-0.761
		c0.566-0.394,1.035-0.916,1.414-1.603H142.643z"/>
	<path fill="#0C5362" d="M147.885,33.505h-4.914l5.266-22.413h4.916l-1.873,7.983c1.119-0.772,2.168-1.33,3.143-1.671
		c0.971-0.334,2.014-0.51,3.127-0.51c1.496,0,2.676,0.378,3.545,1.137c0.863,0.755,1.299,1.749,1.299,2.974
		c-0.023,0.652-0.193,1.655-0.518,3.021l-2.314,9.479h-4.916l2.352-9.664c0.26-1.047,0.395-1.716,0.395-2.012
		c0-0.539-0.195-0.975-0.578-1.302c-0.385-0.328-0.908-0.49-1.576-0.49c-0.844,0-1.645,0.253-2.414,0.762
		c-1.008,0.673-1.77,1.496-2.293,2.471c-0.287,0.539-0.662,1.805-1.133,3.799L147.885,33.505z"/>
	<path fill="#0C5362" d="M18.648,20.94c0,0-6.096,0.167-10.766,5.221c0,0,11.213,14.761,26.678,12.408
		C34.561,38.569,23.996,38.521,18.648,20.94"/>
	<path fill="#0C5362" d="M30.809,18.115c0,0,2.873-5.377,0.797-11.939c0,0-18.377,2.429-23.998,17.024
		C7.607,23.2,12.883,14.052,30.809,18.115"/>
	<path fill="#0C5362" d="M27.082,30.135c0,0,3.189,5.196,9.9,6.712c0,0,7.184-17.086-2.584-29.302
		C34.398,7.545,39.635,16.715,27.082,30.135"/>
	<path fill="#0C5362" d="M55.988,11.657l-1.289,5.605h3.008l-0.762,3.252h-2.998l-1.637,6.829c-0.283,1.237-0.424,1.939-0.424,2.11
		c0,0.339,0.119,0.599,0.361,0.789c0.246,0.187,0.682,0.284,1.318,0.284c0.215,0,0.768-0.037,1.639-0.108l-0.762,3.258
		c-0.855,0.156-1.723,0.232-2.625,0.232c-1.748,0-3.014-0.299-3.809-0.901c-0.791-0.598-1.189-1.433-1.189-2.498
		c0-0.497,0.215-1.65,0.646-3.453l1.588-6.542h-3.662L55.988,11.657z"/>
	<path fill="#0C5362" d="M107.064,11.657l-1.293,5.605h3.01l-0.768,3.252h-2.99l-1.641,6.829c-0.281,1.237-0.424,1.939-0.424,2.11
		c0,0.339,0.121,0.599,0.363,0.789c0.244,0.187,0.682,0.284,1.314,0.284c0.221,0,0.771-0.037,1.645-0.108l-0.764,3.258
		c-0.854,0.156-1.729,0.232-2.625,0.232c-1.748,0-3.016-0.299-3.813-0.901c-0.791-0.598-1.188-1.433-1.188-2.498
		c0-0.497,0.215-1.65,0.643-3.453l1.594-6.542h-3.666L107.064,11.657z"/>
	<path fill="#0C5362" d="M69.807,20.967c-0.453-0.141-0.924-0.214-1.426-0.214c-0.852,0-1.713,0.288-2.59,0.857
		c-0.877,0.57-1.561,1.327-2.053,2.282c-0.496,0.951-0.98,2.457-1.465,4.521l-1.211,5.092H56.15l3.813-16.24h4.623l-0.752,3.177
		c1.721-2.363,3.578-3.545,5.586-3.545c0.408,0,0.834,0.051,1.281,0.156L69.807,20.967z"/>
	<path fill="#0C5362" d="M78.982,11.091l-0.93,3.966h-4.918L78.982,11.091z M72.613,17.263h4.922l-3.818,16.242h-4.918
		L72.613,17.263z"/>
	<path fill="#0C5362" d="M79.836,17.263h4.686l-0.471,2.121c1.182-0.893,2.283-1.533,3.305-1.916
		c1.021-0.38,2.094-0.573,3.225-0.573c1.512,0,2.707,0.387,3.574,1.154c0.873,0.765,1.307,1.78,1.307,3.05
		c-0.004,0.57-0.207,1.647-0.611,3.235l-2.217,9.171h-4.92l2.246-9.202c0.324-1.372,0.49-2.193,0.502-2.459
		c0-0.561-0.191-1.001-0.57-1.325c-0.377-0.319-0.904-0.481-1.58-0.481c-0.73,0-1.543,0.27-2.439,0.808
		c-0.893,0.536-1.6,1.25-2.113,2.137c-0.365,0.629-0.785,1.915-1.246,3.858l-1.576,6.665h-4.914L79.836,17.263z"/>
	<path fill="#0C5362" d="M120.471,24.079c0.016-0.192,0.021-0.338,0.021-0.441c0-1.197-0.305-2.102-0.912-2.702
		c-0.605-0.596-1.424-0.898-2.439-0.898c-1.021,0-1.939,0.341-2.746,1.022c-0.809,0.677-1.354,1.687-1.643,3.018H120.471z
		 M124.09,29.168c-0.861,1.58-2.012,2.764-3.449,3.555c-1.439,0.793-3.057,1.186-4.846,1.186c-2.453,0-4.451-0.691-5.992-2.076
		c-1.533-1.379-2.305-3.207-2.305-5.482c0-2.223,0.697-4.199,2.082-5.933c1.895-2.348,4.592-3.521,8.098-3.521
		c2.23,0,4.008,0.616,5.324,1.844c1.318,1.229,1.979,2.95,1.979,5.162c0,1.061-0.119,2.014-0.346,2.858H112.25
		c-0.012,0.176-0.018,0.308-0.018,0.398c0,1.083,0.354,1.954,1.045,2.613c0.695,0.663,1.545,0.997,2.545,0.997
		c1.375,0,2.48-0.551,3.348-1.604L124.09,29.168z"/>
	<path fill="#0C5362" d="M142.643,28.109c-0.795,1.891-1.963,3.332-3.516,4.317c-1.545,0.988-3.338,1.479-5.383,1.479
		c-2.328,0-4.18-0.612-5.543-1.849c-1.365-1.233-2.043-2.93-2.043-5.095c0-1.766,0.408-3.43,1.232-5
		c0.826-1.574,2.07-2.808,3.734-3.713c1.664-0.902,3.484-1.354,5.471-1.354c2.152,0,3.873,0.5,5.16,1.499
		c1.279,0.996,2.006,2.311,2.164,3.939l-4.752-0.001c-0.156-0.678-0.453-1.202-0.873-1.559c-0.512-0.429-1.182-0.643-2.008-0.643
		c-0.951,0-1.842,0.318-2.672,0.95c-0.826,0.634-1.463,1.584-1.9,2.842c-0.443,1.262-0.66,2.447-0.66,3.551
		c0,0.96,0.256,1.696,0.787,2.221c0.533,0.521,1.191,0.781,1.986,0.781c0.793,0,1.561-0.256,2.293-0.761
		c0.566-0.394,1.035-0.916,1.414-1.603H142.643z"/>
	<path fill="#0C5362" d="M147.885,33.505h-4.914l5.266-22.413h4.916l-1.873,7.983c1.119-0.772,2.168-1.33,3.143-1.671
		c0.971-0.334,2.014-0.51,3.127-0.51c1.496,0,2.676,0.378,3.545,1.137c0.863,0.755,1.299,1.749,1.299,2.974
		c-0.023,0.652-0.193,1.655-0.518,3.021l-2.314,9.479h-4.916l2.352-9.664c0.26-1.047,0.395-1.716,0.395-2.012
		c0-0.539-0.195-0.975-0.578-1.302c-0.385-0.328-0.908-0.49-1.576-0.49c-0.844,0-1.645,0.253-2.414,0.762
		c-1.008,0.673-1.77,1.496-2.293,2.471c-0.287,0.539-0.662,1.805-1.133,3.799L147.885,33.505z"/>
</g>
</svg>
