<?xml version="1.0" encoding="utf-8"?>
<!-- Generator: Adobe Illustrator 16.0.0, SVG Export Plug-In . SVG Version: 6.00 Build 0)  -->
<!DOCTYPE svg PUBLIC "-//W3C//DTD SVG 1.1//EN" "http://www.w3.org/Graphics/SVG/1.1/DTD/svg11.dtd">
<svg version="1.1" id="Layer_1" xmlns="http://www.w3.org/2000/svg" xmlns:xlink="http://www.w3.org/1999/xlink" x="0px" y="0px"
	 width="140px" height="40px" viewBox="0 0 140 40" enable-background="new 0 0 140 40" xml:space="preserve">
<g>
	<path fill="#FFFFFF" stroke="#0A5362" stroke-width="1.5" stroke-miterlimit="10" d="M70.947,22.949l5.28,3.959
		c-0.529,0.803-1.152,1.566-1.876,2.289c-2.701,2.697-5.957,4.047-9.77,4.047c-3.793,0-7.031-1.35-9.71-4.047
		c-2.719-2.701-4.081-5.945-4.081-9.74c0-3.793,1.362-7.029,4.081-9.707c2.679-2.721,5.917-4.08,9.71-4.08
		c3.813,0,7.068,1.359,9.77,4.08c0.724,0.701,1.347,1.453,1.876,2.256l-5.28,3.961c-0.332-0.568-0.741-1.104-1.23-1.615
		c-1.43-1.406-3.138-2.111-5.135-2.111c-1.976,0-3.677,0.705-5.104,2.111c-1.388,1.43-2.084,3.131-2.084,5.105
		c0,1.977,0.696,3.676,2.084,5.104c1.428,1.408,3.129,2.113,5.104,2.113c1.997,0,3.705-0.705,5.135-2.113
		C70.226,24.053,70.633,23.516,70.947,22.949z"/>
	<path fill="#FFFFFF" stroke="#0A5362" stroke-width="1.5" stroke-miterlimit="10" d="M47.568,30.803
		c-2.152,1.371-4.586,2.053-7.305,2.053c-3.795,0-7.031-1.35-9.713-4.049c-2.719-2.699-4.078-5.943-4.078-9.74
		c0-3.795,1.359-7.031,4.078-9.707c2.682-2.719,5.918-4.08,9.713-4.08c3.813,0,7.068,1.361,9.769,4.08
		c2.697,2.676,4.048,5.912,4.048,9.707v13.789h-6.512V30.803z"/>
	<path fill="#FFFFFF" stroke="#0A5362" stroke-width="1.5" stroke-miterlimit="10" d="M15.654,33.244
		c-3.755,0-6.951-1.33-9.593-3.99c-2.661-2.641-3.989-5.838-3.989-9.592V5.67h6.541v13.992c0,1.955,0.685,3.627,2.053,5.016
		c1.408,1.391,3.08,2.084,5.017,2.084s3.609-0.693,5.018-2.084c1.369-1.389,2.054-3.061,2.054-5.016V5.67h6.541v13.992
		c0,3.754-1.329,6.951-3.988,9.592c-2.64,2.66-5.838,3.99-9.595,3.99H15.654z"/>
</g>
<g>
	<g>
		<path fill="#CC434E" d="M84.664,6.155h0.689v4.163c0,0.493,0.009,0.801,0.028,0.923c0.034,0.272,0.113,0.499,0.238,0.683
			c0.125,0.183,0.317,0.336,0.577,0.459c0.259,0.123,0.521,0.186,0.782,0.186c0.229,0,0.447-0.049,0.656-0.146
			c0.21-0.097,0.385-0.231,0.525-0.403s0.244-0.38,0.31-0.623c0.047-0.176,0.07-0.535,0.07-1.078V6.155h0.688v4.163
			c0,0.615-0.06,1.113-0.18,1.492c-0.121,0.38-0.361,0.711-0.723,0.992c-0.36,0.281-0.797,0.422-1.31,0.422
			c-0.557,0-1.033-0.133-1.43-0.398c-0.397-0.266-0.663-0.617-0.797-1.055c-0.085-0.27-0.127-0.754-0.127-1.453V6.155z"/>
		<path fill="#CC434E" d="M90.819,7.951h0.656v0.914c0.263-0.351,0.553-0.612,0.872-0.785c0.318-0.174,0.665-0.261,1.04-0.261
			c0.382,0,0.72,0.097,1.015,0.291c0.296,0.193,0.514,0.454,0.654,0.782s0.211,0.84,0.211,1.533v2.625h-0.656v-2.433
			c0-0.588-0.024-0.979-0.073-1.177c-0.076-0.338-0.222-0.592-0.438-0.762s-0.497-0.256-0.844-0.256
			c-0.396,0-0.753,0.132-1.066,0.395c-0.314,0.262-0.521,0.587-0.621,0.975c-0.063,0.253-0.094,0.716-0.094,1.388v1.87h-0.656V7.951
			z"/>
		<path fill="#CC434E" d="M96.901,5.851c0.149,0,0.276,0.054,0.382,0.159c0.106,0.106,0.159,0.234,0.159,0.385
			c0,0.146-0.053,0.273-0.159,0.38c-0.105,0.106-0.232,0.159-0.382,0.159c-0.146,0-0.272-0.053-0.379-0.159
			c-0.105-0.106-0.158-0.233-0.158-0.38c0-0.15,0.053-0.278,0.158-0.385C96.629,5.904,96.755,5.851,96.901,5.851z M96.575,7.951
			h0.656v5.1h-0.656V7.951z"/>
		<path fill="#CC434E" d="M98.112,7.951h0.699l1.712,3.717l1.69-3.717h0.703l-2.334,5.1h-0.122L98.112,7.951z"/>
		<path fill="#CC434E" d="M108.21,11.358l0.553,0.291c-0.182,0.356-0.391,0.644-0.629,0.862c-0.237,0.219-0.505,0.385-0.802,0.499
			c-0.298,0.114-0.634,0.171-1.009,0.171c-0.832,0-1.482-0.272-1.952-0.817c-0.469-0.546-0.704-1.162-0.704-1.85
			c0-0.646,0.199-1.224,0.597-1.729c0.503-0.644,1.177-0.966,2.021-0.966c0.87,0,1.564,0.33,2.083,0.989
			c0.369,0.466,0.557,1.047,0.563,1.744h-4.589c0.012,0.592,0.201,1.077,0.567,1.456s0.818,0.568,1.356,0.568
			c0.26,0,0.513-0.045,0.758-0.135c0.246-0.091,0.454-0.211,0.627-0.36C107.823,11.933,108.01,11.691,108.21,11.358z M108.21,9.985
			c-0.088-0.351-0.216-0.63-0.383-0.839c-0.168-0.21-0.389-0.379-0.664-0.507s-0.565-0.192-0.868-0.192
			c-0.501,0-0.931,0.161-1.291,0.483c-0.263,0.234-0.462,0.586-0.596,1.055H108.21z"/>
		<path fill="#CC434E" d="M109.906,7.951h0.671v0.745c0.2-0.294,0.411-0.514,0.633-0.659c0.222-0.145,0.453-0.218,0.693-0.218
			c0.182,0,0.375,0.058,0.581,0.174l-0.342,0.553c-0.138-0.06-0.253-0.089-0.347-0.089c-0.219,0-0.43,0.09-0.633,0.27
			s-0.358,0.459-0.464,0.837c-0.082,0.29-0.122,0.878-0.122,1.763v1.725h-0.671V7.951z"/>
		<path fill="#CC434E" d="M115.605,8.509l-0.422,0.436c-0.351-0.341-0.693-0.511-1.029-0.511c-0.213,0-0.396,0.07-0.547,0.211
			c-0.152,0.141-0.229,0.305-0.229,0.492c0,0.166,0.063,0.323,0.188,0.474c0.125,0.153,0.388,0.333,0.789,0.539
			c0.488,0.253,0.82,0.497,0.996,0.731c0.172,0.237,0.258,0.504,0.258,0.801c0,0.419-0.146,0.773-0.441,1.064
			c-0.294,0.291-0.662,0.436-1.103,0.436c-0.295,0-0.575-0.063-0.843-0.191c-0.268-0.129-0.489-0.305-0.665-0.53l0.413-0.469
			c0.335,0.378,0.69,0.567,1.066,0.567c0.263,0,0.487-0.084,0.672-0.253s0.277-0.367,0.277-0.596c0-0.188-0.062-0.354-0.184-0.501
			c-0.122-0.145-0.397-0.325-0.826-0.544c-0.461-0.237-0.774-0.472-0.939-0.703c-0.166-0.231-0.249-0.495-0.249-0.792
			c0-0.388,0.132-0.71,0.396-0.966c0.265-0.257,0.599-0.385,1.002-0.385C114.657,7.819,115.13,8.049,115.605,8.509z"/>
		<path fill="#CC434E" d="M121.85,7.951v5.1h-0.646v-0.877c-0.275,0.335-0.584,0.586-0.926,0.755
			c-0.343,0.169-0.717,0.253-1.123,0.253c-0.722,0-1.338-0.262-1.85-0.785c-0.511-0.523-0.766-1.16-0.766-1.91
			c0-0.734,0.258-1.362,0.773-1.884c0.516-0.522,1.136-0.783,1.86-0.783c0.419,0,0.798,0.089,1.137,0.268
			c0.339,0.178,0.637,0.445,0.894,0.802V7.951H121.85z M119.227,8.452c-0.365,0-0.702,0.09-1.011,0.27
			c-0.31,0.18-0.555,0.432-0.737,0.756c-0.183,0.325-0.274,0.668-0.274,1.03c0,0.359,0.092,0.702,0.276,1.03
			c0.185,0.327,0.432,0.583,0.742,0.766s0.644,0.273,1,0.273c0.358,0,0.699-0.09,1.021-0.271c0.321-0.181,0.568-0.426,0.742-0.735
			c0.173-0.309,0.26-0.656,0.26-1.044c0-0.59-0.194-1.083-0.583-1.479S119.795,8.452,119.227,8.452z"/>
		<path fill="#CC434E" d="M123.228,5.982h0.656v7.068h-0.656V5.982z"/>
		<path fill="#CC434E" d="M87.458,15.755l3.216,6.896H89.93l-1.085-2.269h-2.971L84.8,22.65h-0.769l3.258-6.896H87.458z
			 M87.371,17.22l-1.182,2.496h2.357L87.371,17.22z"/>
		<path fill="#CC434E" d="M91.644,17.551H92.3v0.938c0.26-0.356,0.558-0.624,0.895-0.802c0.338-0.179,0.714-0.268,1.129-0.268
			c0.724,0,1.344,0.261,1.859,0.783c0.515,0.521,0.772,1.149,0.772,1.884c0,0.75-0.256,1.387-0.766,1.91
			c-0.511,0.523-1.126,0.785-1.848,0.785c-0.406,0-0.779-0.084-1.119-0.253s-0.647-0.42-0.923-0.755v2.742h-0.656V17.551z
			 M94.269,18.052c-0.567,0-1.045,0.198-1.433,0.595c-0.389,0.396-0.583,0.89-0.583,1.479c0,0.388,0.087,0.735,0.26,1.044
			c0.173,0.31,0.421,0.555,0.744,0.735c0.322,0.182,0.663,0.271,1.021,0.271c0.353,0,0.684-0.091,0.994-0.273
			c0.31-0.183,0.557-0.438,0.741-0.766c0.184-0.328,0.275-0.671,0.275-1.03c0-0.362-0.091-0.705-0.273-1.03
			c-0.183-0.324-0.428-0.576-0.736-0.756S94.634,18.052,94.269,18.052z"/>
		<path fill="#CC434E" d="M98.191,17.551h0.656v0.938c0.26-0.356,0.558-0.624,0.895-0.802c0.338-0.179,0.714-0.268,1.129-0.268
			c0.724,0,1.344,0.261,1.859,0.783c0.515,0.521,0.772,1.149,0.772,1.884c0,0.75-0.256,1.387-0.766,1.91
			c-0.511,0.523-1.126,0.785-1.848,0.785c-0.406,0-0.779-0.084-1.119-0.253s-0.647-0.42-0.923-0.755v2.742h-0.656V17.551z
			 M100.816,18.052c-0.567,0-1.045,0.198-1.433,0.595c-0.389,0.396-0.583,0.89-0.583,1.479c0,0.388,0.087,0.735,0.26,1.044
			c0.173,0.31,0.421,0.555,0.744,0.735c0.322,0.182,0.663,0.271,1.021,0.271c0.353,0,0.684-0.091,0.994-0.273
			c0.31-0.183,0.557-0.438,0.741-0.766c0.184-0.328,0.275-0.671,0.275-1.03c0-0.362-0.091-0.705-0.273-1.03
			c-0.183-0.324-0.428-0.576-0.736-0.756S101.182,18.052,100.816,18.052z"/>
		<path fill="#CC434E" d="M104.633,15.582h0.656v7.068h-0.656V15.582z"/>
		<path fill="#CC434E" d="M106.881,15.45c0.149,0,0.276,0.054,0.382,0.159c0.106,0.106,0.159,0.234,0.159,0.385
			c0,0.146-0.053,0.273-0.159,0.38c-0.105,0.106-0.232,0.159-0.382,0.159c-0.146,0-0.272-0.053-0.379-0.159
			c-0.105-0.106-0.158-0.233-0.158-0.38c0-0.15,0.053-0.278,0.158-0.385C106.608,15.504,106.734,15.45,106.881,15.45z
			 M106.555,17.551h0.656v5.1h-0.656V17.551z"/>
		<path fill="#CC434E" d="M113.525,18.609l-0.521,0.324c-0.45-0.598-1.063-0.896-1.84-0.896c-0.622,0-1.138,0.199-1.548,0.6
			c-0.41,0.399-0.615,0.885-0.615,1.456c0,0.371,0.094,0.721,0.283,1.049c0.188,0.327,0.447,0.582,0.777,0.763
			c0.329,0.182,0.698,0.271,1.106,0.271c0.749,0,1.361-0.298,1.836-0.896l0.521,0.343c-0.244,0.367-0.571,0.651-0.982,0.854
			c-0.411,0.202-0.879,0.303-1.404,0.303c-0.806,0-1.475-0.256-2.006-0.769s-0.797-1.136-0.797-1.87
			c0-0.494,0.124-0.952,0.373-1.376c0.248-0.423,0.59-0.754,1.023-0.991c0.435-0.237,0.921-0.356,1.458-0.356
			c0.338,0,0.663,0.052,0.978,0.155c0.314,0.103,0.58,0.237,0.799,0.402C113.186,18.143,113.372,18.354,113.525,18.609z"/>
		<path fill="#CC434E" d="M119.867,17.551v5.1h-0.646v-0.877c-0.275,0.335-0.584,0.586-0.926,0.755
			c-0.343,0.169-0.717,0.253-1.123,0.253c-0.722,0-1.338-0.262-1.85-0.785c-0.511-0.523-0.766-1.16-0.766-1.91
			c0-0.734,0.258-1.362,0.773-1.884c0.516-0.522,1.136-0.783,1.86-0.783c0.419,0,0.798,0.089,1.137,0.268
			c0.339,0.178,0.637,0.445,0.894,0.802v-0.938H119.867z M117.244,18.052c-0.365,0-0.702,0.09-1.011,0.27
			c-0.31,0.18-0.555,0.432-0.737,0.756c-0.183,0.325-0.274,0.668-0.274,1.03c0,0.359,0.092,0.702,0.276,1.03
			c0.185,0.327,0.432,0.583,0.742,0.766s0.644,0.273,1,0.273c0.358,0,0.699-0.09,1.021-0.271c0.321-0.181,0.568-0.426,0.742-0.735
			c0.173-0.309,0.26-0.656,0.26-1.044c0-0.59-0.194-1.083-0.583-1.479S117.813,18.052,117.244,18.052z"/>
		<path fill="#CC434E" d="M121.915,15.656h0.656v1.895h1.041v0.566h-1.041v4.533h-0.656v-4.533h-0.895v-0.566h0.895V15.656z"/>
		<path fill="#CC434E" d="M124.824,15.45c0.149,0,0.276,0.054,0.382,0.159c0.106,0.106,0.159,0.234,0.159,0.385
			c0,0.146-0.053,0.273-0.159,0.38c-0.105,0.106-0.232,0.159-0.382,0.159c-0.146,0-0.272-0.053-0.379-0.159
			c-0.105-0.106-0.158-0.233-0.158-0.38c0-0.15,0.053-0.278,0.158-0.385C124.552,15.504,124.678,15.45,124.824,15.45z
			 M124.498,17.551h0.656v5.1h-0.656V17.551z"/>
		<path fill="#CC434E" d="M128.933,17.419c0.785,0,1.437,0.284,1.953,0.854c0.47,0.519,0.704,1.133,0.704,1.842
			c0,0.713-0.248,1.335-0.744,1.868s-1.134,0.799-1.913,0.799c-0.783,0-1.422-0.266-1.918-0.799
			c-0.497-0.533-0.745-1.155-0.745-1.868c0-0.706,0.235-1.318,0.705-1.837C127.491,17.705,128.144,17.419,128.933,17.419z
			 M128.93,18.062c-0.545,0-1.015,0.201-1.406,0.604s-0.588,0.891-0.588,1.463c0,0.368,0.089,0.712,0.269,1.031
			c0.179,0.318,0.42,0.564,0.724,0.738c0.305,0.173,0.639,0.26,1.002,0.26c0.364,0,0.698-0.087,1.002-0.26
			c0.305-0.174,0.546-0.42,0.725-0.738c0.179-0.319,0.269-0.663,0.269-1.031c0-0.572-0.197-1.06-0.591-1.463
			S129.473,18.062,128.93,18.062z"/>
		<path fill="#CC434E" d="M132.805,17.551h0.656v0.914c0.263-0.351,0.553-0.612,0.872-0.785c0.318-0.174,0.665-0.261,1.04-0.261
			c0.382,0,0.72,0.097,1.015,0.291c0.296,0.193,0.514,0.454,0.654,0.782s0.211,0.84,0.211,1.533v2.625h-0.656v-2.433
			c0-0.588-0.024-0.979-0.073-1.177c-0.076-0.338-0.222-0.592-0.438-0.762s-0.497-0.256-0.844-0.256
			c-0.396,0-0.753,0.132-1.066,0.395c-0.314,0.262-0.521,0.587-0.621,0.975c-0.063,0.253-0.094,0.716-0.094,1.388v1.87h-0.656
			V17.551z"/>
		<path fill="#CC434E" d="M91.063,26.636l-0.544,0.417c-0.3-0.391-0.66-0.687-1.08-0.889c-0.42-0.201-0.882-0.302-1.385-0.302
			c-0.551,0-1.06,0.132-1.528,0.396c-0.469,0.265-0.832,0.619-1.09,1.064s-0.387,0.946-0.387,1.502c0,0.841,0.288,1.542,0.864,2.104
			c0.577,0.563,1.305,0.844,2.183,0.844c0.966,0,1.773-0.378,2.423-1.134l0.544,0.412c-0.344,0.438-0.772,0.776-1.286,1.015
			c-0.515,0.239-1.089,0.359-1.723,0.359c-1.207,0-2.158-0.402-2.855-1.205c-0.584-0.678-0.876-1.497-0.876-2.456
			c0-1.01,0.354-1.858,1.062-2.548s1.595-1.033,2.66-1.033c0.644,0,1.225,0.127,1.744,0.382
			C90.307,25.819,90.731,26.176,91.063,26.636z"/>
		<path fill="#CC434E" d="M94.752,27.02c0.785,0,1.437,0.284,1.953,0.854c0.47,0.519,0.704,1.133,0.704,1.842
			c0,0.713-0.248,1.335-0.744,1.868s-1.134,0.799-1.913,0.799c-0.783,0-1.422-0.266-1.918-0.799
			c-0.497-0.533-0.745-1.155-0.745-1.868c0-0.706,0.235-1.318,0.705-1.837C93.311,27.306,93.963,27.02,94.752,27.02z M94.749,27.662
			c-0.545,0-1.015,0.201-1.406,0.604s-0.588,0.891-0.588,1.463c0,0.368,0.089,0.712,0.269,1.031c0.179,0.318,0.42,0.564,0.724,0.738
			c0.305,0.173,0.639,0.26,1.002,0.26c0.364,0,0.698-0.087,1.002-0.26c0.305-0.174,0.546-0.42,0.725-0.738
			c0.179-0.319,0.269-0.663,0.269-1.031c0-0.572-0.197-1.06-0.591-1.463S95.292,27.662,94.749,27.662z"/>
		<path fill="#CC434E" d="M98.624,27.151h0.656v0.914c0.263-0.351,0.553-0.612,0.872-0.785c0.318-0.174,0.665-0.261,1.04-0.261
			c0.382,0,0.72,0.097,1.015,0.291c0.296,0.193,0.514,0.454,0.654,0.782s0.211,0.84,0.211,1.533v2.625h-0.656v-2.433
			c0-0.588-0.024-0.979-0.073-1.177c-0.076-0.338-0.222-0.592-0.438-0.762s-0.497-0.256-0.844-0.256
			c-0.396,0-0.753,0.132-1.066,0.395c-0.314,0.262-0.521,0.587-0.621,0.975c-0.063,0.253-0.094,0.716-0.094,1.388v1.87h-0.656
			V27.151z"/>
		<path fill="#CC434E" d="M104.479,27.151h0.656v0.914c0.263-0.351,0.553-0.612,0.872-0.785c0.318-0.174,0.665-0.261,1.04-0.261
			c0.382,0,0.72,0.097,1.015,0.291c0.296,0.193,0.514,0.454,0.654,0.782s0.211,0.84,0.211,1.533v2.625h-0.656v-2.433
			c0-0.588-0.024-0.979-0.073-1.177c-0.076-0.338-0.222-0.592-0.438-0.762s-0.497-0.256-0.844-0.256
			c-0.396,0-0.753,0.132-1.066,0.395c-0.314,0.262-0.521,0.587-0.621,0.975c-0.063,0.253-0.094,0.716-0.094,1.388v1.87h-0.656
			V27.151z"/>
		<path fill="#CC434E" d="M114.627,30.559l0.553,0.291c-0.182,0.356-0.391,0.644-0.629,0.862c-0.237,0.219-0.505,0.385-0.802,0.499
			c-0.298,0.114-0.634,0.171-1.009,0.171c-0.832,0-1.482-0.272-1.952-0.817c-0.469-0.546-0.704-1.162-0.704-1.85
			c0-0.646,0.199-1.224,0.597-1.729c0.503-0.644,1.177-0.966,2.021-0.966c0.87,0,1.564,0.33,2.083,0.989
			c0.369,0.466,0.557,1.047,0.563,1.744h-4.589c0.012,0.592,0.201,1.077,0.567,1.456s0.818,0.568,1.356,0.568
			c0.26,0,0.513-0.045,0.758-0.135c0.246-0.091,0.454-0.211,0.627-0.36C114.24,31.133,114.427,30.892,114.627,30.559z
			 M114.627,29.186c-0.088-0.351-0.216-0.63-0.383-0.839c-0.168-0.21-0.389-0.379-0.664-0.507s-0.565-0.192-0.868-0.192
			c-0.501,0-0.931,0.161-1.291,0.483c-0.263,0.234-0.462,0.586-0.596,1.055H114.627z"/>
		<path fill="#CC434E" d="M121.522,28.21l-0.521,0.324c-0.45-0.598-1.063-0.896-1.84-0.896c-0.622,0-1.138,0.199-1.548,0.6
			c-0.41,0.399-0.615,0.885-0.615,1.456c0,0.371,0.094,0.721,0.283,1.049c0.188,0.327,0.447,0.582,0.777,0.763
			c0.329,0.182,0.698,0.271,1.106,0.271c0.749,0,1.361-0.298,1.836-0.896l0.521,0.343c-0.244,0.367-0.571,0.651-0.982,0.854
			c-0.411,0.202-0.879,0.303-1.404,0.303c-0.806,0-1.475-0.256-2.006-0.769s-0.797-1.136-0.797-1.87
			c0-0.494,0.124-0.952,0.373-1.376c0.248-0.423,0.59-0.754,1.023-0.991c0.435-0.237,0.921-0.356,1.458-0.356
			c0.338,0,0.663,0.052,0.978,0.155c0.314,0.103,0.58,0.237,0.799,0.402C121.183,27.743,121.369,27.954,121.522,28.21z"/>
		<path fill="#CC434E" d="M123.354,25.257h0.656v1.895h1.041v0.566h-1.041v4.533h-0.656v-4.533h-0.895v-0.566h0.895V25.257z"/>
		<path fill="#CC434E" d="M128.45,27.02c0.785,0,1.437,0.284,1.953,0.854c0.47,0.519,0.704,1.133,0.704,1.842
			c0,0.713-0.248,1.335-0.744,1.868s-1.134,0.799-1.913,0.799c-0.783,0-1.422-0.266-1.918-0.799
			c-0.497-0.533-0.745-1.155-0.745-1.868c0-0.706,0.235-1.318,0.705-1.837C127.009,27.306,127.661,27.02,128.45,27.02z
			 M128.447,27.662c-0.545,0-1.015,0.201-1.406,0.604s-0.588,0.891-0.588,1.463c0,0.368,0.089,0.712,0.269,1.031
			c0.179,0.318,0.42,0.564,0.724,0.738c0.305,0.173,0.639,0.26,1.002,0.26c0.364,0,0.698-0.087,1.002-0.26
			c0.305-0.174,0.546-0.42,0.725-0.738c0.179-0.319,0.269-0.663,0.269-1.031c0-0.572-0.197-1.06-0.591-1.463
			S128.99,27.662,128.447,27.662z"/>
		<path fill="#CC434E" d="M132.073,27.151h0.671v0.745c0.2-0.294,0.411-0.514,0.633-0.659c0.222-0.145,0.453-0.218,0.693-0.218
			c0.182,0,0.375,0.058,0.581,0.174l-0.342,0.553c-0.138-0.06-0.253-0.089-0.347-0.089c-0.219,0-0.43,0.09-0.633,0.27
			s-0.358,0.459-0.464,0.837c-0.082,0.29-0.122,0.878-0.122,1.763v1.725h-0.671V27.151z"/>
	</g>
</g>
<circle fill="none" stroke="#CC434E" stroke-width="1.5" stroke-miterlimit="10" cx="40.383" cy="18.677" r="8.081"/>
<line fill="none" stroke="#CC434E" stroke-linecap="round" stroke-linejoin="round" x1="80.5" y1="33" x2="80.5" y2="5"/>
</svg>
