<svg width="40" height="40" viewBox="0 0 40 40" fill="none" xmlns="http://www.w3.org/2000/svg">
<circle cx="20" cy="20" r="20" fill="#FDE8DD"/>
<path d="M17.975 16.975C18.4645 16.4855 18.7978 15.8619 18.9328 15.1829C19.0678 14.504 18.9985 13.8003 18.7335 13.1608C18.4686 12.5213 18.02 11.9747 17.4445 11.5901C16.8689 11.2055 16.1922 11.0003 15.5 11.0003C14.8078 11.0003 14.1311 11.2055 13.5555 11.5901C12.98 11.9747 12.5314 12.5213 12.2665 13.1608C12.0015 13.8003 11.9322 14.504 12.0672 15.1829C12.2022 15.8619 12.5356 16.4855 13.025 16.975L15.5 19.45L17.975 16.975ZM15.5 22.278L11.61 18.39C10.8411 17.6207 10.3175 16.6407 10.1055 15.5739C9.89349 14.5071 10.0026 13.4013 10.4189 12.3965C10.8353 11.3916 11.5402 10.5328 12.4446 9.92857C13.349 9.32434 14.4123 9.00183 15.5 9.00183C16.5877 9.00183 17.651 9.32434 18.5554 9.92857C19.4598 10.5328 20.1647 11.3916 20.5811 12.3965C20.9975 13.4013 21.1065 14.5071 20.8945 15.5739C20.6825 16.6407 20.1589 17.6207 19.39 18.39L15.5 22.28V22.278ZM15.5 16C15.1022 16 14.7206 15.842 14.4393 15.5607C14.158 15.2794 14 14.8978 14 14.5C14 14.1022 14.158 13.7206 14.4393 13.4393C14.7206 13.158 15.1022 13 15.5 13C15.8978 13 16.2794 13.158 16.5607 13.4393C16.842 13.7206 17 14.1022 17 14.5C17 14.8978 16.842 15.2794 16.5607 15.5607C16.2794 15.842 15.8978 16 15.5 16V16ZM24.5 28.45L26.975 25.975C27.4645 25.4855 27.7978 24.8619 27.9328 24.1829C28.0678 23.504 27.9985 22.8003 27.7335 22.1608C27.4686 21.5213 27.02 20.9747 26.4445 20.5901C25.8689 20.2055 25.1922 20.0003 24.5 20.0003C23.8078 20.0003 23.1311 20.2055 22.5555 20.5901C21.98 20.9747 21.5314 21.5213 21.2665 22.1608C21.0015 22.8003 20.9322 23.504 21.0672 24.1829C21.2022 24.8619 21.5356 25.4855 22.025 25.975L24.5 28.45ZM28.39 27.39L24.5 31.278L20.61 27.389C19.8411 26.6197 19.3175 25.6397 19.1055 24.5729C18.8935 23.5061 19.0026 22.4003 19.4189 21.3955C19.8353 20.3906 20.5402 19.5318 21.4446 18.9276C22.3491 18.3233 23.4123 18.0008 24.5 18.0008C25.5877 18.0008 26.651 18.3233 27.5554 18.9276C28.4598 19.5318 29.1647 20.3906 29.5811 21.3955C29.9975 22.4003 30.1065 23.5061 29.8945 24.5729C29.6825 25.6397 29.1589 26.6197 28.39 27.389V27.39ZM24.5 25C24.1022 25 23.7206 24.842 23.4393 24.5607C23.158 24.2794 23 23.8978 23 23.5C23 23.1022 23.158 22.7206 23.4393 22.4393C23.7206 22.158 24.1022 22 24.5 22C24.8978 22 25.2794 22.158 25.5607 22.4393C25.842 22.7206 26 23.1022 26 23.5C26 23.8978 25.842 24.2794 25.5607 24.5607C25.2794 24.842 24.8978 25 24.5 25V25Z" fill="#F75506"/>
</svg>
