<svg width="40" height="40" viewBox="0 0 40 40" fill="none" xmlns="http://www.w3.org/2000/svg">
<circle cx="20" cy="20" r="20" fill="#FDE8DD"/>
<path d="M18.8279 16.366C19.5525 15.3205 20.2384 14.326 20.931 13.3361C21.4354 12.616 21.9158 12.6218 22.3734 13.3523C22.8812 14.1639 23.381 14.9813 23.8796 15.7906C23.559 16.1217 23.268 16.4204 22.9428 16.7562C22.5103 16.0696 22.0961 15.412 21.6351 14.6803C20.9242 15.6841 20.2532 16.6311 19.5822 17.5793C19.0368 18.3504 18.6819 18.3574 18.0942 17.6152C17.7496 17.1799 17.3993 16.7504 16.9988 16.2525C16.3369 17.3779 15.7002 18.4592 15.0657 19.5348C15.7686 20.3128 16.0003 20.3777 16.8447 19.8532C17.6925 19.3276 18.4674 19.3114 19.2661 19.9504C19.4042 20.0616 19.7134 20.0361 19.9097 19.9701C20.1927 19.8729 20.4415 19.6772 20.7085 19.5302C21.2288 19.2454 21.7583 19.2257 22.2923 19.4931C22.3608 19.5267 22.4281 19.5638 22.4955 19.5973C23.1927 19.94 23.8648 20.5409 24.7126 19.6622C24.7126 20.0257 24.7126 20.2329 24.7126 20.4402C24.7138 21.4127 24.2071 21.7971 23.2737 21.4799C22.8264 21.3282 22.395 21.1117 21.9854 20.8732C21.6237 20.6625 21.3178 20.6683 20.9915 20.916C20.8557 21.0191 20.6982 21.0932 20.5522 21.1846C19.8412 21.628 19.1383 21.6199 18.4902 21.0827C18.1547 20.8049 17.8694 20.7829 17.5259 21.0364C17.3434 21.1707 17.1334 21.2703 16.9291 21.3722C16.3392 21.6674 15.7595 21.6616 15.1969 21.2935C14.9425 21.1267 14.6857 20.9623 14.3719 20.7586C13.2673 22.6341 12.1764 24.49 11.0479 26.4073C17.0421 26.4073 22.9473 26.4073 28.9393 26.4073C28.5205 25.7219 28.1257 25.0759 27.7765 24.5039C27.9853 23.9505 28.1713 23.4596 28.3596 22.9618C28.4132 23.037 28.5159 23.1632 28.6015 23.2999C29.285 24.3893 29.9823 25.4707 30.635 26.5787C30.7708 26.809 30.8609 27.2027 30.7548 27.4053C30.6475 27.6114 30.2732 27.7816 30.0153 27.7827C23.3604 27.8024 16.7055 27.8013 10.0506 27.7955C9.26205 27.7943 8.98134 27.2965 9.38073 26.6134C11.6664 22.7001 13.9577 18.7904 16.2547 14.8841C16.6461 14.2184 17.1106 14.2079 17.5978 14.8204C17.9972 15.3148 18.3886 15.8103 18.8279 16.366Z" fill="#F75506"/>
<path d="M27.1877 17.5133C27.1877 19.1458 27.1877 20.7782 27.1877 22.4107C27.1877 22.5844 27.1888 22.758 27.1866 22.9305C27.1786 23.3878 27.0222 23.7583 26.5133 23.7479C26.0192 23.7375 25.8492 23.3902 25.8515 22.919C25.8572 21.3004 25.8537 19.6818 25.8537 18.0633C25.8537 17.8746 25.8537 17.687 25.8537 17.3559C25.4635 17.7414 25.1554 18.0355 24.8576 18.3412C24.5449 18.6619 24.2083 18.7417 23.8511 18.443C23.5407 18.1837 23.5715 17.7484 23.9264 17.379C24.5768 16.7041 25.2353 16.0372 25.8994 15.3761C26.3341 14.9431 26.6457 14.9385 27.0736 15.3622C27.7388 16.0221 28.3893 16.6971 29.05 17.3628C29.3752 17.6916 29.5064 18.0691 29.1504 18.4234C28.7909 18.7811 28.4224 18.626 28.1097 18.2925C27.8507 18.0158 27.5894 17.7403 27.3292 17.4647C27.2813 17.4809 27.2345 17.4971 27.1877 17.5133Z" fill="#F75506"/>
</svg>
