<svg width="250" height="250" viewBox="0 0 250 250" fill="none" xmlns="http://www.w3.org/2000/svg">
<rect width="250" height="250" fill="white"/>
<g clip-path="url(#clip0_896_2)">
<path d="M166.176 107.167C166.176 107.167 172.383 98.363 177.511 102.089C177.511 102.089 180.614 105.256 178.533 113.171C178.147 114.6 177.839 116.048 177.588 117.516C177.376 118.635 177.202 119.813 177.145 120.952C177.067 122.13 177.434 123.404 177.106 124.563C176.451 126.976 175.275 129.582 173.154 131.03C172.248 131.648 171.207 132.112 170.089 132.208C169.627 132.247 166.002 131.861 166.002 131.32L166.176 107.167Z" fill="#F5B78C"/>
<path d="M166.137 109.831C166.137 109.831 171.149 102.726 175.294 105.738C175.294 105.738 177.8 108.287 176.123 114.658C175.814 115.816 175.564 116.994 175.352 118.153C175.198 119.06 175.043 120.006 174.986 120.933C174.928 121.898 175.217 122.902 174.966 123.848C174.446 125.798 173.482 127.883 171.766 129.061C171.034 129.563 170.205 129.93 169.299 130.007C168.933 130.026 166.002 129.718 166.002 129.293L166.137 109.831Z" fill="#E6AC84"/>
<path d="M80.3542 107.997C80.3542 107.997 74.147 99.1932 69.0193 102.919C69.0193 102.919 65.9157 106.067 67.9976 113.982C68.3831 115.411 68.6723 116.859 68.9422 118.326C69.1349 119.446 69.3277 120.624 69.3855 121.763C69.4434 122.941 69.0964 124.215 69.4241 125.393C70.0795 127.806 71.2554 130.413 73.3759 131.861C74.2819 132.478 75.3229 132.942 76.441 133.038C76.9036 133.058 80.5277 132.672 80.5277 132.15L80.3542 107.997Z" fill="#F5B78C"/>
<path d="M80.3735 110.662C80.3735 110.662 75.3614 103.576 71.2361 106.568C71.2361 106.568 68.7301 109.117 70.4072 115.488C70.7157 116.647 70.9663 117.824 71.1783 118.983C71.3518 119.89 71.4868 120.836 71.5446 121.744C71.5831 122.709 71.3133 123.732 71.5639 124.659C72.0843 126.609 73.0482 128.694 74.7446 129.872C75.4771 130.374 76.306 130.76 77.2121 130.818C77.5976 130.857 80.5084 130.548 80.5084 130.123L80.3735 110.662Z" fill="#E6AC84"/>
<path d="M104.817 164.47C104.817 164.47 108.749 188.198 99.9012 197.562H149.694C149.694 197.562 139.535 178.661 145.183 162.385L104.817 164.47Z" fill="#F5B78C"/>
<path d="M105.414 182.213C107.227 183.874 109.251 185.071 111.448 186.055C116.557 188.353 121.954 189.434 127.352 187.87C132.499 186.384 137.53 182.831 140.48 177.599C141.848 175.147 142.696 172.405 143.737 169.76C144.007 168.235 144.643 163.929 145.164 162.404L104.817 164.489C104.817 164.47 105.973 174.51 105.414 182.213Z" fill="#DEA680"/>
<path d="M170.957 96.1234C170.957 61.4095 149.231 33.2792 122.436 33.2792C95.6602 33.2792 73.9349 61.4095 73.9349 96.1234C73.9349 112.901 73.0096 127.053 81.2988 141.842C88.6626 154.99 97.5687 161.651 110.639 171.17C110.639 171.17 123.284 180.939 136.566 172.637C148.537 161.98 163.072 151.824 168.586 135.529C172.749 123.288 170.957 108.982 170.957 96.1234Z" fill="#F5B78C"/>
<path d="M220.48 250C222.311 218.974 200.99 208.239 200.99 208.239L145.145 193.122L124.904 191.693V191.674H124.827H124.749V191.693L104.489 193.122L48.6434 208.239C48.6434 208.239 27.3036 218.954 29.1542 250H220.48Z" fill="#F5B78C"/>
<path d="M184.74 250C184.759 249.768 184.778 249.633 184.778 249.633C184.778 249.633 176.161 237.354 184.72 203.509L173.424 200.458C173.424 200.458 167.969 230.809 142.966 250H184.74Z" fill="#D83633"/>
<path d="M65.2602 250H107.053C82.0506 230.809 76.5759 200.458 76.5759 200.458L65.2795 203.509C73.8386 237.354 65.2217 249.633 65.2217 249.633C65.2217 249.633 65.241 249.768 65.2602 250Z" fill="#D83633"/>
<path d="M220.48 250C222.311 218.974 200.99 208.239 200.99 208.239L145.145 193.122L124.904 191.693V191.674H124.827H124.749V191.693L104.489 193.122L48.6434 208.239C48.6434 208.239 27.3036 218.954 29.1542 250H220.48Z" fill="#F5B78C"/>
<path d="M65.2602 250H107.053C82.0506 230.809 76.5759 200.458 76.5759 200.458L65.2795 203.509C73.8386 237.354 65.2217 249.633 65.2217 249.633C65.2217 249.633 65.241 249.768 65.2602 250Z" fill="#D83633"/>
<path d="M184.74 250C184.759 249.768 184.778 249.633 184.778 249.633C184.778 249.633 176.161 237.354 184.72 203.509L173.424 200.458C173.424 200.458 167.969 230.809 142.966 250H184.74Z" fill="#D83633"/>
<path d="M29.0964 250H100.075L82.841 197.582L48.6241 208.239C48.6241 208.239 27.3229 218.916 29.0964 249.846C29.0964 249.884 29.0964 249.942 29.0964 250Z" fill="#414042"/>
<path d="M220.904 250C220.904 249.942 220.904 249.903 220.884 249.846C222.658 218.916 201.357 208.239 201.357 208.239L167.14 197.582L149.906 250H220.904Z" fill="#414042"/>
<path d="M77 74.0942C77 74.0942 94.5807 79.2877 119.776 81.2764L123.496 71.507L128.161 81.2764L142.407 79.4229L136.894 51.2154C136.894 51.2154 148.055 79.365 171.034 101.877C171.034 101.877 174.234 100.583 175.872 101.317C175.872 101.317 182.08 40.9248 145.164 26.8886C145.164 26.8886 122.263 13.644 97.4337 26.8886C97.4337 26.8886 77.4434 36.4649 69.8096 68.9971C69.8289 68.9971 71.8723 72.762 77 74.0942Z" fill="#3C2415"/>
<path d="M84.441 75.9669L73.8964 102.379C73.8964 102.379 68.6723 100.41 67.9976 104.754C67.9976 104.754 66.2627 77.5694 71.4482 63.8615L84.441 75.9669Z" fill="#3C2415"/>
<path d="M73.8771 245.308L77.8482 250H100.075L82.841 197.562L59.4386 205.304L86.2723 237.161L73.8771 245.308Z" fill="#282829"/>
<path d="M172.248 250L176.219 245.308L163.824 237.161L190.658 205.304L167.275 197.562L150.022 250H172.248Z" fill="#282829"/>
<path d="M145.935 199.783C151.101 206.714 162.089 211.483 163.342 220.827C164.672 230.77 154.243 239.149 148.653 245.965C147.554 247.297 146.61 248.649 145.781 250H185.916C186.417 249.208 186.937 248.417 187.381 247.625C193.318 237.122 195.959 220.538 192.836 208.664C188.46 192.137 171.747 181.325 165.752 165.725C164.46 162.366 159.911 151.322 162.263 147.654C159.198 152.461 144.393 165.899 144.393 165.899C140.306 169.606 140.19 181.885 140.846 186.924C141.424 191.423 143.198 196.095 145.935 199.783Z" fill="#160100"/>
</g>
<defs>
<clipPath id="clip0_896_2">
<rect width="192" height="229" fill="white" transform="translate(29 21)"/>
</clipPath>
</defs>
</svg>
