<svg width="40" height="40" viewBox="0 0 40 40" fill="none" xmlns="http://www.w3.org/2000/svg">
<circle cx="20" cy="20" r="20" fill="#FDE8DD"/>
<path d="M26 14H12C10.8954 14 10 14.8954 10 16V24C10 25.1046 10.8954 26 12 26H26C27.1046 26 28 25.1046 28 24V16C28 14.8954 27.1046 14 26 14Z" stroke="#F75506" stroke-width="1.5" stroke-linecap="round" stroke-linejoin="round"/>
<path d="M19.4 17L17 20H21L18.6 23M28 18H29.5C29.6326 18 29.7598 18.0527 29.8536 18.1464C29.9473 18.2402 30 18.3674 30 18.5V21.5C30 21.6326 29.9473 21.7598 29.8536 21.8536C29.7598 21.9473 29.6326 22 29.5 22H28V18Z" stroke="#F75506" stroke-width="1.5" stroke-linecap="round" stroke-linejoin="round"/>
</svg>
