<svg width="14" height="18" viewBox="0 0 14 18" fill="none" xmlns="http://www.w3.org/2000/svg">
<path d="M11.2188 3.35742H11.9219C12.3102 3.35742 12.625 3.67221 12.625 4.06055V5.4668C12.625 5.85513 12.3102 6.16992 11.9219 6.16992H11.2188V3.35742Z" fill="#6F6E73"/>
<path d="M11.9219 6.52148H10.8672V3.00586H11.9219C12.5034 3.00586 12.9766 3.47899 12.9766 4.06055V5.4668C12.9766 6.04835 12.5034 6.52148 11.9219 6.52148ZM11.5703 5.81836H11.9219C12.1157 5.81836 12.2734 5.66065 12.2734 5.4668V4.06055C12.2734 3.8667 12.1157 3.70898 11.9219 3.70898H11.5703V5.81836Z" fill="#6F6E73"/>
<path d="M2.78125 6.16992H2.07812C1.68979 6.16992 1.375 5.85513 1.375 5.4668V4.06055C1.375 3.67221 1.68979 3.35742 2.07812 3.35742H2.78125V6.16992Z" fill="#6F6E73"/>
<path d="M3.13281 6.52148H2.07812C1.49657 6.52148 1.02344 6.04835 1.02344 5.4668V4.06055C1.02344 3.47899 1.49657 3.00586 2.07812 3.00586H3.13281V6.52148ZM2.07812 3.70898C1.88427 3.70898 1.72656 3.8667 1.72656 4.06055V5.4668C1.72656 5.66065 1.88427 5.81836 2.07812 5.81836H2.42969V3.70898H2.07812Z" fill="#6F6E73"/>
<path d="M13.6797 17.7715H0.320312V13.2012C0.320312 11.4565 1.73971 10.0371 3.48438 10.0371H5.4231L7 12.2447L8.5769 10.0371H10.5156C12.2603 10.0371 13.6797 11.4565 13.6797 13.2012V17.7715ZM1.02344 17.0684H12.9766V13.2012C12.9766 11.8442 11.8726 10.7402 10.5156 10.7402H8.93873L7 13.4545L5.06127 10.7402H3.48438C2.12741 10.7402 1.02344 11.8442 1.02344 13.2012V17.0684Z" fill="#6F6E73"/>
<path d="M7 9.29883C4.49934 9.29883 2.46484 7.26434 2.46484 4.76367C2.46484 2.26301 4.49934 0.228516 7 0.228516C9.50066 0.228516 11.5352 2.26301 11.5352 4.76367C11.5352 7.26434 9.50066 9.29883 7 9.29883ZM7 0.931641C4.88697 0.931641 3.16797 2.65064 3.16797 4.76367C3.16797 6.8767 4.88697 8.5957 7 8.5957C9.11303 8.5957 10.832 6.8767 10.832 4.76367C10.832 2.65064 9.11303 0.931641 7 0.931641Z" fill="#6F6E73"/>
<path d="M3.83594 13.9043H3.13281V17.4199H3.83594V13.9043Z" fill="#6F6E73"/>
<path d="M7.35156 13.2012H6.64844V17.4199H7.35156V13.2012Z" fill="#6F6E73"/>
<path d="M10.8672 13.9043H10.1641V17.4199H10.8672V13.9043Z" fill="#6F6E73"/>
<path d="M6.99997 13.5636L3.677 12.7328L4.92772 10.2314L5.5566 10.5459L4.69794 12.2633L6.99997 12.8388L9.302 12.2633L8.44335 10.5459L9.07222 10.2314L10.3229 12.7328L6.99997 13.5636Z" fill="#6F6E73"/>
<path d="M11.2187 8.06836H6.99988V7.36523H11.2187C11.4125 7.36523 11.5703 7.20752 11.5703 7.01367V6.16992H12.2734V7.01367C12.2734 7.59523 11.8003 8.06836 11.2187 8.06836Z" fill="#6F6E73"/>
</svg>
