<svg width="40" height="40" viewBox="0 0 40 40" fill="none" xmlns="http://www.w3.org/2000/svg">
<circle cx="20" cy="20" r="20" fill="#FDE8DD"/>
<path d="M12 14V12C15.1826 12 18.2348 13.2643 20.4853 15.5147C22.7357 17.7652 24 20.8174 24 24H22C22 22.6868 21.7413 21.3864 21.2388 20.1732C20.7362 18.9599 19.9997 17.8575 19.0711 16.9289C18.1425 16.0003 17.0401 15.2638 15.8268 14.7612C14.6136 14.2587 13.3132 14 12 14ZM12 18V16C14.1217 16 16.1566 16.8429 17.6569 18.3431C19.1571 19.8434 20 21.8783 20 24H18C18 22.4087 17.3679 20.8826 16.2426 19.7574C15.1174 18.6321 13.5913 18 12 18ZM12 20C13.0609 20 14.0783 20.4214 14.8284 21.1716C15.5786 21.9217 16 22.9391 16 24H12V20ZM11 26H27V24L30 27L27 30V28H11V26Z" fill="#F75506"/>
</svg>
