<svg width="24" height="24" viewBox="0 0 24 24" fill="none" xmlns="http://www.w3.org/2000/svg">
<path d="M15 22.5H9V16.5H15V22.5ZM10.5 21H13.5V18H10.5V21Z" fill="white"/>
<path d="M24 8.25H16.5V9.75H19.5V12H4.5V9.75H7.5V8.25H0V9.75H3V13.5H6.849L4.5 17.0228V20.25H6V17.4773L8.65125 13.5H15.3488L18 17.4773V20.25H19.5V17.0228L17.151 13.5H21V9.75H24V8.25ZM12 4.5C11.4091 4.49979 10.8241 4.61628 10.2783 4.84281C9.73262 5.06933 9.23702 5.40142 8.82 5.82L9.87975 6.87975C10.158 6.60096 10.4885 6.37978 10.8523 6.22887C11.2161 6.07795 11.6061 6.00028 12 6.00028C12.3939 6.00028 12.7839 6.07795 13.1477 6.22887C13.5115 6.37978 13.842 6.60096 14.1202 6.87975L15.1807 5.81925C14.7636 5.40068 14.2679 5.06866 13.722 4.84226C13.1762 4.61586 12.5909 4.49955 12 4.5V4.5Z" fill="white"/>
<path d="M6.69901 3.69901L7.7595 4.75951C8.31598 4.20193 8.97695 3.75956 9.70459 3.45774C10.4322 3.15592 11.2123 3.00056 12 3.00056C12.7878 3.00056 13.5678 3.15592 14.2954 3.45774C15.0231 3.75956 15.684 4.20193 16.2405 4.75951L17.301 3.69901C16.6055 3.00183 15.7792 2.4487 14.8696 2.0713C13.96 1.6939 12.9848 1.49963 12 1.49963C11.0152 1.49963 10.0401 1.6939 9.13043 2.0713C8.2208 2.4487 7.39456 3.00183 6.69901 3.69901Z" fill="white"/>
</svg>
