<svg width="32" height="32" viewBox="0 0 32 32" fill="none" xmlns="http://www.w3.org/2000/svg">
<circle cx="16" cy="16" r="16" fill="#FDD2BD"/>
<g clip-path="url(#clip0_240_1208)">
<path d="M26 12.6666V11.8333H20.1667V12.6666H22.6667V13.4999H21.8333V15.1666H19.0833L17.8325 12.9999H14.2125L12.9625 15.1666H10.1667V13.4999H9.33333V12.6666H11.8333V11.8333H6V12.6666H8.5V13.4999H7.66667V17.6666H10.1667V16.8333H12.8058L12.9858 17.1449C11.8884 17.7014 10.9664 18.5507 10.3217 19.5987C9.67709 20.6468 9.335 21.8528 9.33333 23.0833C9.33333 23.1938 9.37723 23.2997 9.45537 23.3779C9.53351 23.456 9.63949 23.4999 9.75 23.4999C9.86051 23.4999 9.96649 23.456 10.0446 23.3779C10.1228 23.2997 10.1667 23.1938 10.1667 23.0833C10.1681 21.9991 10.4716 20.9367 11.0432 20.0154C11.6148 19.0941 12.4318 18.3503 13.4025 17.8674L14.2125 19.2699H17.8325L18.6325 17.8841C19.5941 18.3706 20.4022 19.1139 20.9672 20.0316C21.5322 20.9493 21.832 22.0056 21.8333 23.0833C21.8333 23.1938 21.8772 23.2997 21.9554 23.3779C22.0335 23.456 22.1395 23.4999 22.25 23.4999C22.3605 23.4999 22.4665 23.456 22.5446 23.3779C22.6228 23.2997 22.6667 23.1938 22.6667 23.0833C22.6652 21.8594 22.327 20.6595 21.6891 19.615C21.0512 18.5706 20.1382 17.7218 19.05 17.1616L19.2392 16.8333H21.8333V17.6666H24.3333V13.4999H23.5V12.6666H26Z" fill="#FA9260"/>
</g>
<defs>
<clipPath id="clip0_240_1208">
<rect width="20" height="20" fill="white" transform="translate(6 6)"/>
</clipPath>
</defs>
</svg>
