<svg width="262" height="79" viewBox="0 0 262 79" fill="none" xmlns="http://www.w3.org/2000/svg">
<g style="mix-blend-mode:multiply" opacity="0.51">
<path opacity="0.7" d="M195.029 18.6513C205.288 18.6513 213.605 17.4924 213.605 16.0629C213.605 14.6333 205.288 13.4745 195.029 13.4745C184.77 13.4745 176.453 14.6333 176.453 16.0629C176.453 17.4924 184.77 18.6513 195.029 18.6513Z" fill="#787878"/>
<path d="M188.584 20.3063H201.474C202.401 20.3063 203.16 19.5553 203.167 18.6293C203.167 17.696 202.408 16.9377 201.474 16.9377H188.584C187.65 16.9377 186.891 17.696 186.891 18.6293C186.898 19.5553 187.657 20.3063 188.584 20.3063Z" fill="#181818"/>
<path d="M197.343 19.3439L196.16 22.0489C195.897 22.6905 195.167 22.9968 194.532 22.7343C194.219 22.6103 193.978 22.3624 193.846 22.0489L192.708 19.3512L197.343 19.3439Z" fill="#181818"/>
<path opacity="0.7" d="M60.496 18.6513C70.7551 18.6513 79.0717 17.4924 79.0717 16.0629C79.0717 14.6333 70.7551 13.4745 60.496 13.4745C50.237 13.4745 41.9204 14.6333 41.9204 16.0629C41.9204 17.4924 50.237 18.6513 60.496 18.6513Z" fill="#787878"/>
<path d="M54.051 20.3063H66.9408C67.8678 20.3063 68.6268 19.5553 68.6341 18.6293C68.6341 17.696 67.8751 16.9377 66.9408 16.9377H54.051C53.1167 16.9377 52.3577 17.696 52.3577 18.6293C52.365 19.5553 53.124 20.3063 54.051 20.3063Z" fill="#181818"/>
<path d="M62.8096 19.3439L61.6272 22.0489C61.3644 22.6905 60.6345 22.9968 59.9995 22.7343C59.6857 22.6103 59.4448 22.3624 59.3134 22.0489L58.1748 19.3512L62.8096 19.3439Z" fill="#181818"/>
<path d="M59.3718 77.3381C58.547 77.3381 57.7222 77.1558 56.9631 76.7985L54.591 75.6976C53.5911 75.2309 52.7079 74.4726 52.0364 73.5029L37.2854 52.1833C36.3438 50.8199 35.8621 49.1064 35.9278 47.3565L36.373 35.5302C36.4314 33.9115 36.9715 32.3439 37.8912 31.119C38.5408 30.2513 39.3802 29.5659 40.3071 29.1357L59.4375 20.2988C60.1965 19.9488 60.9994 19.7738 61.8169 19.7738H62.6198C62.9628 19.7738 63.3059 19.803 63.6489 19.8686L101.676 26.9484L100.72 32.0595L62.6928 24.9797L61.8169 24.9725C61.7512 24.9725 61.6855 24.987 61.6198 25.0235L42.4895 33.8605C42.3435 33.9261 42.1902 34.0646 42.0589 34.2396C41.7742 34.6188 41.599 35.1583 41.5771 35.727L41.1246 47.5534C41.1027 48.1804 41.2633 48.7856 41.5625 49.2231L56.3208 70.55C56.4595 70.7541 56.6274 70.9072 56.7953 70.9874L59.1674 72.0884C59.2477 72.1249 59.3207 72.1394 59.3864 72.1394L75.4512 71.2718C75.4804 71.2718 75.5096 71.2645 75.5388 71.2572L75.6847 71.2207C75.8818 71.1697 76.0862 70.9874 76.2614 70.7322L77.5898 68.7709C77.7138 68.5886 77.8087 68.3772 77.8817 68.1438L85.1879 44.6296C85.8521 42.4933 87.3848 40.8163 89.2825 40.1528L100.348 36.2884L102.063 41.1954L90.9978 45.0598C90.7423 45.1473 90.3701 45.49 90.1584 46.1681L82.8522 69.6823C82.626 70.4041 82.3048 71.0749 81.9034 71.6801L80.575 73.6414C79.6991 74.932 78.451 75.858 77.0569 76.2371L76.911 76.2736C76.5241 76.3829 76.13 76.4413 75.7285 76.4631L59.6637 77.3308C59.5688 77.3381 59.4667 77.3381 59.3718 77.3381Z" fill="#BFBFBF"/>
<path d="M195.35 77.3384C195.255 77.3384 195.153 77.3384 195.058 77.3311L178.993 76.4635C178.599 76.4416 178.198 76.376 177.811 76.2739L177.665 76.2374C176.271 75.8583 175.015 74.9323 174.147 73.6418L172.818 71.6804C172.41 71.0752 172.089 70.4045 171.87 69.6899L164.563 46.1757C164.352 45.5049 163.979 45.1549 163.724 45.0674L152.659 41.2031L154.374 36.2961L165.439 40.1604C167.337 40.8239 168.862 42.4936 169.527 44.6372L176.833 68.1515C176.906 68.3848 177.008 68.5962 177.125 68.7785L178.453 70.7399C178.628 70.995 178.84 71.1773 179.03 71.2284L179.176 71.2648C179.205 71.2721 179.234 71.2794 179.263 71.2794L195.328 72.1471C195.394 72.1471 195.467 72.1325 195.547 72.096L197.919 70.995C198.08 70.9221 198.248 70.7617 198.394 70.5576L213.152 49.2307C213.459 48.7932 213.612 48.1808 213.59 47.561L213.145 35.7274C213.123 35.1586 212.948 34.6191 212.663 34.2399C212.532 34.065 212.378 33.9264 212.232 33.8608L193.102 25.0238C193.029 24.9947 192.963 24.9728 192.905 24.9728H192.102L154.002 32.0526L153.046 26.9414L191.073 19.8616C191.409 19.796 191.752 19.7668 192.095 19.7668H192.898C193.722 19.7668 194.518 19.9418 195.277 20.2991L214.407 29.1361C215.334 29.5663 216.174 30.2516 216.823 31.1193C217.743 32.3442 218.276 33.9045 218.341 35.5305L218.787 47.3569C218.852 49.1068 218.371 50.8202 217.429 52.1837L202.671 73.5105C201.999 74.4803 201.116 75.2386 200.116 75.7052L197.744 76.8062C196.992 77.1561 196.168 77.3384 195.35 77.3384Z" fill="#BFBFBF"/>
<path d="M33.3879 78.5484C32.4683 78.5484 31.5705 78.388 30.702 78.0599L27.1985 76.7548C25.9942 76.3027 24.914 75.5517 24.0673 74.582L2.26557 49.3324C0.973669 47.8377 0.316771 45.9274 0.404357 43.9515L1.06855 29.9523C1.15614 28.1368 1.88603 26.4015 3.13413 25.0672C3.94431 24.1995 4.96615 23.5215 6.07558 23.1132L34.3587 12.6575C35.2127 12.344 36.1104 12.1836 37.0301 12.1836H38.2198C38.5993 12.1836 38.9789 12.2128 39.3511 12.2638L95.567 20.6414L94.9174 24.9651L38.7015 16.5948C38.5409 16.5729 38.3804 16.5583 38.2125 16.5583H37.0228C36.6286 16.5583 36.2418 16.624 35.8769 16.7625L7.59374 27.2254C7.11202 27.4004 6.67409 27.692 6.33104 28.0639C5.79822 28.6326 5.47707 29.3836 5.44058 30.1638L4.77638 44.1629C4.73988 45.0087 5.01724 45.8326 5.57925 46.4743L27.3883 71.7165C27.7532 72.1321 28.213 72.4602 28.7313 72.6498L32.2347 73.9549C32.6508 74.108 33.0887 74.1809 33.5339 74.1591L57.2844 73.131C57.4742 73.1237 57.664 73.1018 57.8465 73.0581L58.0654 73.0144C58.7734 72.8612 59.423 72.4675 59.8901 71.9134L61.8535 69.5875C62.0871 69.3104 62.2769 68.9969 62.4082 68.6542L73.196 40.8308C74.0645 38.5851 75.9695 36.8571 78.2906 36.2155L94.6474 31.6439L95.8298 35.8582L79.473 40.4298C78.473 40.7069 77.6556 41.4506 77.2833 42.4203L66.4883 70.2437C66.1818 71.0311 65.7511 71.7676 65.2037 72.4165L63.2403 74.7424C62.1528 76.0329 60.6492 76.937 59.007 77.2943L58.788 77.3453C58.3574 77.4401 57.9194 77.4985 57.4815 77.513L33.731 78.5411C33.6142 78.5411 33.5047 78.5484 33.3879 78.5484Z" fill="#D1D1D1"/>
<path d="M170.461 15.8367C157.659 13.6858 144.667 12.891 131.696 13.4743C118.734 12.891 105.742 13.6858 92.9468 15.8367C90.7498 16.2887 89.1514 18.1918 89.0784 20.4302V34.1741C89.1514 36.4125 90.7498 38.3155 92.9468 38.7676C105.742 40.9185 118.734 41.706 131.696 41.1154C144.667 41.706 157.659 40.9258 170.461 38.7676C172.65 38.3083 174.249 36.4125 174.329 34.1741V20.4593C174.256 18.2136 172.658 16.3033 170.461 15.8367Z" fill="#ECECEC"/>
<path opacity="0.2" d="M170.461 15.8367C157.659 13.6858 144.667 12.891 131.696 13.4743C118.734 12.891 105.742 13.6858 92.9468 15.8367C90.7498 16.2887 89.1514 18.1918 89.0784 20.4302V34.1741C89.1514 36.4125 90.7498 38.3155 92.9468 38.7676C105.742 40.9185 118.734 41.706 131.696 41.1154C144.667 41.706 157.659 40.9258 170.461 38.7676C172.65 38.3083 174.249 36.4125 174.329 34.1741V20.4593C174.256 18.2136 172.658 16.3033 170.461 15.8367Z" fill="#787878"/>
<path d="M171.534 31.3381C171.183 31.3381 170.899 31.0537 170.899 30.7038V22.6542C170.899 22.3043 171.183 22.0199 171.534 22.0199C171.884 22.0199 172.169 22.3043 172.169 22.6542V30.7038C172.154 31.0537 171.877 31.3308 171.534 31.3381Z" fill="#D8D8D8"/>
<path d="M169.46 31.3381C169.11 31.3381 168.825 31.0537 168.825 30.7038V22.6542C168.825 22.3043 169.11 22.0199 169.46 22.0199C169.811 22.0199 170.095 22.3043 170.095 22.6542V30.7038C170.081 31.0537 169.803 31.3308 169.46 31.3381Z" fill="#D8D8D8"/>
<path d="M167.388 31.3381C167.037 31.3381 166.753 31.0537 166.753 30.7038V22.6542C166.753 22.3043 167.037 22.0199 167.388 22.0199C167.738 22.0199 168.023 22.3043 168.023 22.6542V30.7038C168.023 31.0537 167.738 31.3381 167.388 31.3381Z" fill="#D8D8D8"/>
<path opacity="0.2" d="M104.771 23.9665C105.048 24.6665 105.713 25.1258 106.464 25.1258H132.405C133.047 25.1258 133.645 24.7831 133.974 24.229L139.901 14.0577C127.018 12.8984 114.048 13.1026 101.202 14.6629L104.771 23.9665Z" fill="#787878"/>
<path opacity="0.2" d="M153.885 15.8365C150.374 15.2459 146.834 14.7647 143.294 14.371L136.652 25.7307C135.776 27.2473 134.156 28.1806 132.404 28.1806H106.464C104.428 28.1733 102.61 26.9192 101.88 25.0235L98.0266 15.0272C96.3333 15.2678 94.64 15.523 92.9758 15.8073C90.7789 16.2594 89.1804 18.1624 89.1074 20.4008V34.1448C89.1804 36.3832 90.7789 38.2862 92.9758 38.7383C113.143 42.136 133.74 42.136 153.907 38.7383C156.104 38.2862 157.709 36.3832 157.782 34.1448V20.4592C157.717 18.1989 156.104 16.2813 153.885 15.8365ZM140.681 34.7718C139.689 34.7718 138.886 33.9698 138.886 32.9782C138.886 31.9866 139.689 31.1846 140.681 31.1846C141.674 31.1846 142.477 31.9866 142.477 32.9782C142.477 33.9698 141.674 34.7718 140.681 34.7718ZM147.644 34.7718C146.652 34.7718 145.849 33.9698 145.849 32.9782C145.849 31.9866 146.652 31.1846 147.644 31.1846C148.637 31.1846 149.44 31.9866 149.44 32.9782C149.447 33.9625 148.652 34.7646 147.674 34.7718C147.659 34.7718 147.652 34.7718 147.644 34.7718Z" fill="#787878"/>
<path d="M228.604 78.5482C228.494 78.5482 228.377 78.5482 228.268 78.5409L204.517 77.5129C204.08 77.491 203.634 77.44 203.204 77.3452L202.992 77.3014C201.342 76.9441 199.839 76.0327 198.759 74.7495L196.795 72.4236C196.248 71.7747 195.817 71.0455 195.511 70.2508L184.716 42.4202C184.343 41.4577 183.526 40.714 182.526 40.4369L166.169 35.8653L167.352 31.651L183.708 36.2226C186.029 36.8715 187.934 38.5996 188.803 40.838L199.598 68.6686C199.729 69.0113 199.919 69.3248 200.153 69.6019L202.116 71.9278C202.583 72.4819 203.233 72.8684 203.941 73.0288L204.153 73.0725C204.335 73.1163 204.525 73.1381 204.715 73.1454L228.465 74.1735C228.91 74.1954 229.348 74.1224 229.764 73.9693L233.268 72.6642C233.786 72.4673 234.253 72.1465 234.611 71.7309L256.42 46.4887C256.974 45.847 257.259 45.0231 257.223 44.1773L256.558 30.1782C256.522 29.398 256.208 28.647 255.668 28.0783C255.318 27.7065 254.88 27.4148 254.405 27.2398L226.122 16.7696C225.757 16.6311 225.37 16.5654 224.976 16.5654H223.786C223.626 16.5654 223.458 16.58 223.297 16.6019L167.082 24.9795L166.432 20.6558L222.648 12.2782C223.02 12.2199 223.407 12.198 223.779 12.198H224.969C225.881 12.198 226.779 12.3584 227.64 12.6719L255.923 23.1276C257.04 23.5432 258.055 24.214 258.865 25.0816C260.113 26.4086 260.843 28.1439 260.93 29.9667L261.595 43.9659C261.689 45.9418 261.025 47.8448 259.733 49.3468L237.924 74.5891C237.085 75.5661 235.997 76.3171 234.793 76.7619L231.29 78.067C230.421 78.3805 229.523 78.5482 228.604 78.5482Z" fill="#D1D1D1"/>
<path opacity="0.7" d="M36.7455 8.487C53.547 8.487 67.1672 6.58712 67.1672 4.2435C67.1672 1.89988 53.547 0 36.7455 0C19.9441 0 6.32385 1.89988 6.32385 4.2435C6.32385 6.58712 19.9441 8.487 36.7455 8.487Z" fill="#BBBBBB"/>
<path d="M26.1988 11.1916H47.3071C48.8326 11.1916 50.0661 9.9594 50.0734 8.44282C50.0734 6.91895 48.8326 5.67944 47.3071 5.67944H26.1988C24.6733 5.67944 23.4325 6.91895 23.4325 8.44282C23.4398 9.96669 24.6733 11.1916 26.1988 11.1916Z" fill="#A3A2A5"/>
<path d="M40.541 9.61731L38.6068 14.0504C38.1835 15.093 36.9864 15.5961 35.9354 15.1732C35.4245 14.9691 35.0231 14.5608 34.8114 14.0504L32.9429 9.63189L40.541 9.61731Z" fill="#A3A2A5"/>
<path opacity="0.7" d="M224.159 8.487C240.96 8.487 254.58 6.58712 254.58 4.2435C254.58 1.89988 240.96 0 224.159 0C207.357 0 193.737 1.89988 193.737 4.2435C193.737 6.58712 207.357 8.487 224.159 8.487Z" fill="#CECFCF"/>
<path d="M213.604 11.1916H234.713C236.238 11.1916 237.472 9.9594 237.479 8.44282C237.479 6.91895 236.238 5.67944 234.713 5.67944H213.604C212.079 5.67944 210.838 6.91895 210.838 8.44282C210.845 9.96669 212.086 11.1916 213.604 11.1916Z" fill="#A3A2A5"/>
<path d="M227.947 9.61731L226.013 14.0504C225.589 15.093 224.392 15.5961 223.341 15.1732C222.83 14.9691 222.429 14.5608 222.217 14.0504L220.349 9.63189L227.947 9.61731Z" fill="#A3A2A5"/>
<g clip-path="url(#clip0_13_1181)">
<path d="M107.369 17.0337L104.971 21.1944H106.445L107.369 19.5916C107.246 19.5916 107.144 19.5064 107.117 19.3921H106.268C106.235 19.3921 106.207 19.3647 106.207 19.3314C106.207 19.298 106.235 19.2706 106.268 19.2706H107.117C107.145 19.1563 107.247 19.0712 107.37 19.0712C107.492 19.0712 107.594 19.1563 107.622 19.2706H108.471C108.504 19.2706 108.532 19.298 108.532 19.3314C108.532 19.3647 108.504 19.3921 108.471 19.3921H107.621C107.594 19.5064 107.491 19.5916 107.369 19.5916L108.293 21.1944H109.767L107.369 17.0337Z" fill="#F75506"/>
</g>
<path d="M112.775 18.4287H113.246V21.2194H112.773L112.756 20.7477C112.668 20.9096 112.547 21.0408 112.393 21.1412C112.239 21.2417 112.056 21.2919 111.845 21.2919C111.638 21.2919 111.445 21.2534 111.266 21.1764C111.086 21.0994 110.929 20.9922 110.791 20.8555C110.654 20.7187 110.547 20.5613 110.47 20.3822C110.394 20.2035 110.355 20.011 110.355 19.8045C110.355 19.6052 110.393 19.4177 110.468 19.2408C110.542 19.0638 110.646 18.9092 110.78 18.7764C110.913 18.6435 111.068 18.5392 111.243 18.4638C111.419 18.3885 111.606 18.3511 111.806 18.3511C112.029 18.3511 112.223 18.4024 112.39 18.5057C112.557 18.6089 112.691 18.7423 112.792 18.9059L112.775 18.4287ZM111.857 20.837C112.043 20.837 112.204 20.7907 112.338 20.6975C112.473 20.6043 112.575 20.4798 112.645 20.3235C112.715 20.1673 112.746 19.9942 112.739 19.8045C112.732 19.6186 112.687 19.4501 112.607 19.2994C112.527 19.1487 112.419 19.0292 112.282 18.9405C112.146 18.8523 111.987 18.8076 111.806 18.8076C111.621 18.8076 111.453 18.854 111.302 18.9472C111.151 19.0404 111.033 19.1648 110.948 19.3211C110.862 19.4774 110.824 19.6515 110.831 19.843C110.841 20.0272 110.893 20.1946 110.988 20.3453C111.083 20.496 111.207 20.6155 111.359 20.7036C111.512 20.7929 111.677 20.837 111.857 20.837Z" fill="white"/>
<path d="M113.767 21.2196L114.792 19.8187L113.773 18.4233H114.353L115.084 19.4168L115.812 18.4233H116.392L115.372 19.8187L116.397 21.2196H115.818L115.084 20.215L114.347 21.2196H113.767Z" fill="white"/>
<path d="M117.006 21.2196V17.0336H117.474V21.2196H117.006Z" fill="white"/>
<path d="M120.448 17.0336H120.918V21.2196H120.448V20.7452C120.353 20.9087 120.225 21.041 120.064 21.1415C119.903 21.242 119.715 21.2922 119.498 21.2922C119.295 21.2922 119.105 21.2542 118.927 21.1778C118.749 21.1013 118.593 20.9958 118.458 20.8613C118.322 20.7262 118.216 20.5705 118.14 20.3936C118.063 20.2167 118.025 20.0269 118.025 19.8243C118.025 19.6217 118.063 19.4313 118.14 19.2533C118.217 19.0758 118.323 18.9195 118.458 18.7845C118.593 18.6494 118.749 18.5439 118.927 18.468C119.105 18.3915 119.295 18.3536 119.498 18.3536C119.715 18.3536 119.903 18.4038 120.064 18.5043C120.225 18.6047 120.353 18.737 120.448 18.9006V17.0336ZM119.504 20.8373C119.689 20.8373 119.849 20.7921 119.984 20.7022C120.12 20.6118 120.224 20.4896 120.298 20.335C120.372 20.1804 120.408 20.0101 120.408 19.8243C120.408 19.6345 120.371 19.4626 120.296 19.3091C120.222 19.1556 120.116 19.034 119.981 18.9435C119.845 18.8531 119.686 18.8079 119.503 18.8079C119.319 18.8079 119.151 18.8537 119 18.9446C118.85 19.0356 118.73 19.1584 118.641 19.3119C118.552 19.4654 118.506 19.6362 118.506 19.8237C118.506 20.0118 118.552 20.182 118.644 20.3355C118.735 20.489 118.856 20.6107 119.008 20.7011C119.159 20.7921 119.325 20.8373 119.504 20.8373Z" fill="white"/>
<path d="M123.213 18.8922C123.166 18.866 123.116 18.8459 123.062 18.8308C123.007 18.8157 122.949 18.8085 122.885 18.8085C122.73 18.8085 122.593 18.8503 122.472 18.9341C122.351 19.0178 122.257 19.1311 122.187 19.2745C122.118 19.418 122.084 19.5759 122.084 19.7489V21.2196H121.61V18.4289H122.081V18.8587C122.182 18.7024 122.307 18.5791 122.456 18.4887C122.606 18.3982 122.771 18.353 122.952 18.353C123.014 18.353 123.072 18.3558 123.128 18.3614C123.184 18.367 123.238 18.3781 123.288 18.3949L123.213 18.8922Z" fill="white"/>
<path d="M124.741 21.2922C124.484 21.2922 124.249 21.2264 124.037 21.0941C123.824 20.9618 123.656 20.7849 123.53 20.5627C123.404 20.3406 123.34 20.0945 123.34 19.8243C123.34 19.6195 123.377 19.4286 123.45 19.2511C123.522 19.0736 123.623 18.9173 123.751 18.7823C123.879 18.6472 124.028 18.5417 124.197 18.4652C124.367 18.3888 124.549 18.3508 124.741 18.3508C124.998 18.3508 125.233 18.4167 125.445 18.549C125.657 18.6813 125.826 18.8587 125.952 19.082C126.078 19.3053 126.142 19.5525 126.142 19.8243C126.142 20.0269 126.105 20.2167 126.032 20.3936C125.96 20.5706 125.859 20.7263 125.731 20.8614C125.603 20.9964 125.455 21.1019 125.286 21.1778C125.117 21.2537 124.935 21.2922 124.741 21.2922ZM124.741 20.8234C124.917 20.8234 125.075 20.7776 125.216 20.685C125.357 20.5929 125.468 20.4712 125.549 20.3194C125.63 20.1676 125.671 20.0029 125.671 19.8238C125.671 19.6413 125.629 19.4738 125.546 19.3214C125.463 19.1691 125.352 19.0468 125.212 18.9559C125.072 18.8649 124.915 18.8191 124.741 18.8191C124.566 18.8191 124.408 18.8654 124.268 18.9575C124.128 19.0496 124.017 19.1719 123.935 19.3242C123.852 19.4766 123.811 19.6435 123.811 19.8238C123.811 20.0096 123.853 20.1787 123.937 20.3306C124.021 20.4824 124.135 20.6024 124.276 20.6906C124.418 20.7793 124.573 20.8234 124.741 20.8234Z" fill="white"/>
<path d="M129.127 19.735V21.2197H128.657V19.7462C128.657 19.5732 128.62 19.4152 128.547 19.2729C128.475 19.1306 128.375 19.0173 128.25 18.9324C128.126 18.8476 127.984 18.8057 127.828 18.8057C127.672 18.8057 127.535 18.8481 127.414 18.9324C127.294 19.0173 127.199 19.1306 127.13 19.2729C127.061 19.4152 127.026 19.5732 127.026 19.7462V21.2197H126.555V18.429H127.026V18.8587C127.127 18.7008 127.251 18.5763 127.4 18.4859C127.548 18.3955 127.714 18.3508 127.897 18.3508C128.14 18.3508 128.353 18.4139 128.537 18.5406C128.72 18.6673 128.864 18.8347 128.968 19.044C129.072 19.2533 129.125 19.4839 129.127 19.735Z" fill="white"/>
<path d="M130.893 21.2922C130.635 21.2922 130.401 21.2264 130.188 21.0941C129.976 20.9618 129.807 20.7849 129.681 20.5627C129.555 20.3406 129.492 20.0945 129.492 19.8243C129.492 19.6195 129.528 19.4286 129.601 19.2511C129.674 19.0736 129.774 18.9173 129.903 18.7823C130.03 18.6472 130.179 18.5417 130.349 18.4652C130.519 18.3888 130.7 18.3508 130.892 18.3508C131.104 18.3508 131.297 18.3932 131.474 18.4775C131.65 18.5624 131.801 18.6801 131.928 18.8308C132.054 18.9815 132.148 19.1562 132.21 19.3555C132.273 19.5547 132.296 19.7674 132.279 19.9946H129.993C130.016 20.1525 130.068 20.2937 130.15 20.4176C130.232 20.5415 130.337 20.6398 130.466 20.7118C130.593 20.7843 130.736 20.8217 130.893 20.8234C131.061 20.8234 131.213 20.7804 131.349 20.6939C131.486 20.6074 131.596 20.4885 131.68 20.3378L132.159 20.4494C132.047 20.6967 131.878 20.8993 131.652 21.0567C131.426 21.2135 131.173 21.2922 130.893 21.2922ZM129.98 19.6262H131.806C131.791 19.4699 131.74 19.327 131.655 19.1975C131.569 19.068 131.46 18.9648 131.327 18.8866C131.194 18.8085 131.05 18.7694 130.893 18.7694C130.736 18.7694 130.592 18.8074 130.462 18.8839C130.331 18.9603 130.223 19.063 130.138 19.192C130.053 19.3214 130 19.466 129.98 19.6262Z" fill="white"/>
</g>
<defs>
<clipPath id="clip0_13_1181">
<rect width="4.79707" height="4.16072" fill="white" transform="translate(104.971 17.0337)"/>
</clipPath>
</defs>
</svg>
