<svg width="12" height="12" viewBox="0 0 12 12" fill="none" xmlns="http://www.w3.org/2000/svg">
<path d="M10 6.99994H7.85L8.215 4.99994H10C10.1326 4.99994 10.2598 4.94726 10.3536 4.85349C10.4473 4.75972 10.5 4.63255 10.5 4.49994C10.5 4.36733 10.4473 4.24015 10.3536 4.14639C10.2598 4.05262 10.1326 3.99994 10 3.99994H8.395L8.74 2.09494C8.75363 2.02809 8.75344 1.95916 8.73944 1.89239C8.72543 1.82562 8.69791 1.76242 8.65857 1.70669C8.61923 1.65095 8.56889 1.60385 8.51066 1.5683C8.45244 1.53274 8.38755 1.50948 8.32 1.49994C8.25283 1.48394 8.18308 1.48202 8.11513 1.49431C8.04718 1.5066 7.98252 1.53283 7.92521 1.57135C7.86791 1.60987 7.8192 1.65984 7.78216 1.71811C7.74512 1.77639 7.72055 1.8417 7.71 1.90994L7.335 3.99994H5.395L5.74 2.09494C5.75363 2.02809 5.75344 1.95916 5.73944 1.89239C5.72543 1.82562 5.69791 1.76242 5.65857 1.70669C5.61922 1.65095 5.56889 1.60385 5.51067 1.5683C5.45244 1.53274 5.38755 1.50948 5.32 1.49994C5.25283 1.48394 5.18308 1.48202 5.11513 1.49431C5.04718 1.5066 4.98252 1.53283 4.92521 1.57135C4.86791 1.60987 4.8192 1.65984 4.78216 1.71811C4.74512 1.77639 4.72055 1.8417 4.71 1.90994L4.335 3.99994H2C1.86739 3.99994 1.74021 4.05262 1.64645 4.14639C1.55268 4.24015 1.5 4.36733 1.5 4.49994C1.5 4.63255 1.55268 4.75972 1.64645 4.85349C1.74021 4.94726 1.86739 4.99994 2 4.99994H4.15L3.785 6.99994H2C1.86739 6.99994 1.74021 7.05262 1.64645 7.14639C1.55268 7.24015 1.5 7.36733 1.5 7.49994C1.5 7.63255 1.55268 7.75972 1.64645 7.85349C1.74021 7.94726 1.86739 7.99994 2 7.99994H3.605L3.26 9.90494C3.24637 9.97179 3.24656 10.0407 3.26056 10.1075C3.27457 10.1743 3.30209 10.2375 3.34143 10.2932C3.38078 10.3489 3.43111 10.396 3.48933 10.4316C3.54756 10.4671 3.61245 10.4904 3.68 10.4999C3.74717 10.5159 3.81692 10.5179 3.88487 10.5056C3.95282 10.4933 4.01748 10.467 4.07479 10.4285C4.13209 10.39 4.1808 10.34 4.21784 10.2818C4.25488 10.2235 4.27945 10.1582 4.29 10.0899L4.665 7.99994H6.605L6.26 9.90494C6.24637 9.97179 6.24656 10.0407 6.26056 10.1075C6.27457 10.1743 6.30209 10.2375 6.34143 10.2932C6.38078 10.3489 6.43111 10.396 6.48933 10.4316C6.54756 10.4671 6.61245 10.4904 6.68 10.4999C6.74717 10.5159 6.81692 10.5179 6.88487 10.5056C6.95282 10.4933 7.01748 10.467 7.07479 10.4285C7.13209 10.39 7.1808 10.34 7.21784 10.2818C7.25488 10.2235 7.27945 10.1582 7.29 10.0899L7.665 7.99994H10C10.1326 7.99994 10.2598 7.94726 10.3536 7.85349C10.4473 7.75972 10.5 7.63255 10.5 7.49994C10.5 7.36733 10.4473 7.24015 10.3536 7.14639C10.2598 7.05262 10.1326 6.99994 10 6.99994ZM4.85 6.99994L5.215 4.99994H7.15L6.785 6.99994H4.85Z" fill="#6F6E73"/>
</svg>
