<svg width="40" height="40" viewBox="0 0 40 40" fill="none" xmlns="http://www.w3.org/2000/svg">
<circle cx="20" cy="20" r="20" fill="#FDE8DD"/>
<path d="M24.583 25.527C24.6451 25.6035 24.6915 25.6915 24.7195 25.7859C24.7476 25.8803 24.7568 25.9793 24.7465 26.0773C24.7363 26.1753 24.7069 26.2702 24.66 26.3568C24.6131 26.4434 24.5495 26.52 24.473 26.582L20.473 29.832C20.3393 29.9407 20.1723 30 20 30C19.8278 30 19.6607 29.9407 19.527 29.832L15.527 26.582C15.4496 26.5202 15.3851 26.4437 15.3374 26.3569C15.2897 26.2701 15.2597 26.1747 15.249 26.0762C15.2384 25.9777 15.2474 25.878 15.2755 25.783C15.3036 25.688 15.3502 25.5995 15.4127 25.5227C15.4752 25.4458 15.5523 25.382 15.6395 25.3351C15.7268 25.2882 15.8225 25.259 15.921 25.2493C16.0196 25.2396 16.1192 25.2495 16.2139 25.2784C16.3087 25.3074 16.3967 25.3548 16.473 25.418L20 28.284L23.527 25.418C23.6035 25.3558 23.6916 25.3093 23.7861 25.2811C23.8806 25.253 23.9798 25.2438 24.0778 25.254C24.1759 25.2642 24.271 25.2937 24.3577 25.3407C24.4444 25.3877 24.521 25.4504 24.583 25.527ZM12.926 17.485C13.469 17.485 13.883 17.663 14.17 18.02C14.458 18.376 14.604 18.889 14.611 19.556V20.472C14.611 21.16 14.469 21.687 14.184 22.052C13.899 22.416 13.482 22.598 12.934 22.598C12.391 22.598 11.976 22.419 11.689 22.061C11.402 21.704 11.255 21.191 11.249 20.523V19.607C11.248 18.912 11.392 18.385 11.68 18.025C11.969 17.665 12.384 17.485 12.926 17.485ZM16.942 17.485C17.485 17.485 17.899 17.663 18.187 18.02C18.474 18.376 18.621 18.889 18.627 19.556V20.472C18.627 21.16 18.485 21.687 18.2 22.052C17.915 22.416 17.498 22.598 16.95 22.598C16.407 22.598 15.992 22.419 15.705 22.061C15.418 21.704 15.271 21.191 15.265 20.523V19.607C15.265 18.912 15.408 18.385 15.697 18.025C15.985 17.665 16.4 17.485 16.942 17.485ZM22.934 17.485C23.476 17.485 23.891 17.663 24.178 18.02C24.465 18.376 24.612 18.889 24.619 19.556V20.472C24.619 21.16 24.477 21.687 24.192 22.052C23.907 22.416 23.49 22.598 22.941 22.598C22.399 22.598 21.984 22.419 21.697 22.061C21.41 21.704 21.263 21.191 21.256 20.523V19.607C21.256 18.912 21.4 18.385 21.688 18.025C21.976 17.665 22.392 17.485 22.934 17.485ZM26.95 17.485C27.493 17.485 27.907 17.663 28.194 18.02C28.481 18.376 28.628 18.889 28.635 19.556V20.472C28.635 21.16 28.493 21.687 28.208 22.052C27.923 22.416 27.506 22.598 26.957 22.598C26.415 22.598 26 22.419 25.713 22.061C25.426 21.704 25.279 21.191 25.272 20.523V19.607C25.272 18.912 25.416 18.385 25.704 18.025C25.993 17.665 26.408 17.485 26.95 17.485ZM20 21C20.148 20.9949 20.2922 21.0476 20.402 21.147C20.4545 21.1956 20.4959 21.255 20.5234 21.3211C20.5508 21.3872 20.5637 21.4585 20.561 21.53C20.5637 21.6006 20.551 21.6709 20.5239 21.7362C20.4968 21.8014 20.4559 21.86 20.404 21.908C20.2936 22.0068 20.1491 22.0588 20.001 22.053C19.8538 22.0583 19.7103 22.0059 19.601 21.907C19.5491 21.8592 19.5081 21.8008 19.4808 21.7358C19.4536 21.6707 19.4407 21.6005 19.443 21.53C19.443 21.373 19.496 21.245 19.603 21.147C19.7113 21.0483 19.8536 20.9956 20 21ZM12.926 18.285C12.694 18.285 12.522 18.375 12.412 18.553C12.302 18.732 12.242 19.012 12.236 19.393V20.603C12.236 21.008 12.291 21.309 12.402 21.506C12.512 21.703 12.689 21.802 12.933 21.802C13.175 21.802 13.349 21.707 13.456 21.518C13.563 21.328 13.619 21.04 13.624 20.65V19.467C13.624 19.055 13.567 18.755 13.454 18.567C13.342 18.379 13.166 18.285 12.926 18.285ZM16.942 18.285C16.71 18.285 16.538 18.375 16.428 18.553C16.318 18.732 16.258 19.012 16.252 19.393V20.603C16.252 21.008 16.307 21.309 16.418 21.506C16.528 21.703 16.705 21.802 16.949 21.802C17.191 21.802 17.365 21.707 17.472 21.518C17.579 21.328 17.635 21.04 17.64 20.65V19.467C17.64 19.055 17.583 18.755 17.47 18.567C17.358 18.379 17.182 18.285 16.942 18.285ZM22.934 18.285C22.702 18.285 22.53 18.375 22.42 18.553C22.31 18.732 22.25 19.012 22.244 19.393V20.603C22.244 21.008 22.299 21.309 22.409 21.506C22.519 21.703 22.697 21.802 22.941 21.802C23.182 21.802 23.357 21.707 23.464 21.518C23.571 21.328 23.627 21.04 23.631 20.65V19.467C23.631 19.055 23.575 18.755 23.462 18.567C23.349 18.379 23.173 18.285 22.934 18.285ZM26.95 18.285C26.718 18.285 26.546 18.375 26.436 18.553C26.344 18.702 26.288 18.921 26.267 19.21L26.26 19.392V20.602C26.26 21.008 26.315 21.309 26.425 21.506C26.536 21.703 26.713 21.802 26.957 21.802C27.199 21.802 27.373 21.707 27.48 21.518C27.57 21.36 27.623 21.133 27.64 20.836L27.648 20.65V19.467C27.648 19.055 27.591 18.755 27.478 18.567C27.365 18.379 27.189 18.285 26.95 18.285ZM20 18.2C20.148 18.1949 20.2922 18.2476 20.402 18.347C20.4544 18.3955 20.4957 18.4548 20.5232 18.5207C20.5506 18.5866 20.5635 18.6576 20.561 18.729C20.5637 18.7996 20.551 18.8699 20.5239 18.9352C20.4968 19.0004 20.4559 19.059 20.404 19.107C20.2936 19.2058 20.1491 19.2578 20.001 19.252C19.8539 19.2575 19.7104 19.2055 19.601 19.107C19.549 19.0591 19.5079 19.0006 19.4806 18.9353C19.4534 18.8701 19.4405 18.7997 19.443 18.729C19.443 18.572 19.496 18.445 19.603 18.347C19.7113 18.2483 19.8536 18.1956 20 18.2ZM15.529 13.418L19.529 10.168C19.6473 10.072 19.7919 10.0143 19.9437 10.0025C20.0956 9.99069 20.2474 10.0254 20.379 10.102L20.474 10.168L24.474 13.418C24.6208 13.5374 24.717 13.7078 24.7434 13.8951C24.7698 14.0824 24.7245 14.2727 24.6165 14.428C24.5085 14.5833 24.3458 14.6921 24.161 14.7325C23.9762 14.7729 23.783 14.742 23.62 14.646L23.529 14.582L20 11.716L16.473 14.582C16.326 14.7005 16.1397 14.7592 15.9513 14.7463C15.7629 14.7334 15.5863 14.65 15.4568 14.5126C15.3272 14.3752 15.2543 14.194 15.2525 14.0052C15.2506 13.8164 15.3201 13.6338 15.447 13.494L15.527 13.418H15.529Z" fill="#F75506"/>
</svg>
