<svg width="40" height="40" viewBox="0 0 40 40" fill="none" xmlns="http://www.w3.org/2000/svg">
<circle cx="20" cy="20" r="20" fill="#FDE8DD"/>
<path d="M13.2235 13.1071C13.3322 13.0016 13.4783 12.9436 13.6298 12.9459C13.7812 12.9481 13.9256 13.0104 14.0311 13.1191C14.1465 13.2394 14.2098 13.4003 14.2073 13.567C14.2048 13.7337 14.1368 13.8927 14.0179 14.0095C12.4661 15.5795 11.5971 17.6988 11.5999 19.9063C11.5999 22.2943 12.5959 24.4495 14.1967 25.9783C14.2585 26.0354 14.3083 26.1043 14.3432 26.1808C14.3782 26.2574 14.3975 26.3402 14.4 26.4243C14.4026 26.5084 14.3884 26.5922 14.3582 26.6708C14.328 26.7493 14.2825 26.8211 14.2243 26.8819C14.1211 26.9885 13.9803 27.0507 13.832 27.0552C13.6836 27.0597 13.5394 27.0061 13.4299 26.9059C12.4722 26.0091 11.709 24.925 11.1877 23.7209C10.6665 22.5168 10.3983 21.2184 10.3999 19.9063C10.3999 17.2495 11.4799 14.8447 13.2235 13.1071ZM25.9819 14.0095C25.8632 13.8925 25.7954 13.7334 25.7931 13.5668C25.7909 13.4001 25.8544 13.2392 25.9699 13.1191C26.0754 13.0108 26.2195 12.9487 26.3706 12.9465C26.5218 12.9442 26.6677 13.002 26.7763 13.1071C27.6725 13.9979 28.3835 15.0573 28.8681 16.2243C29.3527 17.3913 29.6014 18.6427 29.5999 19.9063C29.5999 22.6663 28.4359 25.1551 26.5699 26.9059C26.4604 27.0061 26.3162 27.0597 26.1678 27.0552C26.0195 27.0507 25.8787 26.9885 25.7755 26.8819C25.7175 26.8211 25.6721 26.7494 25.6421 26.671C25.612 26.5925 25.5978 26.5089 25.6004 26.4249C25.603 26.3409 25.6222 26.2583 25.657 26.1818C25.6918 26.1054 25.7415 26.0366 25.8031 25.9795C26.625 25.1961 27.279 24.2537 27.7254 23.2097C28.1718 22.1656 28.4013 21.0418 28.3999 19.9063C28.4027 17.6984 27.5337 15.5788 25.9819 14.0083V14.0095ZM15.3583 15.2143C15.4652 15.1124 15.6083 15.0573 15.7559 15.0609C15.9035 15.0645 16.0437 15.1266 16.1455 15.2335C16.3951 15.4831 16.3699 15.8935 16.1239 16.1455C15.1447 17.1522 14.5978 18.5019 14.5999 19.9063C14.5999 21.4543 15.2515 22.8511 16.2967 23.8363C16.5607 24.0847 16.5967 24.5095 16.3387 24.7675C16.2398 24.8703 16.1052 24.9312 15.9626 24.9374C15.8201 24.9437 15.6806 24.8949 15.5731 24.8011C14.8881 24.183 14.3407 23.4279 13.9663 22.5847C13.5919 21.7414 13.3989 20.8289 13.3999 19.9063C13.3986 19.0334 13.5711 18.1689 13.9073 17.3634C14.2435 16.5578 14.7368 15.8272 15.3583 15.2143ZM23.8759 16.1455C23.6299 15.8935 23.6047 15.4831 23.8543 15.2335C23.9562 15.1266 24.0963 15.0645 24.2439 15.0609C24.3916 15.0573 24.5346 15.1124 24.6415 15.2143C25.2629 15.8274 25.756 16.5579 26.0922 17.3635C26.4285 18.169 26.601 19.0334 26.5999 19.9063C26.6012 20.829 26.4085 21.7417 26.0343 22.5852C25.6602 23.4286 25.1129 24.184 24.4279 24.8023C24.3199 24.8965 24.1798 24.9453 24.0367 24.9386C23.8936 24.9319 23.7586 24.8702 23.6599 24.7663C23.4031 24.5095 23.4391 24.0847 23.7031 23.8363C24.2396 23.332 24.667 22.7231 24.9588 22.0472C25.2507 21.3712 25.4008 20.6426 25.3999 19.9063C25.4021 18.5019 24.8551 17.1522 23.8759 16.1455ZM19.9999 18.4063C19.6021 18.4063 19.2206 18.5643 18.9392 18.8456C18.6579 19.1269 18.4999 19.5085 18.4999 19.9063C18.4999 20.3041 18.6579 20.6856 18.9392 20.967C19.2206 21.2483 19.6021 21.4063 19.9999 21.4063C20.3977 21.4063 20.7793 21.2483 21.0606 20.967C21.3419 20.6856 21.4999 20.3041 21.4999 19.9063C21.4999 19.5085 21.3419 19.1269 21.0606 18.8456C20.7793 18.5643 20.3977 18.4063 19.9999 18.4063Z" fill="#F75506"/>
</svg>
