<svg width="40" height="40" viewBox="0 0 40 40" fill="none" xmlns="http://www.w3.org/2000/svg">
<circle cx="20" cy="20" r="20" fill="#FDE8DD"/>
<path d="M25.7859 18.0714C25.7859 16.537 25.1763 15.0653 24.0913 13.9803C23.0062 12.8953 21.5346 12.2857 20.0001 12.2857C18.4657 12.2857 16.9941 12.8953 15.909 13.9803C14.824 15.0653 14.2144 16.537 14.2144 18.0714C14.2144 20.4449 16.1134 23.5383 20.0001 27.2437C23.8869 23.5383 25.7859 20.4449 25.7859 18.0714ZM20.0001 29C15.2854 24.7147 12.9287 21.071 12.9287 18.0714C12.9287 16.196 13.6737 14.3973 14.9999 13.0712C16.326 11.745 18.1247 11 20.0001 11C21.8756 11 23.6742 11.745 25.0004 13.0712C26.3265 14.3973 27.0716 16.196 27.0716 18.0714C27.0716 21.071 24.7149 24.7147 20.0001 29Z" fill="#F75506"/>
<path d="M20 18.7141C20.341 18.7141 20.668 18.5786 20.9091 18.3375C21.1503 18.0964 21.2857 17.7694 21.2857 17.4284C21.2857 17.0874 21.1503 16.7603 20.9091 16.5192C20.668 16.2781 20.341 16.1426 20 16.1426C19.659 16.1426 19.332 16.2781 19.0909 16.5192C18.8497 16.7603 18.7143 17.0874 18.7143 17.4284C18.7143 17.7694 18.8497 18.0964 19.0909 18.3375C19.332 18.5786 19.659 18.7141 20 18.7141ZM20 19.9998C19.318 19.9998 18.664 19.7289 18.1817 19.2466C17.6995 18.7644 17.4286 18.1103 17.4286 17.4284C17.4286 16.7464 17.6995 16.0923 18.1817 15.6101C18.664 15.1279 19.318 14.8569 20 14.8569C20.682 14.8569 21.336 15.1279 21.8183 15.6101C22.3005 16.0923 22.5714 16.7464 22.5714 17.4284C22.5714 18.1103 22.3005 18.7644 21.8183 19.2466C21.336 19.7289 20.682 19.9998 20 19.9998ZM26.9429 23.8569L29 28.9998H23.2143V27.7141H16.7857V28.9998H11L13.0571 23.8569H26.9429ZM25.5581 23.8569H14.4419L12.899 27.7141H27.101L25.5581 23.8569Z" fill="#F75506"/>
</svg>
