<svg width="35" height="30" viewBox="0 0 35 30" fill="none" xmlns="http://www.w3.org/2000/svg">
<path d="M17.2573 0L0 30H10.6093L17.2573 18.443C16.376 18.443 15.6402 17.8291 15.4434 17.0049H9.3345C9.09493 17.0049 8.89815 16.8074 8.89815 16.567C8.89815 16.3266 9.09493 16.1291 9.3345 16.1291H15.4477C15.6445 15.3048 16.3803 14.6909 17.2616 14.6909C18.1428 14.6909 18.8786 15.3048 19.0754 16.1291H25.1886C25.4282 16.1291 25.625 16.3266 25.625 16.567C25.625 16.8074 25.4282 17.0049 25.1886 17.0049H19.0711C18.8743 17.8291 18.1385 18.443 17.2573 18.443L23.9052 30H34.5145L17.2573 0Z" fill="#F75506"/>
</svg>
