<svg width="173" height="32" viewBox="0 0 173 32" fill="none" xmlns="http://www.w3.org/2000/svg">
<g clip-path="url(#clip0_301_2007)">
<path d="M18.5422 32L18.5519 31.9662C12.377 31.5032 7.51077 26.3376 7.51077 20.0334C7.51077 17.7174 8.16749 15.5551 9.3047 13.7232H9.1218C4.10481 13.7232 0 17.8356 0 22.8616C0 27.8879 4.10481 32 9.12213 32H19.4564H19.456H18.5422Z" fill="#F15824"/>
<path d="M41.0477 3.39395H39.0351C38.7027 3.39395 38.3724 3.404 38.044 3.4241C35.9792 1.31109 33.1006 0 29.916 0C24.7873 0 20.4515 3.40098 19.0327 8.0742C14.9239 8.21756 11.3427 10.4398 9.30467 13.7232C8.16746 15.5552 7.51074 17.7174 7.51074 20.0334C7.51074 26.3376 12.3769 31.5032 18.5519 31.9662L18.5422 32H19.4557H19.456H23.828C23.4578 31.7923 23.0964 31.5679 22.7436 31.3267C21.4974 30.4755 20.4013 29.4703 19.4557 28.3116C18.5097 27.1529 17.7688 25.799 17.2317 24.2497C16.6951 22.7008 16.4266 21.0618 16.4266 19.3333C16.4266 17.3727 16.7917 15.5029 17.5213 13.7232C17.5303 13.7014 17.539 13.6796 17.5481 13.6579C18.2957 11.8591 19.3179 10.3034 20.6153 8.99102C21.9123 7.67893 23.4843 6.63549 25.3313 5.86069C27.1781 5.08623 29.1432 4.69867 31.2264 4.69867C33.3477 4.69867 35.3416 5.05743 37.2077 5.77427C39.0736 6.49145 40.6839 7.48699 42.0388 8.76056C43.3934 10.0348 44.4607 11.5998 45.2405 13.4562C45.3849 13.8002 45.516 14.1503 45.6337 14.5057C46.151 16.0683 46.4098 17.7412 46.4098 19.5249V30.8252V30.9562C51.6374 28.8322 55.3246 23.6957 55.3246 17.6966C55.3253 9.79763 48.933 3.39395 41.0477 3.39395Z" fill="#F4763C"/>
<path d="M43.9304 13.9416C43.72 13.4556 43.4796 12.9832 43.2088 12.525C41.9943 10.4699 40.3395 8.8825 38.2436 7.76201C36.1474 6.64186 33.8085 6.08145 31.2271 6.08145C28.7473 6.08145 26.4789 6.6767 24.4215 7.86753C22.3637 9.05836 20.747 10.6686 19.5714 12.6975C19.3761 13.0342 19.1975 13.3762 19.035 13.7229C18.2168 15.4661 17.8079 17.3359 17.8079 19.333C17.8079 20.9077 18.06 22.4027 18.5652 23.8173C19.0698 25.2322 19.76 26.4676 20.6357 27.5238C21.5111 28.5799 22.5206 29.4924 23.6648 30.2605C24.8003 31.0232 26.0245 31.6031 27.3366 31.9997H35.0216C35.2479 31.9206 35.4726 31.8339 35.695 31.7394V31.9997H36.7493V19.5253C36.7493 17.8866 36.2444 16.619 35.2349 15.7227C34.2251 14.8266 32.8896 14.3784 31.2281 14.3784C29.822 14.3784 28.6142 14.8651 27.6048 15.8379C26.5949 16.811 26.0904 17.9764 26.0904 19.3333C26.0904 20.1014 26.1924 20.7898 26.397 21.3978C26.6013 22.0061 26.8792 22.5116 27.2309 22.9149C27.5824 23.3182 28.0007 23.6511 28.4865 23.9134C28.972 24.176 29.4799 24.3646 30.0106 24.4799C30.5409 24.5951 31.1064 24.6527 31.7072 24.6527C33.1641 24.6527 34.4933 24.2943 35.6947 23.5771V24.9599C34.4548 25.6127 33.1193 25.9393 31.6878 25.9393C30.7676 25.9393 29.9016 25.8144 29.0901 25.5648C28.2782 25.3153 27.5402 24.9378 26.8758 24.4316C26.2111 23.9258 25.6838 23.2348 25.2942 22.3575C24.9043 21.4805 24.7094 20.4722 24.7094 19.3327C24.7094 17.5657 25.329 16.0677 26.5689 14.8387C27.0296 14.3818 27.5339 14.0099 28.0816 13.7229C29.0065 13.2378 30.0551 12.995 31.2274 12.995C32.5586 12.995 33.7249 13.2378 34.727 13.7229C35.274 13.9875 35.7722 14.3241 36.2213 14.7331C37.4929 15.8922 38.1289 17.489 38.1289 19.5249V32H38.2858H39.5092H40.8895H41.9512C42.0579 32 42.1639 31.998 42.2699 31.9943V31.9481V19.5253C42.2699 17.4126 41.7873 15.5401 40.8223 13.9078C40.7856 13.8458 40.7481 13.7842 40.7103 13.7232C39.756 12.1806 38.474 10.9908 36.8633 10.1531C35.1888 9.28246 33.3102 8.84699 31.2271 8.84699C29.2459 8.84699 27.4376 9.31763 25.8018 10.2586C24.2861 11.1305 23.0753 12.2855 22.1685 13.7232C22.0966 13.8374 22.026 13.9533 21.9578 14.0709C21.0309 15.6714 20.5678 17.4257 20.5678 19.333C20.5678 20.972 20.8681 22.4667 21.469 23.8173C22.0695 25.1682 22.878 26.279 23.8942 27.1493C24.9104 28.0202 26.0666 28.6952 27.364 29.1755C28.6611 29.6555 30.0193 29.8957 31.4377 29.8957C32.8819 29.8957 34.3007 29.5949 35.6937 28.993V30.3948C34.2368 30.9455 32.805 31.2205 31.3993 31.2205C29.188 31.2205 27.156 30.7211 25.3029 29.7225C23.4495 28.724 21.9672 27.3094 20.8554 25.4781C19.7436 23.6475 19.1875 21.5988 19.1875 19.3323C19.1875 17.7191 19.4971 16.1826 20.1174 14.7231C20.2639 14.3784 20.4227 14.0448 20.5936 13.7222C21.1466 12.6791 21.8281 11.7512 22.6383 10.9396C23.6989 9.87703 24.9772 9.0319 26.4726 8.40449C27.9679 7.77742 29.5525 7.46355 31.2271 7.46355C33.566 7.46355 35.6776 7.963 37.5632 8.96155C39.448 9.96011 40.934 11.3814 42.0204 13.2251C42.118 13.3909 42.2113 13.5591 42.3003 13.7289C43.1998 15.4486 43.6502 17.3804 43.6502 19.5243V31.7619V31.8389C44.124 31.7485 44.5851 31.6212 45.0305 31.4597V31.4346V19.5253C45.0301 17.496 44.6633 15.6349 43.9304 13.9416ZM31.5146 28.5709C30.2493 28.5709 29.0479 28.3759 27.9104 27.985C26.7728 27.5948 25.7567 27.0247 24.8622 26.2757C23.9674 25.5267 23.2582 24.5539 22.7342 23.3564C22.2099 22.1595 21.9481 20.8183 21.9481 19.333C21.9481 17.1935 22.5898 15.3237 23.8724 13.7229C24.1018 13.4365 24.3519 13.1588 24.6225 12.8895C26.4054 11.1161 28.6069 10.2294 31.2267 10.2294C33.0671 10.2294 34.716 10.6039 36.1728 11.3529C37.3107 11.9378 38.2613 12.7277 39.0251 13.7229C39.2394 14.0019 39.4387 14.297 39.6236 14.6085C40.4672 16.0298 40.8889 17.6689 40.8889 19.5249V32H39.5086V19.5253C39.5086 17.1054 38.7352 15.182 37.189 13.754C37.1776 13.7436 37.1659 13.7336 37.1546 13.7232C35.6127 12.3166 33.6369 11.6125 31.2267 11.6125C29.0466 11.6125 27.2145 12.316 25.7313 13.7232C25.6841 13.7681 25.6373 13.8136 25.5905 13.8595C24.0821 15.3575 23.3284 17.1821 23.3284 19.333C23.3284 20.6391 23.5551 21.8105 24.0089 22.8475C24.4623 23.8846 25.0792 24.717 25.859 25.3441C26.6384 25.9715 27.5108 26.4485 28.4758 26.7748C29.4405 27.1014 30.46 27.2645 31.5337 27.2645C32.9906 27.2645 34.3772 26.9255 35.6937 26.2465V27.706C34.3134 28.2828 32.9203 28.5709 31.5146 28.5709Z" fill="#F4763C"/>
</g>
<path d="M75.1022 11.4362H78.0399V28.9226H75.0847L74.9798 25.9674C74.4318 26.9816 73.6741 27.8035 72.7065 28.433C71.7506 29.0625 70.614 29.3772 69.2967 29.3772C68.0027 29.3772 66.7961 29.1383 65.677 28.6603C64.5579 28.1707 63.567 27.5004 62.7043 26.6494C61.8533 25.7867 61.1888 24.7958 60.7108 23.6767C60.2329 22.5575 59.9939 21.351 59.9939 20.057C59.9939 18.8096 60.227 17.6322 60.6934 16.5247C61.1597 15.4172 61.8067 14.4497 62.6343 13.622C63.4737 12.7826 64.4413 12.1298 65.5371 11.6635C66.6329 11.1855 67.8045 10.9466 69.0519 10.9466C70.4391 10.9466 71.6515 11.273 72.689 11.9258C73.7382 12.567 74.5776 13.4005 75.2071 14.4263L75.1022 11.4362ZM69.3666 26.5269C70.5324 26.5269 71.5349 26.2355 72.3743 25.6526C73.2136 25.0697 73.849 24.2887 74.2803 23.3094C74.7233 22.3302 74.9215 21.246 74.8748 20.057C74.8282 18.8912 74.5543 17.8362 74.053 16.8919C73.5517 15.9477 72.8756 15.2016 72.0246 14.6537C71.1735 14.0941 70.1826 13.8143 69.0519 13.8143C67.8978 13.8143 66.8486 14.1058 65.9043 14.6886C64.96 15.2715 64.2198 16.0526 63.6835 17.0318C63.1589 18.0111 62.92 19.101 62.9666 20.3018C63.0249 21.4559 63.3513 22.5051 63.9458 23.4493C64.5404 24.3936 65.3098 25.1455 66.254 25.7051C67.21 26.253 68.2475 26.5269 69.3666 26.5269Z" fill="#6F6E73"/>
<path d="M95.9697 11.4362H98.9075V28.9226H95.9522L95.8473 25.9674C95.2994 26.9816 94.5417 27.8035 93.5741 28.433C92.6182 29.0625 91.4816 29.3772 90.1642 29.3772C88.8702 29.3772 87.6637 29.1383 86.5446 28.6603C85.4254 28.1707 84.4345 27.5004 83.5719 26.6494C82.7209 25.7867 82.0564 24.7958 81.5784 23.6767C81.1005 22.5575 80.8615 21.351 80.8615 20.057C80.8615 18.8096 81.0946 17.6322 81.5609 16.5247C82.0272 15.4172 82.6742 14.4497 83.5019 13.622C84.3413 12.7826 85.3088 12.1298 86.4047 11.6635C87.5005 11.1855 88.6721 10.9466 89.9194 10.9466C91.3067 10.9466 92.5191 11.273 93.5566 11.9258C94.6058 12.567 95.4451 13.4005 96.0747 14.4263L95.9697 11.4362ZM90.2342 26.5269C91.4 26.5269 92.4025 26.2355 93.2419 25.6526C94.0812 25.0697 94.7165 24.2887 95.1479 23.3094C95.5909 22.3302 95.789 21.246 95.7424 20.057C95.6958 18.8912 95.4218 17.8362 94.9205 16.8919C94.4193 15.9477 93.7431 15.2016 92.8921 14.6537C92.0411 14.0941 91.0502 13.8143 89.9194 13.8143C88.7653 13.8143 87.7161 14.1058 86.7719 14.6886C85.8276 15.2715 85.0874 16.0526 84.5511 17.0318C84.0265 18.0111 83.7875 19.101 83.8342 20.3018C83.8925 21.4559 84.2189 22.5051 84.8134 23.4493C85.4079 24.3936 86.1773 25.1455 87.1216 25.7051C88.0775 26.253 89.1151 26.5269 90.2342 26.5269Z" fill="#6F6E73"/>
<path d="M117.577 28.9226H114.185L109.533 20.8963L106.316 24.7433V28.9226H103.395V2.69296H106.316V20.1794L113.642 11.4362H117.489L111.544 18.5182L117.577 28.9226Z" fill="#6F6E73"/>
<path d="M134.016 11.4362H136.954V28.9226H133.999L133.894 25.9674C133.346 26.9816 132.588 27.8035 131.621 28.433C130.665 29.0625 129.528 29.3772 128.211 29.3772C126.917 29.3772 125.71 29.1383 124.591 28.6603C123.472 28.1707 122.481 27.5004 121.618 26.6494C120.767 25.7867 120.103 24.7958 119.625 23.6767C119.147 22.5575 118.908 21.351 118.908 20.057C118.908 18.8096 119.141 17.6322 119.608 16.5247C120.074 15.4172 120.721 14.4497 121.549 13.622C122.388 12.7826 123.355 12.1298 124.451 11.6635C125.547 11.1855 126.719 10.9466 127.966 10.9466C129.353 10.9466 130.566 11.273 131.603 11.9258C132.652 12.567 133.492 13.4005 134.121 14.4263L134.016 11.4362ZM128.281 26.5269C129.447 26.5269 130.449 26.2355 131.288 25.6526C132.128 25.0697 132.763 24.2887 133.194 23.3094C133.637 22.3302 133.836 21.246 133.789 20.057C133.742 18.8912 133.468 17.8362 132.967 16.8919C132.466 15.9477 131.79 15.2016 130.939 14.6537C130.088 14.0941 129.097 13.8143 127.966 13.8143C126.812 13.8143 125.763 14.1058 124.818 14.6886C123.874 15.2715 123.134 16.0526 122.598 17.0318C122.073 18.0111 121.834 19.101 121.881 20.3018C121.939 21.4559 122.265 22.5051 122.86 23.4493C123.455 24.3936 124.224 25.1455 125.168 25.7051C126.124 26.253 127.162 26.5269 128.281 26.5269Z" fill="#6F6E73"/>
<path d="M146.653 29.2548C145.709 29.2199 144.788 29.045 143.89 28.7302C143.004 28.4038 142.223 27.9667 141.547 27.4188C140.882 26.8592 140.399 26.218 140.096 25.4952L142.614 24.4111C142.789 24.8074 143.103 25.1805 143.558 25.5302C144.013 25.8799 144.537 26.1597 145.132 26.3696C145.726 26.5794 146.327 26.6843 146.933 26.6843C147.574 26.6843 148.174 26.5852 148.734 26.3871C149.293 26.1889 149.748 25.8974 150.098 25.5127C150.459 25.1164 150.64 24.6442 150.64 24.0963C150.64 23.5135 150.442 23.0588 150.045 22.7324C149.661 22.3943 149.171 22.132 148.577 21.9455C147.994 21.7473 147.399 21.5608 146.793 21.3859C145.592 21.0828 144.52 20.7215 143.575 20.3018C142.631 19.8705 141.885 19.3284 141.337 18.6755C140.801 18.0111 140.533 17.1659 140.533 16.14C140.533 15.0559 140.83 14.1174 141.425 13.3247C142.031 12.532 142.823 11.92 143.803 11.4886C144.782 11.0573 145.831 10.8416 146.95 10.8416C148.361 10.8416 149.649 11.1447 150.815 11.7509C151.981 12.3571 152.849 13.179 153.42 14.2165L151.06 15.5979C150.861 15.1783 150.558 14.811 150.15 14.4963C149.742 14.1699 149.276 13.9134 148.751 13.7269C148.227 13.5404 147.691 13.4413 147.143 13.4296C146.466 13.4063 145.831 13.4937 145.237 13.6919C144.654 13.8901 144.182 14.1932 143.82 14.6012C143.47 14.9976 143.296 15.493 143.296 16.0876C143.296 16.6704 143.482 17.1134 143.855 17.4165C144.24 17.7196 144.735 17.9644 145.342 18.151C145.959 18.3258 146.63 18.5298 147.352 18.763C148.413 19.101 149.404 19.4916 150.325 19.9346C151.246 20.3776 151.986 20.9313 152.546 21.5958C153.117 22.2603 153.397 23.0821 153.385 24.0614C153.385 25.1339 153.065 26.0723 152.424 26.8767C151.782 27.6694 150.949 28.2756 149.923 28.6953C148.909 29.1149 147.819 29.3015 146.653 29.2548Z" fill="#6F6E73"/>
<path d="M172.337 19.6373V28.9226H169.4V19.7072C169.4 18.6231 169.172 17.6322 168.718 16.7346C168.275 15.8369 167.668 15.1258 166.899 14.6012C166.141 14.0766 165.302 13.8143 164.381 13.8143C163.413 13.8143 162.562 14.0766 161.828 14.6012C161.105 15.1258 160.54 15.8369 160.132 16.7346C159.735 17.6322 159.537 18.6231 159.537 19.7072V28.9226H156.582V2.69296H159.52V13.8843C160.068 12.8584 160.779 12.1181 161.653 11.6635C162.527 11.1972 163.518 10.964 164.626 10.964C166.153 10.964 167.488 11.3604 168.63 12.1531C169.784 12.9458 170.682 14.0008 171.323 15.3182C171.976 16.6355 172.314 18.0752 172.337 19.6373Z" fill="#6F6E73"/>
<defs>
<clipPath id="clip0_301_2007">
<rect width="55.3253" height="32" fill="white"/>
</clipPath>
</defs>
</svg>
