<svg width="12" height="12" viewBox="0 0 12 12" fill="none" xmlns="http://www.w3.org/2000/svg">
<path d="M2 3V2C3.5913 2 5.11742 2.63214 6.24264 3.75736C7.36786 4.88258 8 6.4087 8 8H7C7 7.34339 6.87067 6.69321 6.6194 6.08658C6.36812 5.47995 5.99983 4.92876 5.53553 4.46447C5.07124 4.00017 4.52005 3.63188 3.91342 3.3806C3.30679 3.12933 2.65661 3 2 3ZM2 5V4C3.06087 4 4.07828 4.42143 4.82843 5.17157C5.57857 5.92172 6 6.93913 6 8H5C5 7.20435 4.68393 6.44129 4.12132 5.87868C3.55871 5.31607 2.79565 5 2 5ZM2 6C2.53043 6 3.03914 6.21071 3.41421 6.58579C3.78929 6.96086 4 7.46957 4 8H2V6ZM1.5 9H9.5V8L11 9.5L9.5 11V10H1.5V9Z" fill="#6F6E73"/>
</svg>
