<svg width="24" height="24" viewBox="0 0 24 24" fill="none" xmlns="http://www.w3.org/2000/svg">
<path d="M12 22.8534C12.42 22.8437 12.823 22.6858 13.1378 22.4077C13.4525 22.1295 13.6588 21.749 13.72 21.3334H10.2134C10.2764 21.7602 10.4923 22.1497 10.8209 22.4293C11.1496 22.7089 11.5686 22.8596 12 22.8534Z" fill="white"/>
<path d="M21.6734 18.5534C21.0306 17.9802 20.4677 17.3232 20.0001 16.6C19.4896 15.6017 19.1836 14.5115 19.1001 13.3934V10.1C19.0974 9.69998 19.0617 9.30085 18.9934 8.90668C18.4687 8.80179 17.9644 8.61268 17.5001 8.34668C17.6771 8.91658 17.767 9.50994 17.7668 10.1067V13.4C17.8485 14.764 18.2237 16.0943 18.8668 17.3C19.327 18.0294 19.8732 18.7008 20.4934 19.3H3.42011C4.04039 18.7008 4.58651 18.0294 5.04678 17.3C5.68986 16.0943 6.06507 14.764 6.14678 13.4V10.1C6.14327 9.32847 6.29199 8.56382 6.58441 7.84983C6.87683 7.13584 7.30722 6.48655 7.85092 5.93913C8.39463 5.3917 9.04098 4.9569 9.75296 4.65963C10.4649 4.36235 11.2286 4.20843 12.0001 4.20668C13.1293 4.20759 14.2331 4.54152 15.1734 5.16668C15.0698 4.78601 15.0116 4.39439 15.0001 4.00002V3.58002C14.304 3.23759 13.5562 3.01234 12.7868 2.91335V2.07335C12.7868 1.83731 12.693 1.61093 12.5261 1.44402C12.3592 1.27712 12.1328 1.18335 11.8968 1.18335C11.6607 1.18335 11.4344 1.27712 11.2675 1.44402C11.1005 1.61093 11.0068 1.83731 11.0068 2.07335V2.94668C9.28393 3.18972 7.70716 4.04785 6.56759 5.36264C5.42803 6.67743 4.8026 8.36011 4.80678 10.1V13.3934C4.72328 14.5115 4.4173 15.6017 3.90678 16.6C3.44737 17.3216 2.89358 17.9785 2.26011 18.5534C2.189 18.6158 2.13201 18.6927 2.09293 18.7789C2.05384 18.8651 2.03357 18.9587 2.03345 19.0534V19.96C2.03345 20.1368 2.10369 20.3064 2.22871 20.4314C2.35373 20.5564 2.5233 20.6267 2.70011 20.6267H21.2334C21.4103 20.6267 21.5798 20.5564 21.7049 20.4314C21.8299 20.3064 21.9001 20.1368 21.9001 19.96V19.0534C21.9 18.9587 21.8797 18.8651 21.8406 18.7789C21.8016 18.6927 21.7446 18.6158 21.6734 18.5534Z" fill="white"/>
<path d="M20.0001 7.33329C21.841 7.33329 23.3334 5.84091 23.3334 3.99996C23.3334 2.15901 21.841 0.666626 20.0001 0.666626C18.1591 0.666626 16.6667 2.15901 16.6667 3.99996C16.6667 5.84091 18.1591 7.33329 20.0001 7.33329Z" fill="white"/>
</svg>
