<svg width="18" height="18" viewBox="0 0 18 18" fill="none" xmlns="http://www.w3.org/2000/svg">
<path d="M9 15.75C8.8738 15.7497 8.74773 15.7414 8.62257 15.7252C7.46654 13.8729 6.82647 11.7452 6.76857 9.5625H16.8469C16.8604 9.37575 16.875 9.18956 16.875 9C16.875 7.44247 16.4131 5.91992 15.5478 4.62488C14.6825 3.32985 13.4526 2.32049 12.0136 1.72445C10.5747 1.12841 8.99127 0.972457 7.46367 1.27632C5.93607 1.58017 4.53288 2.3302 3.43154 3.43153C2.3302 4.53287 1.58018 5.93606 1.27632 7.46366C0.972461 8.99126 1.12841 10.5747 1.72445 12.0136C2.32049 13.4526 3.32985 14.6825 4.62489 15.5478C5.91992 16.4131 7.44248 16.875 9 16.875V15.75ZM15.7219 8.4375H12.3542C12.2937 6.36768 11.7642 4.33859 10.8056 2.50312C12.1323 2.87332 13.3141 3.6401 14.1927 4.70072C15.0714 5.76135 15.6049 7.06517 15.7219 8.4375ZM9.37688 2.27475C10.5331 4.12708 11.1734 6.25471 11.2314 8.4375H6.76857C6.82664 6.25471 7.46691 4.12708 8.62313 2.27475C8.87368 2.24188 9.12745 2.24188 9.378 2.27475H9.37688ZM7.19382 2.50256C6.2354 4.33826 5.70611 6.36754 5.64582 8.4375H2.27813C2.39516 7.06519 2.92873 5.76141 3.80738 4.7008C4.68603 3.64019 5.86779 2.87339 7.19438 2.50312L7.19382 2.50256ZM2.27813 9.5625H5.64582C5.70637 11.6323 6.23585 13.6614 7.19438 15.4969C5.86779 15.1266 4.68603 14.3598 3.80738 13.2992C2.92873 12.2386 2.39516 10.9348 2.27813 9.5625Z" fill="#6F6E73"/>
<path fill-rule="evenodd" clip-rule="evenodd" d="M14.0625 14.0625L16.875 15.1875V14.0625L14.0625 12.6562V11.25C14.0625 11.1008 14.0032 10.9577 13.8977 10.8523C13.7923 10.7468 13.6492 10.6875 13.5 10.6875C13.3508 10.6875 13.2077 10.7468 13.1023 10.8523C12.9968 10.9577 12.9375 11.1008 12.9375 11.25V12.6562L10.125 14.0625V15.1875L12.9375 14.0625V16.0312L11.8125 16.875V17.4375L13.5 16.875L15.1875 17.4375V16.875L14.0625 16.0312V14.0625Z" fill="#6F6E73"/>
</svg>
