<svg width="40" height="40" viewBox="0 0 40 40" fill="none" xmlns="http://www.w3.org/2000/svg">
<circle cx="20" cy="20" r="20" fill="#FDE8DD"/>
<path d="M28.5 10H11.5C11.1022 10 10.7206 10.158 10.4393 10.4393C10.158 10.7206 10 11.1022 10 11.5V28.5C10 28.8978 10.158 29.2794 10.4393 29.5607C10.7206 29.842 11.1022 30 11.5 30H28.5C28.8978 30 29.2794 29.842 29.5607 29.5607C29.842 29.2794 30 28.8978 30 28.5V11.5C30 11.1022 29.842 10.7206 29.5607 10.4393C29.2794 10.158 28.8978 10 28.5 10V10Z" stroke="#F75506" stroke-width="1.5" stroke-linejoin="round"/>
<path d="M14 17.527C15.6625 15.527 17.6625 14.527 20 14.527C22.3375 14.527 24.3375 15.527 26 17.527" stroke="#F75506" stroke-width="1.5" stroke-linecap="round"/>
<path d="M20 23.5C20.3978 23.5 20.7794 23.342 21.0607 23.0607C21.342 22.7794 21.5 22.3978 21.5 22C21.5 21.6022 21.342 21.2206 21.0607 20.9393C20.7794 20.658 20.3978 20.5 20 20.5C19.6022 20.5 19.2206 20.658 18.9393 20.9393C18.658 21.2206 18.5 21.6022 18.5 22C18.5 22.3978 18.658 22.7794 18.9393 23.0607C19.2206 23.342 19.6022 23.5 20 23.5Z" fill="#F75506"/>
<path d="M17.5 18.5L20.004 22" stroke="#F75506" stroke-width="1.5" stroke-linecap="round"/>
</svg>
