<svg width="18" height="18" viewBox="0 0 18 18" fill="none" xmlns="http://www.w3.org/2000/svg">
<path d="M4.5 6.93375C5.84619 6.93375 6.9375 5.84026 6.9375 4.49137C6.9375 3.14248 5.84619 2.049 4.5 2.049C3.15381 2.049 2.0625 3.14248 2.0625 4.49137C2.0625 5.84026 3.15381 6.93375 4.5 6.93375Z" stroke="#6F6E73" stroke-width="0.8" stroke-linecap="round" stroke-linejoin="round"/>
<path d="M4.89795 4.89L6.8457 6.8415M4.89795 4.09275L5.56357 3.426L4.89795 4.09275Z" stroke="#6F6E73" stroke-width="0.8" stroke-linecap="round" stroke-linejoin="round"/>
<path d="M4.5 5.05387C4.81066 5.05387 5.0625 4.80203 5.0625 4.49137C5.0625 4.18071 4.81066 3.92887 4.5 3.92887C4.18934 3.92887 3.9375 4.18071 3.9375 4.49137C3.9375 4.80203 4.18934 5.05387 4.5 5.05387Z" stroke="#6F6E73" stroke-width="0.8" stroke-linecap="round" stroke-linejoin="round"/>
<path d="M3.43652 5.55675L4.10252 4.89" stroke="#6F6E73" stroke-width="0.8" stroke-linecap="round" stroke-linejoin="round"/>
<path d="M13.5 6.93375C14.8462 6.93375 15.9375 5.84026 15.9375 4.49137C15.9375 3.14248 14.8462 2.049 13.5 2.049C12.1538 2.049 11.0625 3.14248 11.0625 4.49137C11.0625 5.84026 12.1538 6.93375 13.5 6.93375Z" stroke="#6F6E73" stroke-width="0.8" stroke-linecap="round" stroke-linejoin="round"/>
<path d="M13.102 4.89L11.1543 6.8415M13.8978 4.89L14.5634 5.55675L13.8978 4.89Z" stroke="#6F6E73" stroke-width="0.8" stroke-linecap="round" stroke-linejoin="round"/>
<path d="M13.5 5.05387C13.8107 5.05387 14.0625 4.80203 14.0625 4.49137C14.0625 4.18071 13.8107 3.92887 13.5 3.92887C13.1893 3.92887 12.9375 4.18071 12.9375 4.49137C12.9375 4.80203 13.1893 5.05387 13.5 5.05387Z" stroke="#6F6E73" stroke-width="0.8" stroke-linecap="round" stroke-linejoin="round"/>
<path d="M12.4365 3.426L13.1025 4.09275" stroke="#6F6E73" stroke-width="0.8" stroke-linecap="round" stroke-linejoin="round"/>
<path d="M13.5 15.951C14.8462 15.951 15.9375 14.8575 15.9375 13.5086C15.9375 12.1597 14.8462 11.0663 13.5 11.0663C12.1538 11.0663 11.0625 12.1597 11.0625 13.5086C11.0625 14.8575 12.1538 15.951 13.5 15.951Z" stroke="#6F6E73" stroke-width="0.8" stroke-linecap="round" stroke-linejoin="round"/>
<path d="M13.102 13.11L11.1543 11.1585M13.102 13.9072L12.4364 14.574L13.102 13.9072Z" stroke="#6F6E73" stroke-width="0.8" stroke-linecap="round" stroke-linejoin="round"/>
<path d="M13.5 14.0711C13.8107 14.0711 14.0625 13.8193 14.0625 13.5086C14.0625 13.198 13.8107 12.9461 13.5 12.9461C13.1893 12.9461 12.9375 13.198 12.9375 13.5086C12.9375 13.8193 13.1893 14.0711 13.5 14.0711Z" stroke="#6F6E73" stroke-width="0.8" stroke-linecap="round" stroke-linejoin="round"/>
<path d="M14.5635 12.4433L13.8975 13.1104" stroke="#6F6E73" stroke-width="0.8" stroke-linecap="round" stroke-linejoin="round"/>
<path d="M4.5 15.951C5.84619 15.951 6.9375 14.8575 6.9375 13.5086C6.9375 12.1597 5.84619 11.0663 4.5 11.0663C3.15381 11.0663 2.0625 12.1597 2.0625 13.5086C2.0625 14.8575 3.15381 15.951 4.5 15.951Z" stroke="#6F6E73" stroke-width="0.8" stroke-linecap="round" stroke-linejoin="round"/>
<path d="M4.8979 13.11L6.84565 11.1585M4.10215 13.11L3.43652 12.4432L4.10215 13.11Z" stroke="#6F6E73" stroke-width="0.8" stroke-linecap="round" stroke-linejoin="round"/>
<path d="M4.5 14.0711C4.81066 14.0711 5.0625 13.8193 5.0625 13.5086C5.0625 13.198 4.81066 12.9461 4.5 12.9461C4.18934 12.9461 3.9375 13.198 3.9375 13.5086C3.9375 13.8193 4.18934 14.0711 4.5 14.0711Z" stroke="#6F6E73" stroke-width="0.8" stroke-linecap="round" stroke-linejoin="round"/>
<path d="M5.56346 14.574L4.89746 13.9072L5.56346 14.574ZM6.84559 6.8415C8.27107 7.09015 9.72885 7.09015 11.1543 6.8415V6.8415L11.1521 6.85387C10.9054 8.27399 10.9054 9.72601 11.1521 11.1461L11.1543 11.1585C9.72885 10.9099 8.27107 10.9099 6.84559 11.1585V11.1585L6.84784 11.1461C7.09455 9.72601 7.09455 8.27399 6.84784 6.85387L6.84559 6.8415Z" stroke="#6F6E73" stroke-width="0.8" stroke-linecap="round" stroke-linejoin="round"/>
</svg>
