<svg width="18" height="18" viewBox="0 0 18 18" fill="none" xmlns="http://www.w3.org/2000/svg">
<path d="M15.3893 4.683C15.3893 4.59229 15.3715 4.50247 15.3368 4.41866C15.302 4.33485 15.2512 4.25871 15.187 4.19456C15.1229 4.13042 15.0467 4.07954 14.9629 4.04483C14.8791 4.01012 14.7893 3.99225 14.6986 3.99225H3.30159C3.21088 3.99225 3.12106 4.01012 3.03725 4.04483C2.95345 4.07954 2.8773 4.13042 2.81316 4.19456C2.74901 4.25871 2.69813 4.33485 2.66342 4.41866C2.62871 4.50247 2.61084 4.59229 2.61084 4.683V13.317C2.61084 13.5002 2.68362 13.6759 2.81316 13.8054C2.9427 13.935 3.11839 14.0077 3.30159 14.0077H14.6986C14.8818 14.0077 15.0575 13.935 15.187 13.8054C15.3166 13.6759 15.3893 13.5002 15.3893 13.317V4.683Z" stroke="#6F6E73" stroke-width="0.8" stroke-linecap="round" stroke-linejoin="round"/>
<path d="M4.8554 6.0645H13.144M4.8554 8.02162H13.144M4.8554 9.97837H13.144M4.8554 11.9355H8.9999M14.2724 3.99225L14.0542 3.17625C14.0067 2.99932 13.8909 2.84849 13.7323 2.75693C13.5736 2.66537 13.3851 2.64057 13.2081 2.688L8.34065 3.99225H14.2724ZM15.3891 12.4725L15.8001 12.3622C15.8878 12.3388 15.9699 12.2983 16.0419 12.2431C16.1139 12.1879 16.1743 12.119 16.2197 12.0405C16.2651 11.9619 16.2945 11.8752 16.3064 11.7852C16.3182 11.6953 16.3123 11.6039 16.2888 11.5162L15.3888 8.15887L15.3891 12.4725ZM3.7274 14.0077L3.94565 14.8234C3.96911 14.911 4.0096 14.9932 4.06481 15.0652C4.12002 15.1371 4.18888 15.1975 4.26744 15.2429C4.346 15.2883 4.43273 15.3178 4.52267 15.3296C4.61262 15.3415 4.70402 15.3355 4.79165 15.312L9.65915 14.0077H3.7274ZM2.61065 5.5275L2.19965 5.63775C2.11201 5.6612 2.02985 5.70169 1.95787 5.75691C1.88588 5.81212 1.82547 5.88097 1.7801 5.95953C1.73473 6.03809 1.70527 6.12482 1.69342 6.21477C1.68157 6.30471 1.68755 6.39611 1.71103 6.48375L2.61628 9.86175L2.61065 5.5275Z" stroke="#6F6E73" stroke-width="0.8" stroke-linecap="round" stroke-linejoin="round"/>
</svg>
