<svg width="18" height="18" viewBox="0 0 18 18" fill="none" xmlns="http://www.w3.org/2000/svg">
<path d="M4.92188 13.2188H6.32812C6.40547 13.2188 6.46875 13.1555 6.46875 13.0781V4.92188C6.46875 4.84453 6.40547 4.78125 6.32812 4.78125H4.92188C4.84453 4.78125 4.78125 4.84453 4.78125 4.92188V13.0781C4.78125 13.1555 4.84453 13.2188 4.92188 13.2188ZM8.29688 8.29688H9.70312C9.78047 8.29688 9.84375 8.23359 9.84375 8.15625V4.92188C9.84375 4.84453 9.78047 4.78125 9.70312 4.78125H8.29688C8.21953 4.78125 8.15625 4.84453 8.15625 4.92188V8.15625C8.15625 8.23359 8.21953 8.29688 8.29688 8.29688ZM11.6719 9.5625H13.0781C13.1555 9.5625 13.2188 9.49922 13.2188 9.42188V4.92188C13.2188 4.84453 13.1555 4.78125 13.0781 4.78125H11.6719C11.5945 4.78125 11.5312 4.84453 11.5312 4.92188V9.42188C11.5312 9.49922 11.5945 9.5625 11.6719 9.5625ZM15.4688 1.96875H2.53125C2.22012 1.96875 1.96875 2.22012 1.96875 2.53125V15.4688C1.96875 15.7799 2.22012 16.0312 2.53125 16.0312H15.4688C15.7799 16.0312 16.0312 15.7799 16.0312 15.4688V2.53125C16.0312 2.22012 15.7799 1.96875 15.4688 1.96875ZM14.7656 14.7656H3.23438V3.23438H14.7656V14.7656Z" fill="#6F6E73"/>
</svg>
