<svg width="20" height="20" viewBox="0 0 20 20" fill="none" xmlns="http://www.w3.org/2000/svg">
<path d="M9.2 19.6001V18.8001H11.6V19.6001L11.0667 20.0001H9.73333L9.2 19.6001Z" fill="white"/>
<path d="M0 8.08759H2.4" stroke="white" stroke-width="1.5"/>
<path d="M3.125 15.4948L4.78228 13.8375" stroke="white" stroke-width="1.5"/>
<path d="M2.8 0.800079L4.45728 2.45736" stroke="white" stroke-width="1.5"/>
<path d="M16.8573 15.6573L15.2 14" stroke="white" stroke-width="1.5"/>
<path d="M11.2309 2.08759H8.6906C7.26173 2.24378 4.27691 3.83692 4.40392 7.71044C4.56269 12.5523 8.05553 12.3962 8.05553 14.5828C8.05553 16.3322 8.05553 17.9149 8.05553 18.4876H12.501V15.52M15.2 10.2095C14.8825 11.3028 13.9299 12.24 13.136 13.1771C12.501 13.9268 12.501 14.2704 12.501 14.5828V15.52M8.05553 15.52H12.501" stroke="white" stroke-width="1.5"/>
<path d="M15.8793 0.400177V1.5775" stroke="white" stroke-width="1.5"/>
<path d="M15.8793 7.66043V8.83776" stroke="white" stroke-width="1.5"/>
<path d="M13.5386 6.67929L12.7061 7.51179" stroke="white" stroke-width="1.5"/>
<path d="M18.8703 1.57742L18.0378 2.40992" stroke="white" stroke-width="1.5"/>
<path d="M20 4.71707L18.8227 4.71707" stroke="white" stroke-width="1.5"/>
<path d="M12.7398 4.71707L11.5625 4.71707" stroke="white" stroke-width="1.5"/>
<path d="M13.7349 2.37634L12.9024 1.54385" stroke="white" stroke-width="1.5"/>
<path d="M18.674 7.70801L17.8415 6.87551" stroke="white" stroke-width="1.5"/>
<circle cx="15.7813" cy="4.61887" r="2.48765" stroke="white" stroke-width="1.5"/>
</svg>
