<svg width="475" height="1024" viewBox="0 0 475 1024" fill="none" xmlns="http://www.w3.org/2000/svg">
<rect width="475" height="1024" fill="#F97738"/>
<g style="mix-blend-mode:multiply" opacity="0.6">
<path d="M471.079 370.498V427.438H359C361.48 411.556 370.451 399.78 381.136 399.78C386.296 399.78 391.056 402.533 394.884 407.148C399.477 393.287 408.582 383.85 419.067 383.85C424.576 383.85 429.686 386.46 433.98 390.932C439.872 377.087 449.791 368 461.042 368C464.538 368 467.916 368.875 471.079 370.498Z" fill="#F5F5F5"/>
</g>
<g style="mix-blend-mode:multiply" opacity="0.6">
<path d="M105.55 728.656C105.55 730.114 105.44 731.542 105.251 732.925H0V710.755C3.42918 709.568 7.20443 708.921 11.1527 708.921C17.0515 708.921 22.5256 710.379 27.1189 712.859C29.211 697.543 38.6334 686 49.9434 686C61.4107 686 70.9275 697.859 72.8623 713.475C76.2443 708.095 81.3723 704.668 87.1296 704.668C97.307 704.668 105.55 715.414 105.55 728.656Z" fill="#F7F7F7"/>
</g>
<g style="mix-blend-mode:multiply" opacity="0.6">
<path d="M142.546 351.823C142.546 353.799 142.398 355.734 142.143 357.609H0V327.557C4.63117 325.947 9.7297 325.071 15.0619 325.071C23.0284 325.071 30.4212 327.047 36.6245 330.409C39.4499 309.648 52.175 294 67.4493 294C82.9361 294 95.7887 310.075 98.4017 331.244C102.969 323.95 109.895 319.305 117.67 319.305C131.415 319.305 142.546 333.873 142.546 351.823Z" fill="#F7F7F7"/>
</g>
<g style="mix-blend-mode:multiply">
<path d="M92.229 446.61C89.2683 446.396 86.7318 447.781 86.5437 449.692L97.2552 450.453C97.4433 448.541 95.1896 446.823 92.229 446.61Z" fill="#D8D8D8"/>
<path d="M96.3947 444.375C97.769 441.855 100.361 440.513 102.171 441.378L97.1937 450.514C95.372 449.65 95.0204 446.896 96.3947 444.375Z" fill="#D8D8D8"/>
</g>
<g style="mix-blend-mode:multiply">
<path d="M406.685 502.925C405.233 500.477 402.6 499.316 400.802 500.308L406.067 509.157C407.864 508.164 408.137 505.373 406.685 502.925Z" fill="#D8D8D8"/>
<path d="M411.021 504.967C413.953 504.549 416.526 505.769 416.761 507.68L406.134 509.198C405.892 507.277 408.088 505.385 411.021 504.967Z" fill="#D8D8D8"/>
</g>
</svg>
