<svg width="421" height="720" viewBox="0 0 421 720" fill="none" xmlns="http://www.w3.org/2000/svg">
<rect width="421" height="720" fill="#F97738"/>
<g style="mix-blend-mode:multiply" opacity="0.6">
<path d="M420.9 293.757V333.792H334C335.923 322.625 342.878 314.345 351.163 314.345C355.164 314.345 358.854 316.281 361.822 319.526C365.384 309.78 372.443 303.145 380.573 303.145C384.844 303.145 388.806 304.98 392.135 308.124C396.704 298.389 404.395 292 413.118 292C415.828 292 418.448 292.615 420.9 293.757Z" fill="#F5F5F5"/>
</g>
<g style="mix-blend-mode:multiply" opacity="0.6">
<path d="M420.778 519.017V542.196H371C372.101 535.73 376.086 530.937 380.831 530.937C383.123 530.937 385.237 532.057 386.937 533.936C388.977 528.294 393.021 524.452 397.678 524.452C400.124 524.452 402.394 525.515 404.301 527.335C406.918 521.699 411.323 518 416.32 518C417.873 518 419.373 518.356 420.778 519.017Z" fill="#F5F5F5"/>
</g>
<g style="mix-blend-mode:multiply" opacity="0.6">
<path d="M81.8377 473.993C81.8377 475.018 81.7523 476.022 81.6059 476.994H0V461.406C2.65881 460.571 5.58594 460.116 8.64723 460.116C13.2209 460.116 17.4652 461.142 21.0265 462.885C22.6487 452.116 29.9543 444 38.7235 444C47.6146 444 54.9934 452.338 56.4936 463.319C59.1158 459.535 63.0918 457.126 67.5557 457.126C75.4468 457.126 81.8377 464.682 81.8377 473.993Z" fill="#F7F7F7"/>
</g>
<g style="mix-blend-mode:multiply" opacity="0.6">
<path d="M110.523 260.657C110.523 262.046 110.408 263.407 110.21 264.725H0V243.595C3.59076 242.463 7.5439 241.847 11.6782 241.847C17.855 241.847 23.587 243.236 28.3967 245.6C30.5874 231.002 40.4537 220 52.2967 220C64.3043 220 74.2695 231.303 76.2955 246.188C79.8368 241.059 85.2065 237.793 91.235 237.793C101.892 237.793 110.523 248.036 110.523 260.657Z" fill="#F7F7F7"/>
</g>
<g style="mix-blend-mode:multiply">
<path d="M70.9671 318.387C68.8241 319.132 67.5662 320.785 68.1399 322.079L75.8884 319.374C75.3148 318.081 73.1101 317.641 70.9671 318.387Z" fill="#D8D8D8"/>
<path d="M66.8989 317.509C68.4307 318.944 68.7698 320.916 67.6599 321.903L62.106 316.703C63.2183 315.708 65.367 316.074 66.8989 317.509Z" fill="#D8D8D8"/>
</g>
<g style="mix-blend-mode:multiply">
<path d="M349.863 462.323C348.695 460.577 346.656 459.684 345.308 460.313L349.543 466.626C350.891 465.997 351.031 464.069 349.863 462.323Z" fill="#D8D8D8"/>
<path d="M353.202 463.648C355.469 463.45 357.499 464.407 357.729 465.777L349.51 466.498C349.274 465.121 350.934 463.846 353.202 463.648Z" fill="#D8D8D8"/>
</g>
</svg>
