<svg width="24" height="24" viewBox="0 0 24 24" fill="none" xmlns="http://www.w3.org/2000/svg">
<path d="M12.0666 7.33337C9.46657 7.33337 7.3999 9.40004 7.3999 12C7.3999 14.6 9.46657 16.6667 12.0666 16.6667C14.6666 16.6667 16.7332 14.6 16.7332 12C16.7332 9.40004 14.6666 7.33337 12.0666 7.33337ZM12.0666 15.3334C10.1999 15.3334 8.73324 13.8667 8.73324 12C8.73324 10.1334 10.1999 8.66671 12.0666 8.66671C13.9332 8.66671 15.3999 10.1334 15.3999 12C15.3999 13.8667 13.9332 15.3334 12.0666 15.3334Z" fill="white"/>
<path d="M21.8666 9.80004L19.9999 9.20004L19.5999 8.20004L20.5333 6.46671C20.7332 6.06671 20.6666 5.53337 20.3333 5.20004L18.7333 3.60004C18.3999 3.26671 17.8666 3.20004 17.4666 3.40004L15.7333 4.33337L14.7333 3.93337L14.1333 2.06671C13.9999 1.66671 13.5999 1.33337 13.1333 1.33337H10.8666C10.3999 1.33337 9.99992 1.66671 9.93325 2.13337L9.33325 4.00004C8.93325 4.06671 8.59992 4.20004 8.26658 4.40004L6.53325 3.46671C6.13325 3.26671 5.59992 3.33337 5.26659 3.66671L3.66659 5.26671C3.33325 5.60004 3.26658 6.13337 3.46658 6.53337L4.33325 8.20004C4.19992 8.53337 4.06659 8.93337 3.93325 9.26671L2.06659 9.86671C1.66659 10 1.33325 10.4 1.33325 10.8667V13.1334C1.33325 13.6 1.66659 14 2.13325 14.1334L3.99992 14.7334L4.39992 15.7334L3.46658 17.4667C3.26658 17.8667 3.33325 18.4 3.66659 18.7334L5.26659 20.3334C5.59992 20.6667 6.13325 20.7334 6.53325 20.5334L8.26658 19.6L9.26658 20L9.86658 21.9334C9.99992 22.3334 10.3999 22.6667 10.8666 22.6667H13.1333C13.5999 22.6667 13.9999 22.3334 14.1333 21.9334L14.7333 20L15.7333 19.6L17.4666 20.5334C17.8666 20.7334 18.3999 20.6667 18.7333 20.3334L20.3333 18.7334C20.6666 18.4 20.7332 17.8667 20.5333 17.4667L19.5999 15.7334L19.9999 14.7334L21.9333 14.1334C22.3333 14 22.6666 13.6 22.6666 13.1334V10.8667C22.6666 10.4 22.3333 9.93337 21.8666 9.80004ZM21.3333 12.9334L18.9333 13.6667L18.8666 14L18.2666 15.4L18.0666 15.7334L19.2666 17.9334L17.9333 19.2667L15.7333 18.0667L15.3999 18.2667C14.9333 18.5334 14.4666 18.7334 13.9999 18.8667L13.6666 18.9334L12.9333 21.3334H11.0666L10.3333 18.9334L9.99992 18.8667L8.59992 18.2667L8.26658 18.0667L6.06659 19.2667L4.73325 17.9334L5.93325 15.7334L5.73325 15.4C5.46659 14.9334 5.26658 14.4667 5.13325 14L5.06659 13.6667L2.66659 12.9334V11.0667L4.93325 10.4L5.06659 10.0667C5.19992 9.53337 5.39992 9.06671 5.66658 8.60004L5.86659 8.26671L4.73325 6.06671L6.06659 4.73337L8.19992 5.93337L8.53325 5.73337C8.99992 5.46671 9.46659 5.26671 9.99992 5.13337L10.3333 5.00004L11.0666 2.66671H12.9333L13.6666 5.00004L13.9999 5.13337C14.4666 5.26671 14.9333 5.46671 15.3999 5.73337L15.7333 5.93337L17.9333 4.73337L19.2666 6.06671L18.0666 8.26671L18.2666 8.60004C18.5333 9.06671 18.7332 9.53337 18.8666 10L18.9333 10.3334L21.3333 11.0667V12.9334Z" fill="white"/>
</svg>
