<svg width="23" height="19" viewBox="0 0 23 19" fill="none" xmlns="http://www.w3.org/2000/svg">
<circle cx="6.13091" cy="5.10297" r="3.32505" stroke="white" stroke-width="1.5"/>
<path d="M11.2309 13.9845C11.2309 11.2145 8.98539 8.96906 6.21544 8.96906C3.44549 8.96906 1.2 11.2145 1.2 13.9845" stroke="white" stroke-width="1.5"/>
<path d="M11.231 13.9845C11.231 10.8683 13.6038 8.08838 16.6046 8.08838" stroke="white" stroke-width="1.5"/>
<circle cx="16.4006" cy="4.67505" r="3.32505" stroke="white" stroke-width="1.5"/>
<path d="M18.5451 10.014V11.2679" stroke="white" stroke-width="1.5"/>
<path d="M18.5451 17.7462V19.0001" stroke="white" stroke-width="1.5"/>
<path d="M16.0522 16.7013L15.1656 17.5879" stroke="white" stroke-width="1.5"/>
<path d="M21.7303 11.2678L20.8437 12.1544" stroke="white" stroke-width="1.5"/>
<path d="M22.9335 14.6116L21.6797 14.6116" stroke="white" stroke-width="1.5"/>
<path d="M15.2012 14.6116L13.9474 14.6116" stroke="white" stroke-width="1.5"/>
<path d="M16.261 12.1186L15.3744 11.232" stroke="white" stroke-width="1.5"/>
<path d="M21.5213 17.7968L20.6347 16.9102" stroke="white" stroke-width="1.5"/>
<circle cx="18.4405" cy="14.507" r="2.69812" stroke="white" stroke-width="1.5"/>
<circle cx="18.4404" cy="14.5071" r="0.731419" fill="white"/>
</svg>
