<svg width="18" height="18" viewBox="0 0 18 18" fill="none" xmlns="http://www.w3.org/2000/svg">
<path d="M3.91751 3.9006C3.99903 3.82149 4.10864 3.77799 4.22222 3.77968C4.33581 3.78137 4.44408 3.8281 4.52321 3.9096C4.60973 3.99984 4.65721 4.12053 4.65536 4.24553C4.65351 4.37053 4.60247 4.48977 4.51331 4.5774C3.34949 5.75493 2.69773 7.34439 2.69981 9C2.69981 10.791 3.44681 12.4074 4.64741 13.554C4.69377 13.5968 4.73113 13.6485 4.75731 13.7059C4.78349 13.7633 4.79797 13.8254 4.79989 13.8885C4.80182 13.9516 4.79116 14.0144 4.76853 14.0734C4.74591 14.1323 4.71177 14.1861 4.66811 14.2317C4.59069 14.3117 4.48513 14.3583 4.37386 14.3617C4.2626 14.365 4.15442 14.3249 4.07231 14.2497C3.354 13.5771 2.78161 12.764 2.39069 11.8609C1.99976 10.9579 1.79864 9.98406 1.79981 9C1.79981 7.0074 2.60981 5.2038 3.91751 3.9006ZM13.4863 4.5774C13.3973 4.48965 13.3464 4.37035 13.3447 4.24535C13.343 4.12035 13.3907 3.99972 13.4773 3.9096C13.5564 3.82837 13.6645 3.78182 13.7779 3.78013C13.8912 3.77844 14.0006 3.82176 14.0821 3.9006C14.7543 4.56869 15.2875 5.36328 15.6509 6.23851C16.0144 7.11374 16.201 8.0523 16.1998 9C16.1998 11.07 15.3268 12.9366 13.9273 14.2497C13.8452 14.3249 13.737 14.365 13.6258 14.3617C13.5145 14.3583 13.4089 14.3117 13.3315 14.2317C13.288 14.1861 13.254 14.1324 13.2314 14.0735C13.2089 14.0147 13.1983 13.9519 13.2002 13.889C13.2021 13.826 13.2165 13.764 13.2426 13.7067C13.2687 13.6493 13.306 13.5977 13.3522 13.5549C13.9686 12.9673 14.4591 12.2606 14.7939 11.4775C15.1288 10.6945 15.3009 9.8516 15.2998 9C15.3019 7.34412 14.6502 5.75436 13.4863 4.5765V4.5774ZM5.51861 5.481C5.59881 5.40462 5.70607 5.36322 5.81679 5.36592C5.92751 5.36863 6.03263 5.4152 6.10901 5.4954C6.29621 5.6826 6.27731 5.9904 6.09281 6.1794C5.35839 6.93446 4.9482 7.94668 4.94981 9C4.94981 10.161 5.43851 11.2086 6.22241 11.9475C6.42041 12.1338 6.44741 12.4524 6.25391 12.6459C6.17974 12.723 6.07874 12.7686 5.97185 12.7733C5.86496 12.778 5.76035 12.7414 5.67971 12.6711C5.16595 12.2076 4.75537 11.6412 4.47458 11.0088C4.19379 10.3764 4.04907 9.69196 4.04981 9C4.04882 8.34531 4.17818 7.69698 4.43036 7.09281C4.68254 6.48863 5.05248 5.94072 5.51861 5.481ZM11.9068 6.1794C11.7223 5.9904 11.7034 5.6826 11.8906 5.4954C11.967 5.4152 12.0721 5.36863 12.1828 5.36592C12.2935 5.36322 12.4008 5.40462 12.481 5.481C12.947 5.94081 13.3169 6.48874 13.5691 7.09289C13.8212 7.69705 13.9507 8.34534 13.9498 9C13.9508 9.69205 13.8063 10.3766 13.5256 11.0092C13.245 11.6418 12.8345 12.2083 12.3208 12.672C12.2398 12.7426 12.1347 12.7793 12.0274 12.7742C11.9201 12.7692 11.8188 12.7229 11.7448 12.645C11.5522 12.4524 11.5792 12.1338 11.7772 11.9475C12.1796 11.5693 12.5001 11.1126 12.719 10.6057C12.9379 10.0987 13.0505 9.55221 13.0498 9C13.0514 7.94668 12.6412 6.93446 11.9068 6.1794ZM8.99981 7.875C8.70144 7.875 8.41529 7.99353 8.20432 8.2045C7.99334 8.41548 7.87481 8.70163 7.87481 9C7.87481 9.29837 7.99334 9.58452 8.20432 9.7955C8.41529 10.0065 8.70144 10.125 8.99981 10.125C9.29818 10.125 9.58433 10.0065 9.79531 9.7955C10.0063 9.58452 10.1248 9.29837 10.1248 9C10.1248 8.70163 10.0063 8.41548 9.79531 8.2045C9.58433 7.99353 9.29818 7.875 8.99981 7.875Z" fill="#6F6E73"/>
</svg>
